<svg width="1446" height="878" viewBox="0 0 1446 878" fill="none" xmlns="http://www.w3.org/2000/svg">
<path opacity="0.1" fill-rule="evenodd" clip-rule="evenodd" d="M1396.65 1.00058L1.00085 775.487L0.515625 774.612L1396.17 0.126191L1396.65 1.00058Z" fill="black"/>
<path opacity="0.1" fill-rule="evenodd" clip-rule="evenodd" d="M103.59 674.025L959.244 876.947L959.014 877.92L103.359 674.998L103.59 674.025Z" fill="black"/>
<path opacity="0.1" fill-rule="evenodd" clip-rule="evenodd" d="M1984 358.368L1113.69 840.872L1113.21 839.998L1983.52 357.494L1984 358.368Z" fill="black"/>
<g opacity="0.1">
<path fill-rule="evenodd" clip-rule="evenodd" d="M152.579 742.265C168.777 746.053 189.062 742.781 197.888 734.957C206.714 727.133 200.738 717.72 184.54 713.931C168.343 710.143 148.058 713.415 139.232 721.239C130.406 729.063 136.382 738.476 152.579 742.265ZM178.417 719.36C174.868 718.53 170.329 719.766 161.251 722.24L160.13 722.546L152.37 725.29C151.146 725.723 150.533 725.94 150.13 726.13C146.929 727.637 147.038 730.054 150.364 731.349C150.783 731.512 151.412 731.688 152.671 732.04L152.684 732.044C153.817 732.361 154.386 732.52 154.958 732.675C159.256 733.847 163.716 734.89 168.312 735.799C168.923 735.92 169.538 736.037 170.765 736.272L170.777 736.275C172.139 736.536 172.821 736.666 173.356 736.726C177.605 737.203 181.982 735.835 182.808 733.773C182.912 733.513 182.942 733.16 183.002 732.455L183.382 727.984L183.274 727.391C182.402 722.59 181.966 720.19 178.417 719.36Z" fill="black"/>
<path d="M221.591 748.988C219.245 748.439 217.292 747.723 215.732 746.839C214.201 745.961 213.102 744.997 212.434 743.946C211.783 742.88 211.575 741.766 211.812 740.604C212.093 739.435 212.857 738.297 214.103 737.192C215.35 736.087 216.927 735.149 218.835 734.378C220.788 733.599 222.897 733.027 225.163 732.662C227.444 732.283 229.814 732.121 232.272 732.176C234.759 732.239 237.175 732.544 239.521 733.093C241.868 733.642 243.806 734.355 245.337 735.232C246.897 736.116 248.003 737.091 248.655 738.156C249.322 739.208 249.515 740.318 249.233 741.488C248.997 742.65 248.256 743.784 247.009 744.889C245.763 745.994 244.163 746.935 242.21 747.714C240.302 748.485 238.208 749.061 235.926 749.44C233.661 749.806 231.284 749.957 228.797 749.895C226.34 749.839 223.938 749.537 221.591 748.988ZM224.66 746.268C226.126 746.611 227.634 746.802 229.182 746.842C230.76 746.889 232.274 746.796 233.724 746.562C235.204 746.335 236.567 745.964 237.814 745.45C239.106 744.929 240.192 744.279 241.071 743.5C241.949 742.72 242.47 741.947 242.632 741.179C242.839 740.404 242.714 739.677 242.258 738.997C241.831 738.324 241.116 737.709 240.113 737.152C239.14 736.602 237.92 736.156 236.453 735.813C234.987 735.47 233.465 735.275 231.887 735.228C230.338 735.188 228.824 735.282 227.345 735.509C225.895 735.743 224.524 736.12 223.231 736.642C221.984 737.156 220.921 737.802 220.042 738.581C219.163 739.361 218.62 740.138 218.413 740.913C218.251 741.681 218.384 742.401 218.811 743.074C219.267 743.754 219.982 744.368 220.956 744.918C221.959 745.475 223.193 745.925 224.66 746.268Z" fill="black"/>
<path d="M252.618 756.137C250.912 755.613 249.47 755.034 248.294 754.401C247.118 753.768 246.251 753.09 245.693 752.369C245.136 751.648 244.915 750.907 245.032 750.146C245.164 749.372 245.67 748.595 246.549 747.816C247.412 747.051 248.488 746.425 249.778 745.939C251.083 745.439 252.543 745.082 254.155 744.868C255.768 744.654 257.481 744.581 259.297 744.647C261.128 744.699 263.009 744.889 264.939 745.215L270.069 740.667L275.832 742.015L270.702 746.563C272.393 747.101 273.818 747.694 274.978 748.342C276.154 748.975 277.021 749.652 277.579 750.373C278.153 751.08 278.373 751.821 278.241 752.596C278.124 753.357 277.634 754.119 276.771 754.884C275.892 755.663 274.8 756.303 273.494 756.804C272.205 757.29 270.754 757.64 269.141 757.853C267.545 758.053 265.831 758.126 263.999 758.074C262.184 758.008 260.311 757.811 258.381 757.485L253.491 761.82L247.728 760.472L252.618 756.137ZM252.136 749.122C251.209 749.944 251.022 750.751 251.574 751.542C252.172 752.327 253.439 753.044 255.375 753.694L262.182 747.659C259.895 747.32 257.869 747.276 256.105 747.526C254.386 747.769 253.063 748.301 252.136 749.122ZM271.184 753.578C272.111 752.756 272.276 751.953 271.678 751.169C271.125 750.377 269.881 749.656 267.945 749.006L261.138 755.041C263.425 755.379 265.428 755.427 267.147 755.185C268.912 754.935 270.257 754.399 271.184 753.578Z" fill="black"/>
<path d="M293.377 765.348L287.614 764L292.385 759.771L295.038 757.814L294.686 757.731L278.992 761.983L273.229 760.636L284.975 750.223L290.738 751.571L285.967 755.8L283.314 757.757L283.666 757.84L299.36 753.588L305.123 754.936L293.377 765.348Z" fill="black"/>
<path d="M320.236 768.273C318.307 768.932 316.172 769.346 313.832 769.514C311.537 769.676 309.128 769.462 306.606 768.872C304.935 768.481 303.547 767.986 302.443 767.388C301.384 766.782 300.621 766.111 300.154 765.375C299.716 764.646 299.579 763.88 299.744 763.077C299.953 762.267 300.514 761.458 301.425 760.65C302.336 759.843 303.453 759.164 304.778 758.615C306.131 758.072 307.578 757.676 309.119 757.428C310.704 757.172 312.338 757.071 314.02 757.124C315.748 757.17 317.447 757.388 319.119 757.779C321.612 758.362 323.397 759.129 324.475 760.079C325.553 761.03 325.992 762.037 325.793 763.1L319.316 762.928C319.36 762.33 319.123 761.818 318.603 761.392C318.128 760.958 317.304 760.604 316.131 760.33C315.368 760.152 314.57 760.054 313.735 760.038C312.901 760.022 312.076 760.08 311.26 760.211C310.474 760.35 309.727 760.569 309.018 760.869C308.309 761.168 307.699 761.545 307.188 761.998C306.676 762.452 306.36 762.897 306.237 763.334C306.115 763.771 306.159 764.175 306.37 764.546C306.611 764.925 306.988 765.264 307.503 765.563C308.018 765.863 308.656 766.102 309.419 766.28C310.621 766.561 311.777 766.67 312.886 766.607C314.04 766.537 315.146 766.312 316.204 765.933L320.236 768.273Z" fill="black"/>
<path d="M339.415 756.886L350.061 759.376C352.554 759.959 354.59 760.668 356.169 761.503C357.748 762.338 358.857 763.26 359.498 764.269C360.155 765.264 360.322 766.315 360.001 767.422C359.709 768.535 358.931 769.651 357.669 770.77C356.39 771.904 354.843 772.849 353.025 773.605C351.237 774.369 349.264 774.919 347.105 775.255C344.946 775.592 342.662 775.711 340.252 775.613C337.842 775.515 335.391 775.174 332.898 774.591L322.252 772.101L339.415 756.886ZM335.703 771.81C337.433 772.214 339.086 772.458 340.661 772.54C342.253 772.608 343.728 772.532 345.087 772.313C346.447 772.093 347.682 771.738 348.793 771.246C349.92 770.739 350.899 770.118 351.73 769.381C352.561 768.645 353.092 767.927 353.323 767.229C353.57 766.517 353.494 765.846 353.093 765.215C352.693 764.584 351.961 764.001 350.897 763.466C349.849 762.916 348.459 762.439 346.729 762.035L342.286 760.995L331.259 770.77L335.703 771.81Z" fill="black"/>
<path d="M373.316 784.045L367.553 782.697L372.323 778.468L374.976 776.51L374.624 776.428L358.93 780.68L353.168 779.332L364.913 768.92L370.676 770.267L365.906 774.496L363.253 776.454L363.605 776.536L379.299 772.284L385.062 773.632L373.316 784.045Z" fill="black"/>
<path d="M388.507 774.438L393.918 775.703L392.503 776.957L392.855 777.039C393.879 776.724 395.123 776.54 396.589 776.489C398.055 776.438 399.61 776.605 401.252 776.989C402.63 777.311 403.776 777.758 404.688 778.33C405.645 778.894 406.314 779.534 406.693 780.249C407.117 780.957 407.225 781.716 407.015 782.526C406.805 783.337 406.245 784.146 405.334 784.953C404.423 785.761 403.305 786.439 401.981 786.989C400.657 787.539 399.231 787.948 397.704 788.218C396.222 788.48 394.691 788.605 393.11 788.593C391.575 788.575 390.118 788.404 388.739 788.082C387.097 787.697 385.894 787.219 385.131 786.647C384.368 786.075 383.971 785.507 383.938 784.944L383.586 784.862L382.26 786.432L377.346 790.788L371.583 789.44L388.507 774.438ZM390.452 785.232C391.214 785.411 392.013 785.508 392.847 785.524C393.711 785.547 394.55 785.493 395.366 785.361C396.182 785.23 396.958 785.018 397.697 784.725C398.435 784.432 399.059 784.059 399.571 783.605C400.082 783.152 400.384 782.703 400.477 782.26C400.57 781.816 400.496 781.405 400.256 781.026C400.016 780.648 399.624 780.305 399.08 779.999C398.565 779.7 397.926 779.461 397.164 779.282C396.401 779.104 395.588 779.003 394.724 778.98C393.906 778.95 393.089 779.001 392.274 779.132C391.458 779.264 390.681 779.476 389.943 779.769C389.205 780.062 388.572 780.442 388.045 780.91C387.517 781.377 387.207 781.833 387.115 782.277C387.022 782.72 387.095 783.131 387.336 783.51C387.576 783.888 387.953 784.227 388.468 784.527C389.028 784.819 389.689 785.054 390.452 785.232Z" fill="black"/>
<path d="M425.064 792.979C423.108 793.595 420.984 793.967 418.692 794.093C416.429 794.226 414.08 794.008 411.646 793.439C410.004 793.055 408.63 792.564 407.526 791.965C406.467 791.36 405.704 790.689 405.237 789.953C404.77 789.217 404.619 788.447 404.783 787.644C404.993 786.834 405.554 786.025 406.464 785.218C407.311 784.467 408.389 783.824 409.697 783.288C411.022 782.738 412.462 782.332 414.018 782.07C415.591 781.793 417.22 781.664 418.904 781.682C420.618 781.706 422.296 781.911 423.939 782.295C425.669 782.7 427.049 783.202 428.078 783.8C429.124 784.385 429.822 785.032 430.171 785.74C430.537 786.435 430.579 787.169 430.297 787.945C430.016 788.721 429.435 789.498 428.556 790.277C428.444 790.376 428.349 790.461 428.269 790.532C428.143 790.61 428.041 790.685 427.961 790.756C427.852 790.82 427.749 790.894 427.653 790.979L411.42 787.182C411.058 787.635 410.877 788.058 410.878 788.452C410.923 788.839 411.09 789.2 411.378 789.536C411.712 789.865 412.145 790.154 412.679 790.404C413.228 790.64 413.84 790.837 414.515 790.995C415.834 791.303 417.079 791.415 418.249 791.331C419.465 791.239 420.57 791.032 421.564 790.71L425.064 792.979ZM424.384 787.717C424.562 787.526 424.662 787.289 424.683 787.008C424.733 786.733 424.65 786.445 424.434 786.144C424.247 785.85 423.903 785.563 423.402 785.285C422.93 785.013 422.254 784.775 421.374 784.569C420.142 784.281 418.865 784.197 417.543 784.317C416.221 784.438 415.026 784.758 413.957 785.278L424.384 787.717Z" fill="black"/>
<path d="M436.672 792.578L436.32 792.496L430.711 797.468L424.948 796.121L436.694 785.708L442.457 787.056L437.447 791.497L437.799 791.58L449.76 788.764L456.534 790.348L456.343 790.518L443.299 793.457L445.464 800.704L445.273 800.874L438.498 799.29L436.672 792.578Z" fill="black"/>
<path d="M456.564 790.355L475.613 794.811L472.712 797.382L466.069 795.828L457.224 803.669L451.461 802.322L460.306 794.48L453.664 792.927L456.564 790.355Z" fill="black"/>
</g>
</svg>
