<svg width="110" height="37" viewBox="0 0 110 37" fill="none" xmlns="http://www.w3.org/2000/svg">
<g clip-path="url(#clip0_300_4590)">
<path d="M0.84375 14.4631C0.84375 6.73094 7.23225 0.46582 14.8682 0.46582C19.0748 0.46582 22.0747 2.14459 24.3382 4.33553L21.652 7.02442C20.0499 5.47501 17.8681 4.28061 14.8682 4.28061C9.31162 4.28061 4.97538 8.81204 4.97538 14.4356C4.97538 20.0592 9.31195 24.591 14.8682 24.591C18.468 24.591 20.5202 23.1306 21.8361 21.7929C22.9202 20.7011 23.6292 19.1312 23.8884 16.9951H14.8682V13.1804H27.5771C27.7063 13.8762 27.788 14.6748 27.788 15.5824C27.788 18.4625 27.0244 22.0043 24.5223 24.5159C22.0747 27.0751 18.9727 28.4332 14.8682 28.4332C7.23225 28.4332 0.84375 22.1681 0.84375 14.4631Z" fill="#4285F4"/>
<path d="M38.0212 10.4365C33.0986 10.4365 29.1035 14.2242 29.1035 19.4451C29.1035 24.6455 33.0986 28.4607 38.0212 28.4607C42.9438 28.4607 46.9389 24.6455 46.9389 19.4451C46.9389 14.2242 42.9438 10.4365 38.0212 10.4365ZM38.0212 24.8844C35.335 24.8844 32.9965 22.6458 32.9965 19.4246C32.9965 16.1693 35.3076 13.9582 38.0212 13.9582C40.7075 13.9582 43.046 16.1693 43.046 19.4246C43.046 22.6458 40.7075 24.8844 38.0212 24.8844Z" fill="#EA4335"/>
<path d="M57.4939 10.4365C52.5713 10.4365 48.5762 14.2242 48.5762 19.4451C48.5762 24.6456 52.5713 28.4607 57.4939 28.4607C62.4165 28.4607 66.4116 24.6456 66.4116 19.4451C66.4116 14.2242 62.4165 10.4365 57.4939 10.4365ZM57.4939 24.8844C54.8077 24.8844 52.4692 22.6458 52.4692 19.4246C52.4692 16.1693 54.7802 13.9582 57.4939 13.9582C60.2075 13.9582 62.5186 16.1693 62.5186 19.4246C62.5186 22.6458 60.1801 24.8844 57.4939 24.8844Z" fill="#FBBC03"/>
<path d="M81.3828 10.9687V12.436H81.2532C80.3872 11.3713 78.7032 10.4092 76.5693 10.4092C72.1236 10.4092 68.0469 14.3537 68.0469 19.4449C68.0469 24.4885 72.124 28.433 76.5693 28.433C78.7032 28.433 80.3869 27.4709 81.2529 26.3787H81.3828V27.6889C81.3828 31.1219 79.5692 32.9644 76.6509 32.9644C74.2513 32.9644 72.7784 31.2311 72.1785 29.7637L68.7833 31.2039C69.7514 33.606 72.3626 36.534 76.6784 36.534C81.2529 36.534 85.1188 33.8177 85.1188 27.1499V10.9687H81.3828ZM76.9101 24.8842C74.2308 24.8842 71.967 22.5914 71.967 19.4449C71.967 16.2786 74.2308 13.958 76.9101 13.958C79.5692 13.958 81.6485 16.2783 81.6485 19.4449C81.6756 22.6185 79.5692 24.8842 76.9101 24.8842Z" fill="#4285F4"/>
<path d="M91.6993 27.9007H87.8066V1.42773H91.6996L91.6993 27.9007Z" fill="#34A853"/>
<path d="M102.409 24.8844C100.412 24.8844 99.0138 23.9564 98.0936 22.1681L109.991 17.1794L109.595 16.1693C108.859 14.1425 106.595 10.4365 101.987 10.4365C97.4117 10.4365 93.5938 14.0879 93.5938 19.4451C93.5938 24.4887 97.3572 28.4607 102.409 28.4607C106.486 28.4607 108.832 25.9286 109.827 24.4613L106.807 22.407C105.777 23.9018 104.407 24.8844 102.409 24.8844ZM102.123 13.9033C103.671 13.9033 104.986 14.6748 105.409 15.8212L97.4593 19.1517C97.3568 15.6915 100.118 13.9036 102.123 13.9036L102.123 13.9033Z" fill="#EA4335"/>
</g>
<defs>
<clipPath id="clip0_300_4590">
<rect width="109.162" height="37" fill="white" transform="translate(0.84375)"/>
</clipPath>
</defs>
</svg>
