<svg width="134" height="37" viewBox="0 0 134 37" fill="none" xmlns="http://www.w3.org/2000/svg">
<g clip-path="url(#clip0_300_4545)">
<path d="M59.8519 24.8892C61.2634 24.8971 62.6539 24.552 63.8947 23.8857L64.9326 23.3294L67.9628 25.5394C65.9634 27.6585 63.0166 28.8231 59.641 28.8231C56.4138 28.8231 53.4643 27.6893 51.3545 25.6474C49.2445 23.6054 48.082 20.7675 48.082 17.6842C48.082 14.601 49.2616 11.805 51.3672 9.83603C53.4728 7.86699 56.421 6.78223 59.6706 6.78223C62.6669 6.78223 65.2866 7.68339 67.2477 9.38897L67.4701 9.57538L64.1113 12.0251C62.8702 11.1467 61.3775 10.6846 59.8519 10.7063C55.6308 10.7063 52.5665 13.6887 52.5665 17.7978C52.5665 21.9069 55.6308 24.8892 59.8519 24.8892Z" fill="#21A038"/>
<path fill-rule="evenodd" clip-rule="evenodd" d="M82.3144 15.4305H76.6164V10.6347H85.7114L90.6137 7.05957H71.9336V28.5371H81.7041C87.1883 28.5371 90.3332 26.0776 90.3332 21.7904C90.3389 17.6898 87.4885 15.4305 82.3144 15.4305ZM81.4988 24.9605H76.6164V19.0071H81.4988C84.4724 19.0071 85.8544 20.0035 85.8544 21.9839C85.8544 24.0076 84.3832 24.9605 81.4988 24.9605Z" fill="#21A038"/>
<path d="M111.105 7.05957L106.202 10.6347H99.3801V15.8861H109.381V19.4626H99.3801V24.9605H111.105V28.5371H94.6973V7.05957H111.105Z" fill="#21A038"/>
<path fill-rule="evenodd" clip-rule="evenodd" d="M115.465 7.05957H124.399C130.098 7.05957 133.636 10.004 133.636 14.7452C133.636 19.4864 130.095 22.4532 124.395 22.4532H120.148V28.5371H115.465V7.05957ZM120.148 18.8767H124.298C127.298 18.8767 128.949 17.4136 128.949 14.7565C128.949 12.0993 127.298 10.6347 124.298 10.6347H120.148V18.8767Z" fill="#21A038"/>
<path d="M33.2692 6.97168C34.122 8.06651 34.8513 9.2628 35.4345 10.538L18.9707 22.5882L12.0918 18.3061V13.1546L18.9707 17.4367L33.2692 6.97168Z" fill="#21A038"/>
<path d="M5.07486 17.9429C5.07486 17.7119 5.08055 17.4822 5.0919 17.254L0.923094 17.0469C0.908905 17.3441 0.900391 17.6429 0.900391 17.9429C0.900391 22.8973 2.92236 27.3837 6.19298 30.6315L9.14861 27.6965C6.63427 25.1967 5.07486 21.7474 5.07486 17.9429Z" fill="url(#paint0_linear_300_4545)"/>
<path d="M18.9708 4.14402C19.2035 4.14402 19.4348 4.15248 19.6646 4.16374L19.8733 0.0225453C19.5738 0.00845483 19.273 0 18.9708 0C13.9818 0 9.46399 2.0079 6.19336 5.25576L9.14899 8.19081C11.6662 5.69116 15.1397 4.14402 18.9708 4.14402Z" fill="url(#paint1_linear_300_4545)"/>
<path d="M18.9709 31.7417C18.7381 31.7417 18.5069 31.7361 18.277 31.7248L18.0684 35.8647C18.3677 35.8787 18.6685 35.8872 18.9709 35.8872C23.9597 35.8872 28.4776 33.8792 31.7482 30.6314L28.7926 27.6963C26.2754 30.1932 22.8019 31.7417 18.9709 31.7417Z" fill="url(#paint2_linear_300_4545)"/>
<path d="M26.8045 6.55208L30.3192 3.98057C27.2174 1.49077 23.27 0 18.9707 0V4.14543C21.8752 4.14402 24.5726 5.03454 26.8045 6.55208Z" fill="url(#paint3_linear_300_4545)"/>
<path d="M37.0397 17.943C37.0397 16.8453 36.9403 15.7716 36.7502 14.7275L32.8609 17.5737C32.8637 17.6964 32.8666 17.8189 32.8666 17.9415C32.8666 21.9926 31.0985 25.642 28.2891 28.1684L31.0943 31.2473C34.7452 27.9655 37.0397 23.2198 37.0397 17.943Z" fill="#21A038"/>
<path d="M18.9712 31.7419C14.8918 31.7419 11.2168 29.9862 8.67262 27.1963L5.57227 29.9819C8.87836 33.6088 13.6573 35.8873 18.9712 35.8873V31.7419Z" fill="url(#paint4_linear_300_4545)"/>
<path d="M9.65233 7.7155L6.84711 4.63672C3.19479 7.91981 0.900391 12.6655 0.900391 17.9424H5.07487C5.07629 13.89 6.84285 10.2419 9.65233 7.7155Z" fill="url(#paint5_linear_300_4545)"/>
</g>
<defs>
<linearGradient id="paint0_linear_300_4545" x1="7.03847" y1="30.1118" x2="2.53412" y2="17.0005" gradientUnits="userSpaceOnUse">
<stop offset="0.1444" stop-color="#F2E913"/>
<stop offset="0.3037" stop-color="#E7E518"/>
<stop offset="0.5823" stop-color="#CADB26"/>
<stop offset="0.891" stop-color="#A3CD39"/>
</linearGradient>
<linearGradient id="paint1_linear_300_4545" x1="7.38641" y1="5.98856" x2="19.1125" y2="1.4887" gradientUnits="userSpaceOnUse">
<stop offset="0.0592" stop-color="#0FA8E0"/>
<stop offset="0.5385" stop-color="#0099F9"/>
<stop offset="0.9234" stop-color="#0291EB"/>
</linearGradient>
<linearGradient id="paint2_linear_300_4545" x1="17.7929" y1="33.3853" x2="31.0677" y2="30.3641" gradientUnits="userSpaceOnUse">
<stop offset="0.1226" stop-color="#A3CD39"/>
<stop offset="0.2846" stop-color="#86C339"/>
<stop offset="0.8693" stop-color="#21A038"/>
</linearGradient>
<linearGradient id="paint3_linear_300_4545" x1="18.0973" y1="1.38846" x2="29.4408" y2="4.91297" gradientUnits="userSpaceOnUse">
<stop offset="0.0566" stop-color="#0291EB"/>
<stop offset="0.79" stop-color="#0C8ACB"/>
</linearGradient>
<linearGradient id="paint4_linear_300_4545" x1="6.61932" y1="29.4767" x2="18.9606" y2="34.1202" gradientUnits="userSpaceOnUse">
<stop offset="0.1324" stop-color="#F2E913"/>
<stop offset="0.2977" stop-color="#EBE716"/>
<stop offset="0.5306" stop-color="#D9E01F"/>
<stop offset="0.8023" stop-color="#BBD62D"/>
<stop offset="0.9829" stop-color="#A3CD39"/>
</linearGradient>
<linearGradient id="paint5_linear_300_4545" x1="2.45619" y1="18.4445" x2="7.35852" y2="5.60234" gradientUnits="userSpaceOnUse">
<stop offset="0.0698" stop-color="#A3CD39"/>
<stop offset="0.2599" stop-color="#81C55F"/>
<stop offset="0.9216" stop-color="#0FA8E0"/>
</linearGradient>
<clipPath id="clip0_300_4545">
<rect width="133.021" height="37" fill="white" transform="translate(0.900391)"/>
</clipPath>
</defs>
</svg>
