<svg width="213" height="37" viewBox="0 0 213 37" fill="none" xmlns="http://www.w3.org/2000/svg">
<mask id="mask0_300_4558" style="mask-type:luminance" maskUnits="userSpaceOnUse" x="1" y="0" width="211" height="37">
<path d="M211.995 0H1.10449V37H211.995V0Z" fill="white"/>
</mask>
<g mask="url(#mask0_300_4558)">
<path d="M64.9668 22.9559C64.9668 25.7648 62.37 27.7988 58.7151 27.7988H50.1553V10.3643H58.4267C61.9853 10.3643 64.4859 12.3014 64.4859 15.0135C64.4859 16.8538 63.524 18.0161 62.0816 18.6941C63.6203 19.2753 64.9668 20.825 64.9668 22.9559ZM53.9061 13.5606V17.3381H58.3304C59.6769 17.3381 60.5425 16.5632 60.5425 15.4978C60.5425 14.4323 59.5807 13.5606 58.3304 13.5606H53.9061ZM58.7151 24.6025C60.1579 24.6025 61.216 23.7308 61.216 22.4716C61.216 21.2124 60.2541 20.3407 58.7151 20.3407H53.9061V24.6025H58.7151Z" fill="black"/>
<path d="M79.1053 27.7019L73.1423 20.825H72.1805V27.7019H68.333V10.3643H72.1805V17.0475H73.1423L78.9128 10.3643H83.4334L76.2197 18.6941L84.1064 27.7019H79.1053Z" fill="black"/>
<path d="M84.1084 19.0811C84.1084 13.8508 87.9555 10.0732 93.3413 10.0732C98.7274 10.0732 102.575 13.8508 102.575 19.0811C102.575 24.3115 98.7274 28.0889 93.3413 28.0889C87.9555 28.0889 84.1084 24.3115 84.1084 19.0811ZM98.5353 19.0811C98.5353 15.7879 96.419 13.5602 93.3413 13.5602C90.2635 13.5602 88.1476 15.7879 88.1476 19.0811C88.1476 22.3743 90.2635 24.6021 93.3413 24.6021C96.419 24.6021 98.5353 22.3743 98.5353 19.0811Z" fill="black"/>
<path d="M117.289 10.3643H121.136V27.7019H117.289V20.7281H109.594V27.7019H105.747V10.3643H109.594V17.2412H117.289V10.3643Z" fill="black"/>
<path d="M129.408 27.7019V13.8512H123.444V10.3643H139.122V13.8512H133.159V27.7019H129.408Z" fill="black"/>
<path d="M155.665 18.0157V27.7015H152.876L152.107 24.9895C151.241 26.4424 149.413 28.0889 146.624 28.0889C143.162 28.0889 140.661 25.7643 140.661 22.568C140.661 19.3717 143.162 17.1439 148.259 17.1439H152.01C151.818 14.9162 150.664 13.3665 148.548 13.3665C146.817 13.3665 145.663 14.335 145.085 15.4005L141.623 14.8193C142.489 11.8167 145.47 10.0732 148.74 10.0732C152.972 10.0732 155.665 12.979 155.665 18.0157ZM151.914 20.1466H148.355C145.47 20.1466 144.508 21.1151 144.508 22.3743C144.508 23.8272 145.663 24.7958 147.586 24.7958C150.087 24.7958 151.914 22.9554 151.914 20.1466Z" fill="black"/>
<path d="M170.476 27.7019L164.513 20.825H163.551V27.7019H159.704V10.3643H163.551V17.0475H164.513L170.284 10.3643H174.804L167.591 18.6941L175.478 27.7019H170.476Z" fill="black"/>
<path d="M182.404 27.7019V13.8512H176.44V10.3643H192.118V13.8512H186.155V27.7019H182.404Z" fill="black"/>
<path d="M211.353 20.1466H197.503C197.888 22.8586 199.812 24.6021 202.697 24.6021C204.717 24.6021 206.256 23.7303 207.121 22.4712L210.68 23.0523C209.43 26.3455 206.064 28.0889 202.409 28.0889C197.215 28.0889 193.464 24.3115 193.464 19.0811C193.464 13.8508 197.215 10.0732 202.409 10.0732C207.602 10.0732 211.353 13.8508 211.353 18.8874C211.449 19.3717 211.353 19.7591 211.353 20.1466ZM197.792 17.1439H207.314C206.641 15.013 204.909 13.4633 202.505 13.4633C200.197 13.3665 198.369 14.9162 197.792 17.1439Z" fill="black"/>
<path d="M1.10449 17.76C1.10449 9.38786 1.10449 5.20179 3.68715 2.60089C6.26981 0 10.4265 0 18.74 0H20.2096C28.523 0 32.6797 0 35.2624 2.60089C37.8451 5.20179 37.8451 9.38786 37.8451 17.76V19.24C37.8451 27.6121 37.8451 31.7982 35.2624 34.3991C32.6797 37 28.523 37 20.2096 37H18.74C10.4265 37 6.26981 37 3.68715 34.3991C1.10449 31.7982 1.10449 27.6121 1.10449 19.24V17.76Z" fill="#0077FF"/>
<path d="M20.6527 26.6552C12.2789 26.6552 7.5027 20.8739 7.30371 11.2539H11.4982C11.636 18.3147 14.7283 21.3055 17.1776 21.9222V11.2539H21.1274V17.3434C23.5461 17.0814 26.087 14.3064 26.9443 11.2539H30.894C30.2358 15.0156 27.4802 17.7905 25.5207 18.9314C27.4802 19.8564 30.6186 22.2768 31.8127 26.6552H27.4649C26.5311 23.726 24.2044 21.4597 21.1274 21.1514V26.6552H20.6527Z" fill="white"/>
</g>
</svg>
