<svg width="128" height="37" viewBox="0 0 128 37" fill="none" xmlns="http://www.w3.org/2000/svg">
<g clip-path="url(#clip0_300_4574)">
<path d="M122.124 32.2183C124.633 32.2183 126.41 31.7645 127.735 30.7871V26.3541C126.376 27.2966 124.738 27.8899 122.437 27.8899C118.569 27.8899 116.966 24.8881 116.966 20.1409C116.966 15.1494 118.918 12.6013 122.472 12.6013C124.563 12.6013 126.62 13.3343 127.7 14.0324V9.42485C126.55 8.79655 124.563 8.34277 121.845 8.34277C114.91 8.34277 111.32 13.3343 111.32 20.3154C111.355 27.9598 114.875 32.2183 122.124 32.2183ZM88.2146 30.1937V25.7607C86.5418 26.9126 83.6841 27.9249 81.0703 27.9249C77.0974 27.9249 75.5988 26.0399 75.3549 22.2003H88.4585V19.3381C88.4585 11.3447 84.9387 8.34277 79.5369 8.34277C72.9153 8.34277 69.7788 13.4041 69.7788 20.3503C69.7788 28.3437 73.7169 32.2183 80.6172 32.2183C84.0674 32.2183 86.6115 31.2758 88.2146 30.1937ZM38.4833 8.76164V17.8371H31.2345V8.76164H25.7979V31.7645H31.2345V22.1654H38.4833V31.7645H43.92V8.76164H38.4833ZM68.4197 27.4362H66.015V8.76164H50.193V10.7164C50.193 16.3362 49.8445 23.5965 47.9277 27.4362H46.1852V37.0003H51.2037V31.7645H63.3664V37.0003H68.3848V27.4362H68.4197ZM105.535 31.7645H111.704L102.991 19.373L110.658 8.76164H105.187L97.5196 19.373V8.76164H92.083V31.7645H97.5196V20.455L105.535 31.7645ZM79.3975 12.6013C82.081 12.6013 82.9174 14.8352 82.9174 17.7324V18.1862H75.3549C75.4943 14.5211 76.8186 12.6013 79.3975 12.6013ZM60.5784 27.4362H52.9113C54.4099 23.9805 54.8281 17.6975 54.8281 13.7182V13.0201H60.5784V27.4362Z" fill="black"/>
<path d="M21.267 31.7642H15.7258V4.2934H13.2515C8.72093 4.2934 6.35111 6.56227 6.35111 9.94812C6.35111 13.7877 7.98907 15.5679 11.3695 17.8368L14.1576 19.7217L6.14201 31.7642H0.182617L7.39662 21.0132C3.24944 18.0462 0.914472 15.1491 0.914472 10.2623C0.914472 4.15377 5.1662 0 13.2166 0H21.2322V31.7642H21.267Z" fill="#FC3F1D"/>
</g>
<defs>
<clipPath id="clip0_300_4574">
<rect width="127.559" height="37" fill="white" transform="translate(0.178711)"/>
</clipPath>
</defs>
</svg>
