<svg width="1273" height="689" viewBox="0 0 1273 689" fill="none" xmlns="http://www.w3.org/2000/svg">
<path d="M1195.47 0.0197716L1205.07 1.16655C1210.52 9.42174 1213.05 19.7233 1212.24 29.5305C1208.51 35.4016 1202.01 38.9479 1196.91 43.5197C1188.34 51.1407 1178.26 57.1883 1171.01 66.1983C1168.39 75.0928 1178.51 80.1946 1183.3 85.995C1189.02 92.231 1198.08 87.8166 1205.16 87.2977C1208.52 85.6474 1212.28 88.0431 1213.16 91.2876C1216.2 104.492 1216.82 118.088 1218.49 131.51C1220.16 148.274 1222.94 164.931 1224.04 181.751C1224.44 187.8 1220.38 192.553 1217.35 197.315C1210.91 206.785 1203.33 215.506 1197.89 225.61C1195.72 228.548 1197.64 232.069 1198.45 235.075C1201.57 243.863 1205 252.564 1208.9 261.045C1209.75 262.673 1210.62 264.885 1212.64 265.385C1218.84 266.516 1225.27 266.158 1231.49 267.349C1235.11 269.002 1235.85 273.556 1237.7 276.696C1246.4 298.126 1255.87 319.245 1264.94 340.527C1267.49 346.815 1270.86 352.989 1271.5 359.878C1272.29 365.927 1272.68 372.032 1273 378.138L1272.19 384.93C1262.52 390.99 1248.12 391.159 1240.13 382.228C1224.39 368.136 1208.93 353.734 1192.83 340.056C1190.42 337.459 1187.02 335.593 1185.6 332.266C1182.64 321.655 1182.64 310.577 1181.29 299.72C1178.9 279.485 1177.59 259.138 1175.05 238.931C1174.69 233.459 1169.27 228.605 1163.62 230.964C1157.82 234.432 1150.74 237.222 1146.83 243.033C1143.04 258.466 1141.92 274.459 1140.26 290.241C1137.75 298.624 1146.63 302.91 1151.55 307.829C1143.75 315.647 1136.4 323.901 1128.63 331.741C1120.34 340.408 1109.58 346.011 1099.32 351.962C1089.18 357.878 1078.89 363.549 1068.73 369.424C1066.23 370.919 1063.47 372.746 1062.78 375.793C1060.13 388.358 1060.02 401.264 1058.52 413.975C1056.56 433.968 1053.16 453.905 1052.96 474.023C1054.2 480.135 1062.02 480.142 1066.79 481.056C1071.32 481.216 1076.41 483.226 1080.83 481.196C1086.59 477.771 1084.93 468.262 1091.53 465.729C1100.47 465.021 1109.47 467.766 1118.4 467.02C1125.39 464.037 1124.98 454.676 1127.62 448.684C1144.96 462.538 1160.29 478.672 1177.38 492.82C1182.32 497.818 1189.52 501.779 1191.26 509.094C1189.56 514.865 1183.91 519.534 1184.19 525.845C1189.23 535.426 1198.77 541.679 1205.21 550.253C1207.83 553.914 1207.5 559.886 1203.88 562.764C1200.25 565.289 1196.53 568.976 1191.75 568.682C1188.48 568.378 1186.34 565.469 1184.25 563.311C1174.21 551.847 1166.81 538.32 1156.47 527.125C1153.68 523.986 1148.73 524.216 1145.6 526.695C1142.46 529.163 1142.81 533.765 1143.38 537.355C1146.21 549.343 1151.09 560.802 1153.29 572.944C1154.35 587.545 1152.41 602.169 1152.05 616.773C1150.92 633.574 1151.13 650.468 1149.35 667.22C1148.83 671.537 1144.69 674.087 1142.26 677.298C1137.62 681.82 1133.49 687.729 1126.71 689C1119.93 688.649 1112.51 688.898 1106.41 685.679C1099.92 680.505 1094.92 673.745 1089.65 667.391C1085.67 662.422 1089.09 655.569 1089.07 649.889C1095.66 648.662 1102.89 649.039 1108.87 645.708C1115.36 641.244 1111.21 633.355 1110.39 627.332C1108.31 619.517 1107.52 611.302 1104.34 603.815C1102.52 599.161 1095.22 597.192 1092.1 601.58C1087.66 605.677 1085.71 613.078 1079.59 615.057C1066.24 614.971 1053.11 611.771 1039.87 610.352C1030.98 608.814 1020.65 608.593 1013.99 601.614C1000.5 587.819 988.05 573.051 974.606 559.213C972.222 556.791 968.625 555.398 965.307 556.634C955.874 559.801 947.163 564.762 937.935 568.45C932.46 570.869 926.706 572.825 921.61 575.985C918.269 578.048 918.209 582.382 917.948 585.919C918.302 599.329 920.795 612.584 921.052 626.001C921.18 629.642 917.846 631.964 915.505 634.213C909.657 639.029 903.594 643.801 896.862 647.31C887.868 648.889 879.578 643.615 870.797 642.69C868.668 642.446 866.637 643.539 865.206 645.038C858.435 651.91 853.534 660.38 846.632 667.141C843.733 671.661 838.083 670.748 833.527 671.072C822.023 671.034 810.525 671.904 799.039 671.477C784.885 671.561 778.099 652.842 763.413 655.535C752.896 655.949 742.406 656.938 731.895 657.467C729.592 653.004 728.481 647.518 724.355 644.326C717.012 640.004 709.293 636.192 701.215 633.462C697.688 632.134 693.785 633.777 691.531 636.656C689.859 645.044 689.928 653.726 688.154 662.091C686.206 666.801 679.912 665.849 675.923 666.861C663.861 667.578 651.719 669.038 639.656 667.932C631.761 663.907 629.489 651.604 619.762 650.843C602.363 658.012 588.046 670.958 571.115 679.002C565.967 681.002 561.663 676.185 557.57 673.912C536.458 658.949 515.336 643.985 494.03 629.285C489.022 625.481 482.703 622.341 480.664 615.915C473.499 598.21 467.992 579.891 461.286 562.021C460.324 559.282 458.861 556.502 456.185 555.086C442.058 547.598 425.497 545.362 411.877 536.905C406.205 529.157 405.248 518.795 399.127 511.281C374.287 507.046 349.105 505.107 324.14 501.754C320.031 502.094 314.625 499.302 311.166 502.591C302.231 513.174 295.765 525.55 287.409 536.565C285.12 539.726 280.412 541.082 276.987 538.975C265.844 532.73 255.658 524.95 244.787 518.261C239.382 514.429 232.868 511.561 229.268 505.721C221.407 495.031 215.714 482.902 207.675 472.344C204.862 468.239 199.56 468.092 195.057 467.65C180.937 467.128 166.826 466.531 152.705 466.333C149.477 466.253 146.282 467.656 144.257 470.21C142.12 479.773 141.691 489.673 139.319 499.199C135.024 508.036 128.759 515.78 122.64 523.427C120.552 525.153 119.18 528.557 116.135 528.862C107.636 530.289 98.9639 530.055 90.433 531.193C87.746 531.54 84.699 532.741 83.8771 535.62C78.9759 550.406 77.9875 566.174 73.2973 581.033C72.4719 583.702 70.1271 585.979 67.2559 586.189C60.9856 586.233 54.4695 585.855 48.5533 583.737C44.4994 580.581 42.926 575.451 40.8938 570.962C28.126 539.335 14.8958 507.9 1.68561 476.458C-0.94296 470.009 0.337765 462.815 0.150664 456.075L1.98929 440.704C6.55991 437.624 11.9595 436.237 17.2157 434.851C36.4054 430.196 55.7794 426.317 74.902 421.425C79.1678 420.494 83.4054 416.525 81.9426 411.828C77.0373 395.909 69.8884 380.782 64.2657 365.111C62.6942 360.763 64.0447 356.02 64.1453 351.586C65.6565 337.435 67.1395 323.281 69.4864 309.249C69.9122 306.648 70.2405 302.546 73.3912 301.596C79.1381 300.259 85.2314 301.855 91.0067 300.76C93.8283 299.208 95.1705 295.972 97.1194 293.571C102.785 284.611 109.393 276.154 113.853 266.496C115.627 255.812 105.634 246.738 107.946 236.032C110.945 232.039 115.467 229.525 119.401 226.579C130.969 218.896 142.391 210.995 153.886 203.199C157.022 201.493 159.92 198.585 163.704 198.57C179.682 199.447 195.399 203.146 211.419 203.513C214.73 203.298 217.509 200.5 217.955 197.252C220.33 190.093 218.589 180.134 225.826 175.445C239.467 165.281 251.788 153.461 265.651 143.59C271.279 138.776 279.081 140.461 285.773 140.564C286.889 133.15 287.771 125.698 289.504 118.396C290.498 114.717 294.807 113.581 298.163 113.476C304.897 113.708 311.64 114.503 318.185 116.153C323.047 117.421 324.62 123.037 325.755 127.362C329.173 145.011 332.914 162.604 336.597 180.199C337.262 184.057 338.937 189.142 335.525 192.274C327.396 197.715 318.594 202.237 309.508 205.856C306.731 206.64 302.929 207.284 300.908 204.781C294.115 196.738 292.001 185.904 285.531 177.641C282.487 174.902 277.187 175.7 274.388 178.496C268.596 184.283 262.937 190.315 258.211 197.011C254.925 203.565 259.753 210.468 262.582 216.12C263.796 219.623 266.832 222.343 270.583 222.6C284.687 224.694 298.879 226.293 313.094 227.618C317.035 227.488 321.54 229.028 325.214 226.9C335.23 220.93 343.706 212.582 354.051 207.138C360.914 204.933 367.86 210.657 370.284 216.748C370.641 222.62 366.555 227.561 364.054 232.577C386.665 240.439 409.208 248.55 431.926 256.081C438.677 259.282 445.36 255.31 451.611 253.117C455.096 251.682 458.763 253.599 461.164 256.128C468.823 264.275 474.941 273.888 483.451 281.23C487.348 284.1 493.238 282.447 495.101 278.051C504.675 262.363 513.089 245.993 522.315 230.101C524.783 226.799 526.951 221.686 531.776 221.671C536.672 222.494 542.166 224.152 544.717 228.855C547.372 233.799 543.694 238.999 542.318 243.644C534.488 262.154 526.877 280.748 519.266 299.342C523.812 299.589 528.355 299.931 532.926 299.723C535.676 299.088 537.136 296.304 538.641 294.184C544.712 283.908 550.81 273.645 556.845 263.354C559.189 259.407 561.449 255.126 565.5 252.633C572.121 249.578 579.788 252.077 586.613 249.944C592.678 245.869 588.467 234.766 596.135 231.903C605.619 230.621 615.231 234.097 624.793 233.445C627.6 233.208 629.891 230.905 630.554 228.236C632.31 221.223 632.415 213.793 634.688 206.928C638.817 202.431 644.69 200.117 649.929 197.203C668.453 187.974 686.489 177.791 704.943 168.43C709.051 166.659 713.567 163.162 718.196 166.139C728.43 170.004 737.294 176.625 747.07 181.446C751.672 184.095 757.619 186.99 758.649 192.676C755.792 204.338 748.071 213.873 743.208 224.675C741.949 228.093 740.776 232.466 743.432 235.493C745.785 238.494 749.998 238.729 753.423 237.803C764.721 235.011 775.762 231.243 787.021 228.304C797.922 225.55 809.277 227.154 820.359 227.37C832.217 228.118 844.18 227.667 855.98 229.219C864.308 231.855 870.931 238.122 879.024 241.369C882.2 242.998 885.46 240.258 887.948 238.465C896.684 229.939 905.209 221.11 912.98 211.714C915.757 205.424 910.804 199.088 909.151 193.262C907.639 189.293 910.162 185.129 913.643 183.331C926.32 176.601 939.163 170.148 951.919 163.552C956.068 161.843 960.505 158.203 965.275 160.557C972.109 162.833 978.48 166.256 985.158 168.952C987.599 170.025 990.757 169.735 992.699 167.791C998.91 160.814 1001.62 151.691 1006.4 143.818C1007.88 141.381 1010.2 138.938 1013.29 138.954C1022.91 139.368 1032.43 141.134 1042.09 141.333C1044.98 141.307 1046.85 138.687 1048.29 136.502C1053.39 128.552 1056.38 119.301 1062.3 111.878C1068.65 106.416 1078.38 108.742 1085.27 104.384C1088.68 101.337 1090.36 96.9188 1092.45 92.9509C1088.54 88.8109 1084.11 84.8476 1081.77 79.5581C1080.89 74.8542 1084.68 71.3859 1088.16 69.0533C1104.28 57.7251 1120.5 46.5421 1136.44 34.9633C1142.11 30.9937 1147.79 26.3378 1154.91 25.4039C1160.65 23.8183 1167.11 24.2757 1172.27 20.9317C1176.2 15.5237 1174.3 8.05436 1177.39 2.41237C1182.41 -1.36805 1189.64 0.574144 1195.47 0.0197716Z" fill="url(#paint0_linear_300_4504)"/>
<path d="M914.568 115.24C923.388 112.886 928.604 125.569 924.3 131.763C918.66 136.92 911.447 139.97 905.574 144.841C898.064 151.177 890.999 158.024 883.707 164.614C876.261 164.26 871.14 158.372 867.118 152.796C864.641 148.589 865.7 141.492 870.816 139.842C876.217 137.968 882.112 137.469 887.126 134.509C890.468 131.006 892.651 126.486 896.182 123.158C901.882 119.736 908.021 116.643 914.568 115.24Z" fill="url(#paint1_linear_300_4504)"/>
<path d="M677.275 92.1061C679.368 92.2511 682.71 91.6196 684.515 93.4572C693.507 101.878 702.478 110.954 707.203 122.548C709.4 127.257 712.776 133.604 708.421 138.237C704.562 143.033 698.046 140.814 693.099 139.622C684.409 137.22 677.634 131.097 671.129 125.197C664.144 120.994 668.469 112.227 669.206 105.989C670.762 101.28 670.877 92.8974 677.275 92.1061Z" fill="url(#paint2_linear_300_4504)"/>
<path d="M548.728 137.116C551.949 137.73 556.523 136.301 559.004 139.192C563.291 144.15 564.9 153.779 557.966 157.292C545.906 159.593 533.085 156.115 521.289 160.518C507.174 167.534 493.105 174.651 478.975 181.637C469.395 185.798 464.818 195.633 458.517 203.286C454.255 207.854 450.716 216.839 442.808 213.49C437.634 210.277 434.242 204.777 430.932 199.792C427.67 196.245 427.944 189.723 431.889 186.845C448.528 175.407 465.751 164.84 482.577 153.682C489.166 149.459 495.447 144.694 502.467 141.172C517.644 138.051 533.303 138.242 548.728 137.116Z" fill="url(#paint3_linear_300_4504)"/>
<defs>
<linearGradient id="paint0_linear_300_4504" x1="636.5" y1="0" x2="636.5" y2="689" gradientUnits="userSpaceOnUse">
<stop offset="0.48058" stop-color="#F5F5F5"/>
<stop offset="1" stop-color="white"/>
</linearGradient>
<linearGradient id="paint1_linear_300_4504" x1="636.5" y1="0" x2="636.5" y2="689" gradientUnits="userSpaceOnUse">
<stop offset="0.48058" stop-color="#F5F5F5"/>
<stop offset="1" stop-color="white"/>
</linearGradient>
<linearGradient id="paint2_linear_300_4504" x1="636.5" y1="0" x2="636.5" y2="689" gradientUnits="userSpaceOnUse">
<stop offset="0.48058" stop-color="#F5F5F5"/>
<stop offset="1" stop-color="white"/>
</linearGradient>
<linearGradient id="paint3_linear_300_4504" x1="636.5" y1="0" x2="636.5" y2="689" gradientUnits="userSpaceOnUse">
<stop offset="0.48058" stop-color="#F5F5F5"/>
<stop offset="1" stop-color="white"/>
</linearGradient>
</defs>
</svg>
