<svg width="284" height="37" viewBox="0 0 284 37" fill="none" xmlns="http://www.w3.org/2000/svg">
<g clip-path="url(#clip0_300_4577)">
<rect width="283.105" height="37" transform="translate(0.738281)" fill="white"/>
<path d="M56.484 7.12109C60.4126 7.12109 63.5952 8.86403 64.9379 10.1588L62.7001 12.8977C61.6061 11.9017 59.1694 10.5572 56.484 10.5572C51.5609 10.5572 48.4777 13.9434 48.4777 18.5747C48.4777 23.2059 51.4117 26.5922 56.5337 26.5922C59.5175 26.5922 62.1033 24.9986 63.1974 23.9031L65.3357 26.7415C63.993 28.1359 60.6115 30.0282 56.484 30.0282C49.2236 30.0282 44.748 25.148 44.748 18.5249C44.748 12.0013 49.3728 7.12109 56.484 7.12109Z" fill="#213A8B"/>
<path d="M78.8622 7.12109C85.5755 7.12109 90.4489 12.0013 90.4489 18.6245C90.4489 25.2476 85.5755 30.1278 78.8622 30.1278C72.1488 30.1278 67.2754 25.2476 67.2754 18.6245C67.2754 12.0013 72.1488 7.12109 78.8622 7.12109ZM78.8622 26.6419C83.3875 26.6419 86.769 23.2059 86.769 18.6245C86.769 13.9932 83.4372 10.607 78.8622 10.607C74.3369 10.607 70.9553 14.043 70.9553 18.6245C70.9553 23.2059 74.3369 26.6419 78.8622 26.6419Z" fill="#213A8B"/>
<path d="M113.524 23.206C113.524 26.4428 111.435 29.5801 106.114 29.5801H94.4277V7.61914H105.418C109.893 7.61914 112.429 10.358 112.429 13.4953C112.429 15.2383 111.634 16.8318 109.694 18.1266C111.634 18.7739 113.524 20.2181 113.524 23.206ZM98.0082 11.0552V16.9314L104.97 16.8816C107.457 16.8816 108.75 15.4872 108.75 13.8439C108.75 12.35 107.656 11.0552 105.467 11.0552H98.0082ZM106.313 26.1441C108.849 26.1441 109.844 24.7497 109.844 23.206C109.844 21.5626 108.7 20.1683 106.412 20.1683H98.0579V26.1441H106.313Z" fill="#213A8B"/>
<path d="M127.945 18.2759L137.642 29.5801H132.868L124.762 19.9691H120.585V29.5801H116.955V7.61914H120.585V16.6824H124.762L132.669 7.61914H137.493L127.945 18.2759Z" fill="#213A8B"/>
<path d="M148.78 7.12109C155.493 7.12109 160.367 12.0013 160.367 18.6245C160.367 25.2476 155.493 30.1278 148.78 30.1278C142.067 30.1278 137.193 25.2476 137.193 18.6245C137.193 12.0013 142.067 7.12109 148.78 7.12109ZM148.78 26.6419C153.305 26.6419 156.687 23.2059 156.687 18.6245C156.687 13.9932 153.355 10.607 148.78 10.607C144.255 10.607 140.873 14.043 140.873 18.6245C140.873 23.2059 144.255 26.6419 148.78 26.6419Z" fill="#213A8B"/>
<path d="M184.684 7.61914H188.165V29.5801H184.534V13.2463L177.324 22.9072H175.136L167.925 13.2463V29.5801H164.295V7.61914H167.776L176.23 18.8735L184.684 7.61914Z" fill="#213A8B"/>
<path d="M204.675 16.5828C209.498 16.5828 212.134 19.4213 212.134 23.0566C212.134 26.6918 209.498 29.5801 204.923 29.5801H192.988V7.61914H210.095V11.0552H196.618V16.5828H204.675ZM204.774 26.1441C207.26 26.1441 208.404 24.7497 208.404 23.1064C208.404 21.463 207.26 20.0687 204.774 20.0687H196.618V26.1441H204.774Z" fill="#213A8B"/>
<path d="M232.176 29.5801L229.789 24.1023H219.396L217.009 29.5801H213.08L222.628 7.61914H226.606L236.154 29.5801H232.176ZM220.838 20.8156H228.396L224.617 12.0512L220.838 20.8156Z" fill="#213A8B"/>
<path d="M255.1 7.61914H258.73V29.5801H255.1V20.1683H242.419V29.5801H238.789V7.61914H242.419V16.7322H255.1V7.61914Z" fill="#213A8B"/>
<path d="M274.545 18.2759L284.292 29.5801H279.468L271.362 19.9691H267.185V29.5801H263.555V7.61914H267.185V16.6824H271.362L279.269 7.61914H284.093L274.545 18.2759Z" fill="#213A8B"/>
<path d="M1.33594 18.6245C1.33594 28.6837 9.49143 36.8506 19.5863 36.8506C19.835 36.8506 20.0836 36.8506 20.3323 36.8506V29.9287H19.5863C13.3205 29.9287 8.29795 24.8493 8.29795 18.6245C8.29795 12.3998 13.3703 7.32036 19.5863 7.32036H20.3323V0.348633C20.0836 0.348633 19.835 0.348633 19.5863 0.348633C9.49143 0.348633 1.33594 8.51552 1.33594 18.6245Z" fill="#DA5155"/>
<path d="M23.216 0.697266V10.2087H19.5858C14.9113 10.2087 11.1816 13.9436 11.1816 18.6246C11.1816 23.2558 14.961 27.0405 19.5858 27.0405H23.216V36.5519C31.5207 34.8588 37.7865 27.4886 37.7865 18.6744C37.7865 9.76052 31.5207 2.3904 23.216 0.697266Z" fill="#213A8B"/>
</g>
<defs>
<clipPath id="clip0_300_4577">
<rect width="283.105" height="37" fill="white" transform="translate(0.738281)"/>
</clipPath>
</defs>
</svg>
