<svg width="174" height="37" viewBox="0 0 174 37" fill="none" xmlns="http://www.w3.org/2000/svg">
<g clip-path="url(#clip0_300_4537)">
<path d="M33.0419 0C22.9106 0 14.8516 8.31331 14.8516 18.5C14.8516 28.8038 23.0257 37 33.0419 37C43.0581 37 51.2323 28.6867 51.2323 18.5C51.3474 8.31331 43.0581 0 33.0419 0ZM33.0419 25.4082C29.3578 25.4082 26.2493 22.2468 26.2493 18.5C26.2493 14.7532 29.3578 11.5918 33.0419 11.5918C36.7261 11.5918 39.8345 14.7532 39.8345 18.5C39.8345 22.2468 36.8412 25.4082 33.0419 25.4082Z" fill="#8B3FFD"/>
<path d="M14.8516 5.38574V32.3161H8.28928L0 5.38574H14.8516Z" fill="#8B3FFD"/>
<path d="M168.317 10.1865L164.288 20.2561C164.173 20.3732 164.173 20.6073 164.173 20.7245L164.057 20.9586L163.942 20.7245C163.942 20.6073 163.827 20.3732 163.827 20.2561L159.798 10.1865H154.617L161.409 27.3985L158.532 33.9555H163.712L173.268 10.1865H168.317Z" fill="black"/>
<path d="M130.094 11.1234C129.173 10.4208 128.022 9.9525 126.64 9.83543C124.338 9.60122 122.151 10.4208 120.654 11.943V10.0696H115.934V27.2817H120.654V18.2658C120.654 16.2753 120.999 15.6899 121.345 15.2215C121.92 14.2848 122.957 13.8165 124.223 13.8165C125.489 13.8165 126.64 14.4019 127.217 15.3386C127.562 16.0411 127.677 16.9778 127.677 17.4462C127.677 18.9684 127.677 27.2817 127.677 27.2817H132.397V16.8608C132.397 14.1677 131.591 12.2943 130.094 11.1234Z" fill="black"/>
<path d="M106.953 10.3035C104.651 9.48386 102.118 9.601 99.8155 10.6548C98.3188 11.3573 96.9378 12.5281 96.1316 14.0503C95.3254 15.3383 94.9805 16.9775 94.9805 18.7339C94.9805 20.4902 95.3254 22.1294 96.1316 23.4174C96.9378 24.7054 97.9739 25.8763 99.3549 26.5788C100.737 27.2814 102.348 27.7497 103.845 27.7497C104.651 27.7497 105.457 27.6326 106.263 27.3985C106.953 27.1642 107.645 26.9301 108.335 26.5788C109.717 25.7592 110.868 24.7054 111.559 23.4174C112.365 22.1294 112.71 20.4902 112.71 18.7339C112.825 14.87 110.638 11.5915 106.953 10.3035ZM108.335 18.9681C108.22 20.4902 107.76 21.7782 106.838 22.5978C106.148 23.1833 105.112 23.5345 103.845 23.6516C102.579 23.6516 101.658 23.3003 100.852 22.5978C99.9312 21.7782 99.4706 20.4902 99.3549 18.9681C99.2399 17.2118 99.9312 15.8066 101.197 14.87C101.888 14.4016 102.809 14.0503 103.73 14.0503C104.766 14.0503 105.572 14.4016 106.378 14.87C107.76 15.6896 108.45 17.2118 108.335 18.9681Z" fill="black"/>
<path d="M89.5711 11.1229C88.6499 10.4204 87.4988 9.9521 86.1171 9.83496C85.8872 9.83496 85.5415 9.83496 85.3116 9.83496C83.4693 9.83496 81.8576 10.6546 80.4759 12.2938L80.246 12.6451H79.7854C79.4398 12.0597 78.9792 11.5914 78.5186 11.2401C77.5974 10.5375 76.4464 10.0692 75.0646 9.9521C72.8774 9.71789 71.1506 10.4204 69.6538 12.0597V10.3034H64.9336V27.5153H69.6538V18.4995V18.2653C69.6538 16.392 69.8841 15.9236 70.2295 15.3382C70.8052 14.4014 71.8413 13.816 72.9924 13.9331C74.1442 13.9331 75.1803 14.5186 75.7558 15.4553C76.2164 16.1577 76.2164 16.9774 76.2164 17.797V27.3983H80.9365V18.1483C80.9365 16.392 81.1664 15.8065 81.512 15.2211C82.0876 14.2844 83.1237 13.816 84.2755 13.816C85.4266 13.816 86.3477 14.4014 86.9233 15.3382C87.2689 15.9236 87.3839 16.6262 87.3839 17.0945C87.3839 17.3286 87.3839 17.5629 87.3839 17.6799V27.2812H92.1039V16.7432C92.1039 15.8065 91.9889 14.8698 91.7583 14.0501C91.2984 12.8793 90.6072 11.8255 89.5711 11.1229Z" fill="black"/>
<path d="M150.128 22.1296C149.437 22.8321 147.825 24.1201 145.638 24.2372C143.795 24.3542 142.414 23.7688 141.378 22.7151C140.918 22.2466 140.572 21.5442 140.342 20.8416H153.351V20.7245C153.467 20.022 153.582 19.4366 153.582 18.734C153.582 18.1486 153.467 17.329 153.236 16.2751C152.661 14.2846 151.51 12.7625 150.013 11.5916C148.285 10.3036 146.674 9.95235 146.213 9.95235C142.875 9.36693 139.075 10.889 137.118 14.0505C135.736 16.2751 135.852 18.4998 135.852 19.2024C135.852 20.022 135.967 22.5979 138.039 24.9397C140.457 27.6327 143.795 27.7498 144.831 27.8669C149.437 27.984 152.546 25.0568 153.236 24.4714L150.128 22.1296ZM142.069 14.8701C142.759 14.4017 143.565 14.0505 144.602 14.0505C145.638 14.0505 146.444 14.4017 147.249 14.8701C147.941 15.4555 148.516 16.1581 148.861 16.9777H140.572C140.687 16.1581 141.263 15.3384 142.069 14.8701Z" fill="black"/>
</g>
<defs>
<clipPath id="clip0_300_4537">
<rect width="173.9" height="37" fill="white"/>
</clipPath>
</defs>
</svg>
