<svg width="567" height="329" viewBox="0 0 567 329" fill="none" xmlns="http://www.w3.org/2000/svg">
<g clip-path="url(#clip0_2473_1624)">
<path d="M59.8423 288.318V298.5H58.3011V289.859H58.2415L55.8054 291.45V289.979L58.3459 288.318H59.8423ZM62.1766 298.5V297.386L65.6219 293.817C65.9898 293.429 66.2931 293.089 66.5317 292.798C66.7737 292.503 66.9543 292.223 67.0736 291.957C67.1929 291.692 67.2526 291.411 67.2526 291.112C67.2526 290.774 67.173 290.482 67.0139 290.237C66.8549 289.989 66.6378 289.798 66.3627 289.665C66.0876 289.53 65.7777 289.462 65.433 289.462C65.0684 289.462 64.7502 289.536 64.4784 289.685C64.2067 289.835 63.9979 290.045 63.852 290.317C63.7062 290.589 63.6333 290.907 63.6333 291.271H62.1666C62.1666 290.652 62.3092 290.11 62.5942 289.646C62.8792 289.182 63.2703 288.822 63.7675 288.567C64.2647 288.308 64.8298 288.179 65.4628 288.179C66.1025 288.179 66.6659 288.307 67.1532 288.562C67.6437 288.814 68.0265 289.158 68.3016 289.596C68.5767 290.03 68.7142 290.521 68.7142 291.067C68.7142 291.445 68.643 291.815 68.5005 292.176C68.3613 292.537 68.1176 292.94 67.7696 293.384C67.4216 293.825 66.9377 294.36 66.3179 294.99L64.2945 297.108V297.183H68.8783V298.5H62.1766ZM73.7033 298.639C73.0802 298.639 72.5201 298.52 72.0229 298.281C71.5291 298.039 71.1347 297.708 70.8397 297.287C70.5447 296.866 70.3873 296.385 70.3674 295.845H71.8589C71.8953 296.283 72.0892 296.642 72.4405 296.924C72.7919 297.206 73.2128 297.347 73.7033 297.347C74.0944 297.347 74.4408 297.257 74.7424 297.078C75.0473 296.896 75.2859 296.646 75.4583 296.327C75.634 296.009 75.7218 295.646 75.7218 295.239C75.7218 294.824 75.6323 294.455 75.4533 294.13C75.2743 293.805 75.0274 293.55 74.7126 293.364C74.401 293.179 74.043 293.084 73.6387 293.081C73.3305 293.081 73.0206 293.134 72.709 293.24C72.3975 293.346 72.1456 293.485 71.9533 293.658L70.5464 293.449L71.1181 288.318H76.7161V289.636H72.3958L72.0726 292.484H72.1323C72.3312 292.292 72.5947 292.131 72.9228 292.002C73.2542 291.873 73.6089 291.808 73.9867 291.808C74.6065 291.808 75.1583 291.956 75.6422 292.251C76.1295 292.546 76.5123 292.948 76.7907 293.459C77.0724 293.966 77.2116 294.549 77.2083 295.209C77.2116 295.868 77.0625 296.457 76.7609 296.974C76.4626 297.491 76.0483 297.898 75.518 298.197C74.991 298.492 74.3861 298.639 73.7033 298.639ZM88.3772 288.318V289.641H83.5647V298.5H82.0285V288.318H88.3772ZM95.0056 290.864V297.282H96.1243V300.961H94.6576V298.5H88.7762V290.864H90.2329V297.217H93.5539V290.864H95.0056Z" fill="#979797"/>
<path d="M142.383 298.5V297.386L145.828 293.817C146.196 293.429 146.499 293.089 146.738 292.798C146.98 292.503 147.161 292.223 147.28 291.957C147.399 291.692 147.459 291.411 147.459 291.112C147.459 290.774 147.379 290.482 147.22 290.237C147.061 289.989 146.844 289.798 146.569 289.665C146.294 289.53 145.984 289.462 145.639 289.462C145.275 289.462 144.957 289.536 144.685 289.685C144.413 289.835 144.204 290.045 144.058 290.317C143.913 290.589 143.84 290.907 143.84 291.271H142.373C142.373 290.652 142.515 290.11 142.801 289.646C143.086 289.182 143.477 288.822 143.974 288.567C144.471 288.308 145.036 288.179 145.669 288.179C146.309 288.179 146.872 288.307 147.359 288.562C147.85 288.814 148.233 289.158 148.508 289.596C148.783 290.03 148.921 290.521 148.921 291.067C148.921 291.445 148.849 291.815 148.707 292.176C148.568 292.537 148.324 292.94 147.976 293.384C147.628 293.825 147.144 294.36 146.524 294.99L144.501 297.108V297.183H149.085V298.5H142.383ZM153.91 298.639C153.287 298.639 152.726 298.52 152.229 298.281C151.735 298.039 151.341 297.708 151.046 297.287C150.751 296.866 150.594 296.385 150.574 295.845H152.065C152.102 296.283 152.296 296.642 152.647 296.924C152.998 297.206 153.419 297.347 153.91 297.347C154.301 297.347 154.647 297.257 154.949 297.078C155.254 296.896 155.492 296.646 155.665 296.327C155.84 296.009 155.928 295.646 155.928 295.239C155.928 294.824 155.839 294.455 155.66 294.13C155.481 293.805 155.234 293.55 154.919 293.364C154.607 293.179 154.249 293.084 153.845 293.081C153.537 293.081 153.227 293.134 152.915 293.24C152.604 293.346 152.352 293.485 152.16 293.658L150.753 293.449L151.324 288.318H156.922V289.636H152.602L152.279 292.484H152.339C152.537 292.292 152.801 292.131 153.129 292.002C153.461 291.873 153.815 291.808 154.193 291.808C154.813 291.808 155.365 291.956 155.849 292.251C156.336 292.546 156.719 292.948 156.997 293.459C157.279 293.966 157.418 294.549 157.415 295.209C157.418 295.868 157.269 296.457 156.967 296.974C156.669 297.491 156.255 297.898 155.724 298.197C155.197 298.492 154.592 298.639 153.91 298.639ZM162.355 298.669C161.57 298.666 160.899 298.459 160.342 298.048C159.785 297.637 159.359 297.038 159.064 296.253C158.769 295.467 158.622 294.521 158.622 293.414C158.622 292.31 158.769 291.367 159.064 290.585C159.362 289.803 159.79 289.206 160.347 288.795C160.907 288.384 161.576 288.179 162.355 288.179C163.134 288.179 163.802 288.386 164.359 288.8C164.916 289.211 165.342 289.808 165.636 290.59C165.935 291.369 166.084 292.31 166.084 293.414C166.084 294.524 165.936 295.472 165.641 296.258C165.346 297.04 164.921 297.638 164.364 298.053C163.807 298.464 163.137 298.669 162.355 298.669ZM162.355 297.342C163.045 297.342 163.583 297.005 163.971 296.332C164.362 295.66 164.558 294.687 164.558 293.414C164.558 292.569 164.468 291.855 164.289 291.271C164.114 290.685 163.86 290.241 163.529 289.939C163.2 289.634 162.809 289.482 162.355 289.482C161.669 289.482 161.131 289.82 160.739 290.496C160.348 291.172 160.151 292.145 160.148 293.414C160.148 294.263 160.236 294.98 160.411 295.567C160.59 296.15 160.844 296.593 161.172 296.894C161.5 297.192 161.895 297.342 162.355 297.342ZM177.201 288.318V289.641H172.388V298.5H170.852V288.318H177.201ZM183.829 290.864V297.282H184.948V300.961H183.481V298.5H177.6V290.864H179.056V297.217H182.377V290.864H183.829Z" fill="#979797"/>
<path d="M235.518 298.639C234.895 298.639 234.335 298.52 233.838 298.281C233.344 298.039 232.949 297.708 232.654 297.287C232.36 296.866 232.202 296.385 232.182 295.845H233.674C233.71 296.283 233.904 296.642 234.255 296.924C234.607 297.206 235.028 297.347 235.518 297.347C235.909 297.347 236.256 297.257 236.557 297.078C236.862 296.896 237.101 296.646 237.273 296.327C237.449 296.009 237.537 295.646 237.537 295.239C237.537 294.824 237.447 294.455 237.268 294.13C237.089 293.805 236.842 293.55 236.527 293.364C236.216 293.179 235.858 293.084 235.453 293.081C235.145 293.081 234.835 293.134 234.524 293.24C234.212 293.346 233.96 293.485 233.768 293.658L232.361 293.449L232.933 288.318H238.531V289.636H234.211L233.887 292.484H233.947C234.146 292.292 234.409 292.131 234.738 292.002C235.069 291.873 235.424 291.808 235.802 291.808C236.421 291.808 236.973 291.956 237.457 292.251C237.944 292.546 238.327 292.948 238.605 293.459C238.887 293.966 239.026 294.549 239.023 295.209C239.026 295.868 238.877 296.457 238.576 296.974C238.277 297.491 237.863 297.898 237.333 298.197C236.806 298.492 236.201 298.639 235.518 298.639ZM243.964 298.669C243.178 298.666 242.507 298.459 241.95 298.048C241.393 297.637 240.968 297.038 240.673 296.253C240.378 295.467 240.23 294.521 240.23 293.414C240.23 292.31 240.378 291.367 240.673 290.585C240.971 289.803 241.398 289.206 241.955 288.795C242.515 288.384 243.185 288.179 243.964 288.179C244.743 288.179 245.41 288.386 245.967 288.8C246.524 289.211 246.95 289.808 247.245 290.59C247.543 291.369 247.692 292.31 247.692 293.414C247.692 294.524 247.545 295.472 247.25 296.258C246.955 297.04 246.529 297.638 245.972 298.053C245.415 298.464 244.746 298.669 243.964 298.669ZM243.964 297.342C244.653 297.342 245.192 297.005 245.579 296.332C245.971 295.66 246.166 294.687 246.166 293.414C246.166 292.569 246.077 291.855 245.898 291.271C245.722 290.685 245.468 290.241 245.137 289.939C244.809 289.634 244.418 289.482 243.964 289.482C243.278 289.482 242.739 289.82 242.348 290.496C241.957 291.172 241.76 292.145 241.756 293.414C241.756 294.263 241.844 294.98 242.02 295.567C242.199 296.15 242.452 296.593 242.78 296.894C243.109 297.192 243.503 297.342 243.964 297.342ZM252.581 298.669C251.795 298.666 251.124 298.459 250.567 298.048C250.011 297.637 249.585 297.038 249.29 296.253C248.995 295.467 248.847 294.521 248.847 293.414C248.847 292.31 248.995 291.367 249.29 290.585C249.588 289.803 250.015 289.206 250.572 288.795C251.132 288.384 251.802 288.179 252.581 288.179C253.36 288.179 254.028 288.386 254.584 288.8C255.141 289.211 255.567 289.808 255.862 290.59C256.16 291.369 256.31 292.31 256.31 293.414C256.31 294.524 256.162 295.472 255.867 296.258C255.572 297.04 255.146 297.638 254.589 298.053C254.033 298.464 253.363 298.669 252.581 298.669ZM252.581 297.342C253.27 297.342 253.809 297.005 254.197 296.332C254.588 295.66 254.783 294.687 254.783 293.414C254.783 292.569 254.694 291.855 254.515 291.271C254.339 290.685 254.086 290.241 253.754 289.939C253.426 289.634 253.035 289.482 252.581 289.482C251.895 289.482 251.356 289.82 250.965 290.496C250.574 291.172 250.377 292.145 250.373 293.414C250.373 294.263 250.461 294.98 250.637 295.567C250.816 296.15 251.069 296.593 251.398 296.894C251.726 297.192 252.12 297.342 252.581 297.342ZM267.426 288.318V289.641H262.614V298.5H261.077V288.318H267.426ZM274.055 290.864V297.282H275.173V300.961H273.707V298.5H267.825V290.864H269.282V297.217H272.603V290.864H274.055Z" fill="#979797"/>
<path d="M321.744 288.318V298.5H320.203V289.859H320.143L317.707 291.45V289.979L320.247 288.318H321.744ZM327.623 298.669C326.837 298.666 326.166 298.459 325.609 298.048C325.053 297.637 324.627 297.038 324.332 296.253C324.037 295.467 323.889 294.521 323.889 293.414C323.889 292.31 324.037 291.367 324.332 290.585C324.63 289.803 325.058 289.206 325.614 288.795C326.175 288.384 326.844 288.179 327.623 288.179C328.402 288.179 329.07 288.386 329.626 288.8C330.183 289.211 330.609 289.808 330.904 290.59C331.202 291.369 331.352 292.31 331.352 293.414C331.352 294.524 331.204 295.472 330.909 296.258C330.614 297.04 330.188 297.638 329.631 298.053C329.075 298.464 328.405 298.669 327.623 298.669ZM327.623 297.342C328.312 297.342 328.851 297.005 329.239 296.332C329.63 295.66 329.825 294.687 329.825 293.414C329.825 292.569 329.736 291.855 329.557 291.271C329.381 290.685 329.128 290.241 328.796 289.939C328.468 289.634 328.077 289.482 327.623 289.482C326.937 289.482 326.398 289.82 326.007 290.496C325.616 291.172 325.419 292.145 325.416 293.414C325.416 294.263 325.503 294.98 325.679 295.567C325.858 296.15 326.112 296.593 326.44 296.894C326.768 297.192 327.162 297.342 327.623 297.342ZM336.24 298.669C335.455 298.666 334.783 298.459 334.227 298.048C333.67 297.637 333.244 297.038 332.949 296.253C332.654 295.467 332.506 294.521 332.506 293.414C332.506 292.31 332.654 291.367 332.949 290.585C333.247 289.803 333.675 289.206 334.232 288.795C334.792 288.384 335.461 288.179 336.24 288.179C337.019 288.179 337.687 288.386 338.244 288.8C338.8 289.211 339.226 289.808 339.521 290.59C339.82 291.369 339.969 292.31 339.969 293.414C339.969 294.524 339.821 295.472 339.526 296.258C339.231 297.04 338.805 297.638 338.249 298.053C337.692 298.464 337.022 298.669 336.24 298.669ZM336.24 297.342C336.929 297.342 337.468 297.005 337.856 296.332C338.247 295.66 338.442 294.687 338.442 293.414C338.442 292.569 338.353 291.855 338.174 291.271C337.998 290.685 337.745 290.241 337.413 289.939C337.085 289.634 336.694 289.482 336.24 289.482C335.554 289.482 335.015 289.82 334.624 290.496C334.233 291.172 334.036 292.145 334.033 293.414C334.033 294.263 334.12 294.98 334.296 295.567C334.475 296.15 334.729 296.593 335.057 296.894C335.385 297.192 335.779 297.342 336.24 297.342ZM344.857 298.669C344.072 298.666 343.4 298.459 342.844 298.048C342.287 297.637 341.861 297.038 341.566 296.253C341.271 295.467 341.123 294.521 341.123 293.414C341.123 292.31 341.271 291.367 341.566 290.585C341.864 289.803 342.292 289.206 342.849 288.795C343.409 288.384 344.078 288.179 344.857 288.179C345.636 288.179 346.304 288.386 346.861 288.8C347.418 289.211 347.843 289.808 348.138 290.59C348.437 291.369 348.586 292.31 348.586 293.414C348.586 294.524 348.438 295.472 348.143 296.258C347.848 297.04 347.422 297.638 346.866 298.053C346.309 298.464 345.639 298.669 344.857 298.669ZM344.857 297.342C345.547 297.342 346.085 297.005 346.473 296.332C346.864 295.66 347.06 294.687 347.06 293.414C347.06 292.569 346.97 291.855 346.791 291.271C346.615 290.685 346.362 290.241 346.03 289.939C345.702 289.634 345.311 289.482 344.857 289.482C344.171 289.482 343.632 289.82 343.241 290.496C342.85 291.172 342.653 292.145 342.65 293.414C342.65 294.263 342.738 294.98 342.913 295.567C343.092 296.15 343.346 296.593 343.674 296.894C344.002 297.192 344.396 297.342 344.857 297.342ZM359.703 288.318V289.641H354.89V298.5H353.354V288.318H359.703ZM366.331 290.864V297.282H367.45V300.961H365.983V298.5H360.102V290.864H361.558V297.217H364.879V290.864H366.331Z" fill="#979797"/>
<path d="M406.897 298.5V297.386L410.342 293.817C410.71 293.429 411.013 293.089 411.252 292.798C411.494 292.503 411.674 292.223 411.794 291.957C411.913 291.692 411.973 291.411 411.973 291.112C411.973 290.774 411.893 290.482 411.734 290.237C411.575 289.989 411.358 289.798 411.083 289.665C410.808 289.53 410.498 289.462 410.153 289.462C409.788 289.462 409.47 289.536 409.198 289.685C408.927 289.835 408.718 290.045 408.572 290.317C408.426 290.589 408.353 290.907 408.353 291.271H406.887C406.887 290.652 407.029 290.11 407.314 289.646C407.599 289.182 407.99 288.822 408.488 288.567C408.985 288.308 409.55 288.179 410.183 288.179C410.823 288.179 411.386 288.307 411.873 288.562C412.364 288.814 412.747 289.158 413.022 289.596C413.297 290.03 413.434 290.521 413.434 291.067C413.434 291.445 413.363 291.815 413.22 292.176C413.081 292.537 412.838 292.94 412.49 293.384C412.142 293.825 411.658 294.36 411.038 294.99L409.015 297.108V297.183H413.598V298.5H406.897ZM418.607 298.669C417.822 298.666 417.151 298.459 416.594 298.048C416.037 297.637 415.611 297.038 415.316 296.253C415.021 295.467 414.874 294.521 414.874 293.414C414.874 292.31 415.021 291.367 415.316 290.585C415.614 289.803 416.042 289.206 416.599 288.795C417.159 288.384 417.828 288.179 418.607 288.179C419.386 288.179 420.054 288.386 420.611 288.8C421.168 289.211 421.594 289.808 421.889 290.59C422.187 291.369 422.336 292.31 422.336 293.414C422.336 294.524 422.189 295.472 421.894 296.258C421.599 297.04 421.173 297.638 420.616 298.053C420.059 298.464 419.39 298.669 418.607 298.669ZM418.607 297.342C419.297 297.342 419.835 297.005 420.223 296.332C420.614 295.66 420.81 294.687 420.81 293.414C420.81 292.569 420.72 291.855 420.541 291.271C420.366 290.685 420.112 290.241 419.781 289.939C419.452 289.634 419.061 289.482 418.607 289.482C417.921 289.482 417.383 289.82 416.992 290.496C416.6 291.172 416.403 292.145 416.4 293.414C416.4 294.263 416.488 294.98 416.663 295.567C416.842 296.15 417.096 296.593 417.424 296.894C417.752 297.192 418.147 297.342 418.607 297.342ZM427.224 298.669C426.439 298.666 425.768 298.459 425.211 298.048C424.654 297.637 424.228 297.038 423.933 296.253C423.638 295.467 423.491 294.521 423.491 293.414C423.491 292.31 423.638 291.367 423.933 290.585C424.232 289.803 424.659 289.206 425.216 288.795C425.776 288.384 426.446 288.179 427.224 288.179C428.003 288.179 428.671 288.386 429.228 288.8C429.785 289.211 430.211 289.808 430.506 290.59C430.804 291.369 430.953 292.31 430.953 293.414C430.953 294.524 430.806 295.472 430.511 296.258C430.216 297.04 429.79 297.638 429.233 298.053C428.676 298.464 428.007 298.669 427.224 298.669ZM427.224 297.342C427.914 297.342 428.452 297.005 428.84 296.332C429.231 295.66 429.427 294.687 429.427 293.414C429.427 292.569 429.337 291.855 429.158 291.271C428.983 290.685 428.729 290.241 428.398 289.939C428.07 289.634 427.678 289.482 427.224 289.482C426.538 289.482 426 289.82 425.609 290.496C425.218 291.172 425.02 292.145 425.017 293.414C425.017 294.263 425.105 294.98 425.281 295.567C425.46 296.15 425.713 296.593 426.041 296.894C426.369 297.192 426.764 297.342 427.224 297.342ZM435.842 298.669C435.056 298.666 434.385 298.459 433.828 298.048C433.271 297.637 432.845 297.038 432.55 296.253C432.255 295.467 432.108 294.521 432.108 293.414C432.108 292.31 432.255 291.367 432.55 290.585C432.849 289.803 433.276 289.206 433.833 288.795C434.393 288.384 435.063 288.179 435.842 288.179C436.62 288.179 437.288 288.386 437.845 288.8C438.402 289.211 438.828 289.808 439.123 290.59C439.421 291.369 439.57 292.31 439.57 293.414C439.57 294.524 439.423 295.472 439.128 296.258C438.833 297.04 438.407 297.638 437.85 298.053C437.293 298.464 436.624 298.669 435.842 298.669ZM435.842 297.342C436.531 297.342 437.07 297.005 437.457 296.332C437.848 295.66 438.044 294.687 438.044 293.414C438.044 292.569 437.954 291.855 437.775 291.271C437.6 290.685 437.346 290.241 437.015 289.939C436.687 289.634 436.296 289.482 435.842 289.482C435.155 289.482 434.617 289.82 434.226 290.496C433.835 291.172 433.637 292.145 433.634 293.414C433.634 294.263 433.722 294.98 433.898 295.567C434.077 296.15 434.33 296.593 434.658 296.894C434.986 297.192 435.381 297.342 435.842 297.342ZM450.687 288.318V289.641H445.874V298.5H444.338V288.318H450.687ZM457.315 290.864V297.282H458.434V300.961H456.967V298.5H451.086V290.864H452.543V297.217H455.864V290.864H457.315Z" fill="#979797"/>
<path d="M58 133.517L58 267M87.1 83.8494L87.1 267M116.2 71.4324L116.2 267M145.3 46.5984L145.3 267M174.4 7.79536L174.4 267M203.5 -27.9035L203.5 267M232.6 -68.2587L232.6 267M261.7 -83.7799V267M290.8 -111.718V267M319.9 -130.344V267M349 -108.614V267M378.1 -49.6332V267M407.2 -6.17375V267M465.4 -62.0502V267M494.5 -76.0193V267M523.6 -89.9884V267M552.7 -102.405V267M581.8 -111.718V267M610.9 -102.405V267M640 -135V267M435.4 -62.0502V267" stroke="url(#paint0_linear_2473_1624)"/>
<line x1="58.5" y1="267" x2="58.5" y2="281" stroke="#979797"/>
<line x1="145.7" y1="267" x2="145.7" y2="281" stroke="#979797"/>
<line x1="232.9" y1="267" x2="232.9" y2="281" stroke="#979797"/>
<line x1="320.1" y1="267" x2="320.1" y2="281" stroke="#979797"/>
<line x1="407.3" y1="267" x2="407.3" y2="281" stroke="#979797"/>
<line x1="494.5" y1="267" x2="494.5" y2="281" stroke="#979797"/>
<path d="M986 267L58 267" stroke="#979797"/>
<path d="M987 232H59M987 204H59M987 176H59M987 148H59M987 120H59M987 92H59M987 64H59M987 36H59M987 8H59M987 -20L59 -20" stroke="url(#paint1_linear_2473_1624)" stroke-dasharray="3 9"/>
<mask id="path-15-outside-1_2473_1624" maskUnits="userSpaceOnUse" x="311" y="182" width="203" height="62" fill="black">
<rect fill="white" x="311" y="182" width="203" height="62"/>
<path d="M345.344 197V229H340.906L324.641 205.531H324.344V229H319.516V197H323.984L340.266 220.5H340.562V197H345.344ZM351.067 229V197H362.473C364.952 197 367.009 197.427 368.645 198.281C370.291 199.135 371.52 200.318 372.332 201.828C373.145 203.328 373.551 205.062 373.551 207.031C373.551 208.99 373.14 210.714 372.317 212.203C371.504 213.682 370.275 214.833 368.629 215.656C366.994 216.479 364.937 216.891 362.457 216.891H353.817V212.734H362.02C363.582 212.734 364.853 212.51 365.832 212.062C366.822 211.615 367.546 210.964 368.004 210.109C368.463 209.255 368.692 208.229 368.692 207.031C368.692 205.823 368.457 204.776 367.989 203.891C367.53 203.005 366.806 202.328 365.817 201.859C364.838 201.38 363.551 201.141 361.957 201.141H355.895V229H351.067ZM366.864 214.562L374.77 229H369.27L361.52 214.562H366.864ZM404.684 207.406H399.809C399.622 206.365 399.273 205.448 398.762 204.656C398.252 203.865 397.627 203.193 396.887 202.641C396.148 202.089 395.32 201.672 394.403 201.391C393.497 201.109 392.533 200.969 391.512 200.969C389.669 200.969 388.018 201.432 386.559 202.359C385.111 203.286 383.965 204.646 383.122 206.437C382.288 208.229 381.872 210.417 381.872 213C381.872 215.604 382.288 217.802 383.122 219.594C383.965 221.385 385.117 222.74 386.575 223.656C388.033 224.573 389.674 225.031 391.497 225.031C392.507 225.031 393.465 224.896 394.372 224.625C395.288 224.344 396.117 223.932 396.856 223.391C397.596 222.849 398.221 222.187 398.731 221.406C399.252 220.615 399.611 219.708 399.809 218.688L404.684 218.703C404.424 220.276 403.919 221.724 403.169 223.047C402.429 224.359 401.476 225.495 400.309 226.453C399.153 227.401 397.83 228.135 396.34 228.656C394.851 229.177 393.226 229.437 391.465 229.437C388.695 229.437 386.226 228.781 384.059 227.469C381.893 226.146 380.184 224.255 378.934 221.797C377.695 219.339 377.075 216.406 377.075 213C377.075 209.583 377.7 206.651 378.95 204.203C380.2 201.745 381.908 199.859 384.075 198.547C386.242 197.224 388.705 196.562 391.465 196.562C393.163 196.562 394.747 196.807 396.215 197.297C397.695 197.776 399.023 198.484 400.2 199.422C401.377 200.349 402.351 201.484 403.122 202.828C403.893 204.161 404.413 205.687 404.684 207.406ZM440.982 215.156L420.232 225.219V220.437L435.544 213.469L435.388 213.734V213.063L435.544 213.344L420.232 206.359V201.594L440.982 211.656V215.156ZM458.154 229.531C455.685 229.521 453.576 228.87 451.826 227.578C450.076 226.286 448.737 224.406 447.81 221.937C446.883 219.469 446.42 216.495 446.42 213.016C446.42 209.547 446.883 206.583 447.81 204.125C448.748 201.667 450.091 199.792 451.841 198.5C453.602 197.208 455.706 196.562 458.154 196.562C460.602 196.562 462.701 197.214 464.451 198.516C466.201 199.807 467.539 201.682 468.466 204.141C469.404 206.589 469.873 209.547 469.873 213.016C469.873 216.505 469.409 219.484 468.482 221.953C467.555 224.411 466.216 226.292 464.466 227.594C462.716 228.885 460.612 229.531 458.154 229.531ZM458.154 225.359C460.321 225.359 462.013 224.302 463.232 222.187C464.461 220.073 465.076 217.016 465.076 213.016C465.076 210.359 464.795 208.115 464.232 206.281C463.68 204.437 462.883 203.042 461.841 202.094C460.81 201.135 459.581 200.656 458.154 200.656C455.998 200.656 454.305 201.719 453.076 203.844C451.847 205.969 451.227 209.026 451.216 213.016C451.216 215.682 451.492 217.938 452.045 219.781C452.607 221.615 453.404 223.005 454.435 223.953C455.466 224.891 456.706 225.359 458.154 225.359ZM476.076 229.297C475.222 229.297 474.488 228.995 473.873 228.391C473.258 227.776 472.951 227.036 472.951 226.172C472.951 225.318 473.258 224.589 473.873 223.984C474.488 223.37 475.222 223.062 476.076 223.062C476.93 223.062 477.665 223.37 478.279 223.984C478.894 224.589 479.201 225.318 479.201 226.172C479.201 226.745 479.055 227.271 478.764 227.75C478.482 228.219 478.107 228.594 477.639 228.875C477.17 229.156 476.649 229.297 476.076 229.297ZM493.815 229.437C491.575 229.437 489.596 229.052 487.877 228.281C486.169 227.51 484.83 226.448 483.862 225.094C482.893 223.74 482.414 222.198 482.424 220.469C482.414 219.115 482.69 217.87 483.252 216.734C483.825 215.589 484.601 214.635 485.58 213.875C486.559 213.104 487.653 212.615 488.862 212.406V212.219C487.268 211.833 485.992 210.979 485.033 209.656C484.075 208.333 483.601 206.812 483.612 205.094C483.601 203.458 484.033 202 484.908 200.719C485.794 199.427 487.007 198.411 488.549 197.672C490.091 196.932 491.846 196.562 493.815 196.562C495.763 196.562 497.502 196.937 499.033 197.687C500.575 198.427 501.789 199.443 502.674 200.734C503.559 202.016 504.007 203.469 504.018 205.094C504.007 206.812 503.518 208.333 502.549 209.656C501.58 210.979 500.32 211.833 498.768 212.219V212.406C499.966 212.615 501.044 213.104 502.002 213.875C502.971 214.635 503.742 215.589 504.315 216.734C504.898 217.87 505.195 219.115 505.205 220.469C505.195 222.198 504.705 223.74 503.737 225.094C502.768 226.448 501.424 227.51 499.705 228.281C497.997 229.052 496.033 229.437 493.815 229.437ZM493.815 225.484C495.138 225.484 496.283 225.266 497.252 224.828C498.221 224.38 498.971 223.76 499.502 222.969C500.033 222.167 500.304 221.229 500.315 220.156C500.304 219.042 500.013 218.057 499.44 217.203C498.877 216.349 498.112 215.677 497.143 215.187C496.174 214.698 495.065 214.453 493.815 214.453C492.554 214.453 491.434 214.698 490.455 215.187C489.476 215.677 488.705 216.349 488.143 217.203C487.58 218.057 487.304 219.042 487.315 220.156C487.304 221.229 487.559 222.167 488.08 222.969C488.612 223.76 489.367 224.38 490.346 224.828C491.325 225.266 492.481 225.484 493.815 225.484ZM493.815 210.594C494.877 210.594 495.82 210.38 496.643 209.953C497.466 209.526 498.112 208.932 498.58 208.172C499.059 207.411 499.304 206.521 499.315 205.5C499.304 204.5 499.065 203.625 498.596 202.875C498.138 202.125 497.497 201.547 496.674 201.141C495.851 200.724 494.898 200.516 493.815 200.516C492.711 200.516 491.742 200.724 490.908 201.141C490.086 201.547 489.445 202.125 488.987 202.875C488.528 203.625 488.304 204.5 488.315 205.5C488.304 206.521 488.533 207.411 489.002 208.172C489.471 208.932 490.117 209.526 490.94 209.953C491.773 210.38 492.731 210.594 493.815 210.594Z"/>
</mask>
<path d="M345.344 197V229H340.906L324.641 205.531H324.344V229H319.516V197H323.984L340.266 220.5H340.562V197H345.344ZM351.067 229V197H362.473C364.952 197 367.009 197.427 368.645 198.281C370.291 199.135 371.52 200.318 372.332 201.828C373.145 203.328 373.551 205.062 373.551 207.031C373.551 208.99 373.14 210.714 372.317 212.203C371.504 213.682 370.275 214.833 368.629 215.656C366.994 216.479 364.937 216.891 362.457 216.891H353.817V212.734H362.02C363.582 212.734 364.853 212.51 365.832 212.062C366.822 211.615 367.546 210.964 368.004 210.109C368.463 209.255 368.692 208.229 368.692 207.031C368.692 205.823 368.457 204.776 367.989 203.891C367.53 203.005 366.806 202.328 365.817 201.859C364.838 201.38 363.551 201.141 361.957 201.141H355.895V229H351.067ZM366.864 214.562L374.77 229H369.27L361.52 214.562H366.864ZM404.684 207.406H399.809C399.622 206.365 399.273 205.448 398.762 204.656C398.252 203.865 397.627 203.193 396.887 202.641C396.148 202.089 395.32 201.672 394.403 201.391C393.497 201.109 392.533 200.969 391.512 200.969C389.669 200.969 388.018 201.432 386.559 202.359C385.111 203.286 383.965 204.646 383.122 206.437C382.288 208.229 381.872 210.417 381.872 213C381.872 215.604 382.288 217.802 383.122 219.594C383.965 221.385 385.117 222.74 386.575 223.656C388.033 224.573 389.674 225.031 391.497 225.031C392.507 225.031 393.465 224.896 394.372 224.625C395.288 224.344 396.117 223.932 396.856 223.391C397.596 222.849 398.221 222.187 398.731 221.406C399.252 220.615 399.611 219.708 399.809 218.688L404.684 218.703C404.424 220.276 403.919 221.724 403.169 223.047C402.429 224.359 401.476 225.495 400.309 226.453C399.153 227.401 397.83 228.135 396.34 228.656C394.851 229.177 393.226 229.437 391.465 229.437C388.695 229.437 386.226 228.781 384.059 227.469C381.893 226.146 380.184 224.255 378.934 221.797C377.695 219.339 377.075 216.406 377.075 213C377.075 209.583 377.7 206.651 378.95 204.203C380.2 201.745 381.908 199.859 384.075 198.547C386.242 197.224 388.705 196.562 391.465 196.562C393.163 196.562 394.747 196.807 396.215 197.297C397.695 197.776 399.023 198.484 400.2 199.422C401.377 200.349 402.351 201.484 403.122 202.828C403.893 204.161 404.413 205.687 404.684 207.406ZM440.982 215.156L420.232 225.219V220.437L435.544 213.469L435.388 213.734V213.063L435.544 213.344L420.232 206.359V201.594L440.982 211.656V215.156ZM458.154 229.531C455.685 229.521 453.576 228.87 451.826 227.578C450.076 226.286 448.737 224.406 447.81 221.937C446.883 219.469 446.42 216.495 446.42 213.016C446.42 209.547 446.883 206.583 447.81 204.125C448.748 201.667 450.091 199.792 451.841 198.5C453.602 197.208 455.706 196.562 458.154 196.562C460.602 196.562 462.701 197.214 464.451 198.516C466.201 199.807 467.539 201.682 468.466 204.141C469.404 206.589 469.873 209.547 469.873 213.016C469.873 216.505 469.409 219.484 468.482 221.953C467.555 224.411 466.216 226.292 464.466 227.594C462.716 228.885 460.612 229.531 458.154 229.531ZM458.154 225.359C460.321 225.359 462.013 224.302 463.232 222.187C464.461 220.073 465.076 217.016 465.076 213.016C465.076 210.359 464.795 208.115 464.232 206.281C463.68 204.437 462.883 203.042 461.841 202.094C460.81 201.135 459.581 200.656 458.154 200.656C455.998 200.656 454.305 201.719 453.076 203.844C451.847 205.969 451.227 209.026 451.216 213.016C451.216 215.682 451.492 217.938 452.045 219.781C452.607 221.615 453.404 223.005 454.435 223.953C455.466 224.891 456.706 225.359 458.154 225.359ZM476.076 229.297C475.222 229.297 474.488 228.995 473.873 228.391C473.258 227.776 472.951 227.036 472.951 226.172C472.951 225.318 473.258 224.589 473.873 223.984C474.488 223.37 475.222 223.062 476.076 223.062C476.93 223.062 477.665 223.37 478.279 223.984C478.894 224.589 479.201 225.318 479.201 226.172C479.201 226.745 479.055 227.271 478.764 227.75C478.482 228.219 478.107 228.594 477.639 228.875C477.17 229.156 476.649 229.297 476.076 229.297ZM493.815 229.437C491.575 229.437 489.596 229.052 487.877 228.281C486.169 227.51 484.83 226.448 483.862 225.094C482.893 223.74 482.414 222.198 482.424 220.469C482.414 219.115 482.69 217.87 483.252 216.734C483.825 215.589 484.601 214.635 485.58 213.875C486.559 213.104 487.653 212.615 488.862 212.406V212.219C487.268 211.833 485.992 210.979 485.033 209.656C484.075 208.333 483.601 206.812 483.612 205.094C483.601 203.458 484.033 202 484.908 200.719C485.794 199.427 487.007 198.411 488.549 197.672C490.091 196.932 491.846 196.562 493.815 196.562C495.763 196.562 497.502 196.937 499.033 197.687C500.575 198.427 501.789 199.443 502.674 200.734C503.559 202.016 504.007 203.469 504.018 205.094C504.007 206.812 503.518 208.333 502.549 209.656C501.58 210.979 500.32 211.833 498.768 212.219V212.406C499.966 212.615 501.044 213.104 502.002 213.875C502.971 214.635 503.742 215.589 504.315 216.734C504.898 217.87 505.195 219.115 505.205 220.469C505.195 222.198 504.705 223.74 503.737 225.094C502.768 226.448 501.424 227.51 499.705 228.281C497.997 229.052 496.033 229.437 493.815 229.437ZM493.815 225.484C495.138 225.484 496.283 225.266 497.252 224.828C498.221 224.38 498.971 223.76 499.502 222.969C500.033 222.167 500.304 221.229 500.315 220.156C500.304 219.042 500.013 218.057 499.44 217.203C498.877 216.349 498.112 215.677 497.143 215.187C496.174 214.698 495.065 214.453 493.815 214.453C492.554 214.453 491.434 214.698 490.455 215.187C489.476 215.677 488.705 216.349 488.143 217.203C487.58 218.057 487.304 219.042 487.315 220.156C487.304 221.229 487.559 222.167 488.08 222.969C488.612 223.76 489.367 224.38 490.346 224.828C491.325 225.266 492.481 225.484 493.815 225.484ZM493.815 210.594C494.877 210.594 495.82 210.38 496.643 209.953C497.466 209.526 498.112 208.932 498.58 208.172C499.059 207.411 499.304 206.521 499.315 205.5C499.304 204.5 499.065 203.625 498.596 202.875C498.138 202.125 497.497 201.547 496.674 201.141C495.851 200.724 494.898 200.516 493.815 200.516C492.711 200.516 491.742 200.724 490.908 201.141C490.086 201.547 489.445 202.125 488.987 202.875C488.528 203.625 488.304 204.5 488.315 205.5C488.304 206.521 488.533 207.411 489.002 208.172C489.471 208.932 490.117 209.526 490.94 209.953C491.773 210.38 492.731 210.594 493.815 210.594Z" fill="#979797"/>
<path d="M345.344 197H353.344V189H345.344V197ZM345.344 229V237H353.344V229H345.344ZM340.906 229L334.331 233.557L336.717 237H340.906V229ZM324.641 205.531L331.216 200.974L328.83 197.531H324.641V205.531ZM324.344 205.531V197.531H316.344V205.531H324.344ZM324.344 229V237H332.344V229H324.344ZM319.516 229H311.516V237H319.516V229ZM319.516 197V189H311.516V197H319.516ZM323.984 197L330.56 192.444L328.174 189H323.984V197ZM340.266 220.5L333.69 225.056L336.076 228.5H340.266V220.5ZM340.562 220.5V228.5H348.562V220.5H340.562ZM340.562 197V189H332.562V197H340.562ZM337.344 197V229H353.344V197H337.344ZM345.344 221H340.906V237H345.344V221ZM347.481 224.443L331.216 200.974L318.065 210.088L334.331 233.557L347.481 224.443ZM324.641 197.531H324.344V213.531H324.641V197.531ZM316.344 205.531V229H332.344V205.531H316.344ZM324.344 221H319.516V237H324.344V221ZM327.516 229V197H311.516V229H327.516ZM319.516 205H323.984V189H319.516V205ZM317.408 201.556L333.69 225.056L346.842 215.944L330.56 192.444L317.408 201.556ZM340.266 228.5H340.562V212.5H340.266V228.5ZM348.562 220.5V197H332.562V220.5H348.562ZM340.562 205H345.344V189H340.562V205ZM351.067 229H343.067V237H351.067V229ZM351.067 197V189H343.067V197H351.067ZM368.645 198.281L364.941 205.372L364.95 205.377L364.96 205.382L368.645 198.281ZM372.332 201.828L365.287 205.618L365.292 205.628L365.298 205.638L372.332 201.828ZM372.317 212.203L365.314 208.335L365.31 208.343L365.305 208.352L372.317 212.203ZM368.629 215.656L365.052 208.501L365.042 208.505L365.033 208.51L368.629 215.656ZM353.817 216.891H345.817V224.891H353.817V216.891ZM353.817 212.734V204.734H345.817V212.734H353.817ZM365.832 212.062L362.533 204.774L362.519 204.781L362.504 204.788L365.832 212.062ZM367.989 203.891L360.884 207.568L360.901 207.601L360.918 207.634L367.989 203.891ZM365.817 201.859L362.3 209.045L362.346 209.067L362.392 209.089L365.817 201.859ZM355.895 201.141V193.141H347.895V201.141H355.895ZM355.895 229V237H363.895V229H355.895ZM366.864 214.562L373.88 210.72L371.604 206.562H366.864V214.562ZM374.77 229V237H388.272L381.787 225.157L374.77 229ZM369.27 229L362.221 232.784L364.484 237H369.27V229ZM361.52 214.562V206.562H348.146L354.471 218.346L361.52 214.562ZM359.067 229V197H343.067V229H359.067ZM351.067 205H362.473V189H351.067V205ZM362.473 205C364.086 205 364.774 205.285 364.941 205.372L372.348 191.19C369.245 189.569 365.818 189 362.473 189V205ZM364.96 205.382C365.161 205.486 365.24 205.559 365.255 205.574C365.267 205.586 365.273 205.591 365.287 205.618L379.378 198.038C377.741 194.996 375.282 192.712 372.33 191.181L364.96 205.382ZM365.298 205.638C365.385 205.799 365.551 206.187 365.551 207.031H381.551C381.551 203.938 380.905 200.857 379.367 198.018L365.298 205.638ZM365.551 207.031C365.551 207.843 365.39 208.198 365.314 208.335L379.319 216.072C380.889 213.23 381.551 210.137 381.551 207.031H365.551ZM365.305 208.352C365.302 208.357 365.303 208.354 365.31 208.346C365.316 208.337 365.32 208.334 365.317 208.336C365.316 208.338 365.248 208.403 365.052 208.501L372.207 222.812C375.169 221.331 377.663 219.088 379.329 216.055L365.305 208.352ZM365.033 208.51C364.837 208.609 364.108 208.891 362.457 208.891V224.891C365.765 224.891 369.151 224.349 372.225 222.803L365.033 208.51ZM362.457 208.891H353.817V224.891H362.457V208.891ZM361.817 216.891V212.734H345.817V216.891H361.817ZM353.817 220.734H362.02V204.734H353.817V220.734ZM362.02 220.734C364.253 220.734 366.776 220.428 369.16 219.337L362.504 204.788C362.741 204.679 362.85 204.671 362.756 204.688C362.663 204.704 362.429 204.734 362.02 204.734V220.734ZM369.131 219.351C371.519 218.27 373.664 216.481 375.054 213.892L360.955 206.327C361.165 205.935 361.446 205.58 361.768 205.29C362.083 205.007 362.366 204.85 362.533 204.774L369.131 219.351ZM375.054 213.892C376.266 211.631 376.692 209.242 376.692 207.031H360.692C360.692 207.216 360.659 206.879 360.955 206.327L375.054 213.892ZM376.692 207.031C376.692 204.785 376.252 202.401 375.059 200.148L360.918 207.634C360.663 207.151 360.692 206.861 360.692 207.031H376.692ZM375.093 200.213C373.75 197.618 371.649 195.77 369.241 194.629L362.392 209.089C362.217 209.006 361.939 208.844 361.637 208.562C361.329 208.273 361.072 207.931 360.884 207.568L375.093 200.213ZM369.333 194.674C366.872 193.469 364.25 193.141 361.957 193.141V209.141C362.365 209.141 362.583 209.172 362.653 209.185C362.722 209.198 362.575 209.18 362.3 209.045L369.333 194.674ZM361.957 193.141H355.895V209.141H361.957V193.141ZM347.895 201.141V229H363.895V201.141H347.895ZM355.895 221H351.067V237H355.895V221ZM359.847 218.405L367.753 232.843L381.787 225.157L373.88 210.72L359.847 218.405ZM374.77 221H369.27V237H374.77V221ZM376.319 225.216L368.569 210.779L354.471 218.346L362.221 232.784L376.319 225.216ZM361.52 222.562H366.864V206.562H361.52V222.562ZM404.684 207.406V215.406H414.044L412.587 206.161L404.684 207.406ZM399.809 207.406L391.936 208.823L393.121 215.406H399.809V207.406ZM396.887 202.641L401.673 196.23L401.673 196.23L396.887 202.641ZM394.403 201.391L392.032 209.031L392.044 209.035L392.056 209.039L394.403 201.391ZM386.559 202.359L382.267 195.608L382.256 195.615L382.245 195.622L386.559 202.359ZM383.122 206.437L375.884 203.029L375.876 203.046L375.868 203.064L383.122 206.437ZM383.122 219.594L375.868 222.968L375.876 222.985L375.884 223.002L383.122 219.594ZM386.575 223.656L382.317 230.429V230.429L386.575 223.656ZM394.372 224.625L396.662 232.29L396.69 232.282L396.718 232.273L394.372 224.625ZM396.856 223.391L392.129 216.936L396.856 223.391ZM398.731 221.406L392.048 217.009L392.041 217.02L392.034 217.031L398.731 221.406ZM399.809 218.688L399.835 210.688L393.215 210.666L391.955 217.165L399.809 218.688ZM404.684 218.703L412.577 220.01L414.113 210.733L404.71 210.703L404.684 218.703ZM403.169 223.047L396.209 219.101L396.204 219.11L396.199 219.12L403.169 223.047ZM400.309 226.453L405.381 232.64L405.387 232.635L400.309 226.453ZM396.34 228.656L398.981 236.208L396.34 228.656ZM384.059 227.469L379.89 234.297L379.902 234.304L379.914 234.311L384.059 227.469ZM378.934 221.797L371.791 225.399L371.797 225.411L371.803 225.423L378.934 221.797ZM378.95 204.203L386.075 207.841L386.081 207.829L378.95 204.203ZM384.075 198.547L388.22 205.389L388.232 205.382L388.244 205.375L384.075 198.547ZM396.215 197.297L393.686 204.886L393.718 204.897L393.75 204.908L396.215 197.297ZM400.2 199.422L395.216 205.68L395.233 205.693L395.25 205.707L400.2 199.422ZM403.122 202.828L396.182 206.809L396.189 206.82L396.196 206.832L403.122 202.828ZM404.684 199.406H399.809V215.406H404.684V199.406ZM407.683 205.989C407.331 204.037 406.635 202.103 405.486 200.321L392.039 208.991C391.98 208.899 391.946 208.825 391.93 208.784C391.915 208.744 391.923 208.752 391.936 208.823L407.683 205.989ZM405.486 200.321C404.469 198.744 403.193 197.365 401.673 196.23L392.102 209.051C392.088 209.041 392.07 209.026 392.053 209.007C392.036 208.989 392.032 208.981 392.039 208.991L405.486 200.321ZM401.673 196.23C400.169 195.107 398.51 194.283 396.75 193.743L392.056 209.039C392.079 209.046 392.094 209.051 392.103 209.055C392.112 209.058 392.116 209.06 392.116 209.06C392.116 209.061 392.114 209.06 392.111 209.057C392.107 209.055 392.104 209.053 392.102 209.051L401.673 196.23ZM396.774 193.75C395.044 193.213 393.276 192.969 391.512 192.969V208.969C391.79 208.969 391.949 209.006 392.032 209.031L396.774 193.75ZM391.512 192.969C388.255 192.969 385.095 193.81 382.267 195.608L390.851 209.111C390.94 209.054 391.082 208.969 391.512 208.969V192.969ZM382.245 195.622C379.346 197.479 377.27 200.086 375.884 203.029L390.359 209.846C390.518 209.508 390.653 209.322 390.731 209.23C390.803 209.144 390.849 209.112 390.873 209.097L382.245 195.622ZM375.868 203.064C374.416 206.184 373.872 209.594 373.872 213H389.872C389.872 211.239 390.16 210.274 390.375 209.811L375.868 203.064ZM373.872 213C373.872 216.416 374.413 219.839 375.868 222.968L390.375 216.22C390.164 215.765 389.872 214.793 389.872 213H373.872ZM375.884 223.002C377.279 225.965 379.379 228.583 382.317 230.429L390.832 216.883C390.815 216.872 390.778 216.848 390.713 216.772C390.644 216.69 390.514 216.514 390.359 216.185L375.884 223.002ZM382.317 230.429C385.127 232.195 388.259 233.031 391.497 233.031V217.031C391.088 217.031 390.94 216.951 390.832 216.883L382.317 230.429ZM391.497 233.031C393.23 233.031 394.964 232.798 396.662 232.29L392.081 216.96C391.967 216.994 391.784 217.031 391.497 217.031V233.031ZM396.718 232.273C398.45 231.742 400.09 230.939 401.583 229.845L392.129 216.936C392.129 216.937 392.129 216.937 392.129 216.936C392.129 216.936 392.129 216.937 392.129 216.937C392.128 216.937 392.126 216.938 392.121 216.941C392.111 216.946 392.082 216.959 392.025 216.977L396.718 232.273ZM401.583 229.845C403.113 228.724 404.401 227.354 405.428 225.782L392.034 217.031C392.032 217.033 392.042 217.018 392.065 216.994C392.087 216.97 392.111 216.95 392.129 216.936L401.583 229.845ZM405.414 225.803C406.563 224.058 407.286 222.156 407.663 220.21L391.955 217.165C391.945 217.22 391.94 217.222 391.955 217.184C391.97 217.144 392 217.082 392.048 217.009L405.414 225.803ZM399.784 226.687L404.659 226.703L404.71 210.703L399.835 210.688L399.784 226.687ZM396.792 217.396C396.677 218.087 396.473 218.635 396.209 219.101L410.128 226.992C411.364 224.812 412.17 222.465 412.577 220.01L396.792 217.396ZM396.199 219.12C395.946 219.568 395.635 219.94 395.231 220.271L405.387 232.635C407.317 231.05 408.912 229.151 410.138 226.974L396.199 219.12ZM395.237 220.266C394.845 220.588 394.355 220.876 393.7 221.105L398.981 236.208C401.305 235.395 403.461 234.214 405.381 232.64L395.237 220.266ZM393.7 221.105C393.151 221.296 392.43 221.438 391.465 221.438V237.438C394.022 237.438 396.55 237.058 398.981 236.208L393.7 221.105ZM391.465 221.438C390.014 221.438 389.005 221.111 388.204 220.626L379.914 234.311C383.447 236.451 387.375 237.438 391.465 237.438V221.438ZM388.228 220.641C387.435 220.157 386.704 219.426 386.065 218.171L371.803 225.423C373.665 229.084 376.35 232.135 379.89 234.297L388.228 220.641ZM386.077 218.195C385.519 217.088 385.075 215.446 385.075 213H369.075C369.075 217.366 369.87 221.59 371.791 225.399L386.077 218.195ZM385.075 213C385.075 210.547 385.523 208.922 386.075 207.841L371.825 200.565C369.877 204.38 369.075 208.62 369.075 213H385.075ZM386.081 207.829C386.717 206.578 387.441 205.861 388.22 205.389L379.93 191.704C376.375 193.858 373.683 196.912 371.819 200.577L386.081 207.829ZM388.244 205.375C389.046 204.885 390.043 204.562 391.465 204.562V188.562C387.367 188.562 383.437 189.563 379.906 191.719L388.244 205.375ZM391.465 204.562C392.386 204.562 393.108 204.694 393.686 204.886L398.745 189.707C396.386 188.921 393.94 188.562 391.465 188.562V204.562ZM393.75 204.908C394.346 205.101 394.815 205.361 395.216 205.68L405.184 193.164C403.23 191.608 401.043 190.451 398.681 189.686L393.75 204.908ZM395.25 205.707C395.595 205.979 395.904 206.323 396.182 206.809L410.061 198.847C408.798 196.646 407.159 194.719 405.15 193.137L395.25 205.707ZM396.196 206.832C396.415 207.211 396.644 207.779 396.782 208.651L412.587 206.161C412.182 203.596 411.371 201.112 410.048 198.824L396.196 206.832ZM440.982 215.156L444.472 222.355L448.982 220.168V215.156H440.982ZM420.232 225.219H412.232V237.989L423.722 232.417L420.232 225.219ZM420.232 220.438L416.918 213.156L412.232 215.289V220.438H420.232ZM435.544 213.469L442.44 217.525L455.279 195.698L432.23 206.187L435.544 213.469ZM435.388 213.734H427.388V243.113L442.283 217.791L435.388 213.734ZM435.388 213.062L442.381 209.177L427.388 182.189V213.062H435.388ZM435.544 213.344L432.224 220.622L454.345 230.712L442.537 209.459L435.544 213.344ZM420.232 206.359H412.232V211.503L416.912 213.638L420.232 206.359ZM420.232 201.594L423.722 194.395L412.232 188.823V201.594H420.232ZM440.982 211.656H448.982V206.645L444.472 204.458L440.982 211.656ZM437.491 207.958L416.741 218.02L423.722 232.417L444.472 222.355L437.491 207.958ZM428.232 225.219V220.438H412.232V225.219H428.232ZM423.546 227.719L438.858 220.75L432.23 206.187L416.918 213.156L423.546 227.719ZM428.649 209.413L428.492 209.678L442.283 217.791L442.44 217.525L428.649 209.413ZM443.388 213.734V213.062H427.388V213.734H443.388ZM428.395 216.948L428.551 217.229L442.537 209.459L442.381 209.177L428.395 216.948ZM438.864 206.065L423.552 199.081L416.912 213.638L432.224 220.622L438.864 206.065ZM428.232 206.359V201.594H412.232V206.359H428.232ZM416.741 208.792L437.491 218.855L444.472 204.458L423.722 194.395L416.741 208.792ZM432.982 211.656V215.156H448.982V211.656H432.982ZM458.154 229.531L458.12 237.531L458.137 237.531H458.154V229.531ZM447.81 221.938L455.299 219.125H455.299L447.81 221.938ZM447.81 204.125L440.335 201.274L440.33 201.288L440.325 201.302L447.81 204.125ZM451.841 198.5L447.109 192.05L447.1 192.057L447.091 192.063L451.841 198.5ZM464.451 198.516L459.675 204.934L459.688 204.943L459.7 204.952L464.451 198.516ZM468.466 204.141L460.981 206.964L460.988 206.983L460.996 207.002L468.466 204.141ZM468.482 221.953L475.967 224.776L475.971 224.766L468.482 221.953ZM464.466 227.594L469.217 234.03L469.23 234.021L469.242 234.012L464.466 227.594ZM463.232 222.188L456.316 218.167L456.308 218.18L456.301 218.193L463.232 222.188ZM464.232 206.281L456.568 208.576L456.576 208.602L456.584 208.628L464.232 206.281ZM461.841 202.094L456.396 207.954L456.426 207.982L456.457 208.011L461.841 202.094ZM453.076 203.844L446.151 199.838V199.838L453.076 203.844ZM451.216 213.016L443.216 212.995L443.216 213.005V213.016H451.216ZM452.045 219.781L444.381 222.076L444.388 222.102L444.396 222.128L452.045 219.781ZM454.435 223.953L449.021 229.843L449.037 229.858L449.054 229.873L454.435 223.953ZM458.188 221.531C457.178 221.527 456.779 221.291 456.577 221.142L447.075 234.015C450.372 236.448 454.192 237.515 458.12 237.531L458.188 221.531ZM456.577 221.142C456.313 220.947 455.8 220.457 455.299 219.125L440.321 224.75C441.675 228.356 443.839 231.626 447.075 234.015L456.577 221.142ZM455.299 219.125C454.799 217.792 454.42 215.824 454.42 213.016H438.42C438.42 217.166 438.967 221.146 440.321 224.75L455.299 219.125ZM454.42 213.016C454.42 210.22 454.798 208.266 455.296 206.948L440.325 201.302C438.968 204.9 438.42 208.874 438.42 213.016H454.42ZM455.285 206.976C455.792 205.646 456.312 205.144 456.592 204.937L447.091 192.063C443.871 194.44 441.703 197.687 440.335 201.274L455.285 206.976ZM456.574 204.95C456.798 204.786 457.192 204.562 458.154 204.562V188.562C454.22 188.562 450.406 189.631 447.109 192.05L456.574 204.95ZM458.154 204.562C459.102 204.562 459.473 204.783 459.675 204.934L469.226 192.097C465.929 189.644 462.102 188.562 458.154 188.562V204.562ZM459.7 204.952C459.972 205.153 460.484 205.645 460.981 206.964L475.952 201.318C474.595 197.719 472.429 194.462 469.202 192.079L459.7 204.952ZM460.996 207.002C461.49 208.294 461.873 210.226 461.873 213.016H477.873C477.873 208.867 477.317 204.883 475.937 201.279L460.996 207.002ZM461.873 213.016C461.873 215.838 461.493 217.81 460.993 219.141L475.971 224.766C477.326 221.159 477.873 217.173 477.873 213.016H461.873ZM460.997 219.13C460.498 220.451 459.981 220.96 459.691 221.175L469.242 234.012C472.452 231.624 474.611 228.372 475.967 224.776L460.997 219.13ZM459.716 221.157C459.518 221.303 459.135 221.531 458.154 221.531V237.531C462.089 237.531 465.915 236.468 469.217 234.03L459.716 221.157ZM458.154 233.359C463.591 233.359 467.734 230.398 470.163 226.182L456.301 218.193C456.202 218.364 456.322 218.086 456.81 217.781C457.048 217.633 457.311 217.518 457.576 217.445C457.837 217.374 458.04 217.359 458.154 217.359V233.359ZM470.148 226.208C472.404 222.328 473.076 217.625 473.076 213.016H457.076C457.076 216.406 456.518 217.818 456.316 218.167L470.148 226.208ZM473.076 213.016C473.076 209.846 472.746 206.758 471.88 203.935L456.584 208.628C456.843 209.471 457.076 210.873 457.076 213.016H473.076ZM471.896 203.986C471.074 201.242 469.667 198.398 467.226 196.177L456.457 208.011C456.277 207.847 456.232 207.747 456.273 207.818C456.317 207.896 456.434 208.126 456.568 208.576L471.896 203.986ZM467.287 196.234C464.754 193.879 461.571 192.656 458.154 192.656V208.656C457.955 208.656 457.625 208.619 457.24 208.469C456.854 208.319 456.569 208.115 456.396 207.954L467.287 196.234ZM458.154 192.656C452.697 192.656 448.572 195.652 446.151 199.838L460.001 207.849C460.11 207.66 460.001 207.927 459.52 208.229C459.285 208.376 459.022 208.493 458.752 208.567C458.487 208.64 458.277 208.656 458.154 208.656V192.656ZM446.151 199.838C443.912 203.709 443.228 208.39 443.216 212.995L459.216 213.037C459.225 209.662 459.781 208.229 460.001 207.849L446.151 199.838ZM443.216 213.016C443.216 216.184 443.538 219.263 444.381 222.076L459.708 217.486C459.446 216.612 459.216 215.181 459.216 213.016H443.216ZM444.396 222.128C445.228 224.839 446.627 227.642 449.021 229.843L459.849 218.063C460.018 218.218 460.053 218.306 460.005 218.222C459.953 218.131 459.832 217.89 459.693 217.435L444.396 222.128ZM449.054 229.873C451.619 232.205 454.801 233.359 458.154 233.359V217.359C458.307 217.359 458.603 217.387 458.968 217.525C459.338 217.665 459.626 217.861 459.817 218.034L449.054 229.873ZM473.873 228.391L468.216 234.047L468.24 234.072L468.265 234.096L473.873 228.391ZM473.873 223.984L479.481 229.689L479.506 229.665L479.53 229.641L473.873 223.984ZM478.279 223.984L472.622 229.641L472.647 229.665L472.671 229.689L478.279 223.984ZM478.764 227.75L471.93 223.59L471.917 223.612L471.904 223.634L478.764 227.75ZM476.076 221.297C476.613 221.297 477.259 221.396 477.928 221.672C478.596 221.947 479.114 222.325 479.481 222.686L468.265 234.096C470.36 236.156 473.103 237.297 476.076 237.297V221.297ZM479.53 222.734C479.9 223.104 480.288 223.628 480.569 224.305C480.851 224.984 480.951 225.635 480.951 226.172H464.951C464.951 229.171 466.11 231.942 468.216 234.047L479.53 222.734ZM480.951 226.172C480.951 226.726 480.846 227.396 480.554 228.091C480.261 228.784 479.86 229.317 479.481 229.689L468.265 218.279C466.136 220.372 464.951 223.151 464.951 226.172H480.951ZM479.53 229.641C479.169 230.002 478.651 230.389 477.973 230.673C477.292 230.958 476.631 231.062 476.076 231.062V215.062C473.059 215.062 470.301 216.242 468.216 218.328L479.53 229.641ZM476.076 231.062C475.521 231.062 474.86 230.958 474.179 230.673C473.502 230.389 472.983 230.002 472.622 229.641L483.936 218.328C481.851 216.242 479.093 215.062 476.076 215.062V231.062ZM472.671 229.689C472.292 229.317 471.891 228.784 471.599 228.091C471.306 227.396 471.201 226.726 471.201 226.172H487.201C487.201 223.151 486.017 220.372 483.888 218.279L472.671 229.689ZM471.201 226.172C471.201 225.31 471.442 224.392 471.93 223.59L485.597 231.91C486.669 230.149 487.201 228.179 487.201 226.172H471.201ZM471.904 223.634C472.298 222.977 472.865 222.409 473.523 222.015L481.755 235.735C483.349 234.778 484.667 233.461 485.624 231.866L471.904 223.634ZM473.523 222.015C474.358 221.514 475.272 221.297 476.076 221.297V237.297C478.026 237.297 479.982 236.799 481.755 235.735L473.523 222.015ZM487.877 228.281L484.587 235.573L484.595 235.577L484.603 235.581L487.877 228.281ZM483.862 225.094L490.368 220.439L483.862 225.094ZM482.424 220.469L490.424 220.517L490.424 220.462L490.424 220.407L482.424 220.469ZM483.252 216.734L476.097 213.157L476.09 213.17L476.084 213.183L483.252 216.734ZM485.58 213.875L490.487 220.193L490.508 220.177L490.529 220.161L485.58 213.875ZM488.862 212.406L490.221 220.29L496.862 219.145V212.406H488.862ZM488.862 212.219H496.862V205.923L490.742 204.443L488.862 212.219ZM485.033 209.656L478.555 214.349L485.033 209.656ZM483.612 205.094L491.611 205.142L491.612 205.093L491.611 205.043L483.612 205.094ZM484.908 200.719L478.31 196.196L478.302 196.207L484.908 200.719ZM488.549 197.672L492.009 204.885L488.549 197.672ZM499.033 197.687L495.514 204.872L495.544 204.886L495.573 204.9L499.033 197.687ZM502.674 200.734L496.076 205.258L496.084 205.27L496.093 205.282L502.674 200.734ZM504.018 205.094L512.018 205.142L512.018 205.092L512.018 205.042L504.018 205.094ZM502.549 209.656L509.004 214.383L502.549 209.656ZM498.768 212.219L496.84 204.455L490.768 205.962V212.219H498.768ZM498.768 212.406H490.768V219.135L497.397 220.288L498.768 212.406ZM502.002 213.875L496.988 220.109L497.025 220.139L497.063 220.168L502.002 213.875ZM504.315 216.734L497.159 220.312L497.179 220.351L497.199 220.39L504.315 216.734ZM505.205 220.469L513.205 220.517L513.205 220.462L513.205 220.407L505.205 220.469ZM503.737 225.094L497.23 220.439V220.439L503.737 225.094ZM499.705 228.281L496.432 220.982L496.423 220.985L496.415 220.989L499.705 228.281ZM497.252 224.828L500.545 232.119L500.577 232.104L500.61 232.09L497.252 224.828ZM499.502 222.969L506.145 227.427L506.159 227.406L506.172 227.386L499.502 222.969ZM500.315 220.156L508.314 220.234L508.315 220.158L508.314 220.081L500.315 220.156ZM499.44 217.203L492.758 221.603L492.777 221.631L492.796 221.659L499.44 217.203ZM497.143 215.188L500.751 208.048L497.143 215.188ZM490.455 215.188L486.878 208.032L490.455 215.188ZM488.143 217.203L481.461 212.803V212.803L488.143 217.203ZM487.315 220.156L495.314 220.234L495.315 220.158L495.314 220.081L487.315 220.156ZM488.08 222.969L481.371 227.326L481.404 227.376L481.437 227.427L488.08 222.969ZM490.346 224.828L487.018 232.103L487.05 232.118L487.082 232.132L490.346 224.828ZM496.643 209.953L492.958 202.852L492.958 202.852L496.643 209.953ZM498.58 208.172L491.812 203.907L491.791 203.94L491.77 203.974L498.58 208.172ZM499.315 205.5L507.314 205.582L507.315 205.499L507.314 205.417L499.315 205.5ZM498.596 202.875L491.77 207.047L491.791 207.081L491.812 207.115L498.596 202.875ZM496.674 201.141L493.06 208.278L493.096 208.296L493.133 208.314L496.674 201.141ZM490.908 201.141L494.45 208.314L494.468 208.305L494.486 208.296L490.908 201.141ZM488.315 205.5L496.314 205.582L496.315 205.499L496.314 205.417L488.315 205.5ZM489.002 208.172L495.812 203.974V203.974L489.002 208.172ZM490.94 209.953L487.255 217.054L487.273 217.063L487.291 217.073L490.94 209.953ZM493.815 221.438C492.493 221.438 491.664 221.212 491.151 220.982L484.603 235.581C487.528 236.892 490.657 237.438 493.815 237.438V221.438ZM491.167 220.989C490.58 220.724 490.417 220.507 490.368 220.439L477.355 229.748C479.244 232.389 481.758 234.297 484.587 235.573L491.167 220.989ZM490.368 220.439C490.363 220.432 490.37 220.441 490.382 220.465C490.394 220.49 490.406 220.518 490.415 220.547C490.419 220.561 490.422 220.573 490.424 220.582C490.426 220.591 490.427 220.596 490.427 220.596C490.427 220.596 490.426 220.59 490.425 220.577C490.425 220.565 490.424 220.545 490.424 220.517L474.424 220.421C474.404 223.766 475.366 226.968 477.355 229.748L490.368 220.439ZM490.424 220.407C490.423 220.35 490.426 220.311 490.428 220.287C490.431 220.263 490.433 220.252 490.434 220.252C490.434 220.251 490.433 220.256 490.429 220.265C490.426 220.274 490.423 220.281 490.421 220.286L476.084 213.183C474.927 215.517 474.405 218.012 474.424 220.53L490.424 220.407ZM490.408 220.312C490.443 220.242 490.465 220.214 490.468 220.211C490.47 220.208 490.471 220.207 490.473 220.206C490.474 220.205 490.478 220.201 490.487 220.193L480.673 207.557C478.717 209.076 477.186 210.977 476.097 213.157L490.408 220.312ZM490.529 220.161C490.523 220.166 490.48 220.197 490.403 220.232C490.327 220.266 490.259 220.283 490.221 220.29L487.502 204.523C484.961 204.961 482.638 206.01 480.632 207.589L490.529 220.161ZM496.862 212.406V212.219H480.862V212.406H496.862ZM490.742 204.443C490.799 204.457 490.962 204.509 491.159 204.641C491.357 204.773 491.472 204.907 491.512 204.963L478.555 214.349C480.635 217.221 483.544 219.163 486.981 219.995L490.742 204.443ZM491.512 204.963C491.517 204.97 491.532 204.992 491.55 205.028C491.569 205.065 491.585 205.105 491.597 205.143C491.609 205.181 491.613 205.206 491.614 205.213C491.615 205.218 491.611 205.196 491.611 205.142L475.612 205.045C475.592 208.372 476.544 211.573 478.555 214.349L491.512 204.963ZM491.611 205.043C491.611 204.995 491.614 204.976 491.613 204.981C491.613 204.987 491.609 205.011 491.598 205.047C491.587 205.083 491.573 205.122 491.555 205.158C491.538 205.195 491.523 205.219 491.515 205.23L478.302 196.207C476.458 198.907 475.592 201.975 475.612 205.145L491.611 205.043ZM491.507 205.242C491.528 205.211 491.612 205.076 492.009 204.885L485.089 190.459C482.403 191.747 480.059 193.643 478.31 196.196L491.507 205.242ZM492.009 204.885C492.319 204.736 492.863 204.562 493.815 204.562V188.562C490.829 188.562 487.863 189.128 485.089 190.459L492.009 204.885ZM493.815 204.562C494.717 204.562 495.225 204.73 495.514 204.872L502.552 190.503C499.779 189.145 496.808 188.562 493.815 188.562V204.562ZM495.573 204.9C495.971 205.091 496.054 205.227 496.076 205.258L509.273 196.211C507.523 193.659 505.18 191.763 502.494 190.475L495.573 204.9ZM496.093 205.282C496.09 205.279 496.079 205.263 496.065 205.234C496.051 205.205 496.039 205.173 496.029 205.142C496.019 205.111 496.016 205.09 496.015 205.085C496.015 205.081 496.018 205.099 496.018 205.145L512.018 205.042C511.997 201.884 511.096 198.849 509.255 196.186L496.093 205.282ZM496.018 205.045C496.018 205.102 496.014 205.127 496.014 205.125C496.014 205.124 496.017 205.104 496.028 205.072C496.038 205.04 496.052 205.006 496.067 204.976C496.075 204.962 496.081 204.951 496.086 204.942C496.092 204.934 496.095 204.93 496.095 204.93L509.004 214.383C511.017 211.634 511.998 208.458 512.018 205.142L496.018 205.045ZM496.095 204.93C496.11 204.908 496.204 204.792 496.389 204.667C496.577 204.539 496.748 204.477 496.84 204.455L500.696 219.983C504.115 219.134 506.959 217.175 509.004 214.383L496.095 204.93ZM490.768 212.219V212.406H506.768V212.219H490.768ZM497.397 220.288C497.346 220.279 497.262 220.257 497.167 220.214C497.072 220.171 497.011 220.127 496.988 220.109L507.016 207.641C505.015 206.032 502.687 204.968 500.139 204.525L497.397 220.288ZM497.063 220.168C497.076 220.179 497.081 220.184 497.087 220.191C497.093 220.198 497.12 220.233 497.159 220.312L511.47 213.157C510.39 210.997 508.878 209.102 506.942 207.582L497.063 220.168ZM497.199 220.39C497.199 220.39 497.199 220.39 497.198 220.388C497.197 220.386 497.196 220.384 497.195 220.381C497.193 220.376 497.193 220.373 497.193 220.375C497.193 220.377 497.205 220.423 497.206 220.53L513.205 220.407C513.186 217.88 512.62 215.394 511.43 213.079L497.199 220.39ZM497.205 220.421C497.205 220.482 497.201 220.514 497.2 220.522C497.199 220.526 497.199 220.526 497.2 220.521C497.201 220.517 497.203 220.51 497.206 220.5C497.208 220.491 497.212 220.481 497.216 220.471C497.22 220.461 497.224 220.452 497.228 220.445C497.232 220.437 497.235 220.433 497.235 220.431C497.236 220.43 497.235 220.432 497.23 220.439L510.243 229.748C512.212 226.996 513.185 223.831 513.205 220.517L497.205 220.421ZM497.23 220.439C497.19 220.496 497.031 220.713 496.432 220.982L502.979 235.581C505.817 234.308 508.346 232.4 510.243 229.748L497.23 220.439ZM496.415 220.989C495.913 221.216 495.105 221.438 493.815 221.438V237.438C496.962 237.438 500.081 236.889 502.996 235.573L496.415 220.989ZM493.815 233.484C496.003 233.484 498.321 233.124 500.545 232.119L493.959 217.537C494.101 217.473 494.181 217.459 494.166 217.462C494.148 217.466 494.038 217.484 493.815 217.484V233.484ZM500.61 232.09C502.747 231.101 504.702 229.578 506.145 227.427L492.859 218.511C493.033 218.252 493.237 218.032 493.445 217.861C493.649 217.692 493.815 217.604 493.895 217.567L500.61 232.09ZM506.172 227.386C507.652 225.151 508.291 222.667 508.314 220.234L492.315 220.079C492.316 219.961 492.333 219.737 492.418 219.444C492.505 219.144 492.643 218.837 492.832 218.551L506.172 227.386ZM508.314 220.081C508.291 217.542 507.599 215.007 506.084 212.747L492.796 221.659C492.632 221.416 492.502 221.14 492.418 220.855C492.335 220.575 492.316 220.355 492.315 220.231L508.314 220.081ZM506.121 212.803C504.743 210.711 502.887 209.127 500.751 208.048L493.534 222.327C493.457 222.288 493.323 222.208 493.167 222.072C493.009 221.933 492.869 221.772 492.758 221.603L506.121 212.803ZM500.751 208.048C498.505 206.912 496.128 206.453 493.815 206.453V222.453C493.917 222.453 493.925 222.463 493.86 222.449C493.792 222.434 493.675 222.398 493.534 222.327L500.751 208.048ZM493.815 206.453C491.501 206.453 489.125 206.909 486.878 208.032L494.033 222.343C493.902 222.408 493.796 222.44 493.738 222.452C493.684 222.464 493.703 222.453 493.815 222.453V206.453ZM486.878 208.032C484.731 209.105 482.853 210.691 481.461 212.803L494.824 221.603C494.707 221.782 494.561 221.949 494.399 222.089C494.24 222.228 494.106 222.306 494.033 222.343L486.878 208.032ZM481.461 212.803C479.946 215.104 479.291 217.676 479.315 220.231L495.314 220.081C495.316 220.212 495.3 220.445 495.217 220.742C495.132 221.045 494.997 221.341 494.824 221.603L481.461 212.803ZM479.315 220.079C479.291 222.526 479.891 225.047 481.371 227.326L494.79 218.612C494.988 218.917 495.131 219.245 495.217 219.563C495.302 219.874 495.316 220.11 495.314 220.234L479.315 220.079ZM481.437 227.427C482.895 229.599 484.873 231.122 487.018 232.103L493.674 217.553C493.748 217.587 493.914 217.674 494.12 217.843C494.332 218.017 494.543 218.242 494.723 218.511L481.437 227.427ZM487.082 232.132C489.306 233.126 491.622 233.484 493.815 233.484V217.484C493.34 217.484 493.344 217.405 493.609 217.524L487.082 232.132ZM493.815 218.594C495.971 218.594 498.21 218.153 500.328 217.054L492.958 202.852C493.178 202.738 493.384 202.669 493.551 202.631C493.714 202.594 493.809 202.594 493.815 202.594V218.594ZM500.328 217.054C502.385 215.986 504.132 214.411 505.39 212.37L491.77 203.974C491.914 203.74 492.102 203.507 492.33 203.298C492.556 203.09 492.777 202.946 492.958 202.852L500.328 217.054ZM505.349 212.437C506.721 210.259 507.291 207.878 507.314 205.582L491.315 205.418C491.316 205.311 491.331 205.098 491.409 204.813C491.489 204.522 491.621 204.21 491.812 203.907L505.349 212.437ZM507.314 205.417C507.291 203.143 506.727 200.79 505.38 198.635L491.812 207.115C491.623 206.813 491.492 206.5 491.411 206.206C491.332 205.919 491.316 205.7 491.315 205.583L507.314 205.417ZM505.422 198.703C504.139 196.604 502.332 195.012 500.215 193.967L493.133 208.314C492.926 208.212 492.672 208.052 492.412 207.818C492.15 207.582 491.934 207.316 491.77 207.047L505.422 198.703ZM500.288 194.003C498.165 192.928 495.935 192.516 493.815 192.516V208.516C493.861 208.516 493.537 208.519 493.06 208.278L500.288 194.003ZM493.815 192.516C491.697 192.516 489.463 192.919 487.331 193.985L494.486 208.296C494.021 208.529 493.724 208.516 493.815 208.516V192.516ZM487.367 193.967C485.25 195.012 483.443 196.604 482.16 198.703L495.813 207.047C495.648 207.316 495.432 207.582 495.17 207.818C494.911 208.052 494.656 208.212 494.45 208.314L487.367 193.967ZM482.16 198.703C480.816 200.903 480.291 203.295 480.315 205.583L496.314 205.417C496.316 205.54 496.303 205.772 496.225 206.077C496.145 206.39 496.01 206.724 495.813 207.047L482.16 198.703ZM480.315 205.418C480.292 207.728 480.822 210.148 482.192 212.37L495.812 203.974C496.012 204.297 496.147 204.631 496.226 204.94C496.304 205.242 496.315 205.468 496.314 205.582L480.315 205.418ZM482.192 212.37C483.45 214.411 485.197 215.986 487.255 217.054L494.625 202.852C494.805 202.946 495.026 203.09 495.253 203.298C495.48 203.507 495.668 203.74 495.812 203.974L482.192 212.37ZM487.291 217.073C489.419 218.163 491.662 218.594 493.815 218.594V202.594C493.799 202.594 493.876 202.592 494.023 202.625C494.175 202.659 494.372 202.723 494.588 202.834L487.291 217.073Z" fill="#F5F5F5" mask="url(#path-15-outside-1_2473_1624)"/>
</g>
<path d="M0 208C46.3096 208 88 208 133.139 158.347L169.013 118.249C181.778 103.982 199.182 94.6962 218.14 92.0377L231.053 90.2269C240.739 88.8688 249.683 84.2845 256.441 77.215L264.626 68.6524C276.609 56.1174 296.462 55.6037 309.077 67.5023V67.5023C310.889 69.2109 312.491 71.1281 313.852 73.2136L332.152 101.262C335.595 106.54 339.501 111.502 343.823 116.088L358.471 131.631C361.343 134.678 364.949 136.938 368.944 138.194V138.194C380.204 141.734 392.321 136.667 398.252 126.461C436.209 61.1468 476.227 31.9999 569 32" stroke="url(#paint2_linear_2473_1624)" stroke-width="20"/>
<path d="M0 208C46.3096 208 88 208 133.139 158.347L169.013 118.249C181.778 103.982 199.182 94.6962 218.14 92.0377L231.053 90.2269C240.739 88.8688 249.683 84.2845 256.441 77.215L264.626 68.6524C276.609 56.1174 296.462 55.6037 309.077 67.5023V67.5023C310.889 69.2109 312.491 71.1281 313.852 73.2136L332.152 101.262C335.595 106.54 339.501 111.502 343.823 116.088L358.471 131.631C361.343 134.678 364.949 136.938 368.944 138.194V138.194C380.204 141.734 392.321 136.667 398.252 126.461C436.209 61.1468 476.227 31.9999 569 32" stroke="url(#paint3_linear_2473_1624)" stroke-width="20"/>
<defs>
<linearGradient id="paint0_linear_2473_1624" x1="255" y1="-135" x2="349" y2="251.576" gradientUnits="userSpaceOnUse">
<stop offset="0.578429" stop-color="#A5A5A5" stop-opacity="0"/>
<stop offset="1" stop-color="#A9A9A9"/>
</linearGradient>
<linearGradient id="paint1_linear_2473_1624" x1="523" y1="-20" x2="523" y2="232" gradientUnits="userSpaceOnUse">
<stop stop-color="#A3A3A3" stop-opacity="0"/>
<stop offset="1" stop-color="#A0A0A0"/>
</linearGradient>
<linearGradient id="paint2_linear_2473_1624" x1="-40.102" y1="-36.755" x2="633.72" y2="-36.755" gradientUnits="userSpaceOnUse">
<stop offset="0.0664718" stop-color="#162129" stop-opacity="0"/>
<stop offset="0.205014" stop-color="#162129"/>
<stop offset="0.92077" stop-color="#162129"/>
<stop offset="1" stop-color="#162129" stop-opacity="0"/>
</linearGradient>
<linearGradient id="paint3_linear_2473_1624" x1="567.039" y1="305.301" x2="58.4829" y2="305.301" gradientUnits="userSpaceOnUse">
<stop stop-color="#40A1FB"/>
<stop offset="0.2" stop-color="#04FF87"/>
<stop offset="0.4" stop-color="#3AF336"/>
<stop offset="0.6" stop-color="#AAEC1E"/>
<stop offset="0.8" stop-color="#FBC400"/>
<stop offset="1" stop-color="#FF541E"/>
</linearGradient>
<clipPath id="clip0_2473_1624">
<rect width="510" height="329" fill="white" transform="translate(58)"/>
</clipPath>
</defs>
</svg>
