<svg width="25" height="25" viewBox="0 0 25 25" fill="none" xmlns="http://www.w3.org/2000/svg">
<g clip-path="url(#clip0_300_299)">
<path fill-rule="evenodd" clip-rule="evenodd" d="M12.5 4.75C7.115 4.75 2.75 9.115 2.75 14.5C2.75 19.885 7.115 24.25 12.5 24.25C17.885 24.25 22.25 19.885 22.25 14.5C22.25 9.115 17.885 4.75 12.5 4.75ZM11.97 18.78C12.1106 18.9205 12.3012 18.9993 12.5 18.9993C12.6988 18.9993 12.8894 18.9205 13.03 18.78L16.03 15.78C16.1037 15.7113 16.1628 15.6285 16.2038 15.5365C16.2448 15.4445 16.2668 15.3452 16.2686 15.2445C16.2704 15.1438 16.2518 15.0438 16.2141 14.9504C16.1764 14.857 16.1203 14.7722 16.049 14.701C15.9778 14.6297 15.893 14.5736 15.7996 14.5359C15.7062 14.4982 15.6062 14.4796 15.5055 14.4814C15.4048 14.4832 15.3055 14.5052 15.2135 14.5462C15.1215 14.5872 15.0387 14.6463 14.97 14.72L13.25 16.44V10.75C13.25 10.5511 13.171 10.3603 13.0303 10.2197C12.8897 10.079 12.6989 10 12.5 10C12.3011 10 12.1103 10.079 11.9697 10.2197C11.829 10.3603 11.75 10.5511 11.75 10.75V16.44L10.03 14.72C9.88783 14.5875 9.69978 14.5154 9.50548 14.5188C9.31118 14.5223 9.12579 14.601 8.98838 14.7384C8.85097 14.8758 8.77225 15.0612 8.76882 15.2555C8.7654 15.4498 8.83752 15.6378 8.97 15.78L11.97 18.78Z" fill="white"/>
</g>
<defs>
<clipPath id="clip0_300_299">
<rect width="24" height="24" fill="white" transform="translate(0.5 0.5)"/>
</clipPath>
</defs>
</svg>
