<svg width="25" height="30" viewBox="0 0 25 30" fill="none" xmlns="http://www.w3.org/2000/svg">
<g opacity="0.5">
<path d="M4.06318 4.375C2.17582 4.375 0.62568 5.92514 0.62568 7.8125V11.4087C0.609148 11.5093 0.609148 11.612 0.62568 11.7126V17.6587C0.609148 17.7593 0.609148 17.862 0.62568 17.9626V21.5625C0.62568 23.118 1.69882 24.39 3.12568 24.8083V25.9375C3.12392 26.0617 3.14687 26.1851 3.1932 26.3003C3.23953 26.4156 3.3083 26.5205 3.39553 26.609C3.48276 26.6975 3.5867 26.7677 3.70132 26.8157C3.81594 26.8636 3.93894 26.8883 4.06318 26.8883C4.18742 26.8883 4.31043 26.8636 4.42504 26.8157C4.53966 26.7677 4.6436 26.6975 4.73083 26.609C4.81806 26.5205 4.88684 26.4156 4.93316 26.3003C4.97949 26.1851 5.00244 26.0617 5.00068 25.9375V25H20.0007V25.9375C19.9989 26.0617 20.0219 26.1851 20.0682 26.3003C20.1145 26.4156 20.1833 26.5205 20.2705 26.609C20.3578 26.6975 20.4617 26.7677 20.5763 26.8157C20.6909 26.8636 20.8139 26.8883 20.9382 26.8883C21.0624 26.8883 21.1854 26.8636 21.3 26.8157C21.4147 26.7677 21.5186 26.6975 21.6058 26.609C21.6931 26.5205 21.7618 26.4156 21.8082 26.3003C21.8545 26.1851 21.8774 26.0617 21.8757 25.9375V24.8083C23.3025 24.39 24.3757 23.118 24.3757 21.5625V17.9663C24.3922 17.8657 24.3922 17.763 24.3757 17.6623V11.7163C24.3922 11.6157 24.3922 11.513 24.3757 11.4124V7.8125C24.3757 5.92514 22.8255 4.375 20.9382 4.375H4.06318ZM4.06318 6.25H20.9382C21.8121 6.25 22.5007 6.93861 22.5007 7.8125V10.625H2.50068V7.8125C2.50068 6.93861 3.18929 6.25 4.06318 6.25ZM12.5007 7.5C12.252 7.5 12.0136 7.59877 11.8378 7.77459C11.662 7.9504 11.5632 8.18886 11.5632 8.4375C11.5632 8.68614 11.662 8.9246 11.8378 9.10041C12.0136 9.27623 12.252 9.375 12.5007 9.375C12.7493 9.375 12.9878 9.27623 13.1636 9.10041C13.3394 8.9246 13.4382 8.68614 13.4382 8.4375C13.4382 8.18886 13.3394 7.9504 13.1636 7.77459C12.9878 7.59877 12.7493 7.5 12.5007 7.5ZM2.50068 12.5H22.5007V16.875H2.50068V12.5ZM12.5007 13.75C12.252 13.75 12.0136 13.8488 11.8378 14.0246C11.662 14.2004 11.5632 14.4389 11.5632 14.6875C11.5632 14.9361 11.662 15.1746 11.8378 15.3504C12.0136 15.5262 12.252 15.625 12.5007 15.625C12.7493 15.625 12.9878 15.5262 13.1636 15.3504C13.3394 15.1746 13.4382 14.9361 13.4382 14.6875C13.4382 14.4389 13.3394 14.2004 13.1636 14.0246C12.9878 13.8488 12.7493 13.75 12.5007 13.75ZM2.50068 18.75H22.5007V21.5625C22.5007 22.4252 21.8242 23.0955 20.9663 23.1128C20.9066 23.1112 20.8469 23.1153 20.788 23.125H4.21699C4.1561 23.1149 4.09436 23.1108 4.03266 23.1128C3.17587 23.0942 2.50068 22.4244 2.50068 21.5625V18.75ZM12.5007 20C12.252 20 12.0136 20.0988 11.8378 20.2746C11.662 20.4504 11.5632 20.6889 11.5632 20.9375C11.5632 21.1861 11.662 21.4246 11.8378 21.6004C12.0136 21.7762 12.252 21.875 12.5007 21.875C12.7493 21.875 12.9878 21.7762 13.1636 21.6004C13.3394 21.4246 13.4382 21.1861 13.4382 20.9375C13.4382 20.6889 13.3394 20.4504 13.1636 20.2746C12.9878 20.0988 12.7493 20 12.5007 20Z" fill="black"/>
</g>
</svg>
