<svg width="44" height="44" viewBox="0 0 44 44" fill="none" xmlns="http://www.w3.org/2000/svg">
<path d="M7.33359 7.33398C6.94462 7.33402 6.57159 7.48856 6.29655 7.7636C6.0215 8.03865 5.86697 8.41168 5.86693 8.80065V10.2673H4.40026C3.59066 10.2673 2.93359 10.9244 2.93359 11.734V35.2007C2.93359 36.0103 3.59066 36.6673 4.40026 36.6673H39.6003C40.4099 36.6673 41.0669 36.0103 41.0669 35.2007V11.734C41.0669 10.9244 40.4099 10.2673 39.6003 10.2673H38.1336V8.80065C38.1336 8.41168 37.979 8.03865 37.704 7.7636C37.4289 7.48856 37.0559 7.33402 36.6669 7.33398C29.3886 7.33398 22.7923 9.887 22.0003 10.1986C21.2082 9.887 14.6119 7.33398 7.33359 7.33398ZM8.80026 10.3934C15.2433 10.7416 21.456 13.0947 21.456 13.0947C21.8054 13.2343 22.1951 13.2343 22.5445 13.0947C22.5445 13.0947 28.7572 10.7416 35.2003 10.3934V30.9238C28.4786 31.2481 22.7376 33.3752 22.0003 33.6652C21.2629 33.3752 15.5219 31.2481 8.80026 30.9238V10.3934ZM21.9773 15.3806C21.5889 15.3867 21.2187 15.5466 20.948 15.8254C20.6773 16.1041 20.5283 16.4788 20.5336 16.8673V19.0673C20.5308 19.2617 20.5668 19.4546 20.6392 19.635C20.7117 19.8153 20.8193 19.9795 20.9558 20.1179C21.0922 20.2563 21.2548 20.3662 21.4341 20.4412C21.6135 20.5162 21.8059 20.5549 22.0003 20.5549C22.1946 20.5549 22.3871 20.5162 22.5664 20.4412C22.7457 20.3662 22.9083 20.2563 23.0448 20.1179C23.1812 19.9795 23.2888 19.8153 23.3613 19.635C23.4338 19.4546 23.4697 19.2617 23.4669 19.0673V16.8673C23.4696 16.6711 23.4329 16.4763 23.359 16.2945C23.285 16.1128 23.1753 15.9477 23.0364 15.809C22.8975 15.6704 22.7322 15.5611 22.5503 15.4875C22.3684 15.4139 22.1736 15.3775 21.9773 15.3806ZM21.9773 24.1806C21.5889 24.1867 21.2187 24.3466 20.948 24.6254C20.6773 24.9041 20.5283 25.2788 20.5336 25.6673V27.8673C20.5308 28.0617 20.5668 28.2546 20.6392 28.435C20.7117 28.6153 20.8193 28.7795 20.9558 28.9179C21.0922 29.0563 21.2548 29.1662 21.4341 29.2412C21.6135 29.3162 21.8059 29.3549 22.0003 29.3549C22.1946 29.3549 22.3871 29.3162 22.5664 29.2412C22.7457 29.1662 22.9083 29.0563 23.0448 28.9179C23.1812 28.7795 23.2888 28.6153 23.3613 28.435C23.4338 28.2546 23.4697 28.0617 23.4669 27.8673V25.6673C23.4696 25.4711 23.4329 25.2763 23.359 25.0945C23.285 24.9128 23.1753 24.7477 23.0364 24.609C22.8975 24.4704 22.7322 24.3611 22.5503 24.2875C22.3684 24.2139 22.1736 24.1775 21.9773 24.1806Z" fill="#5CAB34"/>
</svg>
