<svg width="28" height="28" viewBox="0 0 28 28" fill="none" xmlns="http://www.w3.org/2000/svg">
<path d="M10.7871 1.74609C9.62944 1.74609 8.68826 2.73931 8.74886 3.89486V3.896L9.21029 12.6483C9.21793 12.7932 9.24301 12.9332 9.27979 13.0687C8.62367 13.4105 8.16553 14.0917 8.16553 14.8745H7.87158C7.69947 14.8745 7.57992 14.755 7.57992 14.5828V12.8328H7.58333C7.90592 12.8328 8.16667 12.5715 8.16667 12.2495V11.6662C8.16667 11.3442 7.90533 11.0828 7.58333 11.0828H5.83333C5.51133 11.0828 5.25 11.3442 5.25 11.6662V12.2495C5.25 12.5703 5.50963 12.8297 5.82992 12.8317V12.8328V14.5828C5.82992 15.6999 6.75453 16.6245 7.87158 16.6245H8.16553V16.6336C8.16553 17.7507 9.09014 18.6753 10.2072 18.6753H13.1239V21.0052H11.0799C10.9002 21.0052 10.7248 21.0605 10.5777 21.1637C10.4305 21.2668 10.3186 21.4128 10.2573 21.5817L9.35498 24.0631C9.12786 24.1871 8.9485 24.3832 8.84522 24.6204C8.74194 24.8577 8.72062 25.1225 8.78464 25.3732C8.84865 25.6239 8.99435 25.8462 9.19872 26.0049C9.4031 26.1635 9.6545 26.2496 9.91325 26.2495C10.1021 26.2492 10.288 26.2029 10.4549 26.1148C10.6219 26.0266 10.7649 25.8992 10.8716 25.7434C10.9784 25.5877 11.0457 25.4083 11.0677 25.2208C11.0896 25.0333 11.0657 24.8432 10.9979 24.667L11.6929 22.7552H13.1239V24.3206C12.976 24.4887 12.8797 24.6958 12.8466 24.9172C12.8134 25.1385 12.8447 25.3647 12.9368 25.5688C13.0289 25.7728 13.1778 25.9459 13.3658 26.0675C13.5537 26.189 13.7727 26.2538 13.9966 26.2541C14.2199 26.2539 14.4386 26.1895 14.6263 26.0685C14.8141 25.9475 14.9631 25.7751 15.0556 25.5718C15.148 25.3685 15.1801 25.1428 15.1479 24.9218C15.1156 24.7008 15.0205 24.4937 14.8739 24.3252V22.7552H16.3014L16.9976 24.6602C16.9274 24.8368 16.9016 25.0279 16.9224 25.2168C16.9431 25.4057 17.0098 25.5866 17.1165 25.7438C17.2233 25.901 17.3669 26.0297 17.5348 26.1187C17.7027 26.2076 17.8899 26.2541 18.0799 26.2541C18.3376 26.2536 18.5879 26.1676 18.7915 26.0097C18.9952 25.8517 19.1406 25.6306 19.2051 25.3811C19.2696 25.1316 19.2495 24.8677 19.1479 24.6309C19.0464 24.394 18.8691 24.1976 18.6439 24.0723L17.7347 21.5806C17.6733 21.412 17.5615 21.2664 17.4146 21.1635C17.2676 21.0606 17.0926 21.0054 16.9132 21.0052H14.8739V18.6753H17.786C18.903 18.6753 19.8276 17.7507 19.8276 16.6336V16.6245C19.8292 16.6245 19.8307 16.6245 19.8322 16.6245H20.1273C21.2443 16.6245 22.1689 15.6999 22.1689 14.5828V12.8328V12.8317C22.4892 12.8297 22.7489 12.5703 22.7489 12.2495V11.6662C22.7489 11.3442 22.4875 11.0828 22.1655 11.0828H20.4155C20.0935 11.0828 19.8322 11.3442 19.8322 11.6662V12.2495C19.8322 12.5715 20.0935 12.8328 20.4155 12.8328H20.4189V14.5828C20.4189 14.755 20.2994 14.8745 20.1273 14.8745H19.8322C19.8307 14.8745 19.8292 14.8745 19.8276 14.8745C19.8276 14.0919 19.3699 13.4118 18.7145 13.0698C18.7515 12.934 18.7764 12.7936 18.784 12.6483L19.2443 3.896V3.89486C19.3049 2.73931 18.3637 1.74609 17.2061 1.74609H10.7871ZM10.7871 3.49609H17.2061C17.3854 3.49609 17.506 3.62459 17.4966 3.80371L17.0374 12.556C17.0288 12.7198 16.9097 12.8328 16.7458 12.8328H11.2485C11.0856 12.8328 10.9655 12.7193 10.9569 12.556L10.4966 3.80371C10.4872 3.62459 10.6078 3.49609 10.7871 3.49609ZM10.2072 14.5828H11.2485H16.7458H17.786C17.9571 14.5828 18.0776 14.7029 18.0776 14.8745V16.6336C18.0776 16.8057 17.9581 16.9253 17.786 16.9253H10.2072C10.0351 16.9253 9.91553 16.8057 9.91553 16.6336V14.8745C9.91553 14.7024 10.0351 14.5828 10.2072 14.5828Z" fill="black"/>
</svg>
