<svg width="22" height="23" viewBox="0 0 22 23" fill="none" xmlns="http://www.w3.org/2000/svg">
<path fill-rule="evenodd" clip-rule="evenodd" d="M12.2558 8.78401C12.4491 8.5909 12.7112 8.48242 12.9845 8.48242C13.2578 8.48242 13.5199 8.5909 13.7133 8.78401C14.1602 9.2309 14.5147 9.76145 14.7566 10.3454C14.9985 10.9293 15.123 11.5551 15.123 12.1871C15.123 12.8192 14.9985 13.445 14.7566 14.0289C14.5147 14.6128 14.1602 15.1434 13.7133 15.5903L10.9633 18.3403C10.12 19.1824 8.99435 19.6817 7.80413 19.7415C6.61391 19.8014 5.44383 19.4175 4.5204 18.6641C3.59698 17.9108 2.98591 16.8417 2.80549 15.6637C2.62506 14.4857 2.88813 13.2827 3.54375 12.2875C3.6973 12.0659 3.93154 11.9132 4.19627 11.8622C4.46101 11.8112 4.73521 11.8659 4.96011 12.0146C5.18502 12.1632 5.34276 12.3941 5.39954 12.6577C5.45632 12.9212 5.40762 13.1965 5.26388 13.4246C4.88889 13.9935 4.73844 14.6814 4.84169 15.3548C4.94494 16.0283 5.29453 16.6395 5.82271 17.0699C6.35089 17.5003 7.02006 17.7194 7.70052 17.6845C8.38098 17.6497 9.02428 17.3635 9.50576 16.8814L12.2558 14.1314C12.7713 13.6157 13.0609 12.9163 13.0609 12.1871C13.0609 11.4579 12.7713 10.7586 12.2558 10.2429C12.0626 10.0495 11.9542 9.78742 11.9542 9.51414C11.9542 9.24086 12.0626 8.97737 12.2558 8.78401Z" fill="black"/>
<path fill-rule="evenodd" clip-rule="evenodd" d="M9.74222 14.2155C9.54886 14.4087 9.28675 14.5171 9.01347 14.5171C8.74019 14.5171 8.47808 14.4087 8.28472 14.2155C7.83779 13.7687 7.48326 13.2381 7.24138 12.6542C6.9995 12.0703 6.875 11.4444 6.875 10.8124C6.875 10.1804 6.9995 9.55455 7.24138 8.97064C7.48326 8.38673 7.83779 7.85618 8.28472 7.4093L11.0347 4.6593C11.8779 3.81717 13.0036 3.31786 14.1938 3.25803C15.3841 3.1982 16.5542 3.5821 17.4776 4.33542C18.401 5.08874 19.0121 6.15788 19.1925 7.33587C19.3729 8.51385 19.1098 9.71688 18.4542 10.712C18.3007 10.9337 18.0664 11.0863 17.8017 11.1373C17.537 11.1884 17.2628 11.1337 17.0379 10.985C16.813 10.8363 16.6552 10.6055 16.5984 10.3419C16.5417 10.0783 16.5904 9.80302 16.7341 9.57492C17.1091 9.00604 17.2595 8.31821 17.1563 7.64472C17.053 6.97124 16.7035 6.36006 16.1753 5.92964C15.6471 5.49922 14.9779 5.2802 14.2975 5.31503C13.617 5.34986 12.9737 5.63607 12.4922 6.11817L9.74222 8.86817C9.22668 9.38387 8.93706 10.0832 8.93706 10.8124C8.93706 11.5416 9.22668 12.241 9.74222 12.7567C9.93534 12.95 10.0438 13.2121 10.0438 13.4854C10.0438 13.7587 9.93534 14.0208 9.74222 14.2142V14.2155Z" fill="black"/>
</svg>
