<svg width="12" height="12" viewBox="0 0 12 12" fill="none" xmlns="http://www.w3.org/2000/svg">
<g opacity="0.3">
<path fill-rule="evenodd" clip-rule="evenodd" d="M6 1.125C3.3075 1.125 1.125 3.3075 1.125 6C1.125 8.6925 3.3075 10.875 6 10.875C8.6925 10.875 10.875 8.6925 10.875 6C10.875 3.3075 8.6925 1.125 6 1.125ZM6.375 3C6.375 2.90054 6.33549 2.80516 6.26516 2.73483C6.19484 2.66451 6.09946 2.625 6 2.625C5.90054 2.625 5.80516 2.66451 5.73484 2.73483C5.66451 2.80516 5.625 2.90054 5.625 3V6C5.625 6.207 5.793 6.375 6 6.375H8.25C8.34946 6.375 8.44484 6.33549 8.51517 6.26516C8.58549 6.19484 8.625 6.09946 8.625 6C8.625 5.90054 8.58549 5.80516 8.51517 5.73484C8.44484 5.66451 8.34946 5.625 8.25 5.625H6.375V3Z" fill="white"/>
</g>
</svg>
