<svg width="44" height="44" viewBox="0 0 44 44" fill="none" xmlns="http://www.w3.org/2000/svg">
<path d="M22.0004 4.40039C12.2808 4.40039 4.40039 12.2808 4.40039 22.0004C4.40039 31.72 12.2808 39.6004 22.0004 39.6004H23.4671C25.8973 39.6004 27.8671 37.6307 27.8671 35.2004C27.8671 35.2004 27.8671 31.8828 27.8671 30.8004C27.8671 29.1797 29.1797 27.8671 30.8004 27.8671C31.8828 27.8671 36.6671 27.8671 36.6671 27.8671C38.2877 27.8671 39.6004 26.5544 39.6004 24.9337C39.6004 24.9337 39.6004 22.9171 39.6004 22.0004C39.6004 12.2808 31.72 4.40039 22.0004 4.40039ZM22.0004 7.33372C23.6211 7.33372 24.9337 8.64639 24.9337 10.2671C24.9337 11.8877 23.6211 13.2004 22.0004 13.2004C20.3797 13.2004 19.0671 11.8877 19.0671 10.2671C19.0671 8.64639 20.3797 7.33372 22.0004 7.33372ZM10.2671 24.9337C8.64639 24.9337 7.33372 23.6211 7.33372 22.0004C7.33372 20.3797 8.64639 19.0671 10.2671 19.0671C11.8877 19.0671 13.2004 20.3797 13.2004 22.0004C13.2004 23.6211 11.8877 24.9337 10.2671 24.9337ZM21.2671 36.6671C19.2416 36.6671 17.6004 35.0259 17.6004 33.0004C17.6004 30.9749 19.2416 29.3337 21.2671 29.3337C23.2925 29.3337 24.9337 30.9749 24.9337 33.0004C24.9337 35.0259 23.2925 36.6671 21.2671 36.6671ZM33.7337 24.9337C32.1131 24.9337 30.8004 23.6211 30.8004 22.0004C30.8004 20.3797 32.1131 19.0671 33.7337 19.0671C35.3544 19.0671 36.6671 20.3797 36.6671 22.0004C36.6671 23.6211 35.3544 24.9337 33.7337 24.9337ZM32.3712 15.7773C31.2257 16.9228 29.3689 16.9228 28.2235 15.7773C27.078 14.6319 27.078 12.7751 28.2235 11.6296C29.3689 10.4841 31.2257 10.4841 32.3712 11.6296C33.5167 12.7751 33.5167 14.6319 32.3712 15.7773ZM11.6296 15.7773C10.4841 14.6319 10.4841 12.7751 11.6296 11.6296C12.7751 10.4841 14.6319 10.4841 15.7773 11.6296C16.9228 12.7751 16.9228 14.6319 15.7773 15.7773C14.6319 16.9228 12.7751 16.9228 11.6296 15.7773Z" fill="#5CAB34"/>
</svg>
