<svg width="16" height="17" viewBox="0 0 16 17" fill="none" xmlns="http://www.w3.org/2000/svg">
<path d="M13.5 0.5C13.1022 0.5 12.7206 0.658035 12.4393 0.93934C12.158 1.22064 12 1.60218 12 2V15C12 15.3978 12.158 15.7794 12.4393 16.0607C12.7206 16.342 13.1022 16.5 13.5 16.5H14.5C14.8978 16.5 15.2794 16.342 15.5607 16.0607C15.842 15.7794 16 15.3978 16 15V2C16 1.60218 15.842 1.22064 15.5607 0.93934C15.2794 0.658035 14.8978 0.5 14.5 0.5H13.5ZM7.5 4.5C7.10218 4.5 6.72064 4.65804 6.43934 4.93934C6.15804 5.22064 6 5.60218 6 6V15C6 15.3978 6.15804 15.7794 6.43934 16.0607C6.72064 16.342 7.10218 16.5 7.5 16.5H8.5C8.89782 16.5 9.27936 16.342 9.56066 16.0607C9.84196 15.7794 10 15.3978 10 15V6C10 5.60218 9.84196 5.22064 9.56066 4.93934C9.27936 4.65804 8.89782 4.5 8.5 4.5H7.5ZM1.5 8.5C1.10218 8.5 0.720644 8.65804 0.43934 8.93934C0.158035 9.22064 0 9.60218 0 10V15C0 15.3978 0.158035 15.7794 0.43934 16.0607C0.720644 16.342 1.10218 16.5 1.5 16.5H2.5C2.89782 16.5 3.27936 16.342 3.56066 16.0607C3.84196 15.7794 4 15.3978 4 15V10C4 9.60218 3.84196 9.22064 3.56066 8.93934C3.27936 8.65804 2.89782 8.5 2.5 8.5H1.5Z" fill="black"/>
</svg>
