<svg width="68" height="68" viewBox="0 0 68 68" fill="none" xmlns="http://www.w3.org/2000/svg">
<path d="M42.8404 2.15723L41.8789 3.11879L37.5173 7.48035L42.8404 12.8035L48.1636 7.48035L42.8404 2.15723ZM25.8404 5.44035C25.4797 5.44039 25.1338 5.58368 24.8788 5.83873C24.6238 6.09377 24.4805 6.43967 24.4804 6.80035V13.6004C24.4805 13.961 24.6238 14.3069 24.8788 14.562C25.1338 14.817 25.4797 14.9603 25.8404 14.9604H27.2004C28.8262 14.9604 29.1798 15.4492 29.5273 16.23C29.8748 17.0108 29.9204 18.1842 29.9204 19.0404C29.9204 20.1506 29.7858 21.3181 29.5964 22.4404C28.4009 22.0192 27.2537 21.7678 26.1911 21.7604C24.9901 21.7518 23.7959 22.0889 22.9425 22.9424C22.5784 23.3065 22.3344 23.7414 22.1456 24.2014L22.1217 24.1935L7.17496 62.0822L46.4157 48.6469L46.4078 48.623C46.9115 48.433 47.385 48.1715 47.7784 47.7783C48.7957 46.7611 49.0715 45.2946 48.9206 43.8285C48.8255 42.9041 48.5577 41.9279 48.1715 40.9146C49.2453 40.8495 50.3873 40.8004 51.6804 40.8004C53.6192 40.8004 55.4535 41.0348 56.645 41.4485C57.2407 41.6553 57.6604 41.9086 57.8642 42.1019C58.0679 42.2952 58.0793 42.3512 58.0793 42.5004V43.5204C58.0794 43.881 58.2227 44.2269 58.4777 44.482C58.7328 44.737 59.0787 44.8803 59.4393 44.8804H65.2804C65.4624 44.8804 65.6426 44.8439 65.8102 44.7731C65.9779 44.7023 66.1296 44.5985 66.2564 44.468C66.3832 44.3375 66.4826 44.1828 66.5485 44.0132C66.6145 43.8436 66.6457 43.6624 66.6404 43.4805C66.6404 43.4805 66.6004 41.8046 66.6006 41.7858V41.7832C66.6255 38.6958 64.6808 36.303 62.2815 34.8318C59.8822 33.3605 56.9704 32.6404 54.3712 32.6404C50.0697 32.6404 46.8701 33.7563 44.729 34.861C44.0539 33.9441 43.3099 33.0201 42.4978 32.1011C42.9828 31.9463 43.4751 31.8023 43.9507 31.6735C44.9089 31.4141 45.8146 31.2015 46.5193 31.0439C47.2241 30.8864 47.6131 30.8189 47.967 30.7199C49.0649 30.4122 50.5635 30.0361 51.9062 29.1394C53.2489 28.2428 54.4004 26.6301 54.4004 24.4804C54.4004 23.8919 54.1151 23.5645 53.9276 23.1204H54.4004C57.3079 23.1204 59.8404 20.7727 59.8404 17.6804V15.8104C59.8404 15.8104 59.8506 15.6251 59.9786 15.4172C60.1065 15.2094 60.2088 14.9604 61.2004 14.9604H62.5604C62.9211 14.9603 63.267 14.817 63.5221 14.562C63.7771 14.3069 63.9204 13.961 63.9204 13.6004V8.16301C63.9204 7.80232 63.7771 7.45642 63.5221 7.20138C63.267 6.94634 62.9211 6.80304 62.5604 6.80301H60.3557C56.7411 6.79996 54.5084 8.4732 53.314 10.0649C52.4285 11.2446 52.1557 12.7024 51.9461 13.9536C51.8541 14.5024 51.8725 14.5616 51.8318 14.9604H51.6804C49.3382 14.9604 47.503 15.8094 46.3865 17.1491C45.2701 18.4888 44.8804 20.1737 44.8804 21.7604V23.6064C42.6514 24.3413 40.0986 25.5347 37.9025 27.6121C36.6079 26.5112 35.3212 25.5274 34.0589 24.7061C35.4528 22.2482 36.7204 18.932 36.7204 14.9604C36.7204 12.6181 35.9441 10.253 34.3192 8.44191C32.6942 6.63081 30.2042 5.44035 27.0995 5.44035H27.0968H27.0782H25.8404ZM42.8404 6.00348L44.3173 7.48035L42.8404 8.95723L41.3636 7.48035L42.8404 6.00348ZM14.2804 7.59723L13.3189 8.55879L8.9573 12.9204L14.2804 18.2435L19.6036 12.9204L14.2804 7.59723ZM27.2004 8.17895C29.5724 8.20608 31.1929 9.03026 32.2951 10.2588C33.4157 11.5077 34.0004 13.2226 34.0004 14.9604C34.0004 17.792 33.1758 20.1021 32.2154 22.0924C32.368 21.05 32.6404 20.1283 32.6404 19.0404C32.6404 18.1842 32.6861 16.6362 32.0136 15.125C31.341 13.6139 29.6546 12.2404 27.2004 12.2404V8.17895ZM60.3531 9.52301H60.3557H61.2004V12.2404C59.4721 12.2404 58.2144 13.0963 57.6623 13.9935C57.1102 14.8906 57.1204 15.8104 57.1204 15.8104V17.6804C57.1204 19.348 55.913 20.4004 54.4004 20.4004H51.6804C51.4326 20.4004 51.1896 20.4681 50.9775 20.5962C50.7654 20.7243 50.5923 20.9079 50.4769 21.1271C50.3615 21.3464 50.3082 21.593 50.3228 21.8404C50.3373 22.0878 50.4192 22.3264 50.5595 22.5307C50.5595 22.5307 50.6656 22.665 50.6737 22.6741C50.6819 22.6832 50.6872 22.6897 50.6923 22.6954C50.7026 22.7066 50.7145 22.7184 50.7295 22.7352C50.7594 22.7688 50.8024 22.8188 50.8543 22.8813C50.9582 23.0063 51.096 23.1837 51.2289 23.386C51.4947 23.7905 51.6804 24.2981 51.6804 24.4804C51.6804 25.7823 51.219 26.3259 50.3948 26.8763C49.5706 27.4267 48.3487 27.7884 47.2339 28.1008C47.279 28.0882 46.6514 28.2278 45.9243 28.3904C45.1973 28.5529 44.2562 28.7744 43.2415 29.0491C41.6835 29.4709 40.1328 30.148 38.694 30.8686C40.9716 28.0347 44.0987 26.4934 46.607 25.7899C46.8928 25.7099 47.1445 25.5386 47.3239 25.3022C47.5033 25.0657 47.6004 24.7771 47.6004 24.4804V21.7604C47.6004 20.627 47.8908 19.5919 48.4743 18.8916C49.0579 18.1913 49.9427 17.6804 51.6804 17.6804H53.0404C53.3886 17.6801 53.7234 17.5464 53.9759 17.3067C54.2284 17.0671 54.3794 16.7397 54.3978 16.3921C54.3978 16.3921 54.4472 15.4868 54.6289 14.4025C54.8105 13.3183 55.2177 12.0543 55.4868 11.6958H55.4895C56.3354 10.5679 57.5007 9.52061 60.3531 9.52301ZM14.2804 11.4435L15.7573 12.9204L14.2804 14.3972L12.8036 12.9204L14.2804 11.4435ZM61.8804 23.1204L58.4804 26.5204L61.8804 29.9204L65.2778 26.5204L61.8804 23.1204ZM8.84043 24.4804L5.44043 27.8804L8.84043 31.2804L12.2378 27.8804L8.84043 24.4804ZM26.1698 24.4804C26.8827 24.4854 27.8676 24.7459 28.9987 25.2029C28.6098 26.6877 28.2351 27.7826 28.1195 28.1327C28.0262 28.4155 28.0284 28.7212 28.1256 29.0027C28.2228 29.2842 28.4098 29.526 28.6577 29.691C28.9056 29.8559 29.2009 29.935 29.4981 29.916C29.7953 29.897 30.078 29.7809 30.3029 29.5857C30.4936 29.4196 30.8277 29.1081 31.4345 28.4169C31.7586 28.0477 32.1367 27.5805 32.5342 27.0463C33.6922 27.7731 34.9008 28.6541 36.1095 29.6627C35.9335 29.9032 35.7497 30.1299 35.5836 30.3879L32.8582 34.6246C32.6894 34.8889 32.6172 35.2034 32.6537 35.5149C32.6902 35.8264 32.8332 36.1157 33.0585 36.3339C33.2838 36.552 33.5776 36.6856 33.8901 36.712C34.2027 36.7383 34.5147 36.6559 34.7734 36.4786L38.864 33.655C39.104 33.4893 39.418 33.318 39.7725 33.1477C40.748 34.1984 41.6365 35.2574 42.4128 36.298C41.978 36.6322 41.6382 36.9276 41.5734 36.9913L41.5707 36.9939L38.4842 40.0433C38.262 40.263 38.1222 40.5524 38.0883 40.863C38.0544 41.1735 38.1284 41.4863 38.2979 41.7487C38.4675 42.0111 38.7222 42.2072 39.0193 42.3039C39.3163 42.4007 39.6376 42.3922 39.9292 42.2799C39.9292 42.2799 41.7144 41.6021 45.3346 41.1643C45.8336 42.3031 46.1358 43.323 46.2165 44.1074C46.3169 45.0828 46.1232 45.5873 45.8553 45.8552C45.7506 45.9598 45.6005 46.0473 45.4117 46.1155L45.2736 46.1633C45.0322 46.2263 44.7272 46.2565 44.3226 46.2324C43.4738 46.1818 42.3058 45.8632 40.9837 45.2629C38.3396 44.0621 35.0873 41.7657 32.0215 38.6993C28.9557 35.6327 26.6589 32.3813 25.4579 29.7371C24.8574 28.415 24.5391 27.2441 24.4884 26.3955C24.4632 25.9738 24.4966 25.655 24.5654 25.41C24.5734 25.3815 24.5857 25.3622 24.5946 25.3357C24.6638 25.1315 24.7554 24.9757 24.8656 24.8655C25.0893 24.6418 25.4559 24.4753 26.1698 24.4804ZM22.6901 30.1647C22.7846 30.3967 22.8723 30.6269 22.9796 30.8633C24.3688 33.9219 26.8375 37.3608 30.0984 40.6224C33.3593 43.884 36.7988 46.3521 39.8575 47.7411C39.9807 47.7971 40.0994 47.84 40.2214 47.8925L11.8659 57.6011L22.6901 30.1647ZM54.3712 35.3604C56.4423 35.3604 58.9825 35.9991 60.8604 37.1507C62.7383 38.3022 63.8965 39.7957 63.8806 41.7593C63.8795 41.8639 63.8856 41.9945 63.8886 42.1604H60.6479C60.5427 41.3865 60.2625 40.6269 59.7368 40.1283C59.1233 39.5464 58.3688 39.1694 57.5348 38.8799C55.8668 38.3008 53.8217 38.0804 51.6804 38.0804C48.1803 38.0804 45.7857 38.439 43.709 38.7789C44.021 38.4811 47.3751 35.3604 54.3712 35.3604ZM52.3604 51.1172L51.3989 52.0788L47.0373 56.4404L52.3604 61.7635L57.6836 56.4404L52.3604 51.1172ZM52.3604 54.9635L53.8373 56.4404L52.3604 57.9172L50.8836 56.4404L52.3604 54.9635Z" fill="black"/>
</svg>
