<svg width="28" height="28" viewBox="0 0 28 28" fill="none" xmlns="http://www.w3.org/2000/svg">
<g opacity="0.6">
<path d="M6.12616 4.08301C4.36462 4.08301 2.91782 5.52981 2.91782 7.29134V10.6478C2.90239 10.7417 2.90239 10.8375 2.91782 10.9315V16.4811C2.90239 16.5751 2.90239 16.6709 2.91782 16.7648V20.1247C2.91782 21.5765 3.91942 22.7637 5.25116 23.1541V24.208C5.24952 24.324 5.27094 24.4391 5.31417 24.5467C5.35741 24.6543 5.4216 24.7522 5.50302 24.8348C5.58443 24.9173 5.68144 24.9829 5.78842 25.0277C5.89539 25.0724 6.0102 25.0955 6.12616 25.0955C6.24212 25.0955 6.35692 25.0724 6.46389 25.0277C6.57087 24.9829 6.66788 24.9173 6.7493 24.8348C6.83071 24.7522 6.8949 24.6543 6.93814 24.5467C6.98138 24.4391 7.0028 24.324 7.00116 24.208V23.333H21.0012V24.208C20.9995 24.324 21.0209 24.4391 21.0642 24.5467C21.1074 24.6543 21.1716 24.7522 21.253 24.8348C21.3344 24.9173 21.4314 24.9829 21.5384 25.0277C21.6454 25.0724 21.7602 25.0955 21.8762 25.0955C21.9921 25.0955 22.1069 25.0724 22.2139 25.0277C22.3209 24.9829 22.4179 24.9173 22.4993 24.8348C22.5807 24.7522 22.6449 24.6543 22.6881 24.5467C22.7314 24.4391 22.7528 24.324 22.7512 24.208V23.1541C24.0829 22.7637 25.0845 21.5765 25.0845 20.1247V16.7682C25.0999 16.6743 25.0999 16.5785 25.0845 16.4845V10.9349C25.0999 10.841 25.0999 10.7451 25.0845 10.6512V7.29134C25.0845 5.52981 23.6377 4.08301 21.8762 4.08301H6.12616ZM6.12616 5.83301H21.8762C22.6918 5.83301 23.3345 6.47571 23.3345 7.29134V9.91634H4.66782V7.29134C4.66782 6.47571 5.31052 5.83301 6.12616 5.83301ZM14.0012 6.99967C13.7691 6.99967 13.5465 7.09186 13.3824 7.25596C13.2183 7.42005 13.1262 7.64261 13.1262 7.87467C13.1262 8.10674 13.2183 8.3293 13.3824 8.49339C13.5465 8.65749 13.7691 8.74967 14.0012 8.74967C14.2332 8.74967 14.4558 8.65749 14.6199 8.49339C14.784 8.3293 14.8762 8.10674 14.8762 7.87467C14.8762 7.64261 14.784 7.42005 14.6199 7.25596C14.4558 7.09186 14.2332 6.99967 14.0012 6.99967ZM4.66782 11.6663H23.3345V15.7497H4.66782V11.6663ZM14.0012 12.833C13.7691 12.833 13.5465 12.9252 13.3824 13.0893C13.2183 13.2534 13.1262 13.4759 13.1262 13.708C13.1262 13.9401 13.2183 14.1626 13.3824 14.3267C13.5465 14.4908 13.7691 14.583 14.0012 14.583C14.2332 14.583 14.4558 14.4908 14.6199 14.3267C14.784 14.1626 14.8762 13.9401 14.8762 13.708C14.8762 13.4759 14.784 13.2534 14.6199 13.0893C14.4558 12.9252 14.2332 12.833 14.0012 12.833ZM4.66782 17.4997H23.3345V20.1247C23.3345 20.9299 22.7031 21.5555 21.9024 21.5716C21.8467 21.5701 21.791 21.5739 21.736 21.583H6.26971C6.21288 21.5736 6.15525 21.5697 6.09767 21.5716C5.298 21.5543 4.66782 20.9291 4.66782 20.1247V17.4997ZM14.0012 18.6663C13.7691 18.6663 13.5465 18.7585 13.3824 18.9226C13.2183 19.0867 13.1262 19.3093 13.1262 19.5413C13.1262 19.7734 13.2183 19.996 13.3824 20.1601C13.5465 20.3242 13.7691 20.4163 14.0012 20.4163C14.2332 20.4163 14.4558 20.3242 14.6199 20.1601C14.784 19.996 14.8762 19.7734 14.8762 19.5413C14.8762 19.3093 14.784 19.0867 14.6199 18.9226C14.4558 18.7585 14.2332 18.6663 14.0012 18.6663Z" fill="black"/>
</g>
</svg>
