<svg width="44" height="44" viewBox="0 0 44 44" fill="none" xmlns="http://www.w3.org/2000/svg">
<path d="M22.0001 2.93359C21.2222 2.93359 20.4761 3.24264 19.9259 3.79275C19.3758 4.34285 19.0668 5.08896 19.0668 5.86693C19.0671 6.4233 19.2256 6.96811 19.5238 7.43779C19.8221 7.90746 20.2478 8.28264 20.7512 8.51953L15.022 20.6969L6.79492 14.8904C7.14455 14.3961 7.33267 13.8057 7.33346 13.2003C7.33346 12.4223 7.02442 11.6762 6.47431 11.1261C5.9242 10.576 5.1781 10.2669 4.40013 10.2669C3.62216 10.2669 2.87606 10.576 2.32595 11.1261C1.77584 11.6762 1.4668 12.4223 1.4668 13.2003C1.4668 13.9782 1.77584 14.7243 2.32595 15.2744C2.87606 15.8245 3.62216 16.1336 4.40013 16.1336C4.48146 16.1322 4.56269 16.1274 4.64362 16.1193L5.8668 30.8003H10.2668H29.3335H33.7335H38.1335L39.3566 16.1221C39.4376 16.1293 39.5188 16.1332 39.6001 16.1336C40.3781 16.1336 41.1242 15.8245 41.6743 15.2744C42.2244 14.7243 42.5335 13.9782 42.5335 13.2003C42.5335 12.4223 42.2244 11.6762 41.6743 11.1261C41.1242 10.576 40.3781 10.2669 39.6001 10.2669C38.8222 10.2669 38.0761 10.576 37.5259 11.1261C36.9758 11.6762 36.6668 12.4223 36.6668 13.2003C36.6676 13.8057 36.8557 14.3961 37.2053 14.8904L28.9783 20.6969L23.2491 8.51953C23.7525 8.28264 24.1782 7.90746 24.4764 7.43779C24.7747 6.96811 24.9332 6.4233 24.9335 5.86693C24.9335 5.08896 24.6244 4.34285 24.0743 3.79275C23.5242 3.24264 22.7781 2.93359 22.0001 2.93359ZM5.8668 33.7336C5.67245 33.7308 5.47949 33.7668 5.29913 33.8392C5.11878 33.9117 4.95463 34.0193 4.81622 34.1558C4.67781 34.2922 4.5679 34.4548 4.49289 34.6341C4.41787 34.8135 4.37924 35.0059 4.37924 35.2003C4.37924 35.3946 4.41787 35.5871 4.49289 35.7664C4.5679 35.9457 4.67781 36.1083 4.81622 36.2448C4.95463 36.3812 5.11878 36.4888 5.29913 36.5613C5.47949 36.6338 5.67245 36.6697 5.8668 36.6669H38.1335C38.3278 36.6697 38.5208 36.6338 38.7011 36.5613C38.8815 36.4888 39.0456 36.3812 39.184 36.2448C39.3224 36.1083 39.4324 35.9457 39.5074 35.7664C39.5824 35.5871 39.621 35.3946 39.621 35.2003C39.621 35.0059 39.5824 34.8135 39.5074 34.6341C39.4324 34.4548 39.3224 34.2922 39.184 34.1558C39.0456 34.0193 38.8815 33.9117 38.7011 33.8392C38.5208 33.7668 38.3278 33.7308 38.1335 33.7336H5.8668Z" fill="#5CAB34"/>
</svg>
