<svg width="66" height="66" viewBox="0 0 66 66" fill="none" xmlns="http://www.w3.org/2000/svg">
<path d="M6 0C2.685 0 0 2.685 0 6V60C0 63.315 2.685 66 6 66H18C21.315 66 24 63.315 24 60V6C24 2.685 21.315 0 18 0H6ZM45.5156 9C43.9804 9 42.4449 9.58631 41.2734 10.7578L30 22.0312V55.9688L58.2422 27.7266C60.5852 25.3836 60.5852 21.5852 58.2422 19.2422L49.7578 10.7578C48.5863 9.58631 47.0509 9 45.5156 9ZM52.4531 42L28.4531 66H60C63.315 66 66 63.315 66 60V48C66 44.685 63.315 42 60 42H52.4531ZM12 54C13.656 54 15 55.344 15 57C15 58.656 13.656 60 12 60C10.344 60 9 58.656 9 57C9 55.344 10.344 54 12 54Z" fill="#5CAB34"/>
</svg>
