<svg width="28" height="28" viewBox="0 0 28 28" fill="none" xmlns="http://www.w3.org/2000/svg">
<path d="M14.0221 1.75028C13.8001 1.74466 13.5842 1.82367 13.4183 1.97131L11.3276 3.82955L9.56624 2.50907C9.43627 2.41156 9.28171 2.35217 9.11989 2.33754C8.95806 2.32291 8.79536 2.35363 8.65001 2.42624C8.50465 2.49886 8.38239 2.61052 8.2969 2.7487C8.21142 2.88688 8.1661 3.04613 8.16602 3.20861V8.75028C8.16602 11.9614 10.7882 14.5836 13.9993 14.5836C17.2105 14.5836 19.8327 11.9614 19.8327 8.75028V3.20861C19.8326 3.04613 19.7873 2.88688 19.7018 2.7487C19.6163 2.61052 19.494 2.49886 19.3487 2.42624C19.2033 2.35363 19.0406 2.32291 18.8788 2.33754C18.717 2.35217 18.5624 2.41156 18.4325 2.50907L16.6711 3.82955L14.5804 1.97131C14.4262 1.8341 14.2285 1.75581 14.0221 1.75028ZM13.9993 3.7965L16.0433 5.61259C16.1942 5.74656 16.3867 5.82428 16.5883 5.83258C16.7899 5.84089 16.9882 5.77927 17.1496 5.65816L18.0827 4.95861V7.00028H9.91601V4.95861L10.8491 5.65816C11.0105 5.77927 11.2088 5.84089 11.4104 5.83258C11.612 5.82428 11.8045 5.74656 11.9554 5.61259L13.9993 3.7965ZM9.91601 8.75028H18.0827C18.0827 11.0155 16.2645 12.8336 13.9993 12.8336C11.7342 12.8336 9.91601 11.0155 9.91601 8.75028ZM7.29102 16.9169C5.85164 16.9169 4.66602 18.1026 4.66602 19.5419V20.2415C4.66602 21.957 5.75377 23.4958 7.41292 24.5538C9.07208 25.6119 11.3422 26.2503 13.9993 26.2503C16.6565 26.2503 18.9266 25.6119 20.5858 24.5538C22.2449 23.4958 23.3327 21.957 23.3327 20.2415V19.5419C23.3327 18.1026 22.1471 16.9169 20.7077 16.9169H7.29102ZM7.29102 18.6669H20.7077C21.2015 18.6669 21.5827 19.0482 21.5827 19.5419V20.2415C21.5827 21.2128 20.957 22.2415 19.6447 23.0784C18.3324 23.9153 16.3728 24.5003 13.9993 24.5003C11.6259 24.5003 9.66634 23.9153 8.354 23.0784C7.04166 22.2415 6.41602 21.2128 6.41602 20.2415V19.5419C6.41602 19.0482 6.79722 18.6669 7.29102 18.6669Z" fill="black"/>
</svg>
