<svg width="44" height="44" viewBox="0 0 44 44" fill="none" xmlns="http://www.w3.org/2000/svg">
<path d="M11.7335 5.86719C10.1128 5.86719 8.80013 7.17985 8.80013 8.80052V10.2672H35.2001C36.8208 10.2672 38.1335 11.5799 38.1335 13.2005V32.2672H39.6001C41.2208 32.2672 42.5335 30.9545 42.5335 29.3339V8.80052C42.5335 7.17985 41.2208 5.86719 39.6001 5.86719H11.7335ZM4.40013 13.2005C2.77946 13.2005 1.4668 14.5132 1.4668 16.1339V35.2005C1.4668 36.8212 2.77946 38.1339 4.40013 38.1339H32.2668C33.8875 38.1339 35.2001 36.8212 35.2001 35.2005V16.1339C35.2001 14.5132 33.8875 13.2005 32.2668 13.2005H4.40013ZM17.6001 19.0672C18.4097 19.0672 19.0668 19.7243 19.0668 20.5339V24.9339H23.4668C24.2764 24.9339 24.9335 25.5909 24.9335 26.4005C24.9335 27.2101 24.2764 27.8672 23.4668 27.8672H19.0668V32.2672C19.0668 33.0768 18.4097 33.7339 17.6001 33.7339C16.7905 33.7339 16.1335 33.0768 16.1335 32.2672V27.8672H11.7335C10.9239 27.8672 10.2668 27.2101 10.2668 26.4005C10.2668 25.5909 10.9239 24.9339 11.7335 24.9339H16.1335V20.5339C16.1335 19.7243 16.7905 19.0672 17.6001 19.0672Z" fill="#5CAB34"/>
</svg>
