<svg width="28" height="28" viewBox="0 0 28 28" fill="none" xmlns="http://www.w3.org/2000/svg">
<path d="M13.9994 2.33301C10.7881 2.33301 8.16602 4.95505 8.16602 8.16634C8.16602 11.3776 10.7881 13.9997 13.9994 13.9997C17.2106 13.9997 19.8327 11.3776 19.8327 8.16634C19.8327 4.95505 17.2106 2.33301 13.9994 2.33301ZM13.9994 4.08301C16.2649 4.08301 18.0827 5.90081 18.0827 8.16634C18.0827 10.4319 16.2649 12.2497 13.9994 12.2497C11.7338 12.2497 9.91602 10.4319 9.91602 8.16634C9.91602 5.90081 11.7338 4.08301 13.9994 4.08301ZM6.98682 16.333C5.71526 16.333 4.66602 17.3823 4.66602 18.6538V19.5413C4.66602 21.6438 5.99559 23.2701 7.76156 24.2445C9.52752 25.2188 11.7641 25.6663 13.9994 25.6663C16.2346 25.6663 18.4712 25.2188 20.2371 24.2445C21.7429 23.4137 22.8761 22.0862 23.1937 20.4163H23.3338V18.6538C23.3338 17.3823 22.2834 16.333 21.0119 16.333H6.98682ZM6.98682 18.083H21.0119C21.3375 18.083 21.5838 18.3282 21.5838 18.6538V18.6663H21.5827V19.5413C21.5827 20.9389 20.7977 21.9375 19.3918 22.7132C17.9859 23.4889 15.9932 23.9163 13.9994 23.9163C12.0055 23.9163 10.0128 23.4889 8.60693 22.7132C7.20103 21.9375 6.41602 20.9389 6.41602 19.5413V18.6538C6.41602 18.3282 6.66121 18.083 6.98682 18.083Z" fill="black"/>
</svg>
