<svg width="66" height="66" viewBox="0 0 66 66" fill="none" xmlns="http://www.w3.org/2000/svg">
<path d="M24.2 6.59961C21.7734 6.59961 19.8 8.57301 19.8 10.9996C19.8 13.4262 21.7734 15.3996 24.2 15.3996C26.6266 15.3996 28.6 13.4262 28.6 10.9996C28.6 8.57301 26.6266 6.59961 24.2 6.59961ZM24.2 19.7996C21.7734 19.7996 19.8 21.773 19.8 24.1996V35.1996C19.8 37.6306 21.769 39.5996 24.2 39.5996H26.4H28.6H30.0137L30.3188 35.1996H28.6V24.1996C28.6 21.773 26.6266 19.7996 24.2 19.7996ZM11.2235 24.1996C9.92326 24.1996 8.90036 25.3144 9.01916 26.6102L10.0934 38.3965C10.4846 42.7011 13.326 46.2264 17.1617 47.6777L15.4645 54.4668C15.3944 54.7473 15.3803 55.0388 15.4229 55.3247C15.4655 55.6107 15.5641 55.8854 15.7129 56.1332C15.8617 56.3811 16.0579 56.5972 16.2903 56.7692C16.5226 56.9412 16.7866 57.0658 17.0671 57.1357C17.3476 57.2057 17.6391 57.2198 17.925 57.1771C18.2109 57.1344 18.4856 57.0357 18.7334 56.8869C18.9812 56.738 19.1973 56.5417 19.3692 56.3093C19.5412 56.0769 19.6657 55.8129 19.7356 55.5324L21.5188 48.3996H29.3864L29.7215 43.9996H21.3082C17.9444 43.9996 15.1187 41.4698 14.7469 38.1258L13.4192 26.1676C13.296 25.0478 12.3499 24.1996 11.2235 24.1996ZM39.2949 26.3996C36.9871 26.3996 35.0728 28.1825 34.9078 30.4859L33 57.1996H57.2V26.3996H39.2949Z" fill="white"/>
</svg>
