<svg width="60" height="60" viewBox="0 0 60 60" fill="none" xmlns="http://www.w3.org/2000/svg">
<path d="M30.0002 6C18.0002 6 18.0002 10 18.0002 12C18.0002 20 20.0002 28 20.0002 28H40.0002C40.0002 28 42.0002 20 42.0002 12C42.0002 10 42.0002 6 30.0002 6ZM10.0002 24C9.73514 23.9963 9.47202 24.0452 9.22608 24.144C8.98014 24.2429 8.7563 24.3896 8.56756 24.5757C8.37882 24.7618 8.22895 24.9835 8.12665 25.228C8.02436 25.4725 7.97168 25.7349 7.97168 26C7.97168 26.2651 8.02436 26.5275 8.12665 26.772C8.22895 27.0165 8.37882 27.2382 8.56756 27.4243C8.7563 27.6104 8.98014 27.7571 9.22608 27.856C9.47202 27.9548 9.73514 28.0037 10.0002 28H12.0002V32.8203C12.0002 35.6665 14.0313 38.1283 16.8088 38.6992C19.5344 39.259 23.6411 39.9205 28.0002 40.0938V44.2852L16.6955 46.0234C16.2578 46.0834 15.8524 46.2866 15.5423 46.6012C15.2323 46.9158 15.0351 47.3243 14.9816 47.7627C14.928 48.2012 15.0212 48.6451 15.2464 49.0251C15.4717 49.4051 15.8164 49.6998 16.2267 49.8633C16.0403 50.3187 15.9687 50.8129 16.0183 51.3025C16.0679 51.7921 16.2372 52.2619 16.5112 52.6706C16.7853 53.0793 17.1556 53.4144 17.5896 53.6462C18.0237 53.878 18.5081 53.9995 19.0002 54C19.5434 53.9997 20.0765 53.852 20.5423 53.5725C21.0082 53.2929 21.3894 52.8922 21.6452 52.4129C21.9011 51.9337 22.022 51.3939 21.9951 50.8513C21.9682 50.3087 21.7944 49.7836 21.4924 49.332L28.0236 48.3281C28.0968 48.7998 28.3362 49.2298 28.6987 49.5404C29.0612 49.851 29.5228 50.0217 30.0002 50.0217C30.4775 50.0217 30.9391 49.851 31.3016 49.5404C31.6641 49.2298 31.9036 48.7998 31.9767 48.3281L38.508 49.332C38.2059 49.7836 38.0322 50.3087 38.0052 50.8513C37.9783 51.3939 38.0992 51.9337 38.3551 52.4129C38.611 52.8922 38.9922 53.2929 39.458 53.5725C39.9239 53.852 40.4569 53.9997 41.0002 54C41.4922 53.9995 41.9766 53.878 42.4107 53.6462C42.8447 53.4144 43.2151 53.0793 43.4891 52.6706C43.7631 52.2619 43.9324 51.7921 43.982 51.3025C44.0316 50.8129 43.9601 50.3187 43.7736 49.8633C44.184 49.6998 44.5287 49.4051 44.7539 49.0251C44.9792 48.6451 45.0723 48.2012 45.0188 47.7627C44.9652 47.3243 44.7681 46.9158 44.458 46.6012C44.148 46.2866 43.7425 46.0834 43.3049 46.0234L32.0002 44.2852V40.0938C36.352 39.918 40.4579 39.2572 43.1838 38.6992C45.9651 38.131 48.0002 35.664 48.0002 32.8164V28H50.0002C50.2652 28.0037 50.5283 27.9548 50.7743 27.856C51.0202 27.7571 51.244 27.6104 51.4328 27.4243C51.6215 27.2382 51.7714 27.0165 51.8737 26.772C51.976 26.5275 52.0286 26.2651 52.0286 26C52.0286 25.7349 51.976 25.4725 51.8737 25.228C51.7714 24.9835 51.6215 24.7618 51.4328 24.5757C51.244 24.3896 51.0202 24.2429 50.7743 24.144C50.5283 24.0452 50.2652 23.9963 50.0002 24H48.0002C45.814 24 44.0002 25.8139 44.0002 28V32.8164C44.0002 33.7808 43.3416 34.5854 42.383 34.7812C42.2188 34.8148 41.9989 34.8523 41.8244 34.8867C41.3399 33.2229 39.8209 32 38.0002 32H22.0002C20.1794 32 18.6604 33.2229 18.1759 34.8867C18.0003 34.852 17.7786 34.8152 17.6134 34.7812C16.6549 34.5842 16.0002 33.7861 16.0002 32.8203V28C16.0002 25.8139 14.1863 24 12.0002 24H10.0002Z" fill="white"/>
</svg>
