<svg width="44" height="44" viewBox="0 0 44 44" fill="none" xmlns="http://www.w3.org/2000/svg">
<path d="M10.2669 2.93359C6.2343 2.93359 2.93359 6.2343 2.93359 10.2669V23.4669C2.93359 26.4795 4.77766 29.0798 7.39089 30.2044C7.82564 33.8302 10.9292 36.6669 14.6669 36.6669H39.6003C39.9892 36.6669 40.3623 36.5124 40.6373 36.2373C40.9124 35.9623 41.0669 35.5892 41.0669 35.2003V13.2031H38.1336V33.7336H14.6669C12.7385 33.7336 11.1341 32.512 10.5333 30.8003H33.7336C34.1226 30.8002 34.4956 30.6457 34.7706 30.3706C35.0457 30.0956 35.2002 29.7226 35.2003 29.3336V8.80026C35.2002 8.41129 35.0457 8.03826 34.7706 7.76321C34.4956 7.48817 34.1226 7.33363 33.7336 7.33359H11.7336V4.40026C11.7336 4.01129 11.579 3.63826 11.304 3.36321C11.0289 3.08817 10.6559 2.93363 10.2669 2.93359ZM11.7336 10.2669H32.2669V27.8669H10.2669C7.81982 27.8669 5.86693 25.914 5.86693 23.4669C5.86693 21.0198 7.81982 19.0669 10.2669 19.0669C10.6559 19.0669 11.0289 18.9124 11.304 18.6373C11.579 18.3623 11.7336 17.9892 11.7336 17.6003V10.2669ZM22.0003 14.6669L24.6299 17.2966L22.0003 19.9263L18.6372 16.5633C18.3622 16.2883 17.9892 16.1339 17.6003 16.1339C17.2113 16.1339 16.8383 16.2883 16.5633 16.5633L13.6299 19.4966C13.4892 19.6318 13.3768 19.7936 13.2994 19.9728C13.222 20.1519 13.1811 20.3446 13.1791 20.5398C13.1771 20.7349 13.2141 20.9285 13.2878 21.1091C13.3616 21.2898 13.4706 21.4539 13.6086 21.5919C13.7466 21.7299 13.9107 21.8389 14.0914 21.9127C14.2721 21.9865 14.4656 22.0234 14.6607 22.0214C14.8559 22.0195 15.0486 21.9786 15.2278 21.9011C15.4069 21.8237 15.5688 21.7113 15.7039 21.5706L17.6003 19.6742L20.9633 23.0372C21.2383 23.3122 21.6113 23.4666 22.0003 23.4666C22.3892 23.4666 22.7622 23.3122 23.0372 23.0372L26.7039 19.3706L29.3336 22.0003V14.6669H22.0003Z" fill="#5CAB34"/>
</svg>
