<svg width="24" height="24" viewBox="0 0 24 24" fill="none" xmlns="http://www.w3.org/2000/svg">
<path fill-rule="evenodd" clip-rule="evenodd" d="M14.615 2.59486C14.7614 2.67635 14.8763 2.80454 14.9414 2.95896C15.0064 3.11338 15.0179 3.28515 14.974 3.44686L12.982 10.7499H20.25C20.3961 10.7499 20.5391 10.7926 20.6613 10.8728C20.7835 10.9529 20.8796 11.0671 20.9378 11.2011C20.9961 11.3352 21.0138 11.4834 20.989 11.6274C20.9641 11.7714 20.8977 11.9051 20.798 12.0119L10.298 23.2619C10.1836 23.3847 10.0313 23.4656 9.86558 23.4916C9.69981 23.5177 9.53009 23.4874 9.38357 23.4056C9.23705 23.3238 9.12218 23.1953 9.05735 23.0405C8.99252 22.8857 8.98146 22.7137 9.02595 22.5519L11.018 15.2499H3.74995C3.60379 15.2498 3.46082 15.2071 3.33861 15.127C3.2164 15.0468 3.12028 14.9327 3.06206 14.7986C3.00384 14.6645 2.98607 14.5164 3.01092 14.3723C3.03578 14.2283 3.10217 14.0947 3.20195 13.9879L13.702 2.73786C13.8163 2.6155 13.9683 2.53495 14.1338 2.50903C14.2993 2.48312 14.4687 2.51333 14.615 2.59486Z" fill="white"/>
</svg>
