<svg width="24" height="24" viewBox="0 0 24 24" fill="none" xmlns="http://www.w3.org/2000/svg">
<g opacity="0.5">
<path d="M16.0505 2.00391C14.5268 2.00391 13.003 2.58219 11.8435 3.74219L9.29273 6.29297C8.90173 6.68397 8.90173 7.31603 9.29273 7.70703C9.68373 8.09803 10.3158 8.09803 10.7068 7.70703L13.2576 5.15625C14.7976 3.61625 17.3035 3.61625 18.8435 5.15625C20.3835 6.69625 20.3835 9.20219 18.8435 10.7422L16.2927 13.293C15.9017 13.684 15.9017 14.316 16.2927 14.707C16.4877 14.902 16.7438 15 16.9998 15C17.2558 15 17.5118 14.902 17.7068 14.707L20.2576 12.1562C22.5776 9.83625 22.5776 6.06119 20.2576 3.74219C19.0981 2.58219 17.5743 2.00391 16.0505 2.00391ZM14.9998 8C14.744 8 14.4882 8.09747 14.2927 8.29297L8.29273 14.293C7.90173 14.684 7.90173 15.316 8.29273 15.707C8.48773 15.902 8.74377 16 8.99977 16C9.25577 16 9.5118 15.902 9.7068 15.707L15.7068 9.70703C16.0978 9.31603 16.0978 8.68397 15.7068 8.29297C15.5113 8.09747 15.2555 8 14.9998 8ZM6.99977 9C6.74402 9 6.48823 9.09747 6.29273 9.29297L3.74195 11.8438C1.42195 14.1637 1.42195 17.9378 3.74195 20.2578C4.90195 21.4178 6.42598 21.9961 7.94898 21.9961C9.47198 21.9961 10.996 21.4178 12.156 20.2578L14.7068 17.707C15.0978 17.316 15.0978 16.684 14.7068 16.293C14.3158 15.902 13.6837 15.902 13.2927 16.293L10.742 18.8438C9.20195 20.3838 6.69602 20.3838 5.15602 18.8438C3.61602 17.3038 3.61602 14.7978 5.15602 13.2578L7.7068 10.707C8.0978 10.316 8.0978 9.68397 7.7068 9.29297C7.5113 9.09747 7.25552 9 6.99977 9Z" fill="black"/>
</g>
</svg>
