<svg width="10" height="11" viewBox="0 0 10 11" fill="none" xmlns="http://www.w3.org/2000/svg">
<path fill-rule="evenodd" clip-rule="evenodd" d="M4.77 10.8894L4.805 10.9094L4.819 10.9174C4.87452 10.9474 4.93664 10.9631 4.99975 10.9631C5.06286 10.9631 5.12498 10.9474 5.1805 10.9174L5.1945 10.9099L5.23 10.8894C5.42556 10.7734 5.61638 10.6496 5.802 10.5184C6.28254 10.1791 6.73152 9.79723 7.1435 9.37737C8.1155 8.38237 9.125 6.88737 9.125 4.96387C9.125 3.86985 8.6904 2.82064 7.91682 2.04705C7.14323 1.27346 6.09402 0.838867 5 0.838867C3.90598 0.838867 2.85677 1.27346 2.08318 2.04705C1.3096 2.82064 0.875 3.86985 0.875 4.96387C0.875 6.88687 1.885 8.38237 2.8565 9.37737C3.26832 9.79721 3.71714 10.1791 4.1975 10.5184C4.38328 10.6497 4.57427 10.7734 4.77 10.8894ZM5 6.46387C5.39782 6.46387 5.77936 6.30583 6.06066 6.02453C6.34196 5.74322 6.5 5.36169 6.5 4.96387C6.5 4.56604 6.34196 4.18451 6.06066 3.90321C5.77936 3.6219 5.39782 3.46387 5 3.46387C4.60218 3.46387 4.22064 3.6219 3.93934 3.90321C3.65804 4.18451 3.5 4.56604 3.5 4.96387C3.5 5.36169 3.65804 5.74322 3.93934 6.02453C4.22064 6.30583 4.60218 6.46387 5 6.46387Z" fill="white"/>
</svg>
