<svg width="23" height="28" viewBox="0 0 23 28" fill="none" xmlns="http://www.w3.org/2000/svg">
<path d="M11.5 0C5.14871 0 0 5.16426 0 11.5347C0 19.1213 7.4768 22.6489 8.41322 23.4943C9.36937 24.3577 10.1593 26.0883 10.4796 27.1857C10.6341 27.718 11.0696 27.9885 11.5 28C11.9321 27.9885 12.3659 27.718 12.5204 27.1857C12.8391 26.0899 13.629 24.3577 14.5868 23.4943C15.5232 22.6489 23 19.1213 23 11.5347C23 5.16426 17.8513 0 11.5 0ZM11.5 8.23908C13.3154 8.23908 14.7857 9.71388 14.7857 11.5347C14.7857 13.3555 13.3154 14.8303 11.5 14.8303C9.68464 14.8303 8.21428 13.3555 8.21428 11.5347C8.21428 9.71388 9.68464 8.23908 11.5 8.23908Z" fill="#1952C2"/>
</svg>
