<svg width="100" height="100" viewBox="0 0 100 100" fill="none" xmlns="http://www.w3.org/2000/svg">
<path d="M50.0002 2C39.6527 2 31.1065 9.91542 30.0979 20C28.0072 19.9902 26.3212 19.8483 24.6213 20.7812C23.7439 21.2628 23.0043 22.141 22.6369 23.1094C22.2696 24.0777 22.1643 25.1142 22.1643 26.3359C22.1648 26.6481 22.2384 26.9558 22.3791 27.2344C23.3284 29.1207 23.6665 31.0269 23.5862 32.1914C23.5536 32.6637 23.4567 32.8743 23.3947 33.0156C20.8394 32.1938 18.2084 32.4039 16.1643 33.1211C14.9802 33.5365 13.982 34.0425 13.1877 34.6484C12.7906 34.9514 12.4347 35.2551 12.1057 35.7969C11.9412 36.0677 11.7679 36.4183 11.7268 36.9219C11.7192 37.0145 11.8097 37.1176 11.8166 37.2188C11.8025 37.2535 11.815 37.2243 11.7737 37.3047C11.6083 37.6263 11.2482 38.205 10.7815 38.8867C9.84801 40.2502 8.48189 42.0728 7.12131 43.9336C5.76073 45.7944 4.4054 47.6874 3.426 49.3398C2.9363 50.1661 2.5381 50.9176 2.26975 51.6953C2.0014 52.473 1.60053 53.5278 2.52366 54.75C2.73742 55.0347 3.0233 55.2572 3.35178 55.3945C7.19195 56.9836 9.20096 58.6717 10.3283 60.2461C11.4557 61.8205 11.7929 63.3654 11.9572 65.0664C12.1216 66.7674 12.0083 68.5747 12.594 70.4883C13.165 72.3539 14.7645 74.1471 17.2776 74.9844C17.5686 75.1073 17.8814 75.427 18.1721 76.2188C18.4627 77.0105 18.6367 78.1526 18.6877 79.2891C18.7898 81.5619 18.4533 83.7266 18.4533 83.7266C18.4058 84.0273 18.4275 84.335 18.5168 84.6261C18.6062 84.9171 18.7608 85.184 18.969 85.4062C18.969 85.4062 20.8437 87.4076 22.8908 89.3242C23.9144 90.2825 24.9706 91.2201 25.9533 91.9297C26.4447 92.2845 26.9009 92.5879 27.4612 92.8242C27.7413 92.9424 28.0513 93.0517 28.4924 93.0859C28.9335 93.1202 29.6028 93.0395 30.1643 92.5977C29.5494 93.0812 29.6651 92.8046 30.0744 92.8203C30.4851 92.8361 31.1594 92.9214 31.9494 93.0703C33.5295 93.3682 35.6015 93.896 37.6604 94.4336C39.7192 94.9712 41.7625 95.5172 43.4182 95.8633C44.246 96.0363 44.9632 96.1669 45.6447 96.207C45.9855 96.2271 46.3144 96.2349 46.7424 96.1523C47.1704 96.0698 47.9127 95.8843 48.4065 95.0078V95.0039C48.8665 94.1836 49.5903 92.6222 50.633 90.9297C51.6064 89.3499 52.8413 87.9683 53.6487 87.4258C53.7237 87.4432 53.7375 87.4376 53.8322 87.4648C54.3898 87.6248 55.2426 87.9506 56.2346 88.3828C58.2185 89.2473 60.7943 90.5417 63.3752 91.8906C65.9561 93.2395 68.5493 94.6429 70.6408 95.7461C71.6866 96.2977 72.6043 96.7717 73.3518 97.1367C74.0993 97.5017 74.4837 97.7451 75.2658 97.9219C76.9286 98.2977 78.0192 97.6194 79.1721 96.9648C80.325 96.3103 81.4854 95.449 82.5862 94.5664C83.687 93.6838 84.7161 92.7803 85.5198 92.0586C86.3234 91.3369 87.0663 90.6753 86.9807 90.7422C87.4782 90.3535 87.7401 89.7233 87.7932 89.3047C87.8463 88.8861 87.7884 88.6137 87.7346 88.3945C87.627 87.9561 87.4876 87.6929 87.3401 87.4102C87.0449 86.8447 86.6804 86.2828 86.301 85.6875C85.6137 84.6092 84.9816 83.4024 84.8283 83.0312V83.0273C84.8492 82.8812 84.8865 82.576 85.0119 82.2461C85.264 81.5831 85.6941 80.6553 86.2346 79.5977C87.3156 77.4823 88.8383 74.8219 90.3557 72.1992C91.873 69.5765 93.3835 66.9931 94.4807 64.9375C95.0293 63.9097 95.4748 63.0265 95.7854 62.2578C95.9407 61.8735 96.0651 61.5289 96.1487 61.1055C96.2322 60.6821 96.5268 60.0005 95.6838 59.0039C95.4944 58.781 95.2584 58.6023 94.9924 58.4805C92.1768 57.1849 90.4768 53.7693 89.6135 50.3164C89.1819 48.5899 88.9598 46.909 88.8557 45.6367C88.8116 45.0983 88.7961 44.6861 88.7854 44.3242C88.8269 44.3031 88.8304 44.2993 88.8752 44.2773C89.4893 43.977 90.403 43.5958 91.3323 43.2148C92.2615 42.8339 93.2078 42.4536 93.9885 42.1016C94.3789 41.9255 94.7226 41.7603 95.0549 41.5664C95.2211 41.4695 95.3848 41.3698 95.5862 41.2031C95.7871 41.0369 96.1174 40.8708 96.3479 40.082V40.0781C97.5111 36.0916 98.1575 33.1498 97.9729 30.6328C97.795 28.2073 96.3437 26.1467 94.2541 25.168C93.056 24.3151 91.7013 24.1346 90.3674 24.1719C88.9186 24.2124 87.3949 24.4868 85.8713 24.8242C83.2572 25.4032 80.9397 26.0219 79.3869 26.2969L75.758 20.8867C75.5753 20.614 75.3283 20.3905 75.0388 20.2359C74.7492 20.0813 74.4261 20.0002 74.0979 20H69.8987C68.8901 9.9157 60.3493 2 50.0002 2ZM50.0002 6C58.8632 6 66.0002 13.1428 66.0002 22C66.0002 27.1419 61.7482 35.6504 57.3205 42.5078C53.6674 48.1656 51.1795 51.1399 50.0119 52.5898C48.8493 51.1223 46.3454 48.0779 42.6838 42.3672C38.2528 35.4566 34.0002 26.9147 34.0002 22C34.0002 13.1431 41.1394 6 50.0002 6ZM50.0002 14C45.6056 14 42.0002 17.6054 42.0002 22C42.0002 26.3946 45.6056 30 50.0002 30C54.3948 30 58.0002 26.3946 58.0002 22C58.0002 17.6054 54.3948 14 50.0002 14ZM50.0002 18C52.233 18 54.0002 19.7672 54.0002 22C54.0002 24.2328 52.233 26 50.0002 26C47.7674 26 46.0002 24.2328 46.0002 22C46.0002 19.7672 47.7674 18 50.0002 18ZM69.8713 24H73.0315L76.8166 29.6445C77.0153 29.9407 77.2896 30.1784 77.611 30.3329C77.9324 30.4874 78.2894 30.5532 78.6448 30.5234C80.9738 30.3305 83.9226 29.3541 86.7385 28.7305C88.1465 28.4186 89.4866 28.1997 90.4807 28.1719C91.4747 28.1441 92.0002 28.3816 91.9924 28.375C92.1506 28.5084 92.3285 28.6165 92.5198 28.6953C93.6775 29.1769 93.8737 29.4143 93.9846 30.9258C94.0866 32.3161 93.5585 34.9608 92.6252 38.3164C92.5203 38.3674 92.476 38.3936 92.344 38.4531C91.6903 38.7479 90.7569 39.1247 89.8127 39.5117C88.8685 39.8988 87.9157 40.2932 87.1174 40.6836C86.7183 40.8788 86.3646 41.0646 86.008 41.3086C85.8297 41.4306 85.647 41.5639 85.4338 41.7891C85.2206 42.0143 84.8926 42.3486 84.801 43.0938C84.7406 43.5747 84.7684 43.7013 84.7776 44.1641C84.7868 44.6319 84.8123 45.2437 84.8713 45.9648C84.9893 47.4072 85.2337 49.2858 85.7346 51.2891C86.6152 54.8113 88.3991 58.7825 91.8869 61.1406C91.6632 61.6473 91.3839 62.2481 90.9533 63.0547C89.9199 64.9909 88.4176 67.5669 86.8948 70.1992C85.3719 72.8315 83.8262 75.519 82.6721 77.7773C82.0951 78.9065 81.6163 79.9228 81.2737 80.8242C80.931 81.7256 80.5415 82.3403 80.8205 83.6602V83.6641C81.1848 85.3805 82.1659 86.6474 82.926 87.8398C83.1296 88.1593 83.2342 88.345 83.3908 88.6016C83.2013 88.7765 83.0994 88.8562 82.8479 89.082C82.0715 89.7793 81.0944 90.6369 80.0862 91.4453C79.0779 92.2537 78.0276 93.0119 77.1955 93.4844C76.5807 93.8335 76.0612 93.9032 76.0119 93.957C76.0552 93.9515 75.6919 93.8292 75.1057 93.543C74.431 93.2135 73.5343 92.7504 72.5041 92.207C70.4437 91.1203 67.8416 89.7104 65.2268 88.3438C62.6119 86.9771 59.9928 85.6563 57.8322 84.7148C56.752 84.2441 55.7928 83.8675 54.9338 83.6211C54.5043 83.4979 54.1046 83.404 53.6604 83.3633C53.2161 83.3225 52.6959 83.2655 51.9651 83.6602C49.8126 84.8228 48.4115 86.909 47.2268 88.832C46.298 90.3395 45.8024 91.3825 45.4182 92.1367C45.0882 92.0947 44.7656 92.0594 44.2385 91.9492C42.7687 91.642 40.743 91.1071 38.6721 90.5664C36.6012 90.0257 34.4845 89.4786 32.6916 89.1406C31.7952 88.9716 30.9832 88.8493 30.2268 88.8203C29.8608 88.8063 29.3936 89.0787 29.0002 89.1289C28.9332 89.0991 28.6479 88.9408 28.2971 88.6875C27.5809 88.1703 26.5854 87.3052 25.6252 86.4062C24.0002 84.8848 22.9029 83.7081 22.4651 83.2461C22.5661 82.4995 22.782 81.2953 22.6838 79.1094C22.6216 77.7243 22.4414 76.2438 21.926 74.8398C21.4106 73.4359 20.4642 71.9899 18.8322 71.3008C18.7697 71.2741 18.7058 71.2506 18.6408 71.2305C16.925 70.7028 16.7109 70.2727 16.4182 69.3164C16.1255 68.3601 16.1329 66.7041 15.9377 64.6836C15.7425 62.6631 15.2402 60.2295 13.5822 57.9141C12.1458 55.9081 9.69156 54.0983 6.31272 52.4766C6.46251 52.1502 6.58533 51.8548 6.86741 51.3789C7.70001 49.9741 9.01136 48.1262 10.3518 46.293C11.6922 44.4598 13.0617 42.6392 14.0822 41.1484C14.5925 40.4031 15.0141 39.7516 15.3322 39.1328C15.4913 38.8234 15.6297 38.5326 15.7346 38.1211C15.751 38.0568 15.654 37.8776 15.6721 37.7969C16.0004 37.5554 16.6701 37.1817 17.4885 36.8945C19.1789 36.3014 21.3558 36.1219 22.8244 36.8516C23.1013 36.9884 23.4062 37.0593 23.7151 37.0586C24.9283 37.0586 26.0914 36.306 26.6838 35.4102C27.2762 34.5143 27.5055 33.5201 27.5783 32.4648C27.7053 30.6254 27.0871 28.4779 26.1643 26.3359C26.1643 25.3806 26.2794 24.7837 26.3752 24.5312C26.471 24.2788 26.442 24.3468 26.5471 24.2891C26.7513 24.177 28.0537 24.0133 30.1369 24.0039C30.9082 30.5254 35.1784 38.0694 39.3166 44.5234C43.8857 51.6494 48.4494 57.2617 48.4494 57.2617C48.6362 57.4906 48.8714 57.6753 49.138 57.8025C49.4047 57.9297 49.6962 57.9962 49.9916 57.9973C50.287 57.9985 50.579 57.9341 50.8466 57.809C51.1142 57.6838 51.3508 57.5009 51.5393 57.2734C51.5393 57.2734 56.1075 51.7574 60.6799 44.6758C64.831 38.2466 69.1149 30.6586 69.8713 24ZM23.7151 33.0586L24.0862 33.1484C23.9488 33.1348 23.8129 33.1235 23.676 33.0742C23.6918 33.0702 23.7025 33.0586 23.7151 33.0586ZM15.6877 37.0195C15.6937 37.0943 15.7204 37.1809 15.7151 37.2461C15.7016 37.4106 15.6598 37.4405 15.6252 37.5391C15.6499 37.3719 15.6773 37.1986 15.6877 37.0195ZM35.0002 54C33.6741 54 32.4024 54.5268 31.4647 55.4645C30.527 56.4021 30.0002 57.6739 30.0002 59C30.0002 60.3261 30.527 61.5979 31.4647 62.5355C32.4024 63.4732 33.6741 64 35.0002 64C36.3263 64 37.5981 63.4732 38.5358 62.5355C39.4734 61.5979 40.0002 60.3261 40.0002 59C40.0002 57.6739 39.4734 56.4021 38.5358 55.4645C37.5981 54.5268 36.3263 54 35.0002 54ZM28.801 89.0977C28.9839 89.1119 28.9983 89.1343 28.9885 89.1328C28.7249 89.1677 28.4877 89.1326 28.2151 89.1992C28.4574 89.1224 28.6781 89.0881 28.801 89.0977ZM27.7268 89.4375C27.7145 89.4467 27.7041 89.4472 27.6916 89.457V89.4531C27.7031 89.4441 27.7152 89.4461 27.7268 89.4375Z" fill="black"/>
</svg>
