<svg width="44" height="44" viewBox="0 0 44 44" fill="none" xmlns="http://www.w3.org/2000/svg">
<g clip-path="url(#clip0_300_2215)">
<path d="M8.80013 5.86719C7.17946 5.86719 5.8668 7.17985 5.8668 8.80052V14.6672L1.4668 20.5339C1.4668 22.1545 2.77946 23.4672 4.40013 23.4672C6.0208 23.4672 7.33346 22.1545 7.33346 20.5339L10.2668 14.6672H14.6668L13.2001 20.5339C13.2001 22.1545 14.5128 23.4672 16.1335 23.4672C17.7541 23.4672 19.0668 22.1545 19.0668 20.5339V14.6672H24.9335V20.5339C24.9335 22.1545 26.2461 23.4672 27.8668 23.4672C29.4875 23.4672 30.8001 22.1545 30.8001 20.5339L29.3335 14.6672H33.7335L36.6668 20.5339C36.6668 22.1545 37.9795 23.4672 39.6001 23.4672C41.2208 23.4672 42.5335 22.1545 42.5335 20.5339L38.1335 14.6672V8.80052C38.1335 7.17985 36.8208 5.86719 35.2001 5.86719H8.80013ZM10.2668 8.80052C11.0764 8.80052 11.7335 9.45759 11.7335 10.2672C11.7335 11.0768 11.0764 11.7339 10.2668 11.7339C9.4572 11.7339 8.80013 11.0768 8.80013 10.2672C8.80013 9.45759 9.4572 8.80052 10.2668 8.80052ZM16.1335 8.80052C16.9431 8.80052 17.6001 9.45759 17.6001 10.2672C17.6001 11.0768 16.9431 11.7339 16.1335 11.7339C15.3239 11.7339 14.6668 11.0768 14.6668 10.2672C14.6668 9.45759 15.3239 8.80052 16.1335 8.80052ZM5.8668 26.4005V35.2005C5.8668 36.8212 7.17946 38.1339 8.80013 38.1339L23.8592 38.131L24.1257 35.2005H8.80013V26.4005H5.8668ZM29.0671 27.8672C28.3088 27.8672 27.6751 28.4439 27.6061 29.1992L26.4059 42.3992C26.3281 43.2587 27.0044 44.0005 27.8668 44.0005H42.5335C43.3959 44.0005 44.0721 43.2587 43.9944 42.3992L42.7941 29.1992C42.7252 28.4439 42.0915 27.8672 41.3332 27.8672H29.0671ZM32.2668 30.8005C33.0764 30.8005 33.7335 31.4576 33.7335 32.2672C33.7335 33.0753 34.392 33.7339 35.2001 33.7339C36.0083 33.7339 36.6668 33.0753 36.6668 32.2672C36.6668 31.4576 37.3239 30.8005 38.1335 30.8005C38.9431 30.8005 39.6001 31.4576 39.6001 32.2672C39.6001 34.6931 37.626 36.6672 35.2001 36.6672C32.7743 36.6672 30.8001 34.6931 30.8001 32.2672C30.8001 31.4576 31.4572 30.8005 32.2668 30.8005Z" fill="#5CAB34"/>
</g>
<defs>
<clipPath id="clip0_300_2215">
<rect width="44" height="44" fill="white"/>
</clipPath>
</defs>
</svg>
