<svg width="28" height="28" viewBox="0 0 28 28" fill="none" xmlns="http://www.w3.org/2000/svg">
<path d="M2.05824 2.4027C1.83259 2.39626 1.61319 2.47728 1.44587 2.62881C1.27855 2.78034 1.17626 2.99067 1.16037 3.21585C1.14449 3.44103 1.21624 3.66364 1.36063 3.83716C1.50502 4.01069 1.71088 4.1217 1.93519 4.147C4.10663 4.40921 5.99898 5.16274 7.37774 6.35843C8.7565 7.55412 9.65302 9.17981 9.85235 11.3703C9.86789 11.5411 9.93326 11.7035 10.0403 11.8374L12.834 15.3295C12.8519 15.3519 12.8603 15.3244 12.8328 15.334L10.5018 16.1486C10.3306 16.2086 10.1823 16.3204 10.0774 16.4683C9.97244 16.6163 9.91611 16.7932 9.91615 16.9746V20.6148C9.91615 20.9946 9.67801 21.3243 9.31801 21.4442L6.06296 22.5288C5.23233 22.8054 4.66615 23.5901 4.66615 24.4657V24.7915C4.66451 24.9075 4.68593 25.0226 4.72917 25.1302C4.77241 25.2378 4.8366 25.3357 4.91801 25.4183C4.99942 25.5009 5.09644 25.5664 5.20341 25.6112C5.31039 25.656 5.42519 25.679 5.54115 25.679C5.65711 25.679 5.77191 25.656 5.87889 25.6112C5.98586 25.5664 6.08288 25.5009 6.16429 25.4183C6.2457 25.3357 6.3099 25.2378 6.35313 25.1302C6.39637 25.0226 6.41779 24.9075 6.41615 24.7915V24.4657C6.41615 24.3367 6.493 24.2308 6.61553 24.19L9.87172 23.1042C10.9409 22.7481 11.6662 21.7411 11.6662 20.6148V17.5956L13.4116 16.9849C14.5263 16.5943 14.9392 15.1583 14.2011 14.2357L11.5397 10.9089C11.243 8.45607 10.1542 6.45064 8.5239 5.03681C6.82412 3.56273 4.59165 2.705 2.14483 2.40954C2.1161 2.40583 2.0872 2.40354 2.05824 2.4027ZM21.8654 12.8332C21.6647 12.8353 21.4709 12.9063 21.3164 13.0343C21.1619 13.1623 21.056 13.3394 21.0166 13.5362L19.2609 22.3169L18.0202 19.2168C17.9552 19.0544 17.8432 18.9152 17.6984 18.8171C17.5536 18.719 17.3827 18.6666 17.2078 18.6665H14.8745C14.7585 18.6649 14.6434 18.6863 14.5358 18.7296C14.4282 18.7728 14.3303 18.837 14.2477 18.9184C14.1651 18.9998 14.0996 19.0968 14.0548 19.2038C14.0101 19.3108 13.987 19.4256 13.987 19.5415C13.987 19.6575 14.0101 19.7723 14.0548 19.8793C14.0996 19.9862 14.1651 20.0833 14.2477 20.1647C14.3303 20.2461 14.4282 20.3103 14.5358 20.3535C14.6434 20.3968 14.7585 20.4182 14.8745 20.4165H16.6154L18.7288 25.6996C18.7989 25.8745 18.9235 26.0222 19.0843 26.1206C19.245 26.219 19.4332 26.2629 19.6208 26.2457C19.8085 26.2285 19.9856 26.1513 20.1258 26.0254C20.266 25.8995 20.3619 25.7317 20.3991 25.5469L22.1548 16.7661L23.3955 19.8662C23.4604 20.0286 23.5725 20.1679 23.7173 20.266C23.8621 20.364 24.0329 20.4165 24.2078 20.4165H26.5411C26.6571 20.4182 26.7722 20.3968 26.8798 20.3535C26.9874 20.3103 27.0853 20.2461 27.1679 20.1647C27.2505 20.0833 27.3161 19.9862 27.3608 19.8793C27.4056 19.7723 27.4286 19.6575 27.4286 19.5415C27.4286 19.4256 27.4056 19.3108 27.3608 19.2038C27.3161 19.0968 27.2505 18.9998 27.1679 18.9184C27.0853 18.837 26.9874 18.7728 26.8798 18.7296C26.7722 18.6863 26.6571 18.6649 26.5411 18.6665H24.8003L22.6868 13.3835C22.6213 13.2196 22.5079 13.0794 22.3613 12.9812C22.2147 12.883 22.0418 12.8314 21.8654 12.8332Z" fill="black"/>
</svg>
