<svg width="28" height="28" viewBox="0 0 28 28" fill="none" xmlns="http://www.w3.org/2000/svg">
<g opacity="0.6" clip-path="url(#clip0_2412_406)">
<path d="M17.2938 3.55957C17.2169 3.55945 17.1396 3.56509 17.0625 3.57552C16.7541 3.61725 16.45 3.74449 16.1989 3.96745V3.96859L10.819 8.75033H6.95898C5.51961 8.75033 4.33398 9.93595 4.33398 11.3753V16.6253C4.33398 18.0647 5.51961 19.2503 6.95898 19.2503H10.819L16.1989 24.0321C16.701 24.4785 17.4132 24.5442 17.9523 24.3021C18.4915 24.06 18.9173 23.4838 18.9173 22.8119V5.1888C18.9173 4.51712 18.4926 3.94073 17.9535 3.69857C17.7513 3.60776 17.5245 3.55993 17.2938 3.55957ZM17.1673 5.44857V22.5521L11.7327 17.7214C11.5726 17.579 11.3659 17.5004 11.1517 17.5003H6.95898C6.46519 17.5003 6.08398 17.1191 6.08398 16.6253V11.3753C6.08398 10.8815 6.46519 10.5003 6.95898 10.5003H11.1517C11.3659 10.5003 11.5726 10.4216 11.7327 10.2793L17.1673 5.44857ZM27.3677 10.4878C27.1366 10.4933 26.9171 10.5899 26.757 10.7567L24.7507 12.763L22.7443 10.7567C22.6627 10.6727 22.5652 10.6059 22.4573 10.5603C22.3495 10.5147 22.2336 10.4912 22.1165 10.4912C21.9424 10.4913 21.7722 10.5433 21.6278 10.6405C21.4834 10.7378 21.3713 10.876 21.3058 11.0374C21.2404 11.1988 21.2246 11.376 21.2604 11.5464C21.2962 11.7168 21.3821 11.8726 21.507 11.994L23.5133 14.0003L21.507 16.0067C21.423 16.0873 21.356 16.1839 21.3098 16.2907C21.2636 16.3976 21.2392 16.5126 21.238 16.629C21.2368 16.7454 21.2589 16.8609 21.3029 16.9687C21.3469 17.0765 21.412 17.1744 21.4943 17.2567C21.5766 17.339 21.6745 17.4041 21.7823 17.4481C21.8901 17.4921 22.0056 17.5141 22.122 17.513C22.2384 17.5118 22.3534 17.4874 22.4602 17.4412C22.5671 17.395 22.6637 17.328 22.7443 17.244L24.7507 15.2376L26.757 17.244C26.8376 17.328 26.9342 17.395 27.0411 17.4412C27.1479 17.4874 27.2629 17.5118 27.3793 17.513C27.4957 17.5141 27.6112 17.4921 27.719 17.4481C27.8268 17.4041 27.9247 17.339 28.007 17.2567C28.0893 17.1744 28.1544 17.0765 28.1984 16.9687C28.2424 16.8609 28.2645 16.7454 28.2633 16.629C28.2621 16.5126 28.2377 16.3976 28.1915 16.2907C28.1453 16.1839 28.0783 16.0873 27.9943 16.0067L25.988 14.0003L27.9943 11.994C28.1215 11.8719 28.2089 11.7141 28.245 11.5415C28.281 11.3688 28.264 11.1893 28.1963 11.0265C28.1286 10.8637 28.0132 10.7251 27.8653 10.629C27.7175 10.5328 27.544 10.4836 27.3677 10.4878Z" fill="black"/>
</g>
<defs>
<clipPath id="clip0_2412_406">
<rect width="28" height="28" fill="white"/>
</clipPath>
</defs>
</svg>
