<svg width="24" height="24" viewBox="0 0 24 24" fill="none" xmlns="http://www.w3.org/2000/svg">
<path d="M9.24609 1.49707C8.25381 1.49707 7.44708 2.3484 7.49902 3.33887V3.33984L7.89453 10.8418C7.90108 10.9661 7.92258 11.086 7.9541 11.2021C7.39171 11.4952 6.99902 12.079 6.99902 12.75H6.74707C6.59955 12.75 6.49707 12.6475 6.49707 12.5V11H6.5C6.7765 11 7 10.776 7 10.5V10C7 9.724 6.776 9.5 6.5 9.5H5C4.724 9.5 4.5 9.724 4.5 10V10.5C4.5 10.7749 4.72254 10.9973 4.99707 10.999V11V12.5C4.99707 13.4575 5.78959 14.25 6.74707 14.25H6.99902V14.2578C6.99902 15.2153 7.79155 16.0078 8.74902 16.0078H11.249V18.0049H9.49707C9.34303 18.0049 9.19272 18.0523 9.06657 18.1407C8.94042 18.2291 8.84455 18.3542 8.79199 18.499L8.01855 20.626C7.82388 20.7322 7.67014 20.9003 7.58162 21.1036C7.49309 21.307 7.47482 21.534 7.52969 21.7489C7.58456 21.9638 7.70944 22.1543 7.88462 22.2903C8.0598 22.4263 8.27529 22.5001 8.49707 22.5C8.65891 22.4997 8.81825 22.4601 8.96136 22.3845C9.10448 22.3089 9.22706 22.1997 9.31856 22.0662C9.41005 21.9327 9.46771 21.779 9.48656 21.6182C9.50541 21.4575 9.48488 21.2946 9.42676 21.1436L10.0225 19.5049H11.249V20.8467C11.1223 20.9907 11.0398 21.1682 11.0113 21.358C10.9829 21.5477 11.0097 21.7416 11.0887 21.9165C11.1676 22.0914 11.2953 22.2398 11.4564 22.344C11.6175 22.4481 11.8052 22.5037 11.9971 22.5039C12.1885 22.5038 12.3759 22.4486 12.5368 22.3449C12.6978 22.2412 12.8255 22.0934 12.9048 21.9191C12.984 21.7448 13.0115 21.5514 12.9839 21.362C12.9563 21.1725 12.8747 20.995 12.749 20.8506V19.5049H13.9727L14.5693 21.1377C14.5092 21.2891 14.4871 21.4529 14.5049 21.6148C14.5227 21.7767 14.5798 21.9318 14.6713 22.0666C14.7628 22.2013 14.8859 22.3116 15.0298 22.3879C15.1738 22.4641 15.3342 22.5039 15.4971 22.5039C15.718 22.5035 15.9325 22.4298 16.107 22.2944C16.2816 22.159 16.4062 21.9695 16.4615 21.7557C16.5168 21.5418 16.4996 21.3156 16.4125 21.1126C16.3255 20.9096 16.1735 20.7412 15.9805 20.6338L15.2012 18.498C15.1485 18.3536 15.0527 18.2288 14.9268 18.1406C14.8008 18.0524 14.6508 18.005 14.4971 18.0049H12.749V16.0078H15.2451C16.2026 16.0078 16.9951 15.2153 16.9951 14.2578V14.25C16.9964 14.25 16.9977 14.25 16.999 14.25H17.252C18.2094 14.25 19.002 13.4575 19.002 12.5V11V10.999C19.2765 10.9973 19.499 10.7749 19.499 10.5V10C19.499 9.724 19.275 9.5 18.999 9.5H17.499C17.223 9.5 16.999 9.724 16.999 10V10.5C16.999 10.776 17.223 11 17.499 11H17.502V12.5C17.502 12.6475 17.3995 12.75 17.252 12.75H16.999C16.9977 12.75 16.9964 12.75 16.9951 12.75C16.9951 12.0792 16.6028 11.4962 16.041 11.2031C16.0727 11.0867 16.094 10.9663 16.1006 10.8418L16.4951 3.33984V3.33887C16.5471 2.3484 15.7403 1.49707 14.748 1.49707H9.24609ZM9.24609 2.99707H14.748C14.9018 2.99707 15.0051 3.10721 14.9971 3.26074L14.6035 10.7627C14.5961 10.9031 14.4941 11 14.3535 11H9.6416C9.50192 11 9.39898 10.9026 9.3916 10.7627L8.99707 3.26074C8.98902 3.10721 9.09238 2.99707 9.24609 2.99707ZM8.74902 12.5H9.6416H14.3535H15.2451C15.3918 12.5 15.4951 12.6029 15.4951 12.75V14.2578C15.4951 14.4053 15.3926 14.5078 15.2451 14.5078H8.74902C8.6015 14.5078 8.49902 14.4053 8.49902 14.2578V12.75C8.49902 12.6025 8.6015 12.5 8.74902 12.5Z" fill="white"/>
</svg>
