<svg width="28" height="28" viewBox="0 0 28 28" fill="none" xmlns="http://www.w3.org/2000/svg">
<path d="M13.1251 1.75586C12.4801 1.75585 11.8348 1.99907 11.3477 2.48617L8.00042 5.8335H6.26523L6.22763 5.63411C5.99248 4.40172 4.90416 3.50016 3.64934 3.50016H2.04176C1.92581 3.49852 1.81069 3.51994 1.7031 3.56318C1.5955 3.60642 1.49757 3.67061 1.41499 3.75202C1.33242 3.83344 1.26685 3.93045 1.2221 4.03742C1.17734 4.1444 1.1543 4.2592 1.1543 4.37516C1.1543 4.49112 1.17734 4.60592 1.2221 4.7129C1.26685 4.81987 1.33242 4.91689 1.41499 4.9983C1.49757 5.07972 1.5955 5.14391 1.7031 5.18714C1.81069 5.23038 1.92581 5.2518 2.04176 5.25016H3.64934C4.07397 5.25016 4.42793 5.54353 4.50839 5.9611L4.68271 6.87256L6.56373 16.7516C6.90388 18.534 8.47425 19.8335 10.2893 19.8335H21.2109C23.0259 19.8335 24.597 18.5345 24.9365 16.7516L26.8175 6.87256C26.8416 6.74607 26.8375 6.61582 26.8055 6.49109C26.7735 6.36636 26.7144 6.25023 26.6323 6.15099C26.5503 6.05174 26.4473 5.97183 26.3308 5.91695C26.2144 5.86207 26.0872 5.83357 25.9584 5.8335H23.4041L20.5911 3.01937C19.697 2.1253 18.221 2.1253 17.3269 3.01937L16.3813 3.96501L14.9024 2.4873L14.9013 2.48617C14.4146 1.99961 13.7696 1.75587 13.1251 1.75586ZM13.1251 3.49447C13.3185 3.49452 13.5115 3.57088 13.664 3.72347L15.7729 5.8335H10.4762L12.5851 3.72347C12.7379 3.57065 12.9317 3.49441 13.1251 3.49447ZM18.9584 4.08691C19.0993 4.08691 19.2408 4.14371 19.3538 4.25667L20.9295 5.8335H18.2498L17.6186 5.20231L18.5642 4.25667C18.6772 4.14371 18.8175 4.08691 18.9584 4.08691ZM6.59905 7.5835H22.9119C23.0069 7.5993 23.1039 7.5993 23.199 7.5835H24.9011L23.2172 16.4246C23.0329 17.3928 22.197 18.0835 21.2109 18.0835H10.2893C9.30356 18.0835 8.46821 17.3927 8.28297 16.4246V16.4235L6.59905 7.5835ZM11.6668 21.0002C11.2026 21.0002 10.7575 21.1845 10.4293 21.5127C10.1011 21.8409 9.91676 22.286 9.91676 22.7502C9.91676 23.2143 10.1011 23.6594 10.4293 23.9876C10.7575 24.3158 11.2026 24.5002 11.6668 24.5002C12.1309 24.5002 12.576 24.3158 12.9042 23.9876C13.2324 23.6594 13.4168 23.2143 13.4168 22.7502C13.4168 22.286 13.2324 21.8409 12.9042 21.5127C12.576 21.1845 12.1309 21.0002 11.6668 21.0002ZM19.8334 21.0002C19.3693 21.0002 18.9242 21.1845 18.596 21.5127C18.2678 21.8409 18.0834 22.286 18.0834 22.7502C18.0834 23.2143 18.2678 23.6594 18.596 23.9876C18.9242 24.3158 19.3693 24.5002 19.8334 24.5002C20.2976 24.5002 20.7427 24.3158 21.0709 23.9876C21.399 23.6594 21.5834 23.2143 21.5834 22.7502C21.5834 22.286 21.399 21.8409 21.0709 21.5127C20.7427 21.1845 20.2976 21.0002 19.8334 21.0002Z" fill="black" fill-opacity="0.6"/>
</svg>
