<svg width="26" height="24" viewBox="0 0 26 24" fill="none" xmlns="http://www.w3.org/2000/svg">
<path d="M12.1251 0.755859C11.4801 0.755846 10.8348 0.999072 10.3477 1.48617L7.00042 4.8335H5.26523L5.22763 4.63411C4.99248 3.40172 3.90416 2.50016 2.64934 2.50016H1.04176C0.925811 2.49852 0.810694 2.51994 0.703096 2.56318C0.595499 2.60642 0.497568 2.67061 0.414995 2.75202C0.332421 2.83344 0.266852 2.93045 0.222098 3.03742C0.177344 3.1444 0.154297 3.2592 0.154297 3.37516C0.154297 3.49112 0.177344 3.60592 0.222098 3.7129C0.266852 3.81987 0.332421 3.91689 0.414995 3.9983C0.497568 4.07972 0.595499 4.14391 0.703096 4.18714C0.810694 4.23038 0.925811 4.2518 1.04176 4.25016H2.64934C3.07397 4.25016 3.42793 4.54353 3.50839 4.9611L3.68271 5.87256L5.56373 15.7516C5.90388 17.534 7.47425 18.8335 9.28932 18.8335H20.2109C22.0259 18.8335 23.597 17.5345 23.9365 15.7516L25.8175 5.87256C25.8416 5.74607 25.8375 5.61582 25.8055 5.49109C25.7735 5.36636 25.7144 5.25023 25.6323 5.15099C25.5503 5.05174 25.4473 4.97183 25.3308 4.91695C25.2144 4.86207 25.0872 4.83357 24.9584 4.8335H22.4041L19.5911 2.01937C18.697 1.1253 17.221 1.1253 16.3269 2.01937L15.3813 2.96501L13.9024 1.4873L13.9013 1.48617C13.4146 0.999615 12.7696 0.755873 12.1251 0.755859ZM12.1251 2.49447C12.3185 2.49452 12.5115 2.57088 12.664 2.72347L14.7729 4.8335H9.47617L11.5851 2.72347C11.7379 2.57065 11.9317 2.49441 12.1251 2.49447ZM17.9584 3.08691C18.0993 3.08691 18.2408 3.14371 18.3538 3.25667L19.9295 4.8335H17.2498L16.6186 4.20231L17.5642 3.25667C17.6772 3.14371 17.8175 3.08691 17.9584 3.08691ZM5.59905 6.5835H21.9119C22.0069 6.5993 22.1039 6.5993 22.199 6.5835H23.9011L22.2172 15.4246C22.0329 16.3928 21.197 17.0835 20.2109 17.0835H9.28932C8.30356 17.0835 7.46821 16.3927 7.28297 15.4246V15.4235L5.59905 6.5835ZM10.6668 20.0002C10.2026 20.0002 9.75751 20.1845 9.42932 20.5127C9.10113 20.8409 8.91676 21.286 8.91676 21.7502C8.91676 22.2143 9.10113 22.6594 9.42932 22.9876C9.75751 23.3158 10.2026 23.5002 10.6668 23.5002C11.1309 23.5002 11.576 23.3158 11.9042 22.9876C12.2324 22.6594 12.4168 22.2143 12.4168 21.7502C12.4168 21.286 12.2324 20.8409 11.9042 20.5127C11.576 20.1845 11.1309 20.0002 10.6668 20.0002ZM18.8334 20.0002C18.3693 20.0002 17.9242 20.1845 17.596 20.5127C17.2678 20.8409 17.0834 21.286 17.0834 21.7502C17.0834 22.2143 17.2678 22.6594 17.596 22.9876C17.9242 23.3158 18.3693 23.5002 18.8334 23.5002C19.2976 23.5002 19.7427 23.3158 20.0709 22.9876C20.399 22.6594 20.5834 22.2143 20.5834 21.7502C20.5834 21.286 20.399 20.8409 20.0709 20.5127C19.7427 20.1845 19.2976 20.0002 18.8334 20.0002Z" fill="black"/>
</svg>
