<svg width="20" height="20" viewBox="0 0 20 20" fill="none" xmlns="http://www.w3.org/2000/svg">
<path d="M4.96599 2.2352C4.84035 2.24152 4.71954 2.2856 4.61936 2.36168C4.51918 2.43776 4.44428 2.5423 4.40446 2.66163L3.61833 5.02166L1.25831 5.80779C1.13365 5.84915 1.02519 5.92872 0.948319 6.03522C0.871449 6.14171 0.830078 6.26971 0.830078 6.40105C0.830078 6.53239 0.871449 6.66039 0.948319 6.76689C1.02519 6.87338 1.13365 6.95295 1.25831 6.99431L3.61752 7.78126L4.40446 10.1405C4.44582 10.2651 4.5254 10.3736 4.63189 10.4505C4.73839 10.5273 4.86639 10.5687 4.99773 10.5687C5.12907 10.5687 5.25707 10.5273 5.36356 10.4505C5.47005 10.3736 5.54963 10.2651 5.59099 10.1405L6.37712 7.78045L8.73715 6.99431C8.8618 6.95295 8.97026 6.87338 9.04713 6.76689C9.124 6.66039 9.16537 6.53239 9.16537 6.40105C9.16537 6.26971 9.124 6.14171 9.04713 6.03522C8.97026 5.92872 8.8618 5.84915 8.73715 5.80779L6.37712 5.02166L5.59099 2.66163C5.54774 2.53201 5.46321 2.42012 5.35034 2.34311C5.23746 2.26609 5.10246 2.22819 4.96599 2.2352ZM13.0975 5.9852C12.9696 5.99038 12.8465 6.03467 12.7446 6.1121C12.6427 6.18952 12.5671 6.29635 12.5278 6.41814L11.3088 10.2121L7.51482 11.4312C7.38897 11.4718 7.27923 11.5512 7.20139 11.6581C7.12355 11.765 7.08161 11.8938 7.08161 12.0261C7.08161 12.1583 7.12355 12.2871 7.20139 12.394C7.27923 12.5009 7.38897 12.5804 7.51482 12.6209L11.3088 13.84L12.5278 17.634C12.5684 17.7598 12.6479 17.8695 12.7548 17.9474C12.8617 18.0252 12.9905 18.0672 13.1227 18.0672C13.255 18.0672 13.3838 18.0252 13.4907 17.9474C13.5976 17.8695 13.677 17.7598 13.7176 17.634L14.9367 13.84L18.7306 12.6209C18.8565 12.5804 18.9662 12.5009 19.0441 12.394C19.1219 12.2871 19.1638 12.1583 19.1638 12.0261C19.1638 11.8938 19.1219 11.765 19.0441 11.6581C18.9662 11.5512 18.8565 11.4718 18.7306 11.4312L14.9367 10.2121L13.7176 6.41814C13.6757 6.28814 13.5924 6.17543 13.4805 6.09724C13.3685 6.01906 13.234 5.9797 13.0975 5.9852ZM4.34099 12.6519C4.21535 12.6582 4.09454 12.7023 3.99436 12.7783C3.89418 12.8544 3.81928 12.959 3.77946 13.0783L3.14877 14.9696L1.25831 15.5995C1.13365 15.6408 1.02519 15.7204 0.948319 15.8269C0.871449 15.9334 0.830078 16.0614 0.830078 16.1927C0.830078 16.3241 0.871449 16.4521 0.948319 16.5586C1.02519 16.665 1.13365 16.7446 1.25831 16.786L3.14877 17.4159L3.77946 19.3071C3.82082 19.4318 3.9004 19.5403 4.00689 19.6171C4.11339 19.694 4.24139 19.7354 4.37273 19.7354C4.50406 19.7354 4.63207 19.694 4.73856 19.6171C4.84505 19.5403 4.92463 19.4318 4.96599 19.3071L5.59587 17.4159L7.48715 16.786C7.6118 16.7446 7.72026 16.665 7.79713 16.5586C7.874 16.4521 7.91537 16.3241 7.91537 16.1927C7.91537 16.0614 7.874 15.9334 7.79713 15.8269C7.72026 15.7204 7.6118 15.6408 7.48715 15.5995L5.59668 14.9688L4.96599 13.0783C4.92274 12.9487 4.83821 12.8368 4.72534 12.7598C4.61246 12.6828 4.47746 12.6449 4.34099 12.6519Z" fill="white"/>
</svg>
