<svg width="20" height="20" viewBox="0 0 20 20" fill="none" xmlns="http://www.w3.org/2000/svg">
<path d="M3.5 2.00015C3.10218 2.00015 2.72064 2.15819 2.43934 2.43949C2.15804 2.7208 2 3.10233 2 3.50015V5.00015C2 6.14915 2.15 7.26315 2.43 8.32615C3.01919 10.5451 4.18454 12.5688 5.80793 14.1922C7.43133 15.8156 9.45506 16.981 11.674 17.5702C12.737 17.8502 13.851 18.0002 15 18.0002H16.5C16.8978 18.0002 17.2794 17.8421 17.5607 17.5608C17.842 17.2795 18 16.898 18 16.5002V15.3522C18.0001 15.0107 17.8838 14.6794 17.6701 14.413C17.4565 14.1466 17.1584 13.9611 16.825 13.8872L13.602 13.1712C13.2289 13.0884 12.8382 13.1512 12.5099 13.3467C12.1815 13.5422 11.9401 13.8557 11.835 14.2232L11.568 15.1562C11.451 15.5662 11.013 15.7992 10.618 15.6362C9.21558 15.0561 7.94133 14.2051 6.86819 13.132C5.79505 12.0588 4.94408 10.7846 4.364 9.38215C4.201 8.98715 4.434 8.54915 4.844 8.43215L5.777 8.16515C6.14446 8.06007 6.45795 7.8187 6.65346 7.4903C6.84897 7.16191 6.91176 6.77127 6.829 6.39815L6.113 3.17515C6.03902 2.8418 5.85351 2.54366 5.58713 2.33002C5.32076 2.11638 4.98947 2.00001 4.648 2.00015H3.5ZM16.72 2.22015C16.7887 2.14647 16.8715 2.08736 16.9635 2.04637C17.0555 2.00538 17.1548 1.98334 17.2555 1.98156C17.3562 1.97979 17.4562 1.99831 17.5496 2.03603C17.643 2.07375 17.7278 2.1299 17.799 2.20112C17.8703 2.27233 17.9264 2.35717 17.9641 2.45056C18.0018 2.54394 18.0204 2.64397 18.0186 2.74468C18.0168 2.84538 17.9948 2.94469 17.9538 3.03669C17.9128 3.12869 17.8537 3.21149 17.78 3.28015L14.56 6.50015H17.25C17.4489 6.50015 17.6397 6.57917 17.7803 6.71982C17.921 6.86048 18 7.05124 18 7.25015C18 7.44907 17.921 7.63983 17.7803 7.78048C17.6397 7.92114 17.4489 8.00015 17.25 8.00015H12.75C12.5511 8.00015 12.3603 7.92114 12.2197 7.78048C12.079 7.63983 12 7.44907 12 7.25015V2.75015C12 2.55124 12.079 2.36048 12.2197 2.21982C12.3603 2.07917 12.5511 2.00015 12.75 2.00015C12.9489 2.00015 13.1397 2.07917 13.2803 2.21982C13.421 2.36048 13.5 2.55124 13.5 2.75015V5.44015L16.72 2.22015Z" fill="black"/>
</svg>
