<svg width="77" height="84" viewBox="0 0 77 84" fill="none" xmlns="http://www.w3.org/2000/svg">
<path d="M10.5 0C7.71523 0 5.04451 1.10621 3.07538 3.07529C1.10625 5.04436 0 7.715 0 10.4997C0 13.2844 1.10625 15.955 3.07538 17.9241C5.04451 19.8932 7.71523 20.9994 10.5 20.9994C13.2848 20.9994 15.9555 19.8932 17.9246 17.9241C19.8938 15.955 21 13.2844 21 10.4997C21 7.715 19.8938 5.04436 17.9246 3.07529C15.9555 1.10621 13.2848 0 10.5 0ZM45.4453 3.45205C44.5182 3.46654 43.6348 3.84824 42.9889 4.51337C42.343 5.1785 41.9873 6.07273 42 6.99979H28V13.9996H44.9121C45.2901 14.0621 45.6757 14.0621 46.0537 13.9996H70V48.9985H53.0537C52.9135 48.974 52.772 48.958 52.6299 48.9507C52.5137 48.9449 52.3974 48.9449 52.2813 48.9507C52.1529 48.9596 52.0251 48.9756 51.8984 48.9985H39.0811C38.9273 48.9723 38.7721 48.9563 38.6162 48.9507C38.3828 48.9433 38.1492 48.9594 37.9189 48.9985H28V55.9983H34.0156L28.1025 79.65C27.9911 80.0962 27.9686 80.5599 28.0364 81.0148C28.1043 81.4697 28.261 81.9068 28.4978 82.301C28.7345 82.6953 29.0467 83.0391 29.4163 83.3127C29.7859 83.5864 30.2059 83.7845 30.6521 83.8959C31.0984 84.0072 31.5622 84.0295 32.017 83.9616C32.4719 83.8937 32.9089 83.7368 33.3032 83.4999C33.6974 83.2631 34.0411 82.9509 34.3146 82.5812C34.5882 82.2115 34.7862 81.7915 34.8975 81.3452L41.2344 55.9983H49.7656L56.1025 81.3452C56.2138 81.7915 56.4118 82.2115 56.6854 82.5812C56.9589 82.9509 57.3026 83.2631 57.6968 83.4999C58.0911 83.7368 58.5281 83.8937 58.983 83.9616C59.4379 84.0295 59.9016 84.0072 60.3479 83.8959C60.7941 83.7845 61.2141 83.5864 61.5837 83.3127C61.9533 83.0391 62.2655 82.6953 62.5022 82.301C62.739 81.9068 62.8957 81.4697 62.9636 81.0148C63.0314 80.5599 63.0089 80.0962 62.8975 79.65L56.9844 55.9983H73.5C74.4282 55.9982 75.3184 55.6295 75.9748 54.9731C76.6311 54.3168 76.9999 53.4266 77 52.4984V10.4997C76.9999 9.57149 76.6311 8.68133 75.9748 8.02499C75.3184 7.36865 74.4282 6.99988 73.5 6.99979H49C49.0064 6.53154 48.9188 6.06677 48.7423 5.63299C48.5659 5.19921 48.3042 4.80525 47.9727 4.47444C47.6413 4.14362 47.2468 3.88268 46.8126 3.70707C46.3785 3.53145 45.9136 3.44473 45.4453 3.45205ZM7 27.9992C3.1325 27.9992 0 31.1316 0 34.999V80.3814C0 82.3763 1.62121 83.9975 3.61621 83.9975C5.52021 83.9975 7.09959 82.5176 7.22559 80.6207L8.75684 57.6321C8.81984 56.7151 9.5795 55.9983 10.5 55.9983C11.4205 55.9983 12.1802 56.7118 12.2432 57.6252L13.7744 80.6207C13.9004 82.5211 15.4798 83.9975 17.3838 83.9975C19.3788 83.9975 21 82.3763 21 80.3814V38.4989C21 36.5669 22.568 34.999 24.5 34.999H42C42.4638 35.0055 42.9243 34.9198 43.3547 34.7469C43.785 34.574 44.1768 34.3172 44.5071 33.9915C44.8374 33.6659 45.0996 33.2779 45.2786 32.85C45.4577 32.4221 45.5499 31.9629 45.5499 31.4991C45.5499 31.0352 45.4577 30.576 45.2786 30.1481C45.0996 29.7203 44.8374 29.3322 44.5071 29.0066C44.1768 28.6809 43.785 28.4242 43.3547 28.2512C42.9243 28.0783 42.4638 27.9926 42 27.9992H7Z" fill="#5CAB34"/>
</svg>
