<svg width="35" height="38" viewBox="0 0 35 38" fill="none" xmlns="http://www.w3.org/2000/svg">
<path d="M17.2326 0C10.0231 0 2.5243 1.64209 2.5243 1.64209L2.51818 1.64827C1.8086 1.79184 1.17007 2.17922 0.711034 2.74463C0.251998 3.31004 0.000762725 4.01861 0 4.75V14.25C0 30.7135 15.6996 37.5949 15.6996 37.5949C16.1678 37.8604 16.6957 37.9999 17.2326 38C17.7674 37.9989 18.293 37.8594 18.7594 37.5949H18.7655C18.7655 37.5949 34.4651 30.7135 34.4651 14.25V4.75C34.4655 4.01668 34.214 3.30596 33.7537 2.73916C33.2933 2.17235 32.6525 1.7846 31.9408 1.64209C31.9408 1.64209 24.442 0 17.2326 0ZM26.6321 9.5C27.0328 9.5 27.4335 9.65433 27.7398 9.96387C28.3523 10.583 28.3523 11.5837 27.7398 12.2028L15.8954 24.1737C15.6009 24.4713 15.203 24.6375 14.7878 24.6375C14.3727 24.6375 13.9731 24.4713 13.6802 24.1737L8.27053 18.7062C7.65799 18.0871 7.65799 17.0864 8.27053 16.4673C8.88306 15.8482 9.87325 15.8482 10.4858 16.4673L14.7878 20.8153L25.5245 9.96387C25.8308 9.65433 26.2315 9.5 26.6321 9.5Z" fill="white"/>
</svg>
