<svg width="44" height="44" viewBox="0 0 44 44" fill="none" xmlns="http://www.w3.org/2000/svg">
<path d="M19.5547 4.125C9.68287 4.125 1.67969 12.1282 1.67969 22C1.67969 31.8718 9.68287 39.875 19.5547 39.875C29.4265 39.875 37.4297 31.8718 37.4297 22C37.4297 12.1282 29.4265 4.125 19.5547 4.125ZM27.0113 24.9611C26.7473 29.5144 24.2819 32.1929 23.2603 32.1523C22.2387 32.1111 19.1924 31.8856 17.1484 31.7687C15.0392 31.6484 12.8907 30.2136 12.8907 30.2136L11.4181 21.7752C14.4741 17.0644 16.5771 16.1178 17.4441 11.0021C17.4441 11.0021 19.8063 10.8419 20.1652 13.4949C20.4003 15.2343 19.3237 18.4676 19.3237 18.4676H24.6607C25.9622 18.4676 27.0182 19.5188 27.023 20.8196C27.0306 22.517 27.034 24.5761 27.0113 24.9611Z" fill="#5CB108"/>
</svg>
