<svg width="28" height="28" viewBox="0 0 28 28" fill="none" xmlns="http://www.w3.org/2000/svg">
<path d="M10.5007 2.33301C9.60144 2.33301 8.81616 2.70175 8.31552 3.26497C7.81488 3.8282 7.58408 4.54481 7.58408 5.24967C7.58408 5.95454 7.81488 6.67115 8.31552 7.23438C8.81616 7.7976 9.60144 8.16634 10.5007 8.16634C11.4 8.16634 12.1853 7.7976 12.686 7.23438C13.1866 6.67115 13.4174 5.95454 13.4174 5.24967C13.4174 4.54481 13.1866 3.8282 12.686 3.26497C12.1853 2.70175 11.4 2.33301 10.5007 2.33301ZM10.5007 4.08301C10.9625 4.08301 11.1981 4.22468 11.378 4.42708C11.5579 4.62949 11.6674 4.9337 11.6674 5.24967C11.6674 5.56565 11.5579 5.86986 11.378 6.07227C11.1981 6.27467 10.9625 6.41634 10.5007 6.41634C10.0389 6.41634 9.80338 6.27467 9.62347 6.07227C9.44355 5.86986 9.33408 5.56565 9.33408 5.24967C9.33408 4.9337 9.44355 4.62949 9.62347 4.42708C9.80338 4.22468 10.0389 4.08301 10.5007 4.08301ZM9.04241 8.74967C7.28088 8.74967 5.83408 10.1965 5.83408 11.958V13.9997H4.37574H2.62574C2.5098 13.998 2.39468 14.0195 2.28708 14.0627C2.17948 14.1059 2.08155 14.1701 1.99898 14.2515C1.91641 14.3329 1.85084 14.43 1.80608 14.5369C1.76133 14.6439 1.73828 14.7587 1.73828 14.8747C1.73828 14.9906 1.76133 15.1054 1.80608 15.2124C1.85084 15.3194 1.91641 15.4164 1.99898 15.4978C2.08155 15.5792 2.17948 15.6434 2.28708 15.6867C2.39468 15.7299 2.5098 15.7513 2.62574 15.7497H3.50074V23.0413C3.50074 24.1584 4.42535 25.083 5.54241 25.083H22.4591C23.5761 25.083 24.5007 24.1584 24.5007 23.0413V15.7497H25.3757C25.4917 15.7513 25.6068 15.7299 25.7144 15.6867C25.822 15.6434 25.9199 15.5792 26.0025 15.4978C26.0851 15.4164 26.1507 15.3194 26.1954 15.2124C26.2402 15.1054 26.2632 14.9906 26.2632 14.8747C26.2632 14.7587 26.2402 14.6439 26.1954 14.5369C26.1507 14.43 26.0851 14.3329 26.0025 14.2515C25.9199 14.1701 25.822 14.1059 25.7144 14.0627C25.6068 14.0195 25.4917 13.998 25.3757 13.9997H23.6257H22.1674V13.1247C22.1674 11.6853 20.9818 10.4997 19.5424 10.4997C18.103 10.4997 16.9174 11.6853 16.9174 13.1247V13.9997H15.1674V11.958C15.1674 10.1965 13.7206 8.74967 11.9591 8.74967H9.04241ZM9.04241 10.4997H11.9591C12.7747 10.4997 13.4174 11.1424 13.4174 11.958V13.9997H7.58408V11.958C7.58408 11.1424 8.22678 10.4997 9.04241 10.4997ZM19.5424 12.2497C20.0362 12.2497 20.4174 12.6309 20.4174 13.1247V13.9997H18.6674V13.1247C18.6674 12.6309 19.0486 12.2497 19.5424 12.2497ZM5.25074 15.7497H22.7507V23.0413C22.7507 23.2134 22.6312 23.333 22.4591 23.333H5.54241C5.3703 23.333 5.25074 23.2134 5.25074 23.0413V15.7497Z" fill="black"/>
</svg>
