<svg width="24" height="24" viewBox="0 0 24 24" fill="none" xmlns="http://www.w3.org/2000/svg">
<path d="M10.3997 2.40046C10.2937 2.39903 10.1885 2.41866 10.0902 2.45821C9.99186 2.49777 9.90238 2.55647 9.82693 2.6309C9.75148 2.70533 9.69158 2.79401 9.65069 2.89178C9.6098 2.98956 9.58874 3.09448 9.58874 3.20046H4.79968C4.69367 3.19896 4.58842 3.21855 4.49004 3.25808C4.39167 3.29761 4.30213 3.3563 4.22663 3.43074C4.15114 3.50517 4.09119 3.59387 4.05027 3.69168C4.00935 3.78948 3.98828 3.89444 3.98828 4.00046C3.98828 4.10648 4.00935 4.21145 4.05027 4.30925C4.09119 4.40706 4.15114 4.49576 4.22663 4.57019C4.30213 4.64463 4.39167 4.70332 4.49004 4.74285C4.58842 4.78238 4.69367 4.80196 4.79968 4.80046H19.1997C19.3057 4.80196 19.4109 4.78238 19.5093 4.74285C19.6077 4.70332 19.6972 4.64463 19.7727 4.57019C19.8482 4.49576 19.9082 4.40706 19.9491 4.30925C19.99 4.21145 20.0111 4.10648 20.0111 4.00046C20.0111 3.89444 19.99 3.78948 19.9491 3.69168C19.9082 3.59387 19.8482 3.50517 19.7727 3.43074C19.6972 3.3563 19.6077 3.29761 19.5093 3.25808C19.4109 3.21855 19.3057 3.19896 19.1997 3.20046H14.4106C14.4106 3.09448 14.3896 2.98956 14.3487 2.89178C14.3078 2.79401 14.2479 2.70533 14.1724 2.6309C14.097 2.55647 14.0075 2.49777 13.9092 2.45821C13.8108 2.41866 13.7056 2.39903 13.5997 2.40046H10.3997ZM4.79968 6.40046V19.2005C4.79968 20.0845 5.51568 20.8005 6.39968 20.8005H17.5997C18.4837 20.8005 19.1997 20.0845 19.1997 19.2005V6.40046H4.79968ZM9.59968 10.4005C9.80428 10.4005 10.0089 10.4784 10.1653 10.6348L11.9997 12.4692L13.8341 10.6348C14.1469 10.322 14.6525 10.322 14.9653 10.6348C15.2781 10.9476 15.2781 11.4533 14.9653 11.7661L13.1309 13.6005L14.9653 15.4348C15.2781 15.7476 15.2781 16.2533 14.9653 16.5661C14.8093 16.7221 14.6045 16.8005 14.3997 16.8005C14.1949 16.8005 13.9901 16.7221 13.8341 16.5661L11.9997 14.7317L10.1653 16.5661C10.0093 16.7221 9.80448 16.8005 9.59968 16.8005C9.39488 16.8005 9.19005 16.7221 9.03405 16.5661C8.72125 16.2533 8.72125 15.7476 9.03405 15.4348L10.8684 13.6005L9.03405 11.7661C8.72125 11.4533 8.72125 10.9476 9.03405 10.6348C9.19045 10.4784 9.39508 10.4005 9.59968 10.4005Z" fill="#ADAFB6"/>
</svg>
