<svg width="60" height="60" viewBox="0 0 60 60" fill="none" xmlns="http://www.w3.org/2000/svg">
<path d="M14.0002 10C9.5822 10 6.0002 13.582 6.0002 18V22C10.4182 22 14.0002 25.582 14.0002 30V34H46.0002V30C46.0002 25.582 49.5822 22 54.0002 22V18C54.0002 13.582 50.4182 10 46.0002 10H14.0002ZM6.0002 26C3.7902 26 2.0002 27.79 2.0002 30V42V48V50C1.99645 50.265 2.04541 50.5281 2.14424 50.7741C2.24307 51.02 2.38979 51.2439 2.57588 51.4326C2.76197 51.6213 2.98371 51.7712 3.22823 51.8735C3.47274 51.9758 3.73515 52.0285 4.0002 52.0285C4.26525 52.0285 4.52766 51.9758 4.77217 51.8735C5.01669 51.7712 5.23843 51.6213 5.42452 51.4326C5.61061 51.2439 5.75733 51.02 5.85616 50.7741C5.95499 50.5281 6.00395 50.265 6.0002 50V48H54.0002V50C53.9964 50.265 54.0454 50.5281 54.1442 50.7741C54.2431 51.02 54.3898 51.2439 54.5759 51.4326C54.762 51.6213 54.9837 51.7712 55.2282 51.8735C55.4727 51.9758 55.7351 52.0285 56.0002 52.0285C56.2652 52.0285 56.5277 51.9758 56.7722 51.8735C57.0167 51.7712 57.2384 51.6213 57.4245 51.4326C57.6106 51.2439 57.7573 51.02 57.8562 50.7741C57.955 50.5281 58.0039 50.265 58.0002 50V42V30C58.0002 27.79 56.2102 26 54.0002 26C51.7902 26 50.0002 27.79 50.0002 30V38H10.0002V30C10.0002 27.79 8.2102 26 6.0002 26Z" fill="white"/>
</svg>
