<svg width="28" height="28" viewBox="0 0 28 28" fill="none" xmlns="http://www.w3.org/2000/svg">
<g opacity="0.6">
<path d="M6.54818 5.25C4.55275 5.25 2.91602 6.88674 2.91602 8.88216V10.6629C1.90309 11.028 1.16602 11.9933 1.16602 13.125V19.5417C1.16602 20.8685 2.17673 21.968 3.46175 22.1336L3.17236 22.423C3.08839 22.5036 3.02134 22.6002 2.97516 22.7071C2.92897 22.8139 2.90458 22.9289 2.90339 23.0454C2.90221 23.1618 2.92426 23.2772 2.96827 23.385C3.01227 23.4928 3.07734 23.5907 3.15965 23.673C3.24197 23.7553 3.33989 23.8204 3.44767 23.8644C3.55545 23.9084 3.67092 23.9305 3.78733 23.9293C3.90374 23.9281 4.01874 23.9037 4.12561 23.8575C4.23247 23.8113 4.32904 23.7443 4.40967 23.6603L5.90332 22.1667H22.0954L23.589 23.6603C23.6697 23.7443 23.7662 23.8113 23.8731 23.8575C23.98 23.9037 24.095 23.9281 24.2114 23.9293C24.3278 23.9305 24.4432 23.9084 24.551 23.8644C24.6588 23.8204 24.7567 23.7553 24.839 23.673C24.9214 23.5907 24.9864 23.4928 25.0304 23.385C25.0744 23.2772 25.0965 23.1618 25.0953 23.0454C25.0941 22.9289 25.0697 22.8139 25.0235 22.7071C24.9774 22.6002 24.9103 22.5036 24.8263 22.423L24.5369 22.1336C25.822 21.968 26.8327 20.8685 26.8327 19.5417V13.125C26.8327 11.9933 26.0956 11.028 25.0827 10.6629V8.88216C25.0827 6.88674 23.4459 5.25 21.4505 5.25H6.54818ZM6.54818 7H21.4505C22.5001 7 23.3327 7.83259 23.3327 8.88216V10.6629C22.3198 11.028 21.5827 11.9933 21.5827 13.125V16.3333H6.41601V13.125C6.41601 11.9933 5.67894 11.028 4.66602 10.6629V8.88216C4.66602 7.83259 5.4986 7 6.54818 7ZM3.70784 12.258C3.76317 12.2633 3.81886 12.2633 3.87419 12.258C4.3261 12.2989 4.66602 12.6599 4.66602 13.125V17.2083C4.66604 17.4404 4.75823 17.6629 4.92232 17.827C5.08641 17.9911 5.30896 18.0833 5.54102 18.0833H22.4577C22.6897 18.0833 22.9123 17.9911 23.0764 17.827C23.2405 17.6629 23.3327 17.4404 23.3327 17.2083V13.125C23.3327 12.6599 23.6726 12.2989 24.1245 12.258C24.1798 12.2633 24.2355 12.2633 24.2908 12.258C24.7428 12.2989 25.0827 12.6599 25.0827 13.125V19.5417C25.0827 20.0355 24.7015 20.4167 24.2077 20.4167H22.5682C22.5286 20.4109 22.4886 20.4079 22.4486 20.4076C22.4085 20.4079 22.3686 20.4109 22.3289 20.4167H5.65837C5.61382 20.4106 5.56888 20.4079 5.52393 20.4087C5.49266 20.4097 5.46148 20.4123 5.4305 20.4167H3.79102C3.29722 20.4167 2.91602 20.0355 2.91602 19.5417V13.125C2.91602 12.6599 3.25594 12.2989 3.70784 12.258Z" fill="black"/>
</g>
</svg>
