<svg width="20" height="20" viewBox="0 0 20 20" fill="none" xmlns="http://www.w3.org/2000/svg">
<path d="M9.99971 8C10.7954 8 11.5584 7.68393 12.121 7.12132C12.6836 6.55871 12.9997 5.79565 12.9997 5C12.9997 4.20435 12.6836 3.44129 12.121 2.87868C11.5584 2.31607 10.7954 2 9.99971 2C9.20406 2 8.441 2.31607 7.87839 2.87868C7.31578 3.44129 6.99971 4.20435 6.99971 5C6.99971 5.79565 7.31578 6.55871 7.87839 7.12132C8.441 7.68393 9.20406 8 9.99971 8ZM3.46471 14.493C3.37188 14.7411 3.36163 15.0126 3.43551 15.267C3.50938 15.5214 3.66342 15.7452 3.87471 15.905C5.62605 17.266 7.78169 18.0034 9.99971 18C12.3097 18 14.4377 17.216 16.1307 15.9C16.5607 15.567 16.7347 14.997 16.5387 14.49C16.0309 13.168 15.1343 12.0311 13.967 11.2292C12.7998 10.4274 11.4168 9.99829 10.0007 9.99861C8.58454 9.99894 7.20179 10.4287 6.03491 11.231C4.86802 12.0334 3.97187 13.1708 3.46471 14.493Z" fill="black"/>
</svg>
