<svg width="44" height="44" viewBox="0 0 44 44" fill="none" xmlns="http://www.w3.org/2000/svg">
<path d="M2.49609 4.125V12.375H5.24609V6.875H10.7461V4.125H2.49609ZM38.2461 4.125V12.375H35.4961V6.875H29.9961V4.125H38.2461ZM2.49609 39.875V31.625H5.24609V37.125H10.7461V39.875H2.49609ZM38.2461 39.875V31.625H35.4961V37.125H29.9961V39.875H38.2461ZM31.3711 20.625L29.9961 13.0625H29.3086L27.9336 19.9375L27.2461 14.4375H25.8711L25.1836 20.1211L23.8086 19.9375L23.1211 11H22.4336L21.7461 17.1875L21.0586 13.0625H20.3711L19.6836 16.5L18.9961 8.9375H17.6211L16.2461 20.625H15.5586L14.8711 14.4375H13.4961L12.1211 20.625L10.7461 20.7501L10.0586 17.1875H9.37109L8.68359 20.9L5.24609 21.3125V22.6875L8.68359 23.1L9.37109 26.8125H10.0586L10.7461 23.2499L12.1211 23.375L13.4961 29.5625H14.8711L15.5586 23.375H16.2461L17.6211 35.0625H18.9961L19.6836 27.5L20.3711 30.9375H21.0586L21.7461 26.8125L22.4336 33H23.1211L23.8086 24.0625L25.1836 23.8789L25.8711 29.5625H27.2461L27.9336 24.0625L29.3086 30.9375H29.9961L31.3711 23.375L35.4961 22.6875V21.3125L31.3711 20.625Z" fill="#5CB108"/>
</svg>
