<svg width="70" height="70" viewBox="0 0 70 70" fill="none" xmlns="http://www.w3.org/2000/svg">
<path opacity="0.3" d="M66.2789 35.0001C68.334 35.0001 70.0205 36.6708 69.8024 38.7144C69.2038 44.3234 67.2557 49.7243 64.1014 54.4451C60.2556 60.2008 54.7893 64.6868 48.3939 67.3359C41.9985 69.985 34.9612 70.6781 28.1719 69.3276C21.3825 67.9771 15.1461 64.6437 10.2513 59.7489C5.35644 54.854 2.02301 48.6176 0.672531 41.8283C-0.677952 35.039 0.0151651 28.0016 2.66423 21.6062C5.3133 15.2108 9.79934 9.74454 15.5551 5.89869C20.2758 2.7444 25.6767 0.796338 31.2858 0.197739C33.3293 -0.0203471 35 1.66614 35 3.72126C35 5.77639 33.3265 7.41657 31.2901 7.69324C27.1557 8.25495 23.1858 9.75072 19.6898 12.0867C15.1579 15.1148 11.6258 19.4187 9.53999 24.4542C7.45422 29.4898 6.90848 35.0307 7.9718 40.3764C9.03512 45.722 11.6597 50.6324 15.5138 54.4864C19.3678 58.3404 24.2781 60.965 29.6238 62.0283C34.9694 63.0917 40.5104 62.5459 45.5459 60.4601C50.5814 58.3744 54.8853 54.8422 57.9134 50.3104C60.2494 46.8143 61.7452 42.8444 62.3069 38.7101C62.5836 36.6736 64.2238 35.0001 66.2789 35.0001Z" fill="#171717"/>
</svg>
