<svg width="24" height="24" viewBox="0 0 24 24" fill="none" xmlns="http://www.w3.org/2000/svg">
<rect width="24" height="24" rx="5" fill="black"/>
<path d="M5.75 5.00195C5.65151 5.00195 5.55398 5.02135 5.46299 5.05904C5.37199 5.09674 5.28931 5.15198 5.21967 5.22162C5.15003 5.29127 5.09478 5.37395 5.05709 5.46494C5.0194 5.55594 5 5.65346 5 5.75195C5 5.85045 5.0194 5.94797 5.05709 6.03897C5.09478 6.12996 5.15003 6.21264 5.21967 6.28228C5.28931 6.35193 5.37199 6.40717 5.46299 6.44486C5.55398 6.48255 5.65151 6.50195 5.75 6.50195H7.585L8.825 11.615C8.01721 11.8209 7.30102 12.29 6.78947 12.9483C6.27792 13.6065 6.00015 14.4163 6 15.25C6 15.664 6.336 16 6.75 16H17.25C17.4489 16 17.6397 15.9209 17.7803 15.7803C17.921 15.6396 18 15.4489 18 15.25C18 15.051 17.921 14.8603 17.7803 14.7196C17.6397 14.579 17.4489 14.5 17.25 14.5H7.628C7.78313 14.0612 8.07052 13.6813 8.45056 13.4126C8.8306 13.144 9.2846 12.9998 9.75 13H16.25C16.419 13 16.5831 12.9429 16.7156 12.838C16.8481 12.733 16.9412 12.5865 16.98 12.422L17.826 8.82695C17.8489 8.72944 17.8521 8.62832 17.8353 8.52957C17.8185 8.43082 17.7821 8.33644 17.7282 8.25199C17.6743 8.16754 17.6041 8.09474 17.5216 8.03788C17.4391 7.98103 17.3461 7.94127 17.248 7.92095C14.616 7.37465 11.9395 7.07005 9.252 7.01095L8.904 5.57495C8.86427 5.41138 8.77068 5.26592 8.63827 5.16199C8.50585 5.05806 8.34233 5.00169 8.174 5.00195H5.75ZM9 18C9 18.2652 8.89464 18.5195 8.70711 18.7071C8.51957 18.8946 8.26522 19 8 19C7.73478 19 7.48043 18.8946 7.29289 18.7071C7.10536 18.5195 7 18.2652 7 18C7 17.7347 7.10536 17.4804 7.29289 17.2928C7.48043 17.1053 7.73478 17 8 17C8.26522 17 8.51957 17.1053 8.70711 17.2928C8.89464 17.4804 9 17.7347 9 18ZM17 18C17 18.2652 16.8946 18.5195 16.7071 18.7071C16.5196 18.8946 16.2652 19 16 19C15.7348 19 15.4804 18.8946 15.2929 18.7071C15.1054 18.5195 15 18.2652 15 18C15 17.7347 15.1054 17.4804 15.2929 17.2928C15.4804 17.1053 15.7348 17 16 17C16.2652 17 16.5196 17.1053 16.7071 17.2928C16.8946 17.4804 17 17.7347 17 18Z" fill="white"/>
</svg>
