<svg width="16" height="17" viewBox="0 0 16 17" fill="none" xmlns="http://www.w3.org/2000/svg">
<path fill-rule="evenodd" clip-rule="evenodd" d="M8 15.8662C9.85652 15.8662 11.637 15.1287 12.9497 13.816C14.2625 12.5032 15 10.7227 15 8.86621C15 7.0097 14.2625 5.22922 12.9497 3.91646C11.637 2.60371 9.85652 1.86621 8 1.86621C6.14348 1.86621 4.36301 2.60371 3.05025 3.91646C1.7375 5.22922 1 7.0097 1 8.86621C1 10.7227 1.7375 12.5032 3.05025 13.816C4.36301 15.1287 6.14348 15.8662 8 15.8662ZM11.844 7.07521C11.9657 6.91767 12.0199 6.71823 11.9946 6.52075C11.9693 6.32328 11.8665 6.14395 11.709 6.02221C11.5515 5.90048 11.352 5.84631 11.1545 5.87163C10.9571 5.89694 10.7777 5.99967 10.656 6.15721L6.956 10.9472L5.307 9.11421C5.24174 9.03868 5.16207 8.97694 5.07264 8.9326C4.98322 8.88826 4.88584 8.86222 4.78622 8.85599C4.6866 8.84977 4.58674 8.8635 4.4925 8.89637C4.39825 8.92924 4.31151 8.98059 4.23737 9.04741C4.16322 9.11424 4.10316 9.19519 4.06071 9.28552C4.01825 9.37586 3.99425 9.47376 3.99012 9.57349C3.98599 9.67322 4.00181 9.77277 4.03664 9.8663C4.07148 9.95984 4.12464 10.0455 4.193 10.1182L6.443 12.6182C6.51649 12.6997 6.60697 12.7641 6.70806 12.8068C6.80915 12.8496 6.91838 12.8696 7.02805 12.8655C7.13772 12.8614 7.24515 12.8333 7.34277 12.7831C7.44038 12.7329 7.5258 12.662 7.593 12.5752L11.844 7.07521Z" fill="black"/>
</svg>
