<svg width="20" height="21" viewBox="0 0 20 21" fill="none" xmlns="http://www.w3.org/2000/svg">
<g opacity="0.5">
<path d="M15.5 2.5C15.1022 2.5 14.7206 2.65804 14.4393 2.93934C14.158 3.22064 14 3.60218 14 4V17C14 17.3978 14.158 17.7794 14.4393 18.0607C14.7206 18.342 15.1022 18.5 15.5 18.5H16.5C16.8978 18.5 17.2794 18.342 17.5607 18.0607C17.842 17.7794 18 17.3978 18 17V4C18 3.60218 17.842 3.22064 17.5607 2.93934C17.2794 2.65804 16.8978 2.5 16.5 2.5H15.5ZM9.5 6.5C9.10218 6.5 8.72064 6.65804 8.43934 6.93934C8.15804 7.22064 8 7.60218 8 8V17C8 17.3978 8.15804 17.7794 8.43934 18.0607C8.72064 18.342 9.10218 18.5 9.5 18.5H10.5C10.8978 18.5 11.2794 18.342 11.5607 18.0607C11.842 17.7794 12 17.3978 12 17V8C12 7.60218 11.842 7.22064 11.5607 6.93934C11.2794 6.65804 10.8978 6.5 10.5 6.5H9.5ZM3.5 10.5C3.10218 10.5 2.72064 10.658 2.43934 10.9393C2.15804 11.2206 2 11.6022 2 12V17C2 17.3978 2.15804 17.7794 2.43934 18.0607C2.72064 18.342 3.10218 18.5 3.5 18.5H4.5C4.89782 18.5 5.27936 18.342 5.56066 18.0607C5.84196 17.7794 6 17.3978 6 17V12C6 11.6022 5.84196 11.2206 5.56066 10.9393C5.27936 10.658 4.89782 10.5 4.5 10.5H3.5Z" fill="black"/>
</g>
</svg>
