<svg style="display: none;" aria-hidden="true" xmlns="http://www.w3.org/2000/svg" xmlns:xlink="http://www.w3.org/1999/xlink"><symbol viewBox="0 0 25 25" id="arrow-down"><g clip-path="url(#aclip0_300_299)"><path clip-rule="evenodd" d="M12.5 4.75a9.75 9.75 0 0 0-9.75 9.75 9.75 9.75 0 0 0 9.75 9.75 9.75 9.75 0 0 0 9.75-9.75 9.75 9.75 0 0 0-9.75-9.75Zm-.53 14.03a.75.75 0 0 0 1.06 0l3-3a.75.75 0 1 0-1.06-1.06l-1.72 1.72v-5.69a.75.75 0 1 0-1.5 0v5.69l-1.72-1.72a.75.75 0 0 0-1.06 1.06l3 3Z"/></g><defs><clipPath id="aclip0_300_299"><rect width="24" height="24" transform="translate(0.5 0.5)"/></clipPath></defs></symbol><symbol viewBox="0 0 28 28" id="chair"><g opacity="0.6"><path d="M10.787 1.746A2.056 2.056 0 0 0 8.75 3.895v.001l.461 8.752c.008.145.033.285.07.42a2.048 2.048 0 0 0-1.114 1.806h-.294a.279.279 0 0 1-.292-.291v-1.75h.003a.583.583 0 0 0 .584-.584v-.583a.584.584 0 0 0-.584-.583h-1.75a.584.584 0 0 0-.583.583v.583c0 .321.26.58.58.583v1.75c0 1.118.925 2.043 2.042 2.043h.294v.009c0 1.117.924 2.041 2.041 2.041h2.917v2.33H11.08a.874.874 0 0 0-.823.577l-.902 2.481a1.165 1.165 0 1 0 1.643.604l.695-1.912h1.43v1.566a1.164 1.164 0 1 0 1.75.004v-1.57h1.428l.697 1.905a1.162 1.162 0 1 0 1.646-.588l-.91-2.491a.875.875 0 0 0-.82-.576h-2.04v-2.33h2.912a2.055 2.055 0 0 0 2.042-2.041v-.01h.299a2.055 2.055 0 0 0 2.042-2.041v-1.751a.583.583 0 0 0 .58-.583v-.583a.584.584 0 0 0-.583-.583h-1.75a.584.584 0 0 0-.584.583v.583c0 .322.261.584.584.584h.003v1.75c0 .172-.12.291-.292.291h-.299c0-.782-.458-1.462-1.113-1.804.037-.136.061-.276.069-.422l.46-8.752v-.001a2.056 2.056 0 0 0-2.038-2.149h-6.419Zm0 1.75h6.42c.178 0 .299.129.29.308l-.46 8.752a.281.281 0 0 1-.291.277h-5.497a.282.282 0 0 1-.292-.277l-.46-8.752c-.01-.18.11-.308.29-.308Zm-.58 11.087h7.579a.28.28 0 0 1 .292.291v1.76c0 .172-.12.291-.292.291h-7.579a.279.279 0 0 1-.291-.291v-1.76c0-.172.12-.291.291-.291Z"/></g></symbol><symbol viewBox="0 0 68 68" id="confetti"><path d="m42.84 2.157-.961.962-4.362 4.361 5.323 5.323 5.324-5.323-5.324-5.323Zm-17 3.283a1.36 1.36 0 0 0-1.36 1.36v6.8a1.36 1.36 0 0 0 1.36 1.36h1.36c1.626 0 1.98.49 2.327 1.27.348.78.393 1.954.393 2.81 0 1.11-.134 2.278-.324 3.4-1.195-.42-2.342-.672-3.405-.68-1.2-.008-2.395.329-3.248 1.182-.365.364-.609.8-.797 1.26l-.024-.009-14.947 37.89 39.24-13.436-.007-.024c.503-.19.977-.451 1.37-.845 1.018-1.017 1.294-2.483 1.143-3.95-.096-.924-.363-1.9-.75-2.913a56.796 56.796 0 0 1 3.51-.115c1.938 0 3.773.235 4.964.649.596.206 1.015.46 1.22.653.203.193.214.25.214.398v1.02a1.36 1.36 0 0 0 1.36 1.36h5.841a1.362 1.362 0 0 0 1.36-1.4l-.04-1.694v-.003c.026-3.087-1.92-5.48-4.318-6.951-2.4-1.471-5.312-2.192-7.91-2.192-4.302 0-7.502 1.116-9.643 2.221a39.908 39.908 0 0 0-2.231-2.76c.485-.155.977-.299 1.453-.427a60.17 60.17 0 0 1 2.568-.63c.705-.158 1.094-.225 1.448-.324 1.098-.308 2.596-.684 3.94-1.58 1.342-.897 2.493-2.51 2.493-4.66 0-.588-.285-.916-.472-1.36h.472c2.908 0 5.44-2.347 5.44-5.44v-1.87s.01-.185.139-.393c.127-.208.23-.457 1.221-.457h1.36a1.36 1.36 0 0 0 1.36-1.36V8.163a1.36 1.36 0 0 0-1.36-1.36h-2.204c-3.615-.003-5.848 1.67-7.042 3.262-.886 1.18-1.158 2.637-1.368 3.889-.092.548-.073.608-.114 1.006h-.152c-2.342 0-4.177.85-5.294 2.19-1.116 1.339-1.506 3.024-1.506 4.61v1.846c-2.229.735-4.781 1.929-6.977 4.006-1.295-1.1-2.582-2.085-3.844-2.906 1.394-2.458 2.661-5.774 2.661-9.746 0-2.342-.776-4.707-2.4-6.518C32.693 6.63 30.203 5.44 27.1 5.44h-1.26Zm17 .563 1.477 1.477-1.477 1.477-1.476-1.477 1.476-1.477ZM14.28 7.597l-.961.962-4.362 4.361 5.323 5.324 5.324-5.324-5.324-5.323Zm12.92.582c2.372.027 3.993.851 5.095 2.08C33.415 11.508 34 13.223 34 14.96c0 2.832-.824 5.142-1.785 7.132.153-1.042.425-1.964.425-3.052 0-.856.046-2.404-.626-3.915-.673-1.511-2.36-2.885-4.814-2.885V8.18Zm33.153 1.344h.847v2.717c-1.728 0-2.986.856-3.538 1.753-.552.898-.542 1.817-.542 1.817v1.87c0 1.668-1.207 2.72-2.72 2.72h-2.72a1.36 1.36 0 0 0-1.006 2.274l.018.021c.01.012.023.023.038.04a5.904 5.904 0 0 1 .499.651c.266.405.451.912.451 1.094 0 1.302-.461 1.846-1.285 2.396-.824.55-2.046.912-3.161 1.225.045-.013-.583.127-1.31.29-.727.162-1.668.383-2.682.658-1.558.422-3.11 1.099-4.548 1.82 2.278-2.834 5.405-4.376 7.913-5.08a1.36 1.36 0 0 0 .993-1.309v-2.72c0-1.133.29-2.168.874-2.868.584-.7 1.469-1.212 3.206-1.212h1.36a1.36 1.36 0 0 0 1.358-1.288s.05-.905.23-1.99c.182-1.084.59-2.348.859-2.706h.002c.846-1.128 2.012-2.175 4.864-2.173Zm-46.073 1.92 1.477 1.477-1.477 1.477-1.476-1.477 1.476-1.476Zm47.6 11.677-3.4 3.4 3.4 3.4 3.398-3.4-3.398-3.4ZM8.84 24.48l-3.4 3.4 3.4 3.4 3.398-3.4-3.398-3.4Zm17.33 0c.713.005 1.698.266 2.829.723-.39 1.485-.764 2.58-.88 2.93a1.36 1.36 0 0 0 2.184 1.453c.19-.166.525-.478 1.131-1.17.325-.368.703-.835 1.1-1.37a33.13 33.13 0 0 1 3.575 2.617c-.175.24-.36.467-.525.725l-2.726 4.237a1.36 1.36 0 0 0 1.915 1.854l4.091-2.824c.24-.166.554-.337.909-.507a38.53 38.53 0 0 1 2.64 3.15c-.435.334-.775.63-.84.693l-.002.003-3.087 3.05a1.36 1.36 0 0 0 1.445 2.236s1.785-.678 5.406-1.116c.499 1.14.8 2.159.882 2.943.1.976-.094 1.48-.362 1.748a1.199 1.199 0 0 1-.443.26l-.138.048c-.242.063-.547.094-.951.07-.85-.051-2.017-.37-3.34-.97-2.643-1.2-5.896-3.497-8.961-6.564-3.066-3.066-5.363-6.318-6.564-8.962-.6-1.322-.919-2.493-.97-3.341-.025-.422.009-.741.077-.986.008-.029.02-.048.03-.074.069-.204.16-.36.27-.47.224-.224.59-.39 1.305-.386Zm-3.48 5.685c.095.232.182.462.29.698 1.389 3.059 3.857 6.498 7.118 9.76 3.261 3.261 6.7 5.73 9.76 7.118.123.056.241.099.363.151l-28.355 9.71L22.69 30.164Zm31.681 5.195c2.071 0 4.611.64 6.49 1.79 1.877 1.152 3.036 2.646 3.02 4.61-.002.104.005.235.008.4h-3.241c-.105-.773-.386-1.533-.911-2.032-.614-.582-1.368-.959-2.202-1.248-1.668-.58-3.713-.8-5.855-.8-3.5 0-5.894.359-7.971.699.312-.298 3.666-3.419 10.662-3.419Zm-2.01 15.757-.962.962-4.362 4.361 5.323 5.324 5.324-5.324-5.324-5.323Zm0 3.847 1.476 1.476-1.477 1.477-1.476-1.477 1.476-1.476Z"/></symbol><symbol viewBox="0 0 28 28" id="container"><g opacity="0.6"><path d="M6.126 4.083a3.222 3.222 0 0 0-3.208 3.208v3.357a.875.875 0 0 0 0 .284v5.55a.875.875 0 0 0 0 .283v3.36c0 1.451 1.001 2.639 2.333 3.03v1.053a.875.875 0 1 0 1.75 0v-.875h14v.875a.873.873 0 0 0 .875.888.876.876 0 0 0 .875-.888v-1.054c1.332-.39 2.333-1.578 2.333-3.03v-3.356a.877.877 0 0 0 0-.284v-5.55a.877.877 0 0 0 0-.283v-3.36a3.222 3.222 0 0 0-3.208-3.208H6.126Zm0 1.75h15.75c.816 0 1.458.643 1.458 1.458v2.625H4.668V7.291c0-.815.643-1.458 1.458-1.458ZM14.001 7a.875.875 0 1 0 0 1.75.875.875 0 0 0 0-1.75Zm-9.333 4.666h18.666v4.084H4.668v-4.084ZM14 12.833a.875.875 0 1 0 0 1.75.875.875 0 0 0 0-1.75ZM4.668 17.5h18.666v2.625a1.44 1.44 0 0 1-1.432 1.447.875.875 0 0 0-.166.011H6.27a.877.877 0 0 0-.172-.011 1.44 1.44 0 0 1-1.43-1.447V17.5ZM14 18.666a.875.875 0 1 0 0 1.75.875.875 0 0 0 0-1.75Z"/></g></symbol><symbol viewBox="0 0 28 28" id="director"><g opacity="0.6"><path d="M14.022 1.75a.875.875 0 0 0-.604.221l-2.09 1.859-1.762-1.32a.875.875 0 0 0-1.4.699V8.75c0 3.211 2.622 5.834 5.833 5.834 3.211 0 5.834-2.623 5.834-5.834V3.21a.875.875 0 0 0-1.4-.7L16.67 3.83l-2.09-1.858a.875.875 0 0 0-.559-.22ZM14 3.796l2.044 1.817a.875.875 0 0 0 1.107.045l.933-.7V7H9.916V4.96l.933.7a.875.875 0 0 0 1.106-.046L14 3.796ZM9.916 8.75h8.167a4.07 4.07 0 0 1-4.084 4.084A4.07 4.07 0 0 1 9.916 8.75Zm-2.625 8.167a2.638 2.638 0 0 0-2.625 2.625v.7c0 1.715 1.088 3.254 2.747 4.312 1.66 1.058 3.93 1.696 6.586 1.696 2.658 0 4.928-.638 6.587-1.696 1.659-1.058 2.747-2.597 2.747-4.313v-.7a2.638 2.638 0 0 0-2.625-2.624H7.29Zm0 1.75h13.417c.494 0 .875.381.875.875v.7c0 .97-.626 2-1.938 2.836-1.313.837-3.272 1.422-5.646 1.422-2.373 0-4.333-.585-5.645-1.422-1.312-.837-1.938-1.865-1.938-2.837v-.7c0-.493.381-.874.875-.874Z"/></g></symbol><symbol viewBox="0 0 28 28" id="employees"><g opacity="0.6"><path d="M14 2.333c-3.212 0-5.834 2.622-5.834 5.833 0 3.212 2.622 5.834 5.833 5.834 3.212 0 5.834-2.622 5.834-5.834 0-3.211-2.622-5.833-5.834-5.833Zm0 1.75a4.07 4.07 0 0 1 4.083 4.083 4.07 4.07 0 0 1-4.084 4.084 4.07 4.07 0 0 1-4.083-4.084 4.07 4.07 0 0 1 4.083-4.083Zm-7.013 12.25a2.334 2.334 0 0 0-2.321 2.32v.888c0 2.103 1.33 3.73 3.096 4.703 1.766.975 4.002 1.422 6.237 1.422 2.236 0 4.472-.447 6.238-1.422 1.506-.83 2.64-2.158 2.957-3.828h.14v-1.762c0-1.272-1.05-2.321-2.322-2.321H6.987Zm0 1.75h14.025c.325 0 .572.245.572.57v.013h-.001v.875c0 1.398-.785 2.396-2.191 3.172-1.406.776-3.399 1.203-5.393 1.203-1.994 0-3.986-.427-5.392-1.203-1.406-.776-2.191-1.774-2.191-3.172v-.887c0-.326.245-.571.57-.571Z"/></g></symbol><symbol viewBox="0 0 24 24" id="light"><path clip-rule="evenodd" d="M14.615 2.595a.75.75 0 0 1 .359.852l-1.992 7.303h7.268a.75.75 0 0 1 .548 1.262l-10.5 11.25a.75.75 0 0 1-1.272-.71l1.992-7.302H3.75a.751.751 0 0 1-.548-1.262l10.5-11.25a.75.75 0 0 1 .913-.143Z"/></symbol><symbol viewBox="0 0 100 100" id="map"><path d="M50 2C39.653 2 31.107 9.915 30.098 20c-2.09-.01-3.777-.152-5.477.781-.877.482-1.617 1.36-1.984 2.328-.367.969-.473 2.005-.473 3.227a2 2 0 0 0 .215.898c.95 1.887 1.287 3.793 1.207 4.957-.032.473-.13.683-.191.825-2.556-.822-5.187-.612-7.23.105-1.185.415-2.183.921-2.977 1.527-.397.303-.753.607-1.082 1.149a2.46 2.46 0 0 0-.38 1.125c-.007.093.084.196.09.297-.014.035-.001.005-.042.086-.166.321-.526.9-.992 1.582-.934 1.363-2.3 3.186-3.66 5.047-1.361 1.86-2.717 3.753-3.696 5.406-.49.826-.888 1.578-1.156 2.355-.269.778-.67 1.833.254 3.055a2 2 0 0 0 .828.645c3.84 1.589 5.849 3.277 6.976 4.851 1.128 1.575 1.465 3.12 1.63 4.82.164 1.701.05 3.509.636 5.422.571 1.866 2.17 3.66 4.684 4.496.29.123.603.443.894 1.235.29.791.465 1.934.516 3.07.102 2.273-.235 4.438-.235 4.438a2.002 2.002 0 0 0 .516 1.68s1.875 2 3.922 3.917c1.023.959 2.08 1.896 3.062 2.606.492.354.948.658 1.508.894.28.118.59.228 1.031.262.441.034 1.11-.046 1.672-.488-.615.483-.499.207-.09.222.411.016 1.085.101 1.875.25 1.58.298 3.652.826 5.711 1.364 2.06.537 4.103 1.083 5.758 1.43.828.172 1.545.303 2.227.343.34.02.67.028 1.097-.055.428-.082 1.17-.268 1.665-1.144v-.004c.46-.82 1.183-2.382 2.226-4.074.973-1.58 2.208-2.962 3.016-3.504.075.017.088.012.183.039.558.16 1.41.486 2.403.918 1.983.864 4.56 2.159 7.14 3.508 2.581 1.349 5.174 2.752 7.266 3.855 1.046.552 1.963 1.026 2.71 1.39.748.366 1.133.61 1.915.786 1.663.376 2.753-.303 3.906-.957 1.153-.655 2.313-1.516 3.414-2.399 1.101-.882 2.13-1.786 2.934-2.507.803-.722 1.546-1.384 1.46-1.317.498-.389.76-1.019.813-1.437a2.286 2.286 0 0 0-.058-.91c-.108-.439-.247-.702-.395-.985-.295-.565-.66-1.127-1.039-1.722-.687-1.079-1.32-2.286-1.473-2.657v-.004c.021-.146.058-.451.184-.78.252-.664.682-1.592 1.223-2.65 1.08-2.115 2.603-4.775 4.12-7.398 1.518-2.623 3.028-5.206 4.126-7.261.548-1.028.994-1.912 1.304-2.68.156-.385.28-.73.364-1.153.083-.423.378-1.104-.465-2.101a2 2 0 0 0-.692-.523c-2.815-1.296-4.515-4.712-5.379-8.165a29.743 29.743 0 0 1-.757-4.68c-.044-.538-.06-.95-.07-1.312.04-.02.044-.025.09-.047.613-.3 1.527-.681 2.456-1.062.93-.381 1.876-.761 2.657-1.113.39-.176.734-.342 1.066-.536.166-.097.33-.196.531-.363.201-.166.531-.332.762-1.121v-.004c1.163-3.986 1.81-6.928 1.625-9.445-.178-2.426-1.63-4.486-3.719-5.465-1.198-.853-2.553-1.033-3.887-.996-1.448.04-2.972.315-4.496.652-2.614.58-4.931 1.198-6.484 1.473l-3.629-5.41a2 2 0 0 0-1.66-.887h-4.2C68.89 9.916 60.35 2 50 2Zm0 4c8.863 0 16 7.143 16 16 0 5.142-4.252 13.65-8.68 20.508-3.653 5.658-6.14 8.632-7.308 10.082-1.163-1.468-3.667-4.512-7.328-10.223C38.253 35.457 34 26.915 34 22c0-8.857 7.14-16 16-16Zm0 8c-4.394 0-8 3.605-8 8s3.606 8 8 8c4.395 0 8-3.605 8-8s-3.605-8-8-8Zm0 4c2.233 0 4 1.767 4 4s-1.767 4-4 4a3.97 3.97 0 0 1-4-4c0-2.233 1.767-4 4-4Zm19.871 6h3.16l3.786 5.645a2 2 0 0 0 1.828.878c2.329-.192 5.278-1.169 8.094-1.793 1.407-.311 2.748-.53 3.742-.558.994-.028 1.52.21 1.511.203a2 2 0 0 0 .528.32c1.157.482 1.354.72 1.465 2.23.102 1.391-.427 4.036-1.36 7.391-.105.051-.149.078-.281.137-.654.295-1.587.672-2.531 1.059-.945.387-1.897.781-2.696 1.172a8.54 8.54 0 0 0-1.109.625 3.275 3.275 0 0 0-.574.48c-.213.225-.541.56-.633 1.305-.06.48-.033.607-.023 1.07.009.468.034 1.08.093 1.8a33.46 33.46 0 0 0 .864 5.325c.88 3.522 2.664 7.493 6.152 9.852a27.31 27.31 0 0 1-.934 1.914c-1.033 1.936-2.535 4.512-4.058 7.144-1.523 2.633-3.069 5.32-4.223 7.578-.577 1.13-1.056 2.146-1.398 3.047-.343.902-.733 1.516-.454 2.836v.004c.365 1.716 1.346 2.983 2.106 4.176.204.32.308.505.465.762-.19.174-.292.254-.543.48a66.265 66.265 0 0 1-2.762 2.363c-1.008.809-2.058 1.567-2.89 2.04-.615.349-1.135.418-1.184.472.043-.005-.32-.128-.906-.414a101.12 101.12 0 0 1-2.602-1.336c-2.06-1.087-4.662-2.497-7.277-3.863-2.615-1.367-5.234-2.688-7.395-3.63-1.08-.47-2.04-.846-2.898-1.093a6.732 6.732 0 0 0-1.274-.258c-.444-.04-.964-.097-1.695.297-2.152 1.163-3.554 3.249-4.738 5.172-.929 1.508-1.425 2.55-1.809 3.305-.33-.042-.652-.078-1.18-.188-1.47-.307-3.495-.842-5.566-1.383-2.07-.54-4.188-1.087-5.98-1.425-.897-.17-1.709-.292-2.465-.32-.366-.015-.833.258-1.227.308a5.362 5.362 0 0 1-.703-.442c-.716-.517-1.712-1.382-2.672-2.28-1.625-1.522-2.722-2.699-3.16-3.16.101-.748.317-1.952.219-4.138-.062-1.385-.243-2.865-.758-4.27-.515-1.403-1.462-2.85-3.094-3.538a1.965 1.965 0 0 0-.191-.07c-1.716-.528-1.93-.958-2.223-1.915-.293-.956-.285-2.612-.48-4.632-.196-2.02-.698-4.454-2.356-6.77-1.436-2.006-3.89-3.816-7.27-5.437.15-.327.273-.622.555-1.098.833-1.405 2.144-3.253 3.485-5.086 1.34-1.833 2.71-3.654 3.73-5.145.51-.745.932-1.396 1.25-2.015.16-.31.298-.6.403-1.012.016-.064-.081-.243-.063-.324.328-.242.998-.615 1.816-.902 1.69-.594 3.868-.773 5.336-.043a2 2 0 0 0 .891.207c1.213 0 2.376-.753 2.969-1.649.592-.896.822-1.89.894-2.945.127-1.84-.49-3.987-1.414-6.13 0-.954.115-1.551.211-1.804.096-.252.067-.184.172-.242.204-.112 1.507-.276 3.59-.285.771 6.521 5.041 14.065 9.18 20.52 4.569 7.125 9.132 12.738 9.132 12.738a2.001 2.001 0 0 0 3.09.011s4.569-5.516 9.14-12.597c4.152-6.43 8.436-14.017 9.192-20.676Zm-46.156 9.059.371.09c-.137-.014-.273-.026-.41-.075.016-.004.027-.015.04-.015Zm-8.027 3.96c.006.075.032.162.027.227-.013.165-.055.194-.09.293.025-.167.052-.34.063-.52ZM35 54a5 5 0 1 0 0 10 5 5 0 0 0 0-10Zm-6.199 35.098c.183.014.197.036.188.035-.264.035-.501 0-.774.066.242-.077.463-.11.586-.101Zm-1.074.34c-.012.009-.023.01-.035.019v-.004c.011-.009.023-.007.035-.016Z"/></symbol><symbol viewBox="0 0 28 28" id="meeting"><g opacity="0.6"><path d="M2.058 2.403a.875.875 0 0 0-.123 1.744C4.107 4.409 6 5.163 7.378 6.358 8.757 7.554 9.653 9.18 9.852 11.37c.016.171.081.334.188.467l2.794 3.492c.018.023.026-.005-.001.005l-2.331.815a.875.875 0 0 0-.586.826v3.64c0 .38-.238.71-.598.83l-3.255 1.084a2.048 2.048 0 0 0-1.397 1.937v.325a.875.875 0 1 0 1.75 0v-.325c0-.13.077-.235.2-.276l3.256-1.086a2.63 2.63 0 0 0 1.794-2.49v-3.018l1.746-.611c1.114-.39 1.527-1.827.79-2.75L11.54 10.91c-.297-2.453-1.386-4.458-3.016-5.872-1.7-1.474-3.932-2.332-6.38-2.627a.874.874 0 0 0-.086-.007Zm19.807 10.43a.875.875 0 0 0-.848.703l-1.756 8.78-1.24-3.1a.876.876 0 0 0-.813-.55h-2.333a.875.875 0 1 0 0 1.75h1.74L18.73 25.7a.875.875 0 0 0 1.67-.153l1.756-8.78 1.24 3.1a.875.875 0 0 0 .813.55h2.333a.873.873 0 0 0 .888-.876.874.874 0 0 0-.888-.875h-1.74l-2.114-5.283a.875.875 0 0 0-.822-.55Z"/></g></symbol><symbol viewBox="0 0 28 28" id="mute"><g opacity="0.6" clip-path="url(#jclip0_2412_406)"><path d="M17.294 3.56c-.077 0-.154.005-.232.016a1.624 1.624 0 0 0-.863.391v.002l-5.38 4.781h-3.86a2.638 2.638 0 0 0-2.625 2.625v5.25a2.638 2.638 0 0 0 2.625 2.625h3.86l5.38 4.782a1.657 1.657 0 0 0 1.753.27c.54-.242.965-.818.965-1.49V5.189c0-.672-.424-1.248-.964-1.49a1.623 1.623 0 0 0-.66-.14Zm-.127 1.889v17.103l-5.434-4.83a.875.875 0 0 0-.581-.222H6.959a.862.862 0 0 1-.875-.875v-5.25c0-.493.381-.875.875-.875h4.193c.214 0 .42-.078.58-.22l5.435-4.831Zm10.2 5.039a.875.875 0 0 0-.61.269l-2.006 2.006-2.007-2.006a.875.875 0 1 0-1.237 1.237L23.513 14l-2.006 2.007a.875.875 0 1 0 1.237 1.237l2.007-2.006 2.006 2.006a.874.874 0 1 0 1.237-1.237L25.988 14l2.006-2.006a.876.876 0 0 0-.626-1.506Z"/></g><defs><clipPath id="jclip0_2412_406"><rect width="28" height="28"/></clipPath></defs></symbol><symbol viewBox="0 0 24 24" id="new-chair"><path d="M9.246 1.497c-.992 0-1.799.851-1.747 1.842l.396 7.503c.006.124.028.244.06.36a1.755 1.755 0 0 0-.956 1.548h-.252a.239.239 0 0 1-.25-.25V11H6.5a.5.5 0 0 0 .5-.5V10a.5.5 0 0 0-.5-.5H5a.5.5 0 0 0-.5.5v.5a.5.5 0 0 0 .497.499V12.5c0 .957.793 1.75 1.75 1.75H7v.008c0 .957.793 1.75 1.75 1.75h2.5v1.997H9.497a.75.75 0 0 0-.705.494l-.773 2.127a.998.998 0 1 0 1.408.518l.596-1.64h1.226v1.343a.998.998 0 1 0 1.656 1.072.999.999 0 0 0-.156-1.068v-1.346h1.224l.596 1.633a.998.998 0 1 0 1.411-.504l-.779-2.136a.75.75 0 0 0-.704-.493H12.75v-1.997h2.496c.958 0 1.75-.793 1.75-1.75v-.008h.257c.957 0 1.75-.793 1.75-1.75v-1.501a.5.5 0 0 0 .497-.499V10a.5.5 0 0 0-.5-.5h-1.5a.5.5 0 0 0-.5.5v.5a.5.5 0 0 0 .5.5h.003v1.5c0 .148-.102.25-.25.25h-.257c0-.67-.392-1.254-.954-1.547.032-.116.053-.237.06-.361l.394-7.502v-.001a1.762 1.762 0 0 0-1.747-1.842H9.246Zm0 1.5h5.502c.154 0 .257.11.25.264l-.394 7.502a.24.24 0 0 1-.25.237H9.642a.242.242 0 0 1-.25-.237L8.997 3.26c-.008-.154.095-.264.25-.264ZM8.75 12.5H15.245a.24.24 0 0 1 .25.25v1.508c0 .147-.102.25-.25.25H8.75a.239.239 0 0 1-.25-.25V12.75c0-.148.102-.25.25-.25Z"/></symbol><symbol viewBox="0 0 28 28" id="order-cart"><path d="M13.125 1.756c-.645 0-1.29.243-1.777.73L8 5.833H6.265l-.037-.199A2.634 2.634 0 0 0 3.649 3.5H2.042a.875.875 0 1 0 0 1.75h1.607c.425 0 .779.294.86.711l.174.912 1.88 9.879a3.802 3.802 0 0 0 3.726 3.082h10.922a3.801 3.801 0 0 0 3.726-3.082l1.88-9.88a.876.876 0 0 0-.859-1.038h-2.554l-2.813-2.815a2.322 2.322 0 0 0-3.264 0l-.946.946-1.479-1.478a2.506 2.506 0 0 0-1.777-.731Zm0 1.738a.76.76 0 0 1 .539.23l2.109 2.11h-5.297l2.11-2.11a.761.761 0 0 1 .54-.23Zm5.833.593c.141 0 .283.057.396.17l1.576 1.577h-2.68l-.631-.632.945-.945a.556.556 0 0 1 .394-.17ZM6.6 7.584h16.313a.875.875 0 0 0 .287 0h1.702l-1.684 8.84a2.033 2.033 0 0 1-2.006 1.66H10.289c-.985 0-1.82-.691-2.006-1.66l-1.684-8.84ZM11.667 21a1.75 1.75 0 1 0 0 3.5 1.75 1.75 0 0 0 0-3.5Zm8.166 0a1.75 1.75 0 1 0 0 3.5 1.75 1.75 0 0 0 0-3.5Z" fill-opacity="0.6"/></symbol><symbol viewBox="0 0 20 20" id="particles"><path d="M4.966 2.235a.625.625 0 0 0-.562.427l-.786 2.36-2.36.786a.625.625 0 0 0 0 1.186l2.36.787.786 2.36a.626.626 0 0 0 1.187 0l.786-2.36 2.36-.787a.625.625 0 0 0 0-1.186l-2.36-.786-.786-2.36a.625.625 0 0 0-.625-.427Zm8.131 3.75a.625.625 0 0 0-.57.433l-1.218 3.794-3.794 1.22a.625.625 0 0 0 0 1.189l3.794 1.219 1.219 3.794a.626.626 0 0 0 1.19 0l1.219-3.794 3.794-1.22a.625.625 0 0 0 0-1.189l-3.794-1.219-1.22-3.794a.626.626 0 0 0-.62-.433Zm-8.756 6.667a.625.625 0 0 0-.562.426l-.63 1.892-1.89.63a.625.625 0 0 0 0 1.186l1.89.63.63 1.891a.625.625 0 0 0 1.187 0l.63-1.891 1.891-.63a.626.626 0 0 0 0-1.187l-1.89-.63-.631-1.89a.625.625 0 0 0-.625-.427Z"/></symbol><symbol viewBox="0 0 28 28" id="reception"><g opacity="0.6"><path d="M10.5 2.333c-.899 0-1.684.369-2.184.932-.501.563-.732 1.28-.732 1.985 0 .705.23 1.421.732 1.984.5.564 1.285.932 2.185.932.899 0 1.684-.368 2.185-.932.5-.563.731-1.28.731-1.984 0-.705-.23-1.422-.731-1.985-.5-.563-1.286-.932-2.185-.932Zm0 1.75c.463 0 .698.142.878.344.18.202.29.507.29.823 0 .316-.11.62-.29.822-.18.203-.415.344-.877.344s-.698-.141-.878-.344a1.259 1.259 0 0 1-.289-.822c0-.316.11-.62.29-.823.18-.202.415-.344.877-.344ZM9.043 8.75a3.222 3.222 0 0 0-3.208 3.208V14H2.626a.875.875 0 1 0 0 1.75H3.5v7.291c0 1.117.924 2.042 2.041 2.042H22.46a2.055 2.055 0 0 0 2.042-2.042V15.75h.875a.877.877 0 0 0 .627-1.498.875.875 0 0 0-.627-.252h-3.209v-.875a2.638 2.638 0 0 0-2.625-2.625 2.638 2.638 0 0 0-2.625 2.625V14h-1.75v-2.042A3.222 3.222 0 0 0 11.96 8.75H9.042Zm0 1.75h2.917c.816 0 1.458.642 1.458 1.458V14H7.584v-2.042c0-.816.643-1.458 1.458-1.458Zm10.5 1.75c.494 0 .875.38.875.875V14h-1.75v-.875c0-.494.382-.875.875-.875Zm-14.291 3.5h17.5v7.291c0 .172-.12.292-.292.292H5.542a.279.279 0 0 1-.291-.292V15.75Z"/></g></symbol><symbol viewBox="0 0 28 28" id="sofa"><g opacity="0.6"><path d="M6.548 5.25a3.646 3.646 0 0 0-3.632 3.632v1.78c-1.013.366-1.75 1.331-1.75 2.463v6.417c0 1.326 1.01 2.426 2.296 2.592l-.29.289A.875.875 0 1 0 4.41 23.66l1.493-1.493h16.192l1.494 1.493a.875.875 0 1 0 1.237-1.237l-.29-.29c1.286-.165 2.297-1.264 2.297-2.591v-6.417c0-1.132-.737-2.097-1.75-2.462v-1.78A3.646 3.646 0 0 0 21.45 5.25H6.548Zm0 1.75h14.903a1.87 1.87 0 0 1 1.882 1.882v1.78c-1.013.366-1.75 1.331-1.75 2.463v3.208H6.416v-3.208c0-1.132-.737-2.097-1.75-2.462v-1.78A1.87 1.87 0 0 1 6.548 7Zm-2.84 5.258a.872.872 0 0 0 .166 0c.452.04.792.402.792.867v4.083a.875.875 0 0 0 .875.875h16.917a.875.875 0 0 0 .875-.875v-4.083c0-.465.34-.826.792-.867a.872.872 0 0 0 .166 0c.452.04.792.402.792.867v6.417a.862.862 0 0 1-.875.875h-1.64a.87.87 0 0 0-.24 0H5.659a.876.876 0 0 0-.228 0H3.792a.862.862 0 0 1-.875-.875v-6.417c0-.465.34-.826.792-.867Z"/></g></symbol></svg>