<svg style="display: none;" aria-hidden="true" xmlns="http://www.w3.org/2000/svg" xmlns:xlink="http://www.w3.org/1999/xlink"><symbol viewBox="0 0 25 25" id="arrow-down"><g clip-path="url(#aaclip0_300_299)"><path clip-rule="evenodd" d="M12.5 4.75a9.75 9.75 0 0 0-9.75 9.75 9.75 9.75 0 0 0 9.75 9.75 9.75 9.75 0 0 0 9.75-9.75 9.75 9.75 0 0 0-9.75-9.75Zm-.53 14.03a.75.75 0 0 0 1.06 0l3-3a.75.75 0 1 0-1.06-1.06l-1.72 1.72v-5.69a.75.75 0 1 0-1.5 0v5.69l-1.72-1.72a.75.75 0 0 0-1.06 1.06l3 3Z"/></g><defs><clipPath id="aaclip0_300_299"><rect width="24" height="24" transform="translate(0.5 0.5)"/></clipPath></defs></symbol><symbol viewBox="0 0 25 30" id="cabinet"><g opacity="0.5"><path d="M4.063 4.375A3.452 3.452 0 0 0 .626 7.813v3.596a.937.937 0 0 0 0 .304v5.946a.937.937 0 0 0 0 .304v3.6c0 1.555 1.073 2.827 2.5 3.245v1.13a.937.937 0 1 0 1.875 0V25h15v.938a.937.937 0 1 0 1.875 0v-1.13c1.426-.418 2.5-1.69 2.5-3.245v-3.597a.94.94 0 0 0 0-.304v-5.946a.94.94 0 0 0 0-.304v-3.6a3.452 3.452 0 0 0-3.438-3.437H4.063Zm0 1.875h16.875c.874 0 1.563.689 1.563 1.563v2.812h-20V7.812c0-.873.688-1.562 1.562-1.562Zm8.438 1.25a.937.937 0 1 0 0 1.875.937.937 0 0 0 0-1.875Zm-10 5h20v4.375h-20V12.5Zm10 1.25a.937.937 0 1 0 0 1.875.937.937 0 0 0 0-1.875Zm-10 5h20v2.813c0 .862-.677 1.533-1.535 1.55a.942.942 0 0 0-.178.012H4.217a.94.94 0 0 0-.184-.012 1.543 1.543 0 0 1-1.532-1.55V18.75Zm10 1.25a.937.937 0 1 0 0 1.875.937.937 0 0 0 0-1.875Z"/></g></symbol><symbol viewBox="0 0 44 44" id="catalog"><path d="M7.334 7.334a1.467 1.467 0 0 0-1.467 1.467v1.466H4.4c-.81 0-1.466.657-1.466 1.467v23.467c0 .81.657 1.466 1.466 1.466h35.2c.81 0 1.467-.657 1.467-1.466V11.734c0-.81-.657-1.467-1.467-1.467h-1.466V8.801a1.467 1.467 0 0 0-1.467-1.467c-7.278 0-13.875 2.553-14.667 2.865-.792-.312-7.388-2.865-14.666-2.865Zm1.466 3.06c6.443.348 12.656 2.7 12.656 2.7.35.14.74.14 1.088 0 0 0 6.213-2.352 12.656-2.7v20.53c-6.721.324-12.462 2.451-13.2 2.741-.737-.29-6.478-2.417-13.2-2.741v-20.53Zm13.177 4.987a1.467 1.467 0 0 0-1.443 1.486v2.2a1.467 1.467 0 1 0 2.933 0v-2.2a1.468 1.468 0 0 0-1.49-1.486Zm0 8.8a1.467 1.467 0 0 0-1.443 1.486v2.2a1.467 1.467 0 1 0 2.933 0v-2.2a1.468 1.468 0 0 0-1.49-1.486Z"/></symbol><symbol viewBox="0 0 22 23" id="chain"><path clip-rule="evenodd" d="M12.256 8.784a1.031 1.031 0 0 1 1.457 0 4.813 4.813 0 0 1 0 6.806l-2.75 2.75a4.813 4.813 0 0 1-7.42-6.053 1.031 1.031 0 0 1 1.72 1.138 2.75 2.75 0 0 0 4.243 3.456l2.75-2.75a2.75 2.75 0 0 0 0-3.888 1.031 1.031 0 0 1 0-1.459Z"/><path clip-rule="evenodd" d="M9.742 14.216a1.03 1.03 0 0 1-1.457 0 4.812 4.812 0 0 1 0-6.807l2.75-2.75a4.812 4.812 0 0 1 7.42 6.053 1.03 1.03 0 0 1-1.72-1.137 2.75 2.75 0 0 0-4.243-3.457l-2.75 2.75a2.75 2.75 0 0 0 0 3.889 1.031 1.031 0 0 1 0 1.457v.002Z"/></symbol><symbol viewBox="0 0 28 28" id="chair"><path d="M10.787 1.746A2.056 2.056 0 0 0 8.75 3.895v.001l.461 8.752c.008.145.033.285.07.42a2.048 2.048 0 0 0-1.114 1.806h-.294a.279.279 0 0 1-.292-.291v-1.75h.003a.583.583 0 0 0 .584-.584v-.583a.584.584 0 0 0-.584-.583h-1.75a.584.584 0 0 0-.583.583v.583c0 .321.26.58.58.583v1.75c0 1.118.925 2.043 2.042 2.043h.294v.009c0 1.117.924 2.041 2.041 2.041h2.917v2.33H11.08a.874.874 0 0 0-.823.577l-.902 2.481a1.165 1.165 0 1 0 1.643.604l.695-1.912h1.43v1.566a1.164 1.164 0 1 0 1.75.004v-1.57h1.428l.697 1.905a1.162 1.162 0 1 0 1.646-.588l-.91-2.491a.875.875 0 0 0-.82-.576h-2.04v-2.33h2.912a2.055 2.055 0 0 0 2.042-2.041v-.01h.299a2.055 2.055 0 0 0 2.042-2.041v-1.751a.583.583 0 0 0 .58-.583v-.583a.584.584 0 0 0-.583-.583h-1.75a.584.584 0 0 0-.584.583v.583c0 .322.261.584.584.584h.003v1.75c0 .172-.12.291-.292.291h-.299c0-.782-.458-1.462-1.113-1.804.037-.136.061-.276.069-.422l.46-8.752v-.001a2.056 2.056 0 0 0-2.038-2.149h-6.419Zm0 1.75h6.42c.178 0 .299.129.29.308l-.46 8.752a.281.281 0 0 1-.291.277h-5.497a.282.282 0 0 1-.292-.277l-.46-8.752c-.01-.18.11-.308.29-.308Zm-.58 11.087h7.579a.28.28 0 0 1 .292.291v1.76c0 .172-.12.291-.292.291h-7.579a.279.279 0 0 1-.291-.291v-1.76c0-.172.12-.291.291-.291Z"/></symbol><symbol viewBox="0 0 12 12" id="clock"><g opacity="0.3"><path clip-rule="evenodd" d="M6 1.125a4.875 4.875 0 1 0 0 9.75 4.875 4.875 0 0 0 0-9.75ZM6.375 3a.375.375 0 0 0-.75 0v3c0 .207.168.375.375.375h2.25a.375.375 0 0 0 0-.75H6.375V3Z"/></g></symbol><symbol viewBox="0 0 44 44" id="colors"><path d="M22 4.4C12.28 4.4 4.4 12.28 4.4 22c0 9.72 7.88 17.6 17.6 17.6h1.467a4.4 4.4 0 0 0 4.4-4.4v-4.4a2.932 2.932 0 0 1 2.933-2.933h5.867a2.933 2.933 0 0 0 2.933-2.933V22c0-9.72-7.88-17.6-17.6-17.6Zm0 2.934a2.932 2.932 0 1 1 0 5.866 2.932 2.932 0 1 1 0-5.866Zm-11.733 17.6a2.932 2.932 0 1 1 0-5.867 2.932 2.932 0 1 1 0 5.867Zm11 11.733a3.666 3.666 0 1 1-.001-7.332 3.666 3.666 0 0 1 .001 7.332Zm12.467-11.733a2.932 2.932 0 1 1 0-5.867 2.933 2.933 0 1 1 0 5.867Zm-1.363-9.157a2.933 2.933 0 1 1-4.148-4.147 2.933 2.933 0 0 1 4.148 4.147Zm-20.741 0a2.933 2.933 0 1 1 4.147-4.147 2.933 2.933 0 0 1-4.147 4.147Z"/></symbol><symbol viewBox="0 0 16 17" id="compare"><path d="M13.5.5A1.5 1.5 0 0 0 12 2v13a1.5 1.5 0 0 0 1.5 1.5h1A1.5 1.5 0 0 0 16 15V2A1.5 1.5 0 0 0 14.5.5h-1Zm-6 4A1.5 1.5 0 0 0 6 6v9a1.5 1.5 0 0 0 1.5 1.5h1A1.5 1.5 0 0 0 10 15V6a1.5 1.5 0 0 0-1.5-1.5h-1Zm-6 4A1.5 1.5 0 0 0 0 10v5a1.5 1.5 0 0 0 1.5 1.5h1A1.5 1.5 0 0 0 4 15v-5a1.5 1.5 0 0 0-1.5-1.5h-1Z"/></symbol><symbol viewBox="0 0 68 68" id="confetti"><path d="m42.84 2.157-.961.962-4.362 4.361 5.323 5.323 5.324-5.323-5.324-5.323Zm-17 3.283a1.36 1.36 0 0 0-1.36 1.36v6.8a1.36 1.36 0 0 0 1.36 1.36h1.36c1.626 0 1.98.49 2.327 1.27.348.78.393 1.954.393 2.81 0 1.11-.134 2.278-.324 3.4-1.195-.42-2.342-.672-3.405-.68-1.2-.008-2.395.329-3.248 1.182-.365.364-.609.8-.797 1.26l-.024-.009-14.947 37.89 39.24-13.436-.007-.024c.503-.19.977-.451 1.37-.845 1.018-1.017 1.294-2.483 1.143-3.95-.096-.924-.363-1.9-.75-2.913a56.796 56.796 0 0 1 3.51-.115c1.938 0 3.773.235 4.964.649.596.206 1.015.46 1.22.653.203.193.214.25.214.398v1.02a1.36 1.36 0 0 0 1.36 1.36h5.841a1.362 1.362 0 0 0 1.36-1.4l-.04-1.694v-.003c.026-3.087-1.92-5.48-4.318-6.951-2.4-1.471-5.312-2.192-7.91-2.192-4.302 0-7.502 1.116-9.643 2.221a39.908 39.908 0 0 0-2.231-2.76c.485-.155.977-.299 1.453-.427a60.17 60.17 0 0 1 2.568-.63c.705-.158 1.094-.225 1.448-.324 1.098-.308 2.596-.684 3.94-1.58 1.342-.897 2.493-2.51 2.493-4.66 0-.588-.285-.916-.472-1.36h.472c2.908 0 5.44-2.347 5.44-5.44v-1.87s.01-.185.139-.393c.127-.208.23-.457 1.221-.457h1.36a1.36 1.36 0 0 0 1.36-1.36V8.163a1.36 1.36 0 0 0-1.36-1.36h-2.204c-3.615-.003-5.848 1.67-7.042 3.262-.886 1.18-1.158 2.637-1.368 3.889-.092.548-.073.608-.114 1.006h-.152c-2.342 0-4.177.85-5.294 2.19-1.116 1.339-1.506 3.024-1.506 4.61v1.846c-2.229.735-4.781 1.929-6.977 4.006-1.295-1.1-2.582-2.085-3.844-2.906 1.394-2.458 2.661-5.774 2.661-9.746 0-2.342-.776-4.707-2.4-6.518C32.693 6.63 30.203 5.44 27.1 5.44h-1.26Zm17 .563 1.477 1.477-1.477 1.477-1.476-1.477 1.476-1.477ZM14.28 7.597l-.961.962-4.362 4.361 5.323 5.324 5.324-5.324-5.324-5.323Zm12.92.582c2.372.027 3.993.851 5.095 2.08C33.415 11.508 34 13.223 34 14.96c0 2.832-.824 5.142-1.785 7.132.153-1.042.425-1.964.425-3.052 0-.856.046-2.404-.626-3.915-.673-1.511-2.36-2.885-4.814-2.885V8.18Zm33.153 1.344h.847v2.717c-1.728 0-2.986.856-3.538 1.753-.552.898-.542 1.817-.542 1.817v1.87c0 1.668-1.207 2.72-2.72 2.72h-2.72a1.36 1.36 0 0 0-1.006 2.274l.018.021c.01.012.023.023.038.04a5.904 5.904 0 0 1 .499.651c.266.405.451.912.451 1.094 0 1.302-.461 1.846-1.285 2.396-.824.55-2.046.912-3.161 1.225.045-.013-.583.127-1.31.29-.727.162-1.668.383-2.682.658-1.558.422-3.11 1.099-4.548 1.82 2.278-2.834 5.405-4.376 7.913-5.08a1.36 1.36 0 0 0 .993-1.309v-2.72c0-1.133.29-2.168.874-2.868.584-.7 1.469-1.212 3.206-1.212h1.36a1.36 1.36 0 0 0 1.358-1.288s.05-.905.23-1.99c.182-1.084.59-2.348.859-2.706h.002c.846-1.128 2.012-2.175 4.864-2.173Zm-46.073 1.92 1.477 1.477-1.477 1.477-1.476-1.477 1.476-1.476Zm47.6 11.677-3.4 3.4 3.4 3.4 3.398-3.4-3.398-3.4ZM8.84 24.48l-3.4 3.4 3.4 3.4 3.398-3.4-3.398-3.4Zm17.33 0c.713.005 1.698.266 2.829.723-.39 1.485-.764 2.58-.88 2.93a1.36 1.36 0 0 0 2.184 1.453c.19-.166.525-.478 1.131-1.17.325-.368.703-.835 1.1-1.37a33.13 33.13 0 0 1 3.575 2.617c-.175.24-.36.467-.525.725l-2.726 4.237a1.36 1.36 0 0 0 1.915 1.854l4.091-2.824c.24-.166.554-.337.909-.507a38.53 38.53 0 0 1 2.64 3.15c-.435.334-.775.63-.84.693l-.002.003-3.087 3.05a1.36 1.36 0 0 0 1.445 2.236s1.785-.678 5.406-1.116c.499 1.14.8 2.159.882 2.943.1.976-.094 1.48-.362 1.748a1.199 1.199 0 0 1-.443.26l-.138.048c-.242.063-.547.094-.951.07-.85-.051-2.017-.37-3.34-.97-2.643-1.2-5.896-3.497-8.961-6.564-3.066-3.066-5.363-6.318-6.564-8.962-.6-1.322-.919-2.493-.97-3.341-.025-.422.009-.741.077-.986.008-.029.02-.048.03-.074.069-.204.16-.36.27-.47.224-.224.59-.39 1.305-.386Zm-3.48 5.685c.095.232.182.462.29.698 1.389 3.059 3.857 6.498 7.118 9.76 3.261 3.261 6.7 5.73 9.76 7.118.123.056.241.099.363.151l-28.355 9.71L22.69 30.164Zm31.681 5.195c2.071 0 4.611.64 6.49 1.79 1.877 1.152 3.036 2.646 3.02 4.61-.002.104.005.235.008.4h-3.241c-.105-.773-.386-1.533-.911-2.032-.614-.582-1.368-.959-2.202-1.248-1.668-.58-3.713-.8-5.855-.8-3.5 0-5.894.359-7.971.699.312-.298 3.666-3.419 10.662-3.419Zm-2.01 15.757-.962.962-4.362 4.361 5.323 5.324 5.324-5.324-5.324-5.323Zm0 3.847 1.476 1.476-1.477 1.477-1.476-1.477 1.476-1.476Z"/></symbol><symbol viewBox="0 0 28 28" id="container"><path d="M6.126 4.083a3.222 3.222 0 0 0-3.208 3.208v3.357a.875.875 0 0 0 0 .284v5.55a.875.875 0 0 0 0 .283v3.36c0 1.451 1.001 2.639 2.333 3.03v1.053a.875.875 0 1 0 1.75 0v-.875h14v.875a.873.873 0 0 0 .875.888.876.876 0 0 0 .875-.888v-1.054c1.332-.39 2.333-1.578 2.333-3.03v-3.356a.877.877 0 0 0 0-.284v-5.55a.877.877 0 0 0 0-.283v-3.36a3.222 3.222 0 0 0-3.208-3.208H6.126Zm0 1.75h15.75c.816 0 1.458.643 1.458 1.458v2.625H4.668V7.291c0-.815.643-1.458 1.458-1.458ZM14.001 7a.875.875 0 1 0 0 1.75.875.875 0 0 0 0-1.75Zm-9.333 4.666h18.666v4.084H4.668v-4.084ZM14 12.833a.875.875 0 1 0 0 1.75.875.875 0 0 0 0-1.75ZM4.668 17.5h18.666v2.625a1.44 1.44 0 0 1-1.432 1.447.875.875 0 0 0-.166.011H6.27a.877.877 0 0 0-.172-.011 1.44 1.44 0 0 1-1.43-1.447V17.5ZM14 18.666a.875.875 0 1 0 0 1.75.875.875 0 0 0 0-1.75Z"/></symbol><symbol viewBox="0 0 20 20" id="cross"><path clip-rule="evenodd" d="M4.47 4.47a.75.75 0 0 1 1.06 0L10 8.94l4.47-4.47a.75.75 0 1 1 1.06 1.06L11.06 10l4.47 4.47a.75.75 0 1 1-1.06 1.06L10 11.06l-4.47 4.47a.75.75 0 0 1-1.06-1.06L8.94 10 4.47 5.53a.75.75 0 0 1 0-1.06Z"/></symbol><symbol viewBox="0 0 44 44" id="crown"><path d="M22 2.934a2.934 2.934 0 0 0-1.249 5.586l-5.729 12.177-8.227-5.807A2.933 2.933 0 1 0 4.4 16.133c.081 0 .163-.006.244-.014L5.867 30.8H38.134l1.223-14.678a2.933 2.933 0 1 0-2.151-1.232l-8.228 5.807L23.25 8.52A2.933 2.933 0 0 0 22 2.934Zm-16.133 30.8a1.467 1.467 0 1 0 0 2.933h32.267a1.465 1.465 0 0 0 1.373-2.033 1.466 1.466 0 0 0-1.373-.9H5.866Z"/></symbol><symbol viewBox="0 0 66 66" id="design"><path d="M6 0C2.685 0 0 2.685 0 6v54c0 3.315 2.685 6 6 6h12c3.315 0 6-2.685 6-6V6c0-3.315-2.685-6-6-6H6Zm39.516 9c-1.536 0-3.071.586-4.243 1.758L30 22.03V55.97l28.242-28.242a6 6 0 0 0 0-8.485l-8.484-8.484A5.981 5.981 0 0 0 45.516 9Zm6.937 33-24 24H60c3.315 0 6-2.685 6-6V48c0-3.315-2.685-6-6-6h-7.547ZM12 54a3.001 3.001 0 0 1 0 6 3.001 3.001 0 0 1 0-6Z"/></symbol><symbol viewBox="0 0 28 28" id="director"><path d="M14.022 1.75a.875.875 0 0 0-.604.221l-2.09 1.859-1.762-1.32a.875.875 0 0 0-1.4.699V8.75c0 3.211 2.622 5.834 5.833 5.834 3.211 0 5.834-2.623 5.834-5.834V3.21a.875.875 0 0 0-1.4-.7L16.67 3.83l-2.09-1.858a.875.875 0 0 0-.559-.22ZM14 3.796l2.044 1.817a.875.875 0 0 0 1.107.045l.933-.7V7H9.916V4.96l.933.7a.875.875 0 0 0 1.106-.046L14 3.796ZM9.916 8.75h8.167a4.07 4.07 0 0 1-4.084 4.084A4.07 4.07 0 0 1 9.916 8.75Zm-2.625 8.167a2.638 2.638 0 0 0-2.625 2.625v.7c0 1.715 1.088 3.254 2.747 4.312 1.66 1.058 3.93 1.696 6.586 1.696 2.658 0 4.928-.638 6.587-1.696 1.659-1.058 2.747-2.597 2.747-4.313v-.7a2.638 2.638 0 0 0-2.625-2.624H7.29Zm0 1.75h13.417c.494 0 .875.381.875.875v.7c0 .97-.626 2-1.938 2.836-1.313.837-3.272 1.422-5.646 1.422-2.373 0-4.333-.585-5.645-1.422-1.312-.837-1.938-1.865-1.938-2.837v-.7c0-.493.381-.874.875-.874Z"/></symbol><symbol viewBox="0 0 44 44" id="duplicate"><path d="M11.733 5.867A2.933 2.933 0 0 0 8.8 8.801v1.466h26.4a2.933 2.933 0 0 1 2.933 2.934v19.066H39.6a2.933 2.933 0 0 0 2.933-2.933V8.8A2.933 2.933 0 0 0 39.6 5.867H11.733ZM4.4 13.2a2.933 2.933 0 0 0-2.933 2.934V35.2A2.933 2.933 0 0 0 4.4 38.134h27.867A2.933 2.933 0 0 0 35.2 35.2V16.134a2.933 2.933 0 0 0-2.933-2.934H4.4Zm13.2 5.867c.81 0 1.467.657 1.467 1.467v4.4h4.4a1.467 1.467 0 0 1 0 2.933h-4.4v4.4a1.467 1.467 0 0 1-2.933 0v-4.4h-4.4a1.467 1.467 0 0 1 0-2.933h4.4v-4.4c0-.81.657-1.467 1.466-1.467Z"/></symbol><symbol viewBox="0 0 28 28" id="employees"><path d="M14 2.333c-3.212 0-5.834 2.622-5.834 5.833 0 3.212 2.622 5.834 5.833 5.834 3.212 0 5.834-2.622 5.834-5.834 0-3.211-2.622-5.833-5.834-5.833Zm0 1.75a4.07 4.07 0 0 1 4.083 4.083 4.07 4.07 0 0 1-4.084 4.084 4.07 4.07 0 0 1-4.083-4.084 4.07 4.07 0 0 1 4.083-4.083Zm-7.013 12.25a2.334 2.334 0 0 0-2.321 2.32v.888c0 2.103 1.33 3.73 3.096 4.703 1.766.975 4.002 1.422 6.237 1.422 2.236 0 4.472-.447 6.238-1.422 1.506-.83 2.64-2.158 2.957-3.828h.14v-1.762c0-1.272-1.05-2.321-2.322-2.321H6.987Zm0 1.75h14.025c.325 0 .572.245.572.57v.013h-.001v.875c0 1.398-.785 2.396-2.191 3.172-1.406.776-3.399 1.203-5.393 1.203-1.994 0-3.986-.427-5.392-1.203-1.406-.776-2.191-1.774-2.191-3.172v-.887c0-.326.245-.571.57-.571Z"/></symbol><symbol viewBox="0 0 66 66" id="ergonomic"><path d="M24.2 6.6a4.404 4.404 0 0 0-4.4 4.4c0 2.426 1.973 4.4 4.4 4.4 2.427 0 4.4-1.974 4.4-4.4 0-2.427-1.973-4.4-4.4-4.4Zm0 13.2a4.404 4.404 0 0 0-4.4 4.4v11c0 2.43 1.969 4.4 4.4 4.4h5.814l.305-4.4H28.6v-11c0-2.427-1.973-4.4-4.4-4.4Zm-12.976 4.4a2.211 2.211 0 0 0-2.205 2.41l1.074 11.787c.392 4.304 3.233 7.83 7.069 9.28l-1.697 6.79a2.2 2.2 0 1 0 4.27 1.065L21.52 48.4h7.867l.335-4.4h-8.413a6.602 6.602 0 0 1-6.561-5.874l-1.328-11.958a2.21 2.21 0 0 0-2.196-1.968Zm28.07 2.2a4.398 4.398 0 0 0-4.386 4.086L33 57.2h24.2V26.4H39.295Z"/></symbol><symbol viewBox="0 0 60 60" id="fill-chair"><path d="M30 6c-12 0-12 4-12 6 0 8 2 16 2 16h20s2-8 2-16c0-2 0-6-12-6ZM10 24a2.002 2.002 0 0 0-1.432 3.424A2.001 2.001 0 0 0 10 28h2v4.82c0 2.846 2.031 5.308 4.809 5.88 2.725.559 6.832 1.22 11.191 1.394v4.191l-11.305 1.738a2 2 0 0 0-.468 3.84A3 3 0 0 0 19 54a3 3 0 0 0 2.492-4.668l6.532-1.004a2 2 0 0 0 3.953 0l6.531 1.004A3 3 0 0 0 41 54a3.001 3.001 0 0 0 2.774-4.137 2 2 0 0 0-.47-3.84L32 44.285v-4.191c4.352-.176 8.458-.837 11.184-1.395C45.965 38.131 48 35.664 48 32.816V28h2a2.002 2.002 0 0 0 1.874-2.772A2 2 0 0 0 50 24h-2c-2.186 0-4 1.814-4 4v4.816c0 .965-.658 1.77-1.617 1.965-.164.034-.384.071-.559.106C41.34 33.223 39.821 32 38 32H22c-1.82 0-3.34 1.223-3.824 2.887-.176-.035-.397-.072-.563-.106-.958-.197-1.613-.995-1.613-1.96V28c0-2.186-1.814-4-4-4h-2Z"/></symbol><symbol viewBox="0 0 44 44" id="graph"><path d="M10.267 2.934c-4.033 0-7.333 3.3-7.333 7.333v13.2c0 3.013 1.844 5.613 4.457 6.737.435 3.626 3.538 6.463 7.276 6.463H39.6a1.466 1.466 0 0 0 1.467-1.467V13.203h-2.933v20.53H14.667a4.362 4.362 0 0 1-4.134-2.933h23.2a1.467 1.467 0 0 0 1.467-1.466V8.8a1.467 1.467 0 0 0-1.466-1.466h-22V4.4a1.467 1.467 0 0 0-1.467-1.466Zm1.467 7.333h20.533v17.6h-22a4.378 4.378 0 0 1-4.4-4.4c0-2.447 1.953-4.4 4.4-4.4a1.467 1.467 0 0 0 1.467-1.467v-7.333ZM22 14.667l2.63 2.63-2.63 2.63-3.363-3.364a1.466 1.466 0 0 0-2.074 0l-2.933 2.934a1.467 1.467 0 1 0 2.074 2.074l1.896-1.897 3.363 3.363a1.466 1.466 0 0 0 2.074 0l3.667-3.666 2.63 2.63v-7.334H22Z"/></symbol><symbol viewBox="0 0 24 24" id="left-arrow"><path clip-rule="evenodd" d="M11.207 3.793a1 1 0 0 1 0 1.414L5.414 11H21a1 1 0 1 1 0 2H5.414l5.793 5.793a1 1 0 0 1-1.414 1.414l-7.5-7.5a1 1 0 0 1 0-1.414l7.5-7.5a1 1 0 0 1 1.414 0Z"/></symbol><symbol viewBox="0 0 24 24" id="light"><path clip-rule="evenodd" d="M14.615 2.595a.75.75 0 0 1 .359.852l-1.992 7.303h7.268a.75.75 0 0 1 .548 1.262l-10.5 11.25a.75.75 0 0 1-1.272-.71l1.992-7.302H3.75a.751.751 0 0 1-.548-1.262l10.5-11.25a.75.75 0 0 1 .913-.143Z"/></symbol><symbol viewBox="0 0 24 24" id="link"><g opacity="0.5"><path d="M16.05 2.004a5.928 5.928 0 0 0-4.207 1.738l-2.55 2.551a.999.999 0 1 0 1.414 1.414l2.55-2.55a3.954 3.954 0 0 1 5.586 0 3.954 3.954 0 0 1 0 5.585l-2.55 2.551a.999.999 0 1 0 1.414 1.414l2.55-2.55a5.956 5.956 0 0 0 0-8.415 5.928 5.928 0 0 0-4.207-1.738ZM15 8a.997.997 0 0 0-.707.293l-6 6a.999.999 0 1 0 1.414 1.414l6-6A.999.999 0 0 0 15 8ZM7 9a.997.997 0 0 0-.707.293l-2.551 2.55a5.956 5.956 0 0 0 0 8.415 5.93 5.93 0 0 0 4.207 1.738 5.93 5.93 0 0 0 4.207-1.738l2.55-2.551a.999.999 0 1 0-1.413-1.414l-2.551 2.55a3.954 3.954 0 0 1-5.586 0 3.954 3.954 0 0 1 0-5.585l2.55-2.551A.999.999 0 0 0 7 9Z"/></g></symbol><symbol viewBox="0 0 10 11" id="location"><path clip-rule="evenodd" d="m4.77 10.89.035.02.014.007a.38.38 0 0 0 .362 0l.013-.007.036-.02a9.793 9.793 0 0 0 1.913-1.512c.973-.996 1.982-2.49 1.982-4.414a4.125 4.125 0 0 0-8.25 0c0 1.923 1.01 3.418 1.982 4.413.411.42.86.802 1.34 1.141.186.132.377.255.573.371ZM5 6.463a1.5 1.5 0 1 0 0-3 1.5 1.5 0 0 0 0 3Z"/></symbol><symbol viewBox="0 0 100 100" id="map"><path d="M50 2C39.653 2 31.107 9.915 30.098 20c-2.09-.01-3.777-.152-5.477.781-.877.482-1.617 1.36-1.984 2.328-.367.969-.473 2.005-.473 3.227a2 2 0 0 0 .215.898c.95 1.887 1.287 3.793 1.207 4.957-.032.473-.13.683-.191.825-2.556-.822-5.187-.612-7.23.105-1.185.415-2.183.921-2.977 1.527-.397.303-.753.607-1.082 1.149a2.46 2.46 0 0 0-.38 1.125c-.007.093.084.196.09.297-.014.035-.001.005-.042.086-.166.321-.526.9-.992 1.582-.934 1.363-2.3 3.186-3.66 5.047-1.361 1.86-2.717 3.753-3.696 5.406-.49.826-.888 1.578-1.156 2.355-.269.778-.67 1.833.254 3.055a2 2 0 0 0 .828.645c3.84 1.589 5.849 3.277 6.976 4.851 1.128 1.575 1.465 3.12 1.63 4.82.164 1.701.05 3.509.636 5.422.571 1.866 2.17 3.66 4.684 4.496.29.123.603.443.894 1.235.29.791.465 1.934.516 3.07.102 2.273-.235 4.438-.235 4.438a2.002 2.002 0 0 0 .516 1.68s1.875 2 3.922 3.917c1.023.959 2.08 1.896 3.062 2.606.492.354.948.658 1.508.894.28.118.59.228 1.031.262.441.034 1.11-.046 1.672-.488-.615.483-.499.207-.09.222.411.016 1.085.101 1.875.25 1.58.298 3.652.826 5.711 1.364 2.06.537 4.103 1.083 5.758 1.43.828.172 1.545.303 2.227.343.34.02.67.028 1.097-.055.428-.082 1.17-.268 1.665-1.144v-.004c.46-.82 1.183-2.382 2.226-4.074.973-1.58 2.208-2.962 3.016-3.504.075.017.088.012.183.039.558.16 1.41.486 2.403.918 1.983.864 4.56 2.159 7.14 3.508 2.581 1.349 5.174 2.752 7.266 3.855 1.046.552 1.963 1.026 2.71 1.39.748.366 1.133.61 1.915.786 1.663.376 2.753-.303 3.906-.957 1.153-.655 2.313-1.516 3.414-2.399 1.101-.882 2.13-1.786 2.934-2.507.803-.722 1.546-1.384 1.46-1.317.498-.389.76-1.019.813-1.437a2.286 2.286 0 0 0-.058-.91c-.108-.439-.247-.702-.395-.985-.295-.565-.66-1.127-1.039-1.722-.687-1.079-1.32-2.286-1.473-2.657v-.004c.021-.146.058-.451.184-.78.252-.664.682-1.592 1.223-2.65 1.08-2.115 2.603-4.775 4.12-7.398 1.518-2.623 3.028-5.206 4.126-7.261.548-1.028.994-1.912 1.304-2.68.156-.385.28-.73.364-1.153.083-.423.378-1.104-.465-2.101a2 2 0 0 0-.692-.523c-2.815-1.296-4.515-4.712-5.379-8.165a29.743 29.743 0 0 1-.757-4.68c-.044-.538-.06-.95-.07-1.312.04-.02.044-.025.09-.047.613-.3 1.527-.681 2.456-1.062.93-.381 1.876-.761 2.657-1.113.39-.176.734-.342 1.066-.536.166-.097.33-.196.531-.363.201-.166.531-.332.762-1.121v-.004c1.163-3.986 1.81-6.928 1.625-9.445-.178-2.426-1.63-4.486-3.719-5.465-1.198-.853-2.553-1.033-3.887-.996-1.448.04-2.972.315-4.496.652-2.614.58-4.931 1.198-6.484 1.473l-3.629-5.41a2 2 0 0 0-1.66-.887h-4.2C68.89 9.916 60.35 2 50 2Zm0 4c8.863 0 16 7.143 16 16 0 5.142-4.252 13.65-8.68 20.508-3.653 5.658-6.14 8.632-7.308 10.082-1.163-1.468-3.667-4.512-7.328-10.223C38.253 35.457 34 26.915 34 22c0-8.857 7.14-16 16-16Zm0 8c-4.394 0-8 3.605-8 8s3.606 8 8 8c4.395 0 8-3.605 8-8s-3.605-8-8-8Zm0 4c2.233 0 4 1.767 4 4s-1.767 4-4 4a3.97 3.97 0 0 1-4-4c0-2.233 1.767-4 4-4Zm19.871 6h3.16l3.786 5.645a2 2 0 0 0 1.828.878c2.329-.192 5.278-1.169 8.094-1.793 1.407-.311 2.748-.53 3.742-.558.994-.028 1.52.21 1.511.203a2 2 0 0 0 .528.32c1.157.482 1.354.72 1.465 2.23.102 1.391-.427 4.036-1.36 7.391-.105.051-.149.078-.281.137-.654.295-1.587.672-2.531 1.059-.945.387-1.897.781-2.696 1.172a8.54 8.54 0 0 0-1.109.625 3.275 3.275 0 0 0-.574.48c-.213.225-.541.56-.633 1.305-.06.48-.033.607-.023 1.07.009.468.034 1.08.093 1.8a33.46 33.46 0 0 0 .864 5.325c.88 3.522 2.664 7.493 6.152 9.852a27.31 27.31 0 0 1-.934 1.914c-1.033 1.936-2.535 4.512-4.058 7.144-1.523 2.633-3.069 5.32-4.223 7.578-.577 1.13-1.056 2.146-1.398 3.047-.343.902-.733 1.516-.454 2.836v.004c.365 1.716 1.346 2.983 2.106 4.176.204.32.308.505.465.762-.19.174-.292.254-.543.48a66.265 66.265 0 0 1-2.762 2.363c-1.008.809-2.058 1.567-2.89 2.04-.615.349-1.135.418-1.184.472.043-.005-.32-.128-.906-.414a101.12 101.12 0 0 1-2.602-1.336c-2.06-1.087-4.662-2.497-7.277-3.863-2.615-1.367-5.234-2.688-7.395-3.63-1.08-.47-2.04-.846-2.898-1.093a6.732 6.732 0 0 0-1.274-.258c-.444-.04-.964-.097-1.695.297-2.152 1.163-3.554 3.249-4.738 5.172-.929 1.508-1.425 2.55-1.809 3.305-.33-.042-.652-.078-1.18-.188-1.47-.307-3.495-.842-5.566-1.383-2.07-.54-4.188-1.087-5.98-1.425-.897-.17-1.709-.292-2.465-.32-.366-.015-.833.258-1.227.308a5.362 5.362 0 0 1-.703-.442c-.716-.517-1.712-1.382-2.672-2.28-1.625-1.522-2.722-2.699-3.16-3.16.101-.748.317-1.952.219-4.138-.062-1.385-.243-2.865-.758-4.27-.515-1.403-1.462-2.85-3.094-3.538a1.965 1.965 0 0 0-.191-.07c-1.716-.528-1.93-.958-2.223-1.915-.293-.956-.285-2.612-.48-4.632-.196-2.02-.698-4.454-2.356-6.77-1.436-2.006-3.89-3.816-7.27-5.437.15-.327.273-.622.555-1.098.833-1.405 2.144-3.253 3.485-5.086 1.34-1.833 2.71-3.654 3.73-5.145.51-.745.932-1.396 1.25-2.015.16-.31.298-.6.403-1.012.016-.064-.081-.243-.063-.324.328-.242.998-.615 1.816-.902 1.69-.594 3.868-.773 5.336-.043a2 2 0 0 0 .891.207c1.213 0 2.376-.753 2.969-1.649.592-.896.822-1.89.894-2.945.127-1.84-.49-3.987-1.414-6.13 0-.954.115-1.551.211-1.804.096-.252.067-.184.172-.242.204-.112 1.507-.276 3.59-.285.771 6.521 5.041 14.065 9.18 20.52 4.569 7.125 9.132 12.738 9.132 12.738a2.001 2.001 0 0 0 3.09.011s4.569-5.516 9.14-12.597c4.152-6.43 8.436-14.017 9.192-20.676Zm-46.156 9.059.371.09c-.137-.014-.273-.026-.41-.075.016-.004.027-.015.04-.015Zm-8.027 3.96c.006.075.032.162.027.227-.013.165-.055.194-.09.293.025-.167.052-.34.063-.52ZM35 54a5 5 0 1 0 0 10 5 5 0 0 0 0-10Zm-6.199 35.098c.183.014.197.036.188.035-.264.035-.501 0-.774.066.242-.077.463-.11.586-.101Zm-1.074.34c-.012.009-.023.01-.035.019v-.004c.011-.009.023-.007.035-.016Z"/></symbol><symbol viewBox="0 0 23 28" id="map-icon"><path d="M11.5 0C5.149 0 0 5.164 0 11.535c0 7.586 7.477 11.114 8.413 11.96.956.863 1.746 2.593 2.067 3.69.154.533.59.803 1.02.815.432-.012.866-.282 1.02-.814.32-1.096 1.109-2.828 2.067-3.692.936-.845 8.413-4.373 8.413-11.96C23 5.165 17.851 0 11.5 0Zm0 8.24a3.29 3.29 0 0 1 3.286 3.295A3.29 3.29 0 0 1 11.5 14.83a3.29 3.29 0 0 1-3.286-3.295A3.29 3.29 0 0 1 11.5 8.239Z"/></symbol><symbol viewBox="0 0 44 44" id="market"><g clip-path="url(#azclip0_300_2215)"><path d="M8.8 5.867a2.933 2.933 0 0 0-2.933 2.934v5.866l-4.4 5.867a2.933 2.933 0 1 0 5.866 0l2.934-5.867h4.4L13.2 20.534a2.933 2.933 0 1 0 5.867 0v-5.867h5.866v5.867a2.932 2.932 0 1 0 5.867 0l-1.466-5.867h4.4l2.933 5.867a2.933 2.933 0 1 0 5.866 0l-4.4-5.867V8.801A2.933 2.933 0 0 0 35.2 5.867H8.8Zm1.467 2.934a1.467 1.467 0 1 1-.001 2.934 1.467 1.467 0 0 1 0-2.934Zm5.867 0a1.467 1.467 0 1 1-.002 2.934 1.467 1.467 0 0 1 .002-2.934ZM5.867 26.4v8.8A2.933 2.933 0 0 0 8.8 38.133l15.06-.003.266-2.93H8.8v-8.8H5.867Zm23.2 1.466c-.758 0-1.392.577-1.46 1.332l-1.201 13.2a1.468 1.468 0 0 0 1.46 1.602h14.667c.863 0 1.54-.742 1.461-1.602l-1.2-13.2a1.466 1.466 0 0 0-1.46-1.332H29.066Zm3.2 2.933c.81 0 1.466.658 1.466 1.467a1.47 1.47 0 0 0 1.467 1.467 1.47 1.47 0 0 0 1.467-1.467 1.467 1.467 0 0 1 2.933 0c0 2.426-1.974 4.4-4.4 4.4a4.405 4.405 0 0 1-4.4-4.4c0-.81.657-1.467 1.467-1.467Z"/></g><defs><clipPath id="azclip0_300_2215"><rect width="44" height="44"/></clipPath></defs></symbol><symbol viewBox="0 0 28 28" id="meeting"><path d="M2.058 2.403a.875.875 0 0 0-.123 1.744C4.107 4.409 6 5.163 7.378 6.358 8.757 7.554 9.653 9.18 9.852 11.37c.016.171.081.334.188.467l2.794 3.492c.018.023.026-.005-.001.005l-2.331.815a.875.875 0 0 0-.586.826v3.64c0 .38-.238.71-.598.83l-3.255 1.084a2.048 2.048 0 0 0-1.397 1.937v.325a.875.875 0 1 0 1.75 0v-.325c0-.13.077-.235.2-.276l3.256-1.086a2.63 2.63 0 0 0 1.794-2.49v-3.018l1.746-.611c1.114-.39 1.527-1.827.79-2.75L11.54 10.91c-.297-2.453-1.386-4.458-3.016-5.872-1.7-1.474-3.932-2.332-6.38-2.627a.874.874 0 0 0-.086-.007Zm19.807 10.43a.875.875 0 0 0-.848.703l-1.756 8.78-1.24-3.1a.876.876 0 0 0-.813-.55h-2.333a.875.875 0 1 0 0 1.75h1.74L18.73 25.7a.875.875 0 0 0 1.67-.153l1.756-8.78 1.24 3.1a.875.875 0 0 0 .813.55h2.333a.873.873 0 0 0 .888-.876.874.874 0 0 0-.888-.875h-1.74l-2.114-5.283a.875.875 0 0 0-.822-.55Z"/></symbol><symbol viewBox="0 0 12 13" id="metro-icon"><g opacity="0.3"><path d="m11.093 9.499-2.759-7.16L6 6.524 3.676 2.34.908 9.499H.096v1.085h4.176V9.499h-.624l.605-1.783L6 10.661l1.748-2.945.605 1.783h-.624v1.085h4.176V9.499h-.812Z"/></g></symbol><symbol viewBox="0 0 28 28" id="mute"><g clip-path="url(#bcclip0_101_4612)"><path d="M17.294 3.56c-.077 0-.154.005-.232.016a1.624 1.624 0 0 0-.863.391v.002l-5.38 4.781h-3.86a2.638 2.638 0 0 0-2.625 2.625v5.25a2.638 2.638 0 0 0 2.625 2.625h3.86l5.38 4.782a1.657 1.657 0 0 0 1.753.27c.54-.242.965-.818.965-1.49V5.189c0-.672-.424-1.248-.964-1.49a1.623 1.623 0 0 0-.66-.14Zm-.127 1.889v17.103l-5.434-4.83a.875.875 0 0 0-.581-.222H6.959a.862.862 0 0 1-.875-.875v-5.25c0-.493.381-.875.875-.875h4.193c.214 0 .42-.078.58-.22l5.435-4.831Zm10.2 5.039a.875.875 0 0 0-.61.269l-2.006 2.006-2.007-2.006a.875.875 0 1 0-1.237 1.237L23.513 14l-2.006 2.007a.875.875 0 1 0 1.237 1.237l2.007-2.006 2.006 2.006a.874.874 0 1 0 1.237-1.237L25.988 14l2.006-2.006a.876.876 0 0 0-.626-1.506Z"/></g><defs><clipPath id="bcclip0_101_4612"><rect width="28" height="28"/></clipPath></defs></symbol><symbol viewBox="0 0 24 24" id="new-chair"><path d="M9.246 1.497c-.992 0-1.799.851-1.747 1.842l.396 7.503c.006.124.028.244.06.36a1.755 1.755 0 0 0-.956 1.548h-.252a.239.239 0 0 1-.25-.25V11H6.5a.5.5 0 0 0 .5-.5V10a.5.5 0 0 0-.5-.5H5a.5.5 0 0 0-.5.5v.5a.5.5 0 0 0 .497.499V12.5c0 .957.793 1.75 1.75 1.75H7v.008c0 .957.793 1.75 1.75 1.75h2.5v1.997H9.497a.75.75 0 0 0-.705.494l-.773 2.127a.998.998 0 1 0 1.408.518l.596-1.64h1.226v1.343a.998.998 0 1 0 1.656 1.072.999.999 0 0 0-.156-1.068v-1.346h1.224l.596 1.633a.998.998 0 1 0 1.411-.504l-.779-2.136a.75.75 0 0 0-.704-.493H12.75v-1.997h2.496c.958 0 1.75-.793 1.75-1.75v-.008h.257c.957 0 1.75-.793 1.75-1.75v-1.501a.5.5 0 0 0 .497-.499V10a.5.5 0 0 0-.5-.5h-1.5a.5.5 0 0 0-.5.5v.5a.5.5 0 0 0 .5.5h.003v1.5c0 .148-.102.25-.25.25h-.257c0-.67-.392-1.254-.954-1.547.032-.116.053-.237.06-.361l.394-7.502v-.001a1.762 1.762 0 0 0-1.747-1.842H9.246Zm0 1.5h5.502c.154 0 .257.11.25.264l-.394 7.502a.24.24 0 0 1-.25.237H9.642a.242.242 0 0 1-.25-.237L8.997 3.26c-.008-.154.095-.264.25-.264ZM8.75 12.5H15.245a.24.24 0 0 1 .25.25v1.508c0 .147-.102.25-.25.25H8.75a.239.239 0 0 1-.25-.25V12.75c0-.148.102-.25.25-.25Z"/></symbol><symbol viewBox="0 0 26 24" id="order-cart"><path d="M12.125.756c-.645 0-1.29.243-1.777.73L7 4.834H5.265l-.037-.2A2.634 2.634 0 0 0 2.649 2.5H1.042a.875.875 0 1 0 0 1.75h1.607c.425 0 .779.294.86.711l.174.912 1.88 9.879a3.802 3.802 0 0 0 3.726 3.082h10.922a3.801 3.801 0 0 0 3.726-3.082l1.88-9.88a.876.876 0 0 0-.859-1.038h-2.554l-2.813-2.815a2.322 2.322 0 0 0-3.264 0l-.946.946-1.479-1.478a2.506 2.506 0 0 0-1.777-.731Zm0 1.738a.76.76 0 0 1 .539.23l2.109 2.11H9.476l2.11-2.11a.761.761 0 0 1 .54-.23Zm5.833.593c.141 0 .283.057.396.17l1.576 1.576h-2.68l-.631-.63.945-.946a.556.556 0 0 1 .394-.17ZM5.6 6.583h16.313a.875.875 0 0 0 .287 0h1.702l-1.684 8.842a2.033 2.033 0 0 1-2.006 1.659H9.289c-.985 0-1.82-.691-2.006-1.66l-1.684-8.84ZM10.667 20a1.75 1.75 0 1 0 0 3.5 1.75 1.75 0 0 0 0-3.5Zm8.166 0a1.75 1.75 0 1 0 0 3.5 1.75 1.75 0 0 0 0-3.5Z"/></symbol><symbol viewBox="0 0 20 20" id="particles"><path d="M4.966 2.235a.625.625 0 0 0-.562.427l-.786 2.36-2.36.786a.625.625 0 0 0 0 1.186l2.36.787.786 2.36a.626.626 0 0 0 1.187 0l.786-2.36 2.36-.787a.625.625 0 0 0 0-1.186l-2.36-.786-.786-2.36a.625.625 0 0 0-.625-.427Zm8.131 3.75a.625.625 0 0 0-.57.433l-1.218 3.794-3.794 1.22a.625.625 0 0 0 0 1.189l3.794 1.219 1.219 3.794a.626.626 0 0 0 1.19 0l1.219-3.794 3.794-1.22a.625.625 0 0 0 0-1.189l-3.794-1.219-1.22-3.794a.626.626 0 0 0-.62-.433Zm-8.756 6.667a.625.625 0 0 0-.562.426l-.63 1.892-1.89.63a.625.625 0 0 0 0 1.186l1.89.63.63 1.891a.625.625 0 0 0 1.187 0l.63-1.891 1.891-.63a.626.626 0 0 0 0-1.187l-1.89-.63-.631-1.89a.625.625 0 0 0-.625-.427Z"/></symbol><symbol viewBox="0 0 20 20" id="phone"><path d="M3.5 2A1.5 1.5 0 0 0 2 3.5V5c0 1.15.15 2.263.43 3.326a13.022 13.022 0 0 0 9.244 9.244c1.063.28 2.177.43 3.326.43h1.5a1.5 1.5 0 0 0 1.5-1.5v-1.148a1.5 1.5 0 0 0-1.175-1.465l-3.223-.716a1.5 1.5 0 0 0-1.767 1.052l-.267.933c-.117.41-.555.643-.95.48a11.543 11.543 0 0 1-6.254-6.254c-.163-.395.07-.833.48-.95l.933-.267a1.5 1.5 0 0 0 1.052-1.767l-.716-3.223A1.5 1.5 0 0 0 4.648 2H3.5Zm13.22.22a.75.75 0 1 1 1.06 1.06L14.56 6.5h2.69a.75.75 0 1 1 0 1.5h-4.5a.75.75 0 0 1-.75-.75v-4.5a.75.75 0 1 1 1.5 0v2.69l3.22-3.22Z"/></symbol><symbol viewBox="0 0 12 12" id="phone-icon"><g opacity="0.3"><path clip-rule="evenodd" d="M1.2 2.1a.9.9 0 0 1 .9-.9h.688a.9.9 0 0 1 .879.705l.43 1.934a.9.9 0 0 1-.632 1.06l-.56.16a.427.427 0 0 0-.287.57A6.925 6.925 0 0 0 6.37 9.382c.237.098.5-.042.57-.288l.16-.56a.9.9 0 0 1 1.06-.631l1.934.43a.9.9 0 0 1 .705.878v.69a.9.9 0 0 1-.9.9H9c-.69 0-1.358-.09-1.995-.259a7.813 7.813 0 0 1-5.547-5.546A7.81 7.81 0 0 1 1.2 3v-.9Z"/></g></symbol><symbol viewBox="0 0 77 84" id="presentation"><path d="M10.5 0a10.5 10.5 0 1 0 0 21 10.5 10.5 0 0 0 0-21Zm34.945 3.452A3.5 3.5 0 0 0 42 7H28v7h16.912c.378.062.764.062 1.142 0H70v34.998H53.054a3.507 3.507 0 0 0-.773-.047 3.522 3.522 0 0 0-.383.047H39.081a3.503 3.503 0 0 0-1.162 0H28v7h6.016L28.103 79.65a3.502 3.502 0 1 0 6.794 1.695l6.337-25.347h8.532l6.337 25.347a3.502 3.502 0 1 0 6.794-1.695l-5.913-23.652H73.5a3.5 3.5 0 0 0 3.5-3.5V10.5A3.5 3.5 0 0 0 73.5 7H49a3.5 3.5 0 0 0-3.555-3.548ZM7 28c-3.868 0-7 3.133-7 7v45.382a3.619 3.619 0 0 0 3.616 3.617 3.62 3.62 0 0 0 3.61-3.377l1.53-22.989a1.748 1.748 0 0 1 3.486-.007l1.532 22.996A3.617 3.617 0 0 0 21 80.38V38.5c0-1.932 1.568-3.5 3.5-3.5H42a3.503 3.503 0 0 0 3.55-3.5A3.499 3.499 0 0 0 42 28H7Z"/></symbol><symbol viewBox="0 0 20 21" id="print"><g opacity="0.5"><path clip-rule="evenodd" d="M5 3.25c0-.966.784-1.75 1.75-1.75h6.5c.966 0 1.75.784 1.75 1.75v3.552c.377.046.752.097 1.126.153A2.212 2.212 0 0 1 18 9.153v4.097a2.25 2.25 0 0 1-2.25 2.25h-.241l.305 1.984a1.75 1.75 0 0 1-1.73 2.016H5.915a1.752 1.752 0 0 1-1.73-2.016l.307-1.984H4.25A2.25 2.25 0 0 1 2 13.25V9.153c0-1.082.775-2.034 1.874-2.198.374-.056.75-.107 1.127-.153L5 6.75v-3.5Zm8.5 3.397a41.533 41.533 0 0 0-7 0V3.25A.25.25 0 0 1 6.75 3h6.5a.25.25 0 0 1 .25.25v3.397ZM6.608 13a.25.25 0 0 0-.247.212l-.693 4.5a.25.25 0 0 0 .247.288h8.17a.251.251 0 0 0 .246-.288l-.692-4.5a.25.25 0 0 0-.247-.212H6.608Z"/></g></symbol><symbol viewBox="0 0 44 44" id="protect"><path d="M30.734 6.875c-8.937 0-13.062-2.75-13.062-2.75h-2.75s-4.125 2.75-13.063 2.75L.484 8.25V22c0 13.063 15.813 17.875 15.813 17.875S32.109 35.062 32.109 22V8.25l-1.375-1.375ZM15.294 27.5l-7.158-6.36 1.829-2.055 5.218 4.634 8.305-9.11 2.345 2.352L15.293 27.5Z"/></symbol><symbol viewBox="0 0 35 38" id="protected"><path d="M17.233 0C10.023 0 2.524 1.642 2.524 1.642l-.006.006A3.127 3.127 0 0 0 .711 2.745 3.187 3.187 0 0 0 0 4.75v9.5c0 16.463 15.7 23.345 15.7 23.345.468.265.996.405 1.533.405a3.107 3.107 0 0 0 1.526-.405h.006s15.7-6.881 15.7-23.345v-9.5c0-.733-.251-1.444-.711-2.01a3.128 3.128 0 0 0-1.813-1.098S24.442 0 17.233 0Zm9.4 9.5c.4 0 .8.154 1.107.464.612.619.612 1.62 0 2.239l-11.845 11.97a1.557 1.557 0 0 1-2.215 0l-5.41-5.467a1.594 1.594 0 0 1 0-2.239 1.553 1.553 0 0 1 2.216 0l4.302 4.348L25.524 9.964c.307-.31.707-.464 1.108-.464Z"/></symbol><symbol viewBox="0 0 44 44" id="quality"><path d="M19.555 4.125C9.683 4.125 1.68 12.128 1.68 22s8.003 17.875 17.875 17.875S37.43 31.872 37.43 22 29.427 4.125 19.555 4.125Zm7.456 20.836c-.264 4.553-2.73 7.232-3.75 7.191-1.022-.04-4.069-.266-6.113-.383-2.109-.12-4.257-1.555-4.257-1.555l-1.473-8.439c3.056-4.71 5.16-5.657 6.026-10.773 0 0 2.362-.16 2.721 2.493.235 1.74-.841 4.973-.841 4.973h5.337a2.361 2.361 0 0 1 2.362 2.352c.008 1.697.011 3.756-.012 4.141Z"/></symbol><symbol viewBox="0 0 28 28" id="reception"><path d="M10.5 2.333c-.899 0-1.684.369-2.184.932-.501.563-.732 1.28-.732 1.985 0 .705.23 1.421.732 1.984.5.564 1.285.932 2.185.932.899 0 1.684-.368 2.185-.932.5-.563.731-1.28.731-1.984 0-.705-.23-1.422-.731-1.985-.5-.563-1.286-.932-2.185-.932Zm0 1.75c.463 0 .698.142.878.344.18.202.29.507.29.823 0 .316-.11.62-.29.822-.18.203-.415.344-.877.344s-.698-.141-.878-.344a1.259 1.259 0 0 1-.289-.822c0-.316.11-.62.29-.823.18-.202.415-.344.877-.344ZM9.043 8.75a3.222 3.222 0 0 0-3.208 3.208V14H2.626a.875.875 0 1 0 0 1.75H3.5v7.291c0 1.117.924 2.042 2.041 2.042H22.46a2.055 2.055 0 0 0 2.042-2.042V15.75h.875a.877.877 0 0 0 .627-1.498.875.875 0 0 0-.627-.252h-3.209v-.875a2.638 2.638 0 0 0-2.625-2.625 2.638 2.638 0 0 0-2.625 2.625V14h-1.75v-2.042A3.222 3.222 0 0 0 11.96 8.75H9.042Zm0 1.75h2.917c.816 0 1.458.642 1.458 1.458V14H7.584v-2.042c0-.816.643-1.458 1.458-1.458Zm10.5 1.75c.494 0 .875.38.875.875V14h-1.75v-.875c0-.494.382-.875.875-.875Zm-14.291 3.5h17.5v7.291c0 .172-.12.292-.292.292H5.542a.279.279 0 0 1-.291-.292V15.75Z"/></symbol><symbol viewBox="0 0 24 24" id="remove"><path d="M10.4 2.4a.8.8 0 0 0-.811.8h-4.79a.8.8 0 1 0 0 1.6h14.4a.8.8 0 1 0 0-1.6h-4.788a.8.8 0 0 0-.811-.8h-3.2Zm-5.6 4v12.8a1.6 1.6 0 0 0 1.6 1.6h11.2a1.6 1.6 0 0 0 1.6-1.6V6.4H4.8Zm4.8 4c.204 0 .409.078.565.235L12 12.469l1.834-1.834a.8.8 0 1 1 1.131 1.131l-1.834 1.835 1.834 1.834a.8.8 0 1 1-1.13 1.131L12 14.732l-1.835 1.834a.798.798 0 0 1-1.13 0 .8.8 0 0 1 0-1.131l1.833-1.835-1.834-1.834A.8.8 0 0 1 9.6 10.4Z"/></symbol><symbol viewBox="0 0 24 24" id="right-arrow"><path clip-rule="evenodd" d="M12.793 3.793a1 1 0 0 0 0 1.414L18.586 11H3a1 1 0 1 0 0 2h15.586l-5.793 5.793a1 1 0 0 0 1.414 1.414l7.5-7.5a1 1 0 0 0 0-1.414l-7.5-7.5a1 1 0 0 0-1.414 0Z"/></symbol><symbol viewBox="0 0 20 21" id="share"><g opacity="0.5"><path d="M12.998 5a2.5 2.5 0 1 1 .703 1.737l-6.732 3.367c.041.262.041.53 0 .792l6.732 3.367a2.5 2.5 0 1 1-.67 1.341l-6.733-3.367a2.5 2.5 0 1 1 0-3.475l6.732-3.366A2.537 2.537 0 0 1 13 5Z"/></g></symbol><symbol viewBox="0 0 28 28" id="sofa"><path d="M6.548 5.25a3.646 3.646 0 0 0-3.632 3.632v1.78c-1.013.366-1.75 1.331-1.75 2.463v6.417c0 1.326 1.01 2.426 2.296 2.592l-.29.289A.875.875 0 1 0 4.41 23.66l1.493-1.493h16.192l1.494 1.493a.875.875 0 1 0 1.237-1.237l-.29-.29c1.286-.165 2.297-1.264 2.297-2.591v-6.417c0-1.132-.737-2.097-1.75-2.462v-1.78A3.646 3.646 0 0 0 21.45 5.25H6.548Zm0 1.75h14.903a1.87 1.87 0 0 1 1.882 1.882v1.78c-1.013.366-1.75 1.331-1.75 2.463v3.208H6.416v-3.208c0-1.132-.737-2.097-1.75-2.462v-1.78A1.87 1.87 0 0 1 6.548 7Zm-2.84 5.258a.872.872 0 0 0 .166 0c.452.04.792.402.792.867v4.083a.875.875 0 0 0 .875.875h16.917a.875.875 0 0 0 .875-.875v-4.083c0-.465.34-.826.792-.867a.872.872 0 0 0 .166 0c.452.04.792.402.792.867v6.417a.862.862 0 0 1-.875.875h-1.64a.87.87 0 0 0-.24 0H5.659a.876.876 0 0 0-.228 0H3.792a.862.862 0 0 1-.875-.875v-6.417c0-.465.34-.826.792-.867Z"/></symbol><symbol viewBox="0 0 60 60" id="sofa-icon"><path d="M14 10a8 8 0 0 0-8 8v4a8 8 0 0 1 8 8v4h32v-4a8 8 0 0 1 8-8v-4a8 8 0 0 0-8-8H14ZM6 26c-2.21 0-4 1.79-4 4v20a2 2 0 1 0 4 0v-2h48v2a2 2 0 1 0 4 0V30c0-2.21-1.79-4-4-4s-4 1.79-4 4v8H10v-8c0-2.21-1.79-4-4-4Z"/></symbol><symbol viewBox="0 0 11 14" id="triangle"><path d="M10.5 6.134a1 1 0 0 1 0 1.732l-9 5.196a1 1 0 0 1-1.5-.866V1.804A1 1 0 0 1 1.5.938l9 5.196Z"/></symbol><symbol viewBox="0 0 20 20" id="user"><path d="M10 8a3 3 0 1 0 0-6 3 3 0 0 0 0 6Zm-6.535 6.493a1.23 1.23 0 0 0 .41 1.412A9.957 9.957 0 0 0 10 18c2.31 0 4.438-.784 6.13-2.1.43-.333.605-.903.409-1.41a7.002 7.002 0 0 0-13.074.003Z"/></symbol><symbol viewBox="0 0 44 44" id="voice"><path d="M2.496 4.125v8.25h2.75v-5.5h5.5v-2.75h-8.25Zm35.75 0v8.25h-2.75v-5.5h-5.5v-2.75h8.25Zm-35.75 35.75v-8.25h2.75v5.5h5.5v2.75h-8.25Zm35.75 0v-8.25h-2.75v5.5h-5.5v2.75h8.25Zm-6.875-19.25-1.375-7.563h-.687l-1.375 6.876-.688-5.5h-1.375l-.687 5.683-1.375-.183L23.12 11h-.687l-.688 6.188-.687-4.125h-.688l-.687 3.437-.688-7.563h-1.375l-1.375 11.688h-.687l-.688-6.188h-1.375l-1.375 6.188-1.375.125-.687-3.563H9.37L8.684 20.9l-3.438.413v1.375l3.438.412.687 3.712h.688l.687-3.562 1.375.125 1.375 6.188h1.375l.688-6.188h.687l1.375 11.688h1.375l.688-7.563.687 3.438h.688l.687-4.125.688 6.187h.687l.688-8.938 1.375-.183.687 5.683h1.375l.688-5.5 1.375 6.875h.687l1.375-7.562 4.125-.688v-1.375l-4.125-.687Z"/></symbol></svg>