<svg style="display: none;" aria-hidden="true" xmlns="http://www.w3.org/2000/svg" xmlns:xlink="http://www.w3.org/1999/xlink"><symbol fill="none" viewBox="0 0 25 25" id="arrow-down"><g clip-path="url(#aclip0_300_299)"><path clip-rule="evenodd" d="M12.5 4.75a9.75 9.75 0 0 0-9.75 9.75 9.75 9.75 0 0 0 9.75 9.75 9.75 9.75 0 0 0 9.75-9.75 9.75 9.75 0 0 0-9.75-9.75Zm-.53 14.03a.75.75 0 0 0 1.06 0l3-3a.75.75 0 1 0-1.06-1.06l-1.72 1.72v-5.69a.75.75 0 1 0-1.5 0v5.69l-1.72-1.72a.75.75 0 0 0-1.06 1.06l3 3Z" fill="white"/></g><defs><clipPath id="aclip0_300_299"><rect width="24" height="24" transform="translate(0.5 0.5)"/></clipPath></defs></symbol><symbol viewBox="0 0 28 28" id="chair"><g opacity="0.6"><path d="M10.787 1.746A2.056 2.056 0 0 0 8.75 3.895v.001l.461 8.752c.008.145.033.285.07.42a2.048 2.048 0 0 0-1.114 1.806h-.294a.279.279 0 0 1-.292-.291v-1.75h.003a.583.583 0 0 0 .584-.584v-.583a.584.584 0 0 0-.584-.583h-1.75a.584.584 0 0 0-.583.583v.583c0 .321.26.58.58.583v1.75c0 1.118.925 2.043 2.042 2.043h.294v.009c0 1.117.924 2.041 2.041 2.041h2.917v2.33H11.08a.874.874 0 0 0-.823.577l-.902 2.481a1.165 1.165 0 1 0 1.643.604l.695-1.912h1.43v1.566a1.164 1.164 0 1 0 1.75.004v-1.57h1.428l.697 1.905a1.162 1.162 0 1 0 1.646-.588l-.91-2.491a.875.875 0 0 0-.82-.576h-2.04v-2.33h2.912a2.055 2.055 0 0 0 2.042-2.041v-.01h.299a2.055 2.055 0 0 0 2.042-2.041v-1.751a.583.583 0 0 0 .58-.583v-.583a.584.584 0 0 0-.583-.583h-1.75a.584.584 0 0 0-.584.583v.583c0 .322.261.584.584.584h.003v1.75c0 .172-.12.291-.292.291h-.299c0-.782-.458-1.462-1.113-1.804.037-.136.061-.276.069-.422l.46-8.752v-.001a2.056 2.056 0 0 0-2.038-2.149h-6.419Zm0 1.75h6.42c.178 0 .299.129.29.308l-.46 8.752a.281.281 0 0 1-.291.277h-5.497a.282.282 0 0 1-.292-.277l-.46-8.752c-.01-.18.11-.308.29-.308Zm-.58 11.087h7.579a.28.28 0 0 1 .292.291v1.76c0 .172-.12.291-.292.291h-7.579a.279.279 0 0 1-.291-.291v-1.76c0-.172.12-.291.291-.291Z"/></g></symbol><symbol viewBox="0 0 28 28" id="container"><g opacity="0.6"><path d="M6.126 4.083a3.222 3.222 0 0 0-3.208 3.208v3.357a.875.875 0 0 0 0 .284v5.55a.875.875 0 0 0 0 .283v3.36c0 1.451 1.001 2.639 2.333 3.03v1.053a.875.875 0 1 0 1.75 0v-.875h14v.875a.873.873 0 0 0 .875.888.876.876 0 0 0 .875-.888v-1.054c1.332-.39 2.333-1.578 2.333-3.03v-3.356a.877.877 0 0 0 0-.284v-5.55a.877.877 0 0 0 0-.283v-3.36a3.222 3.222 0 0 0-3.208-3.208H6.126Zm0 1.75h15.75c.816 0 1.458.643 1.458 1.458v2.625H4.668V7.291c0-.815.643-1.458 1.458-1.458ZM14.001 7a.875.875 0 1 0 0 1.75.875.875 0 0 0 0-1.75Zm-9.333 4.666h18.666v4.084H4.668v-4.084ZM14 12.833a.875.875 0 1 0 0 1.75.875.875 0 0 0 0-1.75ZM4.668 17.5h18.666v2.625a1.44 1.44 0 0 1-1.432 1.447.875.875 0 0 0-.166.011H6.27a.877.877 0 0 0-.172-.011 1.44 1.44 0 0 1-1.43-1.447V17.5ZM14 18.666a.875.875 0 1 0 0 1.75.875.875 0 0 0 0-1.75Z"/></g></symbol><symbol viewBox="0 0 28 28" id="director"><g opacity="0.6"><path d="M14.022 1.75a.875.875 0 0 0-.604.221l-2.09 1.859-1.762-1.32a.875.875 0 0 0-1.4.699V8.75c0 3.211 2.622 5.834 5.833 5.834 3.211 0 5.834-2.623 5.834-5.834V3.21a.875.875 0 0 0-1.4-.7L16.67 3.83l-2.09-1.858a.875.875 0 0 0-.559-.22ZM14 3.796l2.044 1.817a.875.875 0 0 0 1.107.045l.933-.7V7H9.916V4.96l.933.7a.875.875 0 0 0 1.106-.046L14 3.796ZM9.916 8.75h8.167a4.07 4.07 0 0 1-4.084 4.084A4.07 4.07 0 0 1 9.916 8.75Zm-2.625 8.167a2.638 2.638 0 0 0-2.625 2.625v.7c0 1.715 1.088 3.254 2.747 4.312 1.66 1.058 3.93 1.696 6.586 1.696 2.658 0 4.928-.638 6.587-1.696 1.659-1.058 2.747-2.597 2.747-4.313v-.7a2.638 2.638 0 0 0-2.625-2.624H7.29Zm0 1.75h13.417c.494 0 .875.381.875.875v.7c0 .97-.626 2-1.938 2.836-1.313.837-3.272 1.422-5.646 1.422-2.373 0-4.333-.585-5.645-1.422-1.312-.837-1.938-1.865-1.938-2.837v-.7c0-.493.381-.874.875-.874Z"/></g></symbol><symbol viewBox="0 0 28 28" id="employees"><g opacity="0.6"><path d="M14 2.333c-3.212 0-5.834 2.622-5.834 5.833 0 3.212 2.622 5.834 5.833 5.834 3.212 0 5.834-2.622 5.834-5.834 0-3.211-2.622-5.833-5.834-5.833Zm0 1.75a4.07 4.07 0 0 1 4.083 4.083 4.07 4.07 0 0 1-4.084 4.084 4.07 4.07 0 0 1-4.083-4.084 4.07 4.07 0 0 1 4.083-4.083Zm-7.013 12.25a2.334 2.334 0 0 0-2.321 2.32v.888c0 2.103 1.33 3.73 3.096 4.703 1.766.975 4.002 1.422 6.237 1.422 2.236 0 4.472-.447 6.238-1.422 1.506-.83 2.64-2.158 2.957-3.828h.14v-1.762c0-1.272-1.05-2.321-2.322-2.321H6.987Zm0 1.75h14.025c.325 0 .572.245.572.57v.013h-.001v.875c0 1.398-.785 2.396-2.191 3.172-1.406.776-3.399 1.203-5.393 1.203-1.994 0-3.986-.427-5.392-1.203-1.406-.776-2.191-1.774-2.191-3.172v-.887c0-.326.245-.571.57-.571Z"/></g></symbol><symbol viewBox="0 0 24 24" id="light"><path clip-rule="evenodd" d="M14.615 2.595a.75.75 0 0 1 .359.852l-1.992 7.303h7.268a.75.75 0 0 1 .548 1.262l-10.5 11.25a.75.75 0 0 1-1.272-.71l1.992-7.302H3.75a.751.751 0 0 1-.548-1.262l10.5-11.25a.75.75 0 0 1 .913-.143Z"/></symbol><symbol viewBox="0 0 28 28" id="meeting"><g opacity="0.6"><path d="M2.058 2.403a.875.875 0 0 0-.123 1.744C4.107 4.409 6 5.163 7.378 6.358 8.757 7.554 9.653 9.18 9.852 11.37c.016.171.081.334.188.467l2.794 3.492c.018.023.026-.005-.001.005l-2.331.815a.875.875 0 0 0-.586.826v3.64c0 .38-.238.71-.598.83l-3.255 1.084a2.048 2.048 0 0 0-1.397 1.937v.325a.875.875 0 1 0 1.75 0v-.325c0-.13.077-.235.2-.276l3.256-1.086a2.63 2.63 0 0 0 1.794-2.49v-3.018l1.746-.611c1.114-.39 1.527-1.827.79-2.75L11.54 10.91c-.297-2.453-1.386-4.458-3.016-5.872-1.7-1.474-3.932-2.332-6.38-2.627a.874.874 0 0 0-.086-.007Zm19.807 10.43a.875.875 0 0 0-.848.703l-1.756 8.78-1.24-3.1a.876.876 0 0 0-.813-.55h-2.333a.875.875 0 1 0 0 1.75h1.74L18.73 25.7a.875.875 0 0 0 1.67-.153l1.756-8.78 1.24 3.1a.875.875 0 0 0 .813.55h2.333a.873.873 0 0 0 .888-.876.874.874 0 0 0-.888-.875h-1.74l-2.114-5.283a.875.875 0 0 0-.822-.55Z"/></g></symbol><symbol viewBox="0 0 28 28" id="mute"><g opacity="0.6" clip-path="url(#hclip0_2412_406)"><path d="M17.294 3.56c-.077 0-.154.005-.232.016a1.624 1.624 0 0 0-.863.391v.002l-5.38 4.781h-3.86a2.638 2.638 0 0 0-2.625 2.625v5.25a2.638 2.638 0 0 0 2.625 2.625h3.86l5.38 4.782a1.657 1.657 0 0 0 1.753.27c.54-.242.965-.818.965-1.49V5.189c0-.672-.424-1.248-.964-1.49a1.623 1.623 0 0 0-.66-.14Zm-.127 1.889v17.103l-5.434-4.83a.875.875 0 0 0-.581-.222H6.959a.862.862 0 0 1-.875-.875v-5.25c0-.493.381-.875.875-.875h4.193c.214 0 .42-.078.58-.22l5.435-4.831Zm10.2 5.039a.875.875 0 0 0-.61.269l-2.006 2.006-2.007-2.006a.875.875 0 1 0-1.237 1.237L23.513 14l-2.006 2.007a.875.875 0 1 0 1.237 1.237l2.007-2.006 2.006 2.006a.874.874 0 1 0 1.237-1.237L25.988 14l2.006-2.006a.876.876 0 0 0-.626-1.506Z"/></g><defs><clipPath id="hclip0_2412_406"><rect width="28" height="28"/></clipPath></defs></symbol><symbol viewBox="0 0 24 24" id="new-chair"><path d="M9.246 1.497c-.992 0-1.799.851-1.747 1.842l.396 7.503c.006.124.028.244.06.36a1.755 1.755 0 0 0-.956 1.548h-.252a.239.239 0 0 1-.25-.25V11H6.5a.5.5 0 0 0 .5-.5V10a.5.5 0 0 0-.5-.5H5a.5.5 0 0 0-.5.5v.5a.5.5 0 0 0 .497.499V12.5c0 .957.793 1.75 1.75 1.75H7v.008c0 .957.793 1.75 1.75 1.75h2.5v1.997H9.497a.75.75 0 0 0-.705.494l-.773 2.127a.998.998 0 1 0 1.408.518l.596-1.64h1.226v1.343a.998.998 0 1 0 1.656 1.072.999.999 0 0 0-.156-1.068v-1.346h1.224l.596 1.633a.998.998 0 1 0 1.411-.504l-.779-2.136a.75.75 0 0 0-.704-.493H12.75v-1.997h2.496c.958 0 1.75-.793 1.75-1.75v-.008h.257c.957 0 1.75-.793 1.75-1.75v-1.501a.5.5 0 0 0 .497-.499V10a.5.5 0 0 0-.5-.5h-1.5a.5.5 0 0 0-.5.5v.5a.5.5 0 0 0 .5.5h.003v1.5c0 .148-.102.25-.25.25h-.257c0-.67-.392-1.254-.954-1.547.032-.116.053-.237.06-.361l.394-7.502v-.001a1.762 1.762 0 0 0-1.747-1.842H9.246Zm0 1.5h5.502c.154 0 .257.11.25.264l-.394 7.502a.24.24 0 0 1-.25.237H9.642a.242.242 0 0 1-.25-.237L8.997 3.26c-.008-.154.095-.264.25-.264ZM8.75 12.5H15.245a.24.24 0 0 1 .25.25v1.508c0 .147-.102.25-.25.25H8.75a.239.239 0 0 1-.25-.25V12.75c0-.148.102-.25.25-.25Z"/></symbol><symbol viewBox="0 0 28 28" id="order-cart"><path d="M13.125 1.756c-.645 0-1.29.243-1.777.73L8 5.833H6.265l-.037-.199A2.634 2.634 0 0 0 3.649 3.5H2.042a.875.875 0 1 0 0 1.75h1.607c.425 0 .779.294.86.711l.174.912 1.88 9.879a3.802 3.802 0 0 0 3.726 3.082h10.922a3.801 3.801 0 0 0 3.726-3.082l1.88-9.88a.876.876 0 0 0-.859-1.038h-2.554l-2.813-2.815a2.322 2.322 0 0 0-3.264 0l-.946.946-1.479-1.478a2.506 2.506 0 0 0-1.777-.731Zm0 1.738a.76.76 0 0 1 .539.23l2.109 2.11h-5.297l2.11-2.11a.761.761 0 0 1 .54-.23Zm5.833.593c.141 0 .283.057.396.17l1.576 1.577h-2.68l-.631-.632.945-.945a.556.556 0 0 1 .394-.17ZM6.6 7.584h16.313a.875.875 0 0 0 .287 0h1.702l-1.684 8.84a2.033 2.033 0 0 1-2.006 1.66H10.289c-.985 0-1.82-.691-2.006-1.66l-1.684-8.84ZM11.667 21a1.75 1.75 0 1 0 0 3.5 1.75 1.75 0 0 0 0-3.5Zm8.166 0a1.75 1.75 0 1 0 0 3.5 1.75 1.75 0 0 0 0-3.5Z" fill-opacity="0.6"/></symbol><symbol viewBox="0 0 20 20" id="particles"><path d="M4.966 2.235a.625.625 0 0 0-.562.427l-.786 2.36-2.36.786a.625.625 0 0 0 0 1.186l2.36.787.786 2.36a.626.626 0 0 0 1.187 0l.786-2.36 2.36-.787a.625.625 0 0 0 0-1.186l-2.36-.786-.786-2.36a.625.625 0 0 0-.625-.427Zm8.131 3.75a.625.625 0 0 0-.57.433l-1.218 3.794-3.794 1.22a.625.625 0 0 0 0 1.189l3.794 1.219 1.219 3.794a.626.626 0 0 0 1.19 0l1.219-3.794 3.794-1.22a.625.625 0 0 0 0-1.189l-3.794-1.219-1.22-3.794a.626.626 0 0 0-.62-.433Zm-8.756 6.667a.625.625 0 0 0-.562.426l-.63 1.892-1.89.63a.625.625 0 0 0 0 1.186l1.89.63.63 1.891a.625.625 0 0 0 1.187 0l.63-1.891 1.891-.63a.626.626 0 0 0 0-1.187l-1.89-.63-.631-1.89a.625.625 0 0 0-.625-.427Z"/></symbol><symbol viewBox="0 0 28 28" id="reception"><g opacity="0.6"><path d="M10.5 2.333c-.899 0-1.684.369-2.184.932-.501.563-.732 1.28-.732 1.985 0 .705.23 1.421.732 1.984.5.564 1.285.932 2.185.932.899 0 1.684-.368 2.185-.932.5-.563.731-1.28.731-1.984 0-.705-.23-1.422-.731-1.985-.5-.563-1.286-.932-2.185-.932Zm0 1.75c.463 0 .698.142.878.344.18.202.29.507.29.823 0 .316-.11.62-.29.822-.18.203-.415.344-.877.344s-.698-.141-.878-.344a1.259 1.259 0 0 1-.289-.822c0-.316.11-.62.29-.823.18-.202.415-.344.877-.344ZM9.043 8.75a3.222 3.222 0 0 0-3.208 3.208V14H2.626a.875.875 0 1 0 0 1.75H3.5v7.291c0 1.117.924 2.042 2.041 2.042H22.46a2.055 2.055 0 0 0 2.042-2.042V15.75h.875a.877.877 0 0 0 .627-1.498.875.875 0 0 0-.627-.252h-3.209v-.875a2.638 2.638 0 0 0-2.625-2.625 2.638 2.638 0 0 0-2.625 2.625V14h-1.75v-2.042A3.222 3.222 0 0 0 11.96 8.75H9.042Zm0 1.75h2.917c.816 0 1.458.642 1.458 1.458V14H7.584v-2.042c0-.816.643-1.458 1.458-1.458Zm10.5 1.75c.494 0 .875.38.875.875V14h-1.75v-.875c0-.494.382-.875.875-.875Zm-14.291 3.5h17.5v7.291c0 .172-.12.292-.292.292H5.542a.279.279 0 0 1-.291-.292V15.75Z"/></g></symbol><symbol viewBox="0 0 28 28" id="sofa"><g opacity="0.6"><path d="M6.548 5.25a3.646 3.646 0 0 0-3.632 3.632v1.78c-1.013.366-1.75 1.331-1.75 2.463v6.417c0 1.326 1.01 2.426 2.296 2.592l-.29.289A.875.875 0 1 0 4.41 23.66l1.493-1.493h16.192l1.494 1.493a.875.875 0 1 0 1.237-1.237l-.29-.29c1.286-.165 2.297-1.264 2.297-2.591v-6.417c0-1.132-.737-2.097-1.75-2.462v-1.78A3.646 3.646 0 0 0 21.45 5.25H6.548Zm0 1.75h14.903a1.87 1.87 0 0 1 1.882 1.882v1.78c-1.013.366-1.75 1.331-1.75 2.463v3.208H6.416v-3.208c0-1.132-.737-2.097-1.75-2.462v-1.78A1.87 1.87 0 0 1 6.548 7Zm-2.84 5.258a.872.872 0 0 0 .166 0c.452.04.792.402.792.867v4.083a.875.875 0 0 0 .875.875h16.917a.875.875 0 0 0 .875-.875v-4.083c0-.465.34-.826.792-.867a.872.872 0 0 0 .166 0c.452.04.792.402.792.867v6.417a.862.862 0 0 1-.875.875h-1.64a.87.87 0 0 0-.24 0H5.659a.876.876 0 0 0-.228 0H3.792a.862.862 0 0 1-.875-.875v-6.417c0-.465.34-.826.792-.867Z"/></g></symbol></svg>
