<svg width="20" height="42" viewBox="0 0 20 42" fill="none" xmlns="http://www.w3.org/2000/svg">
<path d="M17.0313 35.8833C17.8167 37.1275 19.2552 39.777 19.4146 40.9231C19.4304 41.0379 19.4235 41.1548 19.3942 41.267C19.3648 41.3791 19.3137 41.4844 19.2437 41.5768C19.1737 41.6692 19.0862 41.7469 18.9862 41.8055C18.8861 41.8641 18.7755 41.9024 18.6607 41.9183C18.4287 41.9502 18.1936 41.8888 18.0069 41.7474C17.9145 41.6774 17.8368 41.5899 17.7782 41.4898C17.7196 41.3898 17.6813 41.2792 17.6655 41.1644C17.5298 40.1883 16.1759 37.8207 15.4636 36.739C15.2596 36.4993 15.007 36.2251 14.7404 35.9426C13.9168 36.7537 12.4118 37.7935 10.3513 37.3102C7.54526 36.6521 5.25311 34.2291 5.15658 34.1267C4.97609 33.9339 4.89167 33.6699 4.9266 33.4089C4.96194 33.1462 5.11096 32.9131 5.33583 32.7737C5.42917 32.7159 7.51763 31.4551 10.8602 32.0158C10.2661 31.3968 9.70339 30.7637 9.18488 30.1234C8.32236 30.5412 6.7738 31.0326 4.74406 30.5565C1.34259 29.7587 0.560541 25.5712 0.528833 25.3934C0.449737 24.9461 0.72242 24.512 1.16094 24.3891C1.24152 24.3663 3.16083 23.8402 4.92127 24.2531C5.44584 24.3762 5.95583 24.6173 6.44518 24.9115C6.2822 24.3674 6.14785 23.8131 6.04212 23.2485C5.7138 23.2435 5.35814 23.2155 4.96834 23.1241C3.77409 22.844 2.43495 22.0887 1.78422 20.4033C0.893231 18.0959 1.20544 14.5927 1.22019 14.4448C1.24581 14.1616 1.4064 13.9089 1.65219 13.7653C1.89797 13.6218 2.20142 13.607 2.45759 13.7206C2.59746 13.7825 4.77321 14.7752 6.17853 16.4699C6.18438 16.4444 6.18691 16.4191 6.19288 16.3936C6.28382 16.0059 6.38185 15.6226 6.48755 15.2429C4.75047 13.8818 3.86222 12.2421 4.00287 10.5742C4.18442 8.42048 5.50766 6.24321 6.65979 5.13386C6.83794 4.96173 7.07955 4.87391 7.32767 4.89041C7.5719 4.90419 7.80414 5.02416 7.95915 5.21733C8.02312 5.29702 9.13983 6.77713 9.21985 9.49633C9.3938 9.27523 9.5829 9.06414 9.77405 8.85444L10.4577 5.93968C11.2875 2.40167 15.5388 0.726239 15.7191 0.657038C15.9492 0.5687 16.2089 0.578463 16.4269 0.688516C16.6479 0.797456 16.8126 0.994221 16.8822 1.23081C16.9207 1.36039 17.8014 4.43252 16.3123 6.7853C14.9322 8.96605 11.8477 9.84955 11.0741 10.0445C10.758 10.3916 10.4671 10.7608 10.2002 11.1514C11.5145 10.479 12.828 10.2222 13.654 10.0654C13.9481 10.0093 14.2495 10.1047 14.4562 10.3209C14.6634 10.5353 14.7465 10.8421 14.6784 11.1325C14.3731 12.4341 13.9545 14.2166 12.3286 15.7614C10.8554 17.162 8.87819 17.4397 7.7845 17.4803C7.61305 18.3978 7.52892 19.308 7.52746 20.2066C8.07833 19.4792 8.81851 18.855 9.76857 18.3582C10.1686 18.1484 10.6622 18.2772 10.9109 18.6509C10.9711 18.7421 12.3859 20.9064 11.6742 23.941C11.3584 25.2872 10.2957 26.3966 9.2614 27.1176C9.31328 27.2126 9.35544 27.3136 9.40945 27.4072C9.78562 28.0593 10.3411 28.7731 10.9698 29.5029C10.8184 28.0196 11.0237 26.7482 11.0398 26.6531C11.0831 26.3949 11.2396 26.1705 11.4656 26.0377C11.6915 25.9058 11.9657 25.8835 12.2093 25.9696C12.3321 26.0138 15.2292 27.0789 16.5451 29.4261C17.6166 31.3369 16.654 33.6756 16.0779 34.7692C16.4372 35.1526 16.7533 35.5231 17.0313 35.8833Z" fill="white"/>
</svg>
