<svg width="24" height="24" viewBox="0 0 24 24" fill="none" xmlns="http://www.w3.org/2000/svg"><g clip-path="url(#clip0_1434_113279)"><path d="M0 12C0 5.373 5.373 0 12 0s12 5.373 12 12-5.373 12-12 12S0 18.627 0 12Z" fill="#005FF9"/><path fill-rule="evenodd" clip-rule="evenodd" d="M5 11.98C5 8.131 8.14 5 12 5s7 3.131 7 6.98c0 .545-.046.987-.148 1.43l-.001.007c0 .002-.05.206-.079.295-.173.552-.486 1.011-.906 1.329a2.368 2.368 0 0 1-1.609.47 2.277 2.277 0 0 1-1.749-1.042 3.54 3.54 0 0 1-6.05-2.488A3.54 3.54 0 0 1 12 8.449a3.54 3.54 0 0 1 3.54 3.531v1.138c.004.664.45.936.832.966.38.03.886-.19 1.062-.911.087-.395.13-.796.13-1.193 0-3.06-2.496-5.549-5.564-5.549-3.069 0-5.565 2.49-5.565 5.55 0 3.059 2.496 5.548 5.565 5.548a5.553 5.553 0 0 0 3.004-.88l.016-.01.943 1.094-.02.013A6.973 6.973 0 0 1 12 18.96c-3.86 0-7-3.13-7-6.98Zm7 2.1a2.105 2.105 0 0 0 2.105-2.1 2.105 2.105 0 0 0-4.21 0c0 1.158.944 2.1 2.105 2.1Z" fill="#FF9E00"/></g><defs><clipPath id="clip0_1434_113279"><path fill="#fff" d="M0 0h24v24H0z"/></clipPath></defs></svg>