<svg width="16" height="16" viewBox="0 0 16 16" fill="none" xmlns="http://www.w3.org/2000/svg">
<g opacity="0.5">
<path fill-rule="evenodd" clip-rule="evenodd" d="M1.60156 2.79961C1.60156 2.48135 1.72799 2.17612 1.95304 1.95108C2.17808 1.72604 2.4833 1.59961 2.80156 1.59961H3.71996C3.99314 1.59949 4.25817 1.69259 4.47127 1.8635C4.68437 2.03442 4.83278 2.27293 4.89196 2.53961L5.46476 5.11801C5.53097 5.4165 5.48074 5.72901 5.32433 5.99173C5.16792 6.25444 4.91713 6.44755 4.62316 6.53161L3.87676 6.74521C3.54876 6.83881 3.36236 7.18921 3.49276 7.50521C3.95683 8.62714 4.6376 9.64654 5.49612 10.5051C6.35463 11.3636 7.37403 12.0443 8.49596 12.5084C8.81196 12.6388 9.16236 12.4524 9.25596 12.1244L9.46956 11.378C9.55363 11.084 9.74673 10.8333 10.0094 10.6768C10.2722 10.5204 10.5847 10.4702 10.8832 10.5364L13.4616 11.1092C13.7282 11.1684 13.9668 11.3168 14.1377 11.5299C14.3086 11.743 14.4017 12.008 14.4016 12.2812V13.1996C14.4016 13.5179 14.2751 13.8231 14.0501 14.0481C13.825 14.2732 13.5198 14.3996 13.2016 14.3996H12.0016C11.0824 14.3996 10.1912 14.2796 9.34076 14.0556C7.56561 13.5843 5.94663 12.652 4.64791 11.3533C3.34919 10.0545 2.41691 8.43556 1.94556 6.66041C1.71666 5.79202 1.60104 4.89766 1.60156 3.99961V2.79961Z" fill="black"/>
</g>
</svg>
