<svg width="12" height="12" viewBox="0 0 12 12" fill="none" xmlns="http://www.w3.org/2000/svg">
<g opacity="0.3">
<path fill-rule="evenodd" clip-rule="evenodd" d="M1.19922 2.1002C1.19922 1.8615 1.29404 1.63258 1.46282 1.4638C1.63161 1.29502 1.86053 1.2002 2.09922 1.2002H2.78802C2.9929 1.20011 3.19168 1.26993 3.3515 1.39812C3.51132 1.5263 3.62263 1.70518 3.66702 1.9052L4.09662 3.83899C4.14628 4.06287 4.1086 4.29725 3.9913 4.49428C3.87399 4.69132 3.68589 4.83615 3.46542 4.89919L2.90562 5.05939C2.65962 5.12959 2.51982 5.39239 2.61762 5.62939C2.96567 6.47085 3.47625 7.23539 4.12013 7.87928C4.76402 8.52317 5.52857 9.03374 6.37002 9.38179C6.60702 9.47959 6.86982 9.33979 6.94002 9.09379L7.10022 8.53399C7.16327 8.31352 7.30809 8.12543 7.50513 8.00812C7.70217 7.89081 7.93655 7.85314 8.16042 7.90279L10.0942 8.33239C10.2942 8.37678 10.4731 8.48809 10.6013 8.64791C10.7295 8.80774 10.7993 9.00652 10.7992 9.21139V9.90019C10.7992 10.1389 10.7044 10.3678 10.5356 10.5366C10.3668 10.7054 10.1379 10.8002 9.89922 10.8002H8.99922C8.30982 10.8002 7.64142 10.7102 7.00362 10.5422C5.67226 10.1887 4.45802 9.48947 3.48398 8.51543C2.50994 7.5414 1.81073 6.32716 1.45722 4.99579C1.28554 4.3445 1.19882 3.67374 1.19922 3.0002V2.1002Z" fill="white"/>
</g>
</svg>
