<svg width="20" height="21" viewBox="0 0 20 21" fill="none" xmlns="http://www.w3.org/2000/svg">
<g opacity="0.5">
<path fill-rule="evenodd" clip-rule="evenodd" d="M5 3.25C5 2.284 5.784 1.5 6.75 1.5H13.25C14.216 1.5 15 2.284 15 3.25V6.802C15.377 6.848 15.752 6.899 16.126 6.955C16.6499 7.036 17.1273 7.30247 17.4713 7.7059C17.8152 8.10932 18.0029 8.62286 18 9.153V13.25C18 13.8467 17.7629 14.419 17.341 14.841C16.919 15.2629 16.3467 15.5 15.75 15.5H15.509L15.814 17.484C15.8524 17.7334 15.8363 17.9881 15.767 18.2308C15.6977 18.4734 15.5767 18.6982 15.4124 18.8896C15.2481 19.0811 15.0443 19.2348 14.815 19.3402C14.5857 19.4455 14.3363 19.5 14.084 19.5H5.915C5.66267 19.5 5.41331 19.4455 5.18402 19.3402C4.95474 19.2348 4.75094 19.0811 4.58662 18.8896C4.42229 18.6982 4.30132 18.4734 4.232 18.2308C4.16268 17.9881 4.14665 17.7334 4.185 17.484L4.492 15.5H4.25C3.65326 15.5 3.08097 15.2629 2.65901 14.841C2.23705 14.419 2 13.8467 2 13.25V9.153C2 8.071 2.775 7.119 3.874 6.955C4.248 6.899 4.624 6.848 5.001 6.802L5 6.75V3.25ZM13.5 6.647C11.1708 6.45002 8.82918 6.45002 6.5 6.647V3.25C6.5 3.1837 6.52634 3.12011 6.57322 3.07322C6.62011 3.02634 6.6837 3 6.75 3H13.25C13.3163 3 13.3799 3.02634 13.4268 3.07322C13.4737 3.12011 13.5 3.1837 13.5 3.25V6.647ZM6.608 13C6.5483 13 6.49057 13.0214 6.44527 13.0603C6.39997 13.0992 6.37007 13.153 6.361 13.212L5.668 17.712C5.66252 17.7476 5.66481 17.784 5.6747 17.8186C5.6846 17.8533 5.70187 17.8854 5.72533 17.9128C5.74879 17.9401 5.77788 17.9621 5.81062 17.9771C5.84336 17.9922 5.87896 18 5.915 18H14.085C14.121 17.9998 14.1564 17.9919 14.1891 17.9768C14.2217 17.9617 14.2506 17.9397 14.274 17.9124C14.2973 17.885 14.3145 17.853 14.3244 17.8184C14.3342 17.7838 14.3365 17.7475 14.331 17.712L13.639 13.212C13.6299 13.153 13.6 13.0992 13.5547 13.0603C13.5094 13.0214 13.4517 13 13.392 13H6.608Z" fill="black"/>
</g>
</svg>
