<svg width="22" height="23" viewBox="0 0 22 23" fill="none" xmlns="http://www.w3.org/2000/svg">
<path d="M0 5.5C0 2.73858 2.23858 0.5 5 0.5H17C19.7614 0.5 22 2.73858 22 5.5V17.5C22 20.2614 19.7614 22.5 17 22.5H5C2.23858 22.5 0 20.2614 0 17.5V5.5Z" fill="#5CAB34"/>
<path d="M4.75 4.50195C4.65151 4.50195 4.55398 4.52135 4.46299 4.55904C4.37199 4.59674 4.28931 4.65198 4.21967 4.72162C4.15003 4.79127 4.09478 4.87395 4.05709 4.96494C4.0194 5.05594 4 5.15346 4 5.25195C4 5.35045 4.0194 5.44797 4.05709 5.53897C4.09478 5.62996 4.15003 5.71264 4.21967 5.78228C4.28931 5.85193 4.37199 5.90717 4.46299 5.94486C4.55398 5.98256 4.65151 6.00195 4.75 6.00195H6.585L7.825 11.115C7.01721 11.3209 6.30102 11.79 5.78947 12.4483C5.27792 13.1065 5.00015 13.9163 5 14.75C5 15.164 5.336 15.5 5.75 15.5H16.25C16.4489 15.5 16.6397 15.4209 16.7803 15.2803C16.921 15.1396 17 14.9489 17 14.75C17 14.551 16.921 14.3603 16.7803 14.2196C16.6397 14.079 16.4489 14 16.25 14H6.628C6.78313 13.5612 7.07052 13.1813 7.45056 12.9126C7.8306 12.644 8.2846 12.4998 8.75 12.5H15.25C15.419 12.5 15.5831 12.4429 15.7156 12.338C15.8481 12.233 15.9412 12.0865 15.98 11.922L16.826 8.32696C16.8489 8.22944 16.8521 8.12833 16.8353 8.02957C16.8185 7.93082 16.7821 7.83644 16.7282 7.75199C16.6743 7.66754 16.6041 7.59474 16.5216 7.53788C16.4391 7.48103 16.3461 7.44127 16.248 7.42095C13.616 6.87465 10.9395 6.57005 8.252 6.51095L7.904 5.07495C7.86427 4.91138 7.77068 4.76592 7.63827 4.66199C7.50585 4.55806 7.34233 4.50169 7.174 4.50195H4.75ZM8 17.5C8 17.7652 7.89464 18.0195 7.70711 18.2071C7.51957 18.3946 7.26522 18.5 7 18.5C6.73478 18.5 6.48043 18.3946 6.29289 18.2071C6.10536 18.0195 6 17.7652 6 17.5C6 17.2347 6.10536 16.9804 6.29289 16.7929C6.48043 16.6053 6.73478 16.5 7 16.5C7.26522 16.5 7.51957 16.6053 7.70711 16.7929C7.89464 16.9804 8 17.2347 8 17.5ZM16 17.5C16 17.7652 15.8946 18.0195 15.7071 18.2071C15.5196 18.3946 15.2652 18.5 15 18.5C14.7348 18.5 14.4804 18.3946 14.2929 18.2071C14.1054 18.0195 14 17.7652 14 17.5C14 17.2347 14.1054 16.9804 14.2929 16.7929C14.4804 16.6053 14.7348 16.5 15 16.5C15.2652 16.5 15.5196 16.6053 15.7071 16.7929C15.8946 16.9804 16 17.2347 16 17.5Z" fill="white"/>
</svg>
