<svg width="20" height="42" viewBox="0 0 20 42" fill="none" xmlns="http://www.w3.org/2000/svg">
<path d="M2.87642 35.8833C2.09098 37.1275 0.652507 39.777 0.493147 40.9231C0.477305 41.0379 0.48424 41.1548 0.513553 41.267C0.542867 41.3791 0.593987 41.4844 0.663993 41.5768C0.734 41.6692 0.821522 41.7469 0.921563 41.8055C1.0216 41.8641 1.13221 41.9024 1.24705 41.9183C1.47899 41.9502 1.71415 41.8888 1.90078 41.7474C1.99319 41.6774 2.0709 41.5899 2.12949 41.4898C2.18808 41.3898 2.22638 41.2792 2.24222 41.1644C2.37794 40.1883 3.73178 37.8207 4.44407 36.739C4.64808 36.4993 4.90076 36.2251 5.16727 35.9426C5.99096 36.7537 7.4959 37.7935 9.5564 37.3102C12.3625 36.6521 14.6546 34.2291 14.7511 34.1267C14.9316 33.9339 15.016 33.6699 14.9811 33.4089C14.9458 33.1462 14.7968 32.9131 14.5719 32.7737C14.4785 32.7159 12.3901 31.4551 9.04755 32.0158C9.64165 31.3968 10.2043 30.7637 10.7228 30.1234C11.5854 30.5412 13.1339 31.0326 15.1637 30.5565C18.5651 29.7587 19.3472 25.5712 19.3789 25.3934C19.458 24.9461 19.1853 24.512 18.7468 24.3891C18.6662 24.3663 16.7469 23.8402 14.9864 24.2531C14.4619 24.3762 13.9519 24.6173 13.4625 24.9115C13.6255 24.3674 13.7599 23.8131 13.8656 23.2485C14.1939 23.2435 14.5496 23.2155 14.9394 23.1241C16.1336 22.844 17.4728 22.0887 18.1235 20.4033C19.0145 18.0959 18.7023 14.5927 18.6875 14.4448C18.6619 14.1616 18.5013 13.9089 18.2555 13.7653C18.0097 13.6218 17.7063 13.607 17.4501 13.7206C17.3103 13.7825 15.1345 14.7752 13.7292 16.4699C13.7233 16.4444 13.7208 16.4191 13.7148 16.3936C13.6239 16.0059 13.5259 15.6226 13.4202 15.2429C15.1572 13.8818 16.0455 12.2421 15.9048 10.5742C15.7233 8.42048 14.4001 6.24321 13.2479 5.13386C13.0698 4.96173 12.8282 4.87391 12.58 4.89041C12.3358 4.90419 12.1036 5.02416 11.9486 5.21733C11.8846 5.29702 10.7679 6.77713 10.6879 9.49633C10.5139 9.27523 10.3248 9.06414 10.1337 8.85444L9.45001 5.93968C8.62018 2.40167 4.36895 0.726239 4.18865 0.657038C3.95855 0.5687 3.69882 0.578463 3.4808 0.688516C3.2598 0.797456 3.09513 0.994221 3.02553 1.23081C2.98704 1.36039 2.10629 4.43252 3.59539 6.7853C4.97554 8.96605 8.06 9.84955 8.83361 10.0445C9.14971 10.3916 9.44059 10.7608 9.70755 11.1514C8.39319 10.479 7.0797 10.2222 6.25374 10.0654C5.95959 10.0093 5.6582 10.1047 5.45148 10.3209C5.24435 10.5353 5.16122 10.8421 5.22933 11.1325C5.53463 12.4341 5.95319 14.2166 7.5791 15.7614C9.05227 17.162 11.0295 17.4397 12.1232 17.4803C12.2947 18.3978 12.3788 19.308 12.3802 20.2066C11.8294 19.4792 11.0892 18.855 10.1391 18.3582C9.73914 18.1484 9.24548 18.2772 8.99685 18.6509C8.93665 18.7421 7.52179 20.9064 8.23354 23.941C8.54929 25.2872 9.61204 26.3966 10.6463 27.1176C10.5944 27.2126 10.5523 27.3136 10.4983 27.4072C10.1221 28.0593 9.56657 28.7731 8.93791 29.5029C9.08929 28.0196 8.88399 26.7482 8.86789 26.6531C8.82457 26.3949 8.6681 26.1705 8.44207 26.0377C8.21624 25.9058 7.94203 25.8835 7.69846 25.9696C7.57559 26.0138 4.67849 27.0789 3.36265 29.4261C2.29107 31.3369 3.25367 33.6756 3.82982 34.7692C3.4705 35.1526 3.15446 35.5231 2.87642 35.8833Z" fill="white"/>
</svg>
