<svg width="22" height="23" viewBox="0 0 22 23" fill="none" xmlns="http://www.w3.org/2000/svg">
<path d="M0 5.5C0 2.73858 2.23858 0.5 5 0.5H17C19.7614 0.5 22 2.73858 22 5.5V17.5C22 20.2614 19.7614 22.5 17 22.5H5C2.23858 22.5 0 20.2614 0 17.5V5.5Z" fill="#5CAB34"/>
<path d="M10.9995 5.09961C10.8261 5.09961 10.6648 5.14529 10.5203 5.21836H10.5109L5.46615 7.8069C5.27095 7.88583 5.13281 8.07614 5.13281 8.29961C5.13281 8.52148 5.26891 8.71178 5.46198 8.79232V8.80273L10.5151 11.3829L10.5193 11.3809C10.6643 11.4545 10.8256 11.4996 10.9995 11.4996C11.1733 11.4996 11.3346 11.4545 11.4797 11.3809L11.4839 11.3829L16.537 8.80273V8.79232C16.73 8.71178 16.8661 8.52148 16.8661 8.29961C16.8661 8.07614 16.728 7.88583 16.5328 7.8069L11.488 5.21836H11.4786C11.3341 5.14529 11.1728 5.09961 10.9995 5.09961ZM6.45365 10.5007L5.46615 11.0069C5.27095 11.0858 5.13281 11.2761 5.13281 11.4996C5.13281 11.7215 5.26891 11.9118 5.46198 11.9923V12.0027L10.5151 14.5829L10.5193 14.5809C10.6643 14.6545 10.8256 14.6996 10.9995 14.6996C11.1733 14.6996 11.3346 14.6545 11.4797 14.5809L11.4839 14.5829L16.537 12.0027V11.9923C16.73 11.9118 16.8661 11.7215 16.8661 11.4996C16.8661 11.2761 16.728 11.0858 16.5328 11.0069L15.5453 10.5007C13.996 11.2937 11.8813 12.3728 11.8568 12.3819C11.5821 12.5046 11.2944 12.5663 10.9995 12.5663C10.7035 12.5663 10.4148 12.5041 10.1391 12.3809C10.1156 12.3723 8.00351 11.2943 6.45365 10.5007ZM6.45365 13.7007L5.46615 14.2069C5.27095 14.2858 5.13281 14.4761 5.13281 14.6996C5.13281 14.9215 5.26891 15.1118 5.46198 15.1923V15.2027L10.5151 17.7829L10.5193 17.7809C10.6643 17.8545 10.8256 17.8996 10.9995 17.8996C11.1733 17.8996 11.3346 17.8545 11.4797 17.7809L11.4839 17.7829L16.537 15.2027V15.1923C16.73 15.1118 16.8661 14.9215 16.8661 14.6996C16.8661 14.4761 16.728 14.2858 16.5328 14.2069L15.5453 13.7007C13.996 14.4937 11.8813 15.5728 11.8568 15.5819C11.5821 15.7046 11.2944 15.7663 10.9995 15.7663C10.7035 15.7663 10.4148 15.7041 10.1391 15.5809C10.1156 15.5723 8.00351 14.4943 6.45365 13.7007Z" fill="white"/>
</svg>
