<svg width="20" height="21" viewBox="0 0 20 21" fill="none" xmlns="http://www.w3.org/2000/svg">
<g opacity="0.5">
<path d="M12.9985 5.00001C12.9985 4.41977 13.2004 3.8576 13.5694 3.40986C13.9385 2.96212 14.4518 2.65671 15.0214 2.54596C15.5909 2.43522 16.1813 2.52604 16.6912 2.80287C17.2012 3.0797 17.599 3.52528 17.8164 4.06325C18.0338 4.60122 18.0573 5.19806 17.8829 5.75147C17.7085 6.30487 17.347 6.78038 16.8604 7.09647C16.3739 7.41257 15.7925 7.54957 15.216 7.48398C14.6394 7.4184 14.1037 7.15432 13.7005 6.73701L6.96852 10.104C7.0103 10.3664 7.0103 10.6337 6.96852 10.896L13.7015 14.263C14.1167 13.8336 14.6719 13.567 15.2667 13.5115C15.8614 13.456 16.4563 13.6153 16.9438 13.9606C17.4312 14.3058 17.7789 14.8142 17.924 15.3936C18.0691 15.973 18.0019 16.5852 17.7346 17.1194C17.4673 17.6536 17.0176 18.0744 16.4669 18.3057C15.9161 18.537 15.3008 18.5634 14.7323 18.3803C14.1637 18.1971 13.6796 17.8165 13.3674 17.3072C13.0552 16.798 12.9357 16.1938 13.0305 15.604L6.29752 12.237C5.95137 12.5951 5.50613 12.8417 5.01891 12.9451C4.53169 13.0484 4.02469 13.0039 3.56293 12.8172C3.10118 12.6306 2.70571 12.3102 2.42724 11.8972C2.14877 11.4843 2 10.9976 2 10.4995C2 10.0014 2.14877 9.51473 2.42724 9.10178C2.70571 8.68882 3.10118 8.36846 3.56293 8.18177C4.02469 7.99509 4.53169 7.95058 5.01891 8.05396C5.50613 8.15734 5.95137 8.4039 6.29752 8.76201L13.0305 5.39601C13.0095 5.26506 12.9988 5.13265 12.9985 5.00001Z" fill="black"/>
</g>
</svg>
