<svg width="18" height="18" viewBox="0 0 18 18" fill="none" xmlns="http://www.w3.org/2000/svg">
<path d="M12.7969 1.80005C12.1604 1.80005 11.5499 2.05291 11.0998 2.50299C10.6497 2.95308 10.3969 3.56353 10.3969 4.20005C10.3979 4.36875 10.4168 4.53687 10.4531 4.70161L5.00391 7.42622C4.77916 7.16747 4.5016 6.95986 4.1899 6.81735C3.87821 6.67484 3.5396 6.60075 3.19688 6.60005C2.56036 6.60005 1.94991 6.85291 1.49982 7.30299C1.04973 7.75308 0.796875 8.36353 0.796875 9.00005C0.796875 9.63657 1.04973 10.247 1.49982 10.6971C1.94991 11.1472 2.56036 11.4 3.19688 11.4C3.53971 11.3997 3.87849 11.3258 4.19039 11.1835C4.5023 11.0412 4.78009 10.8337 5.00508 10.575L10.4508 13.2985C10.4152 13.4633 10.3972 13.6314 10.3969 13.8C10.3969 14.4366 10.6497 15.047 11.0998 15.4971C11.5499 15.9472 12.1604 16.2 12.7969 16.2C13.4334 16.2 14.0438 15.9472 14.4939 15.4971C14.944 15.047 15.1969 14.4366 15.1969 13.8C15.1969 13.1635 14.944 12.5531 14.4939 12.103C14.0438 11.6529 13.4334 11.4 12.7969 11.4C12.454 11.4004 12.1153 11.4743 11.8034 11.6166C11.4915 11.7589 11.2137 11.9664 10.9887 12.225L5.54297 9.50161C5.57851 9.33678 5.59658 9.16867 5.59688 9.00005C5.59572 8.83174 5.57687 8.66402 5.54063 8.49966L10.9898 5.77505C11.2147 6.03359 11.4923 6.24098 11.804 6.38328C12.1157 6.52558 12.4542 6.5995 12.7969 6.60005C13.4334 6.60005 14.0438 6.34719 14.4939 5.89711C14.944 5.44702 15.1969 4.83657 15.1969 4.20005C15.1969 3.56353 14.944 2.95308 14.4939 2.50299C14.0438 2.05291 13.4334 1.80005 12.7969 1.80005Z" fill="black"/>
</svg>
