<svg width="24" height="24" viewBox="0 0 24 24" fill="none" xmlns="http://www.w3.org/2000/svg"><g clip-path="url(#clip0_1434_113260)"><path d="M12 24c6.627 0 12-5.373 12-12S18.627 0 12 0 0 5.373 0 12s5.373 12 12 12Z" fill="url(#paint0_linear_1434_113260)"/><path d="M4.469 12.587c1.403-.772 2.969-1.417 4.432-2.066 2.517-1.061 5.044-2.105 7.596-3.076.497-.165 1.39-.327 1.477.409-.048 1.042-.245 2.077-.38 3.113-.343 2.277-.74 4.547-1.127 6.817-.133.757-1.08 1.148-1.686.664-1.457-.984-2.925-1.958-4.363-2.965-.47-.478-.034-1.166.387-1.508 1.2-1.182 2.472-2.186 3.609-3.43.306-.74-.6-.116-.899.075-1.642 1.132-3.244 2.333-4.976 3.327-.884.487-1.915.071-2.8-.2-.792-.329-1.954-.66-1.27-1.16Z" fill="#fff"/></g><defs><linearGradient id="paint0_linear_1434_113260" x1="9.001" y1="1.001" x2="3.001" y2="15" gradientUnits="userSpaceOnUse"><stop stop-color="#37AEE2"/><stop offset="1" stop-color="#1E96C8"/></linearGradient><clipPath id="clip0_1434_113260"><path fill="#fff" d="M0 0h24v24H0z"/></clipPath></defs></svg>