<svg width="16" height="17" viewBox="0 0 16 17" fill="none" xmlns="http://www.w3.org/2000/svg">
<path d="M5.86615 1.56641L5.59844 3.42786L4.33698 5.77682C3.96525 6.46856 3.24341 6.89974 2.45781 6.89974H2.13281V13.8331H3.19948C3.88268 14.5163 4.80861 14.8997 5.77448 14.8997H11.1995C11.4824 14.8997 11.7537 14.7874 11.9537 14.5873C12.1538 14.3873 12.2661 14.116 12.2661 13.8331V13.2706C12.5669 13.2092 12.8372 13.0459 13.0316 12.8083C13.2259 12.5707 13.3323 12.2734 13.3328 11.9664C13.3323 11.6403 13.2122 11.3256 12.9953 11.082C13.2506 10.9876 13.4709 10.8173 13.6265 10.5941C13.7822 10.3708 13.8658 10.1053 13.8661 9.83307C13.8659 9.6259 13.8174 9.42164 13.7245 9.23649C13.6315 9.05133 13.4967 8.89038 13.3307 8.76641C13.4967 8.64243 13.6315 8.48148 13.7245 8.29633C13.8174 8.11117 13.8659 7.90691 13.8661 7.69974C13.8661 7.34612 13.7257 7.00698 13.4756 6.75693C13.2256 6.50688 12.8864 6.36641 12.5328 6.36641H7.46615C7.46615 6.36641 7.99948 4.62454 7.99948 4.23307C7.99948 3.03254 7.99948 1.56641 6.39948 1.56641H5.86615Z" fill="white"/>
</svg>
