<svg width="24" height="24" viewBox="0 0 24 24" fill="none" xmlns="http://www.w3.org/2000/svg"><g clip-path="url(#clip0_1434_113269)"><path d="M12 24c6.627 0 12-5.373 12-12S18.627 0 12 0 0 5.373 0 12s5.373 12 12 12Z" fill="#4D76A1"/><path fill-rule="evenodd" clip-rule="evenodd" d="M11.545 17.263h.942s.284-.031.43-.188c.133-.144.13-.413.13-.413s-.02-1.264.567-1.45c.579-.184 1.321 1.221 2.108 1.761.595.409 1.047.32 1.047.32l2.105-.03s1.1-.068.578-.933c-.042-.071-.304-.64-1.564-1.81-1.32-1.225-1.143-1.027.446-3.146.968-1.29 1.355-2.077 1.235-2.415-.116-.32-.828-.236-.828-.236l-2.369.015s-.175-.024-.306.054c-.127.076-.209.254-.209.254s-.375.998-.875 1.847c-1.055 1.792-1.477 1.886-1.65 1.775-.4-.26-.3-1.041-.3-1.597 0-1.736.263-2.46-.513-2.647-.258-.063-.447-.104-1.106-.11-.845-.01-1.56.002-1.966.2-.27.133-.477.427-.35.444.156.02.51.095.699.351.242.33.234 1.072.234 1.072s.14 2.044-.326 2.298c-.32.174-.757-.181-1.698-1.807-.482-.832-.846-1.752-.846-1.752s-.07-.172-.195-.264a.972.972 0 0 0-.364-.147l-2.252.014s-.338.01-.462.157c-.11.13-.008.4-.008.4s1.762 4.125 3.758 6.203c1.83 1.905 3.908 1.78 3.908 1.78Z" fill="#fff"/></g><defs><clipPath id="clip0_1434_113269"><path fill="#fff" d="M0 0h24v24H0z"/></clipPath></defs></svg>