<svg width="24" height="24" viewBox="0 0 24 24" fill="none" xmlns="http://www.w3.org/2000/svg"><g clip-path="url(#clip0_1434_113274)"><path d="M19.8 0H4.2A4.2 4.2 0 0 0 0 4.2v15.6A4.2 4.2 0 0 0 4.2 24h15.6a4.2 4.2 0 0 0 4.2-4.2V4.2A4.2 4.2 0 0 0 19.8 0Z" fill="url(#paint0_linear_1434_113274)"/><path d="m10.282 8.018.75 2.036a.287.287 0 0 1-.038.277 3.877 3.877 0 0 1-.555.642.3.3 0 0 0-.06.409c.462.618 1.658 2.118 3.214 2.655a.296.296 0 0 0 .334-.11l.622-.828a.3.3 0 0 1 .375-.086l1.95.975a.296.296 0 0 1 .15.375c-.213.607-.885 2.088-2.32 1.849A7.796 7.796 0 0 1 9.898 13.5c-1.177-1.47-3.502-5.25.072-5.677a.3.3 0 0 1 .31.195Z" fill="#fff"/><path d="M12.599 20.55a9.078 9.078 0 0 1-4.478-1.174l-4.5 1.155 1.654-3.716A8.25 8.25 0 0 1 3.749 12c0-4.714 3.97-8.55 8.85-8.55 4.878 0 8.85 3.836 8.85 8.55s-3.972 8.55-8.85 8.55Zm-4.242-2.786.274.169a7.549 7.549 0 0 0 3.968 1.125c4.053 0 7.35-3.162 7.35-7.05 0-3.889-3.297-7.058-7.35-7.058-4.054 0-7.35 3.161-7.35 7.05a6.799 6.799 0 0 0 1.5 4.253l.28.356-1.353 2.295 2.681-1.14Z" fill="#fff"/></g><defs><linearGradient id="paint0_linear_1434_113274" x1="12" y1="1.5" x2="12" y2="24.304" gradientUnits="userSpaceOnUse"><stop stop-color="#1DF47C"/><stop offset=".31" stop-color="#12DF63"/><stop offset=".75" stop-color="#05C443"/><stop offset="1" stop-color="#00BA37"/></linearGradient><clipPath id="clip0_1434_113274"><path fill="#fff" d="M0 0h24v24H0z"/></clipPath></defs></svg>