<svg width="450" height="156" viewBox="0 0 450 156" fill="none" xmlns="http://www.w3.org/2000/svg">
<line x1="450" y1="0.5" x2="4.37114e-08" y2="0.500039" stroke="#E8E8E8" stroke-dasharray="7 7"/>
<line x1="450" y1="34.5" x2="4.37114e-08" y2="34.5" stroke="#E8E8E8" stroke-dasharray="7 7"/>
<line x1="450" y1="68.5" x2="4.37114e-08" y2="68.5" stroke="#E8E8E8" stroke-dasharray="7 7"/>
<line x1="450" y1="102.5" x2="4.37114e-08" y2="102.5" stroke="#E8E8E8" stroke-dasharray="7 7"/>
<path fill-rule="evenodd" clip-rule="evenodd" d="M227 67C226.243 57.035 223.595 20.4966 221.892 11.6389C220.19 2.78108 218.488 4.99552 216.596 13.8533C214.893 22.7111 213.191 38.2122 211.488 39.3194C209.786 40.4267 208.083 27.14 206.381 23.8183C204.678 20.4966 202.976 27.14 201.273 30.4616C199.571 33.7833 197.679 33.7833 195.977 31.5689C194.274 29.3544 192.572 24.9255 190.869 23.8183C189.167 22.7111 187.464 24.9255 185.762 27.14C184.059 29.3544 182.357 31.5689 180.654 35.9978C178.763 40.4267 177.06 47.07 175.358 52.6061C173.655 58.1422 171.952 62.5711 170.25 62.5711C168.548 62.5711 166.845 58.1422 165.143 54.8205C163.44 51.4989 161.738 49.2844 159.846 50.3917C158.143 51.4989 156.441 55.9278 154.738 49.2844C153.036 42.6411 151.333 24.9255 149.631 21.6039C147.928 18.2822 146.226 29.3544 144.523 29.3544C142.821 29.3544 140.929 18.2822 139.227 20.4966C137.524 22.7111 135.822 38.2122 134.119 45.9628C132.417 53.7133 130.714 53.7133 129.012 44.8555C127.309 35.9978 125.607 18.2822 123.904 17.175C122.012 16.0678 120.31 31.5689 118.607 34.8905C116.905 38.2122 115.202 29.3544 113.5 21.6039C111.798 13.8533 110.095 7.20997 108.393 8.31719C106.69 9.42441 104.988 18.2822 103.096 27.14C101.393 35.9978 99.6908 44.8555 97.9883 50.3917C96.2858 55.9278 94.5833 58.1422 92.8808 49.2844C91.1783 40.4267 89.4758 20.4966 87.7733 18.2822C86.0708 16.0678 84.1792 31.5689 82.4767 39.3194C80.7742 47.07 79.0717 47.07 77.3692 48.1772C75.6667 49.2844 73.9642 51.4989 72.2617 47.07C70.5592 42.6411 68.8567 31.5689 67.1542 26.0328C65.2625 20.4966 63.56 20.4966 61.8575 20.4966C60.155 20.4966 58.4525 20.4966 56.75 19.3894C55.0475 18.2822 53.345 16.0678 51.6425 20.4966C49.94 24.9255 48.2375 35.9978 46.3458 38.2122C44.6433 40.4267 42.9408 33.7833 41.2383 33.7833C39.5358 33.7833 37.8333 40.4267 36.1308 41.5339C34.4283 42.6411 32.7258 38.2122 31.0233 32.6761C29.3208 27.14 27.4292 20.4966 25.7267 17.175C24.0242 13.8533 22.3217 13.8533 20.6192 20.4966C18.9167 27.14 17.2142 40.4267 15.5117 48.1772C13.8092 55.9278 12.1067 58.1422 10.4042 52.6061C8.51251 47.07 6.81 33.7833 5.1075 29.3544C3.405 24.9255 1.7025 29.3544 0.945831 31.5689L0 33.7833V67H0.945831C1.7025 67 3.405 67 5.1075 67C6.81 67 8.51251 67 10.4042 67C12.1067 67 13.8092 67 15.5117 67C17.2142 67 18.9167 67 20.6192 67C22.3217 67 24.0242 67 25.7267 67C27.4292 67 29.3208 67 31.0233 67C32.7258 67 34.4283 67 36.1308 67C37.8333 67 39.5358 67 41.2383 67C42.9408 67 44.6433 67 46.3458 67C48.2375 67 49.94 67 51.6425 67C53.345 67 55.0475 67 56.75 67C58.4525 67 60.155 67 61.8575 67C63.56 67 65.2625 67 67.1542 67C68.8567 67 70.5592 67 72.2617 67C73.9642 67 75.6667 67 77.3692 67C79.0717 67 80.7742 67 82.4767 67C84.1792 67 86.0708 67 87.7733 67C89.4758 67 91.1783 67 92.8808 67C94.5833 67 96.2858 67 97.9883 67C99.6908 67 101.393 67 103.096 67C104.988 67 106.69 67 108.393 67C110.095 67 111.798 67 113.5 67C115.202 67 116.905 67 118.607 67C120.31 67 122.012 67 123.904 67C125.607 67 127.309 67 129.012 67C130.714 67 132.417 67 134.119 67C135.822 67 137.524 67 139.227 67C140.929 67 142.821 67 144.523 67C146.226 67 147.928 67 149.631 67C151.333 67 153.036 67 154.738 67C156.441 67 158.143 67 159.846 67C161.738 67 163.44 67 165.143 67C166.845 67 168.548 67 170.25 67C171.952 67 173.655 67 175.358 67C177.06 67 178.763 67 180.654 67C182.357 67 184.059 67 185.762 67C187.464 67 189.167 67 190.869 67C192.572 67 194.274 67 195.977 67C197.679 67 199.571 67 201.273 67C202.976 67 204.678 67 206.381 67C208.083 67 209.786 67 211.488 67C213.191 67 214.893 67 216.596 67C218.488 67 220.19 67 221.892 67C223.595 67 226.243 67 227 67Z" fill="#E2F0DB"/>
<path fill-rule="evenodd" clip-rule="evenodd" d="M225 116.584L225.938 114.461C226.688 112.337 228.375 108.089 230.062 106.202C231.75 104.314 233.438 104.786 235.312 106.674C237 108.561 238.688 111.865 240.375 112.101C242.062 112.337 243.75 109.505 245.438 108.797C247.125 108.089 248.812 109.505 250.5 110.213C252.188 110.921 254.062 110.921 255.75 110.449C257.438 109.977 259.125 109.033 260.812 108.797C262.5 108.561 264.188 109.033 265.875 109.505C267.562 109.977 269.25 110.449 270.938 111.393C272.812 112.337 274.5 113.753 276.188 114.932C277.875 116.112 279.562 117.056 281.25 117.056C282.938 117.056 284.625 116.112 286.312 115.404C288 114.696 289.688 114.225 291.562 114.461C293.25 114.696 294.938 115.64 296.625 114.225C298.312 112.809 300 109.033 301.688 108.325C303.375 107.618 305.062 109.977 306.75 109.977C308.438 109.977 310.312 107.618 312 108.089C313.688 108.561 315.375 111.865 317.062 113.517C318.75 115.168 320.438 115.168 322.125 113.281C323.812 111.393 325.5 107.618 327.188 107.382C329.062 107.146 330.75 110.449 332.438 111.157C334.125 111.865 335.812 109.977 337.5 108.325C339.188 106.674 340.875 105.258 342.562 105.494C344.25 105.73 345.938 107.618 347.812 109.505C349.5 111.393 351.188 113.281 352.875 114.461C354.562 115.64 356.25 116.112 357.938 114.225C359.625 112.337 361.312 108.089 363 107.618C364.688 107.146 366.562 110.449 368.25 112.101C369.938 113.753 371.625 113.753 373.312 113.989C375 114.225 376.688 114.696 378.375 113.753C380.062 112.809 381.75 110.449 383.438 109.269C385.312 108.089 387 108.089 388.688 108.089C390.375 108.089 392.062 108.089 393.75 107.853C395.438 107.618 397.125 107.146 398.812 108.089C400.5 109.033 402.188 111.393 404.062 111.865C405.75 112.337 407.438 110.921 409.125 110.921C410.812 110.921 412.5 112.337 414.188 112.573C415.875 112.809 417.562 111.865 419.25 110.685C420.938 109.505 422.812 108.089 424.5 107.382C426.188 106.674 427.875 106.674 429.562 108.089C431.25 109.505 432.938 112.337 434.625 113.989C436.312 115.64 438 116.112 439.688 114.932C441.562 113.753 443.25 110.921 444.938 109.977C446.625 109.033 448.312 109.977 449.062 110.449L450 110.921V118H449.062C448.312 118 446.625 118 444.938 118C443.25 118 441.562 118 439.688 118C438 118 436.312 118 434.625 118C432.938 118 431.25 118 429.562 118C427.875 118 426.188 118 424.5 118C422.812 118 420.938 118 419.25 118C417.562 118 415.875 118 414.188 118C412.5 118 410.812 118 409.125 118C407.438 118 405.75 118 404.062 118C402.188 118 400.5 118 398.812 118C397.125 118 395.438 118 393.75 118C392.062 118 390.375 118 388.688 118C387 118 385.312 118 383.438 118C381.75 118 380.062 118 378.375 118C376.688 118 375 118 373.312 118C371.625 118 369.938 118 368.25 118C366.562 118 364.688 118 363 118C361.312 118 359.625 118 357.938 118C356.25 118 354.562 118 352.875 118C351.188 118 349.5 118 347.812 118C345.938 118 344.25 118 342.562 118C340.875 118 339.188 118 337.5 118C335.812 118 334.125 118 332.438 118C330.75 118 329.062 118 327.188 118C325.5 118 323.812 118 322.125 118C320.438 118 318.75 118 317.062 118C315.375 118 313.688 118 312 118C310.312 118 308.438 118 306.75 118C305.062 118 303.375 118 301.688 118C300 118 298.312 118 296.625 118C294.938 118 293.25 118 291.562 118C289.688 118 288 118 286.312 118C284.625 118 282.938 118 281.25 118C279.562 118 277.875 118 276.188 118C274.5 118 272.812 118 270.938 118C269.25 118 267.562 118 265.875 118C264.188 118 262.5 118 260.812 118C259.125 118 257.438 118 255.75 118C254.062 118 252.188 118 250.5 118C248.812 118 247.125 118 245.438 118C243.75 118 242.062 118 240.375 118C238.688 118 237 118 235.312 118C233.438 118 231.75 118 230.062 118C228.375 118 226.688 118 225.938 118H225V116.584Z" fill="#E2F0DB"/>
<path d="M0 67H227L233 156H0V67Z" fill="#E2F0DB"/>
<rect x="223" y="118" width="227" height="38" fill="#E2F0DB"/>
</svg>
