<svg width="450" height="165" viewBox="0 0 450 165" fill="none" xmlns="http://www.w3.org/2000/svg">
<line x1="450" y1="9.5" x2="4.37114e-08" y2="9.50004" stroke="#E8E8E8" stroke-dasharray="7 7"/>
<line x1="450" y1="43.5" x2="4.37114e-08" y2="43.5" stroke="#E8E8E8" stroke-dasharray="7 7"/>
<line x1="450" y1="77.5" x2="4.37114e-08" y2="77.5" stroke="#E8E8E8" stroke-dasharray="7 7"/>
<line x1="450" y1="111.5" x2="4.37114e-08" y2="111.5" stroke="#E8E8E8" stroke-dasharray="7 7"/>
<path fill-rule="evenodd" clip-rule="evenodd" d="M0 76C0.756667 63.5846 3.405 18.0614 5.1075 7.02546C6.81 -4.01046 8.5125 -1.25148 10.4042 9.78445C12.1067 20.8204 13.8092 40.1332 15.5117 41.5127C17.2142 42.8922 18.9167 26.3383 20.6192 22.1999C22.3217 18.0614 24.0242 26.3383 25.7267 30.4768C27.4292 34.6153 29.3208 34.6153 31.0233 31.8563C32.7258 29.0973 34.4283 23.5794 36.1308 22.1999C37.8333 20.8204 39.5358 23.5794 41.2383 26.3383C42.9408 29.0973 44.6433 31.8563 46.3458 37.3743C48.2375 42.8922 49.94 51.1692 51.6425 58.0666C53.345 64.9641 55.0475 70.482 56.75 70.482C58.4525 70.482 60.155 64.9641 61.8575 60.8256C63.56 56.6871 65.2625 53.9281 67.1542 55.3076C68.8567 56.6871 70.5592 62.2051 72.2617 53.9282C73.9642 45.6512 75.6667 23.5794 77.3692 19.4409C79.0717 15.3024 80.7742 29.0973 82.4767 29.0973C84.1792 29.0973 86.0708 15.3024 87.7733 18.0614C89.4758 20.8204 91.1783 40.1332 92.8808 49.7897C94.5833 59.4461 96.2858 59.4461 97.9883 48.4102C99.6908 37.3743 101.393 15.3024 103.096 13.9229C104.988 12.5434 106.69 31.8563 108.393 35.9948C110.095 40.1332 111.798 29.0973 113.5 19.4409C115.202 9.78444 116.905 1.5075 118.607 2.88699C120.31 4.26648 122.012 15.3024 123.904 26.3383C125.607 37.3743 127.309 48.4102 129.012 55.3076C130.714 62.2051 132.417 64.9641 134.119 53.9282C135.822 42.8922 137.524 18.0614 139.227 15.3024C140.929 12.5434 142.821 31.8563 144.523 41.5127C146.226 51.1692 147.928 51.1692 149.631 52.5487C151.333 53.9282 153.036 56.6871 154.738 51.1692C156.441 45.6512 158.143 31.8563 159.846 24.9588C161.737 18.0614 163.44 18.0614 165.143 18.0614C166.845 18.0614 168.548 18.0614 170.25 16.6819C171.952 15.3024 173.655 12.5434 175.357 18.0614C177.06 23.5794 178.762 37.3743 180.654 40.1332C182.357 42.8922 184.059 34.6153 185.762 34.6153C187.464 34.6153 189.167 42.8922 190.869 44.2717C192.572 45.6512 194.274 40.1332 195.977 33.2358C197.679 26.3383 199.571 18.0614 201.273 13.9229C202.976 9.78445 204.678 9.78444 206.381 18.0614C208.083 26.3383 209.786 42.8922 211.488 52.5487C213.191 62.2051 214.893 64.9641 216.596 58.0666C218.487 51.1692 220.19 34.6153 221.893 29.0973C223.595 23.5794 225.298 29.0973 226.054 31.8563L227 34.6153V76H226.054C225.298 76 223.595 76 221.893 76C220.19 76 218.487 76 216.596 76C214.893 76 213.191 76 211.488 76C209.786 76 208.083 76 206.381 76C204.678 76 202.976 76 201.273 76C199.571 76 197.679 76 195.977 76C194.274 76 192.572 76 190.869 76C189.167 76 187.464 76 185.762 76C184.059 76 182.357 76 180.654 76C178.762 76 177.06 76 175.357 76C173.655 76 171.952 76 170.25 76C168.548 76 166.845 76 165.143 76C163.44 76 161.737 76 159.846 76C158.143 76 156.441 76 154.738 76C153.036 76 151.333 76 149.631 76C147.928 76 146.226 76 144.523 76C142.821 76 140.929 76 139.227 76C137.524 76 135.822 76 134.119 76C132.417 76 130.714 76 129.012 76C127.309 76 125.607 76 123.904 76C122.012 76 120.31 76 118.607 76C116.905 76 115.202 76 113.5 76C111.798 76 110.095 76 108.393 76C106.69 76 104.988 76 103.096 76C101.393 76 99.6908 76 97.9883 76C96.2858 76 94.5833 76 92.8808 76C91.1783 76 89.4758 76 87.7733 76C86.0708 76 84.1792 76 82.4767 76C80.7742 76 79.0717 76 77.3692 76C75.6667 76 73.9642 76 72.2617 76C70.5592 76 68.8567 76 67.1542 76C65.2625 76 63.56 76 61.8575 76C60.155 76 58.4525 76 56.75 76C55.0475 76 53.345 76 51.6425 76C49.94 76 48.2375 76 46.3458 76C44.6433 76 42.9408 76 41.2383 76C39.5358 76 37.8333 76 36.1308 76C34.4283 76 32.7258 76 31.0233 76C29.3208 76 27.4292 76 25.7267 76C24.0242 76 22.3217 76 20.6192 76C18.9167 76 17.2142 76 15.5117 76C13.8092 76 12.1067 76 10.4042 76C8.5125 76 6.81 76 5.1075 76C3.405 76 0.756667 76 0 76Z" fill="#E2F0DB"/>
<path fill-rule="evenodd" clip-rule="evenodd" d="M450 105.584L449.062 103.461C448.312 101.337 446.625 97.0894 444.938 95.2017C443.25 93.314 441.562 93.7859 439.688 95.6737C438 97.5614 436.312 100.865 434.625 101.101C432.938 101.337 431.25 98.5052 429.562 97.7973C427.875 97.0894 426.188 98.5052 424.5 99.2131C422.812 99.921 420.938 99.921 419.25 99.4491C417.562 98.9772 415.875 98.0333 414.188 97.7973C412.5 97.5614 410.812 98.0333 409.125 98.5052C407.438 98.9772 405.75 99.4491 404.062 100.393C402.188 101.337 400.5 102.753 398.812 103.932C397.125 105.112 395.438 106.056 393.75 106.056C392.062 106.056 390.375 105.112 388.688 104.404C387 103.696 385.312 103.225 383.438 103.461C381.75 103.696 380.062 104.64 378.375 103.225C376.688 101.809 375 98.0333 373.312 97.3254C371.625 96.6175 369.938 98.9772 368.25 98.9772C366.562 98.9772 364.688 96.6175 363 97.0894C361.312 97.5614 359.625 100.865 357.938 102.517C356.25 104.168 354.562 104.168 352.875 102.281C351.188 100.393 349.5 96.6175 347.812 96.3816C345.938 96.1456 344.25 99.4491 342.562 100.157C340.875 100.865 339.188 98.9772 337.5 97.3254C335.812 95.6737 334.125 94.2579 332.438 94.4938C330.75 94.7298 329.062 96.6175 327.188 98.5052C325.5 100.393 323.812 102.281 322.125 103.461C320.438 104.64 318.75 105.112 317.062 103.225C315.375 101.337 313.688 97.0894 312 96.6175C310.312 96.1456 308.438 99.4491 306.75 101.101C305.062 102.753 303.375 102.753 301.688 102.989C300 103.225 298.312 103.696 296.625 102.753C294.938 101.809 293.25 99.4491 291.562 98.2693C289.688 97.0894 288 97.0894 286.312 97.0894C284.625 97.0894 282.938 97.0894 281.25 96.8535C279.562 96.6175 277.875 96.1456 276.188 97.0894C274.5 98.0333 272.812 100.393 270.938 100.865C269.25 101.337 267.562 99.921 265.875 99.921C264.188 99.921 262.5 101.337 260.812 101.573C259.125 101.809 257.438 100.865 255.75 99.6851C254.062 98.5052 252.188 97.0894 250.5 96.3816C248.812 95.6737 247.125 95.6737 245.438 97.0894C243.75 98.5052 242.062 101.337 240.375 102.989C238.688 104.64 237 105.112 235.312 103.932C233.438 102.753 231.75 99.921 230.062 98.9772C228.375 98.0333 226.688 98.9772 225.938 99.4491L225 99.921V107H225.938C226.688 107 228.375 107 230.062 107C231.75 107 233.438 107 235.312 107C237 107 238.688 107 240.375 107C242.062 107 243.75 107 245.438 107C247.125 107 248.812 107 250.5 107C252.188 107 254.062 107 255.75 107C257.438 107 259.125 107 260.812 107C262.5 107 264.188 107 265.875 107C267.562 107 269.25 107 270.938 107C272.812 107 274.5 107 276.188 107C277.875 107 279.562 107 281.25 107C282.938 107 284.625 107 286.312 107C288 107 289.688 107 291.562 107C293.25 107 294.938 107 296.625 107C298.312 107 300 107 301.688 107C303.375 107 305.062 107 306.75 107C308.438 107 310.312 107 312 107C313.688 107 315.375 107 317.062 107C318.75 107 320.438 107 322.125 107C323.812 107 325.5 107 327.188 107C329.062 107 330.75 107 332.438 107C334.125 107 335.812 107 337.5 107C339.188 107 340.875 107 342.562 107C344.25 107 345.938 107 347.812 107C349.5 107 351.188 107 352.875 107C354.562 107 356.25 107 357.938 107C359.625 107 361.312 107 363 107C364.688 107 366.562 107 368.25 107C369.938 107 371.625 107 373.312 107C375 107 376.688 107 378.375 107C380.062 107 381.75 107 383.438 107C385.312 107 387 107 388.688 107C390.375 107 392.062 107 393.75 107C395.438 107 397.125 107 398.812 107C400.5 107 402.188 107 404.062 107C405.75 107 407.438 107 409.125 107C410.812 107 412.5 107 414.188 107C415.875 107 417.562 107 419.25 107C420.938 107 422.812 107 424.5 107C426.188 107 427.875 107 429.562 107C431.25 107 432.938 107 434.625 107C436.312 107 438 107 439.688 107C441.562 107 443.25 107 444.938 107C446.625 107 448.312 107 449.062 107H450V105.584Z" fill="#E2F0DB"/>
<path d="M0 76H227L228 165H0V76Z" fill="#E2F0DB"/>
<rect x="223" y="107" width="227" height="58" fill="#E2F0DB"/>
</svg>
