<svg width="450" height="156" viewBox="0 0 450 156" fill="none" xmlns="http://www.w3.org/2000/svg">
<line x1="450" y1="0.5" x2="4.37114e-08" y2="0.500039" stroke="#E8E8E8" stroke-dasharray="7 7"/>
<line x1="450" y1="34.5" x2="4.37114e-08" y2="34.5" stroke="#E8E8E8" stroke-dasharray="7 7"/>
<line x1="450" y1="68.5" x2="4.37114e-08" y2="68.5" stroke="#E8E8E8" stroke-dasharray="7 7"/>
<line x1="450" y1="102.5" x2="4.37114e-08" y2="102.5" stroke="#E8E8E8" stroke-dasharray="7 7"/>
<path fill-rule="evenodd" clip-rule="evenodd" d="M227 67C226.243 58.6686 223.595 28.1201 221.892 20.7145C220.19 13.3088 218.488 15.1602 216.596 22.5659C214.893 29.9716 213.191 42.9315 211.488 43.8572C209.786 44.7829 208.083 33.6744 206.381 30.8973C204.678 28.1201 202.976 33.6744 201.273 36.4515C199.571 39.2287 197.679 39.2287 195.977 37.3773C194.274 35.5258 192.572 31.823 190.869 30.8973C189.167 29.9716 187.464 31.823 185.762 33.6744C184.059 35.5258 182.357 37.3773 180.654 41.0801C178.763 44.7829 177.06 50.3372 175.358 54.9658C173.655 59.5943 171.952 63.2972 170.25 63.2972C168.548 63.2972 166.845 59.5943 165.143 56.8172C163.44 54.04 161.738 52.1886 159.846 53.1143C158.143 54.0401 156.441 57.7429 154.738 52.1886C153.036 46.6344 151.333 31.823 149.631 29.0459C147.928 26.2687 146.226 35.5258 144.523 35.5258C142.821 35.5258 140.929 26.2687 139.227 28.1201C137.524 29.9716 135.822 42.9315 134.119 49.4115C132.417 55.8915 130.714 55.8915 129.012 48.4858C127.309 41.0801 125.607 26.2687 123.904 25.343C122.012 24.4173 120.31 37.3773 118.607 40.1544C116.905 42.9315 115.202 35.5258 113.5 29.0459C111.798 22.5659 110.095 17.0116 108.393 17.9373C106.69 18.863 104.988 26.2687 103.096 33.6744C101.393 41.0801 99.6908 48.4858 97.9883 53.1143C96.2858 57.7429 94.5833 59.5943 92.8808 52.1886C91.1783 44.7829 89.4758 28.1201 87.7733 26.2687C86.0708 24.4173 84.1792 37.3773 82.4767 43.8572C80.7742 50.3372 79.0717 50.3372 77.3692 51.2629C75.6667 52.1886 73.9642 54.0401 72.2617 50.3372C70.5592 46.6344 68.8567 37.3773 67.1542 32.7487C65.2625 28.1201 63.56 28.1201 61.8575 28.1201C60.155 28.1201 58.4525 28.1201 56.75 27.1944C55.0475 26.2687 53.345 24.4173 51.6425 28.1201C49.94 31.823 48.2375 41.0801 46.3458 42.9315C44.6433 44.7829 42.9408 39.2287 41.2383 39.2287C39.5358 39.2287 37.8333 44.7829 36.1308 45.7087C34.4283 46.6344 32.7258 42.9315 31.0233 38.303C29.3208 33.6744 27.4292 28.1201 25.7267 25.343C24.0242 22.5659 22.3217 22.5659 20.6192 28.1201C18.9167 33.6744 17.2142 44.7829 15.5117 51.2629C13.8092 57.7429 12.1067 59.5943 10.4042 54.9658C8.51251 50.3372 6.81 39.2287 5.1075 35.5258C3.405 31.823 1.7025 35.5258 0.945831 37.3773L0 39.2287V67H0.945831C1.7025 67 3.405 67 5.1075 67C6.81 67 8.51251 67 10.4042 67C12.1067 67 13.8092 67 15.5117 67C17.2142 67 18.9167 67 20.6192 67C22.3217 67 24.0242 67 25.7267 67C27.4292 67 29.3208 67 31.0233 67C32.7258 67 34.4283 67 36.1308 67C37.8333 67 39.5358 67 41.2383 67C42.9408 67 44.6433 67 46.3458 67C48.2375 67 49.94 67 51.6425 67C53.345 67 55.0475 67 56.75 67C58.4525 67 60.155 67 61.8575 67C63.56 67 65.2625 67 67.1542 67C68.8567 67 70.5592 67 72.2617 67C73.9642 67 75.6667 67 77.3692 67C79.0717 67 80.7742 67 82.4767 67C84.1792 67 86.0708 67 87.7733 67C89.4758 67 91.1783 67 92.8808 67C94.5833 67 96.2858 67 97.9883 67C99.6908 67 101.393 67 103.096 67C104.988 67 106.69 67 108.393 67C110.095 67 111.798 67 113.5 67C115.202 67 116.905 67 118.607 67C120.31 67 122.012 67 123.904 67C125.607 67 127.309 67 129.012 67C130.714 67 132.417 67 134.119 67C135.822 67 137.524 67 139.227 67C140.929 67 142.821 67 144.523 67C146.226 67 147.928 67 149.631 67C151.333 67 153.036 67 154.738 67C156.441 67 158.143 67 159.846 67C161.738 67 163.44 67 165.143 67C166.845 67 168.548 67 170.25 67C171.952 67 173.655 67 175.358 67C177.06 67 178.763 67 180.654 67C182.357 67 184.059 67 185.762 67C187.464 67 189.167 67 190.869 67C192.572 67 194.274 67 195.977 67C197.679 67 199.571 67 201.273 67C202.976 67 204.678 67 206.381 67C208.083 67 209.786 67 211.488 67C213.191 67 214.893 67 216.596 67C218.488 67 220.19 67 221.892 67C223.595 67 226.243 67 227 67Z" fill="#E2F0DB"/>
<path fill-rule="evenodd" clip-rule="evenodd" d="M225 129.584L225.938 127.461C226.688 125.337 228.375 121.089 230.062 119.202C231.75 117.314 233.438 117.786 235.312 119.674C237 121.561 238.688 124.865 240.375 125.101C242.062 125.337 243.75 122.505 245.438 121.797C247.125 121.089 248.812 122.505 250.5 123.213C252.188 123.921 254.062 123.921 255.75 123.449C257.438 122.977 259.125 122.033 260.812 121.797C262.5 121.561 264.188 122.033 265.875 122.505C267.562 122.977 269.25 123.449 270.938 124.393C272.812 125.337 274.5 126.753 276.188 127.932C277.875 129.112 279.562 130.056 281.25 130.056C282.938 130.056 284.625 129.112 286.312 128.404C288 127.696 289.688 127.225 291.562 127.461C293.25 127.696 294.938 128.64 296.625 127.225C298.312 125.809 300 122.033 301.688 121.325C303.375 120.618 305.062 122.977 306.75 122.977C308.438 122.977 310.312 120.618 312 121.089C313.688 121.561 315.375 124.865 317.062 126.517C318.75 128.168 320.438 128.168 322.125 126.281C323.812 124.393 325.5 120.618 327.188 120.382C329.062 120.146 330.75 123.449 332.438 124.157C334.125 124.865 335.812 122.977 337.5 121.325C339.188 119.674 340.875 118.258 342.562 118.494C344.25 118.73 345.938 120.618 347.812 122.505C349.5 124.393 351.188 126.281 352.875 127.461C354.562 128.64 356.25 129.112 357.938 127.225C359.625 125.337 361.312 121.089 363 120.618C364.688 120.146 366.562 123.449 368.25 125.101C369.938 126.753 371.625 126.753 373.312 126.989C375 127.225 376.688 127.696 378.375 126.753C380.062 125.809 381.75 123.449 383.438 122.269C385.312 121.089 387 121.089 388.688 121.089C390.375 121.089 392.062 121.089 393.75 120.853C395.438 120.618 397.125 120.146 398.812 121.089C400.5 122.033 402.188 124.393 404.062 124.865C405.75 125.337 407.438 123.921 409.125 123.921C410.812 123.921 412.5 125.337 414.188 125.573C415.875 125.809 417.562 124.865 419.25 123.685C420.938 122.505 422.812 121.089 424.5 120.382C426.188 119.674 427.875 119.674 429.562 121.089C431.25 122.505 432.938 125.337 434.625 126.989C436.312 128.64 438 129.112 439.688 127.932C441.562 126.753 443.25 123.921 444.938 122.977C446.625 122.033 448.312 122.977 449.062 123.449L450 123.921V131H449.062C448.312 131 446.625 131 444.938 131C443.25 131 441.562 131 439.688 131C438 131 436.312 131 434.625 131C432.938 131 431.25 131 429.562 131C427.875 131 426.188 131 424.5 131C422.812 131 420.938 131 419.25 131C417.562 131 415.875 131 414.188 131C412.5 131 410.812 131 409.125 131C407.438 131 405.75 131 404.062 131C402.188 131 400.5 131 398.812 131C397.125 131 395.438 131 393.75 131C392.062 131 390.375 131 388.688 131C387 131 385.312 131 383.438 131C381.75 131 380.062 131 378.375 131C376.688 131 375 131 373.312 131C371.625 131 369.938 131 368.25 131C366.562 131 364.688 131 363 131C361.312 131 359.625 131 357.938 131C356.25 131 354.562 131 352.875 131C351.188 131 349.5 131 347.812 131C345.938 131 344.25 131 342.562 131C340.875 131 339.188 131 337.5 131C335.812 131 334.125 131 332.438 131C330.75 131 329.062 131 327.188 131C325.5 131 323.812 131 322.125 131C320.438 131 318.75 131 317.062 131C315.375 131 313.688 131 312 131C310.312 131 308.438 131 306.75 131C305.062 131 303.375 131 301.688 131C300 131 298.312 131 296.625 131C294.938 131 293.25 131 291.562 131C289.688 131 288 131 286.312 131C284.625 131 282.938 131 281.25 131C279.562 131 277.875 131 276.188 131C274.5 131 272.812 131 270.938 131C269.25 131 267.562 131 265.875 131C264.188 131 262.5 131 260.812 131C259.125 131 257.438 131 255.75 131C254.062 131 252.188 131 250.5 131C248.812 131 247.125 131 245.438 131C243.75 131 242.062 131 240.375 131C238.688 131 237 131 235.312 131C233.438 131 231.75 131 230.062 131C228.375 131 226.688 131 225.938 131H225V129.584Z" fill="#E2F0DB"/>
<path d="M0 67H227L233 156H0V67Z" fill="#E2F0DB"/>
<rect x="223" y="131" width="227" height="25" fill="#E2F0DB"/>
</svg>
