<svg width="34" height="34" viewBox="0 0 34 34" fill="none" xmlns="http://www.w3.org/2000/svg">
<rect width="34" height="34" rx="17" fill="#1952C2"/>
<path d="M16.9989 25.7386C15.7717 25.7386 14.6808 25.5284 13.7262 25.108C12.7773 24.6875 12.0273 24.1023 11.4762 23.3523C10.9251 22.6023 10.6325 21.7358 10.5984 20.7528H13.8029C13.8313 21.2244 13.9876 21.6364 14.2717 21.9886C14.5558 22.3352 14.9336 22.6051 15.4052 22.7983C15.8768 22.9915 16.4052 23.0881 16.9904 23.0881C17.6154 23.0881 18.1694 22.9801 18.6523 22.7642C19.1353 22.5426 19.5131 22.2358 19.7859 21.8438C20.0586 21.4517 20.1921 21 20.1864 20.4886C20.1921 19.9602 20.0558 19.4943 19.7773 19.0909C19.4989 18.6875 19.0955 18.3722 18.5671 18.1449C18.0444 17.9176 17.4137 17.804 16.6751 17.804H15.1325V15.3665H16.6751C17.283 15.3665 17.8143 15.2614 18.2688 15.0511C18.729 14.8409 19.0898 14.5455 19.3512 14.1648C19.6126 13.7784 19.7404 13.3324 19.7347 12.8267C19.7404 12.3324 19.6296 11.9034 19.4023 11.5398C19.1808 11.1705 18.8654 10.8835 18.4563 10.679C18.0529 10.4744 17.5785 10.3722 17.033 10.3722C16.4989 10.3722 16.0046 10.4687 15.5501 10.6619C15.0955 10.8551 14.729 11.1307 14.4506 11.4886C14.1722 11.8409 14.0245 12.2614 14.0075 12.75H10.9648C10.9876 11.7727 11.2688 10.9148 11.8086 10.1761C12.354 9.43182 13.0813 8.85227 13.9904 8.4375C14.8995 8.01705 15.9194 7.80682 17.0501 7.80682C18.2148 7.80682 19.2262 8.02557 20.0842 8.46307C20.9478 8.89489 21.6154 9.47727 22.087 10.2102C22.5586 10.9432 22.7944 11.7528 22.7944 12.6392C22.8001 13.6222 22.5103 14.446 21.9251 15.1108C21.3455 15.7756 20.5842 16.2102 19.641 16.4148V16.5511C20.8683 16.7216 21.8086 17.1761 22.462 17.9148C23.1211 18.6477 23.4478 19.5597 23.4421 20.6506C23.4421 21.6278 23.1637 22.5028 22.6069 23.2756C22.0558 24.0426 21.2944 24.6449 20.3228 25.0824C19.3569 25.5199 18.2489 25.7386 16.9989 25.7386Z" fill="white"/>
</svg>
