<svg width="204" height="29" viewBox="0 0 204 29" fill="none" xmlns="http://www.w3.org/2000/svg">
<path d="M28.907 14.5C28.907 22.5081 22.4359 29 14.4535 29C6.47105 29 0 22.5081 0 14.5C0 6.49187 6.47105 0 14.4535 0C22.4359 0 28.907 6.49187 28.907 14.5Z" fill="#1952C2"/>
<path d="M47.4074 21.4823C41.626 21.4823 38.3573 18.56 38.3573 13.4292C38.3573 8.20923 41.5816 5.28692 47.4074 5.28692C53.2333 5.28692 56.4575 8.20923 56.4575 13.1169C56.4575 18.5377 53.1888 21.4823 47.4074 21.4823ZM44.3833 13.3623C44.3833 16.7531 45.6952 18.0692 47.4074 18.0692C49.1196 18.0692 50.4315 16.7531 50.4315 13.1615C50.4315 9.86 49.1418 8.58846 47.4074 8.58846C45.673 8.58846 44.3833 9.86 44.3833 13.3623Z" fill="white"/>
<path d="M65.4689 22.62C65.4689 21.5046 65.5356 20.5231 65.6023 19.43C65.0242 20.3669 63.7122 21.4823 61.6221 21.4823C58.887 21.4823 56.8413 19.4969 56.8413 15.6823C56.8413 11.7338 58.8648 9.74846 61.7555 9.74846C63.8234 9.74846 65.1131 10.73 65.6023 11.5554C65.5134 10.4846 65.4689 9.39154 65.4689 8.27615V5.57692H70.4276V8.61077C70.4276 9.72615 70.3609 10.7077 70.2719 11.8008C70.85 10.8638 72.1842 9.74846 74.2522 9.74846C77.0095 9.74846 79.0329 11.7338 79.0329 15.5485C79.0329 19.4969 77.0317 21.4823 74.141 21.4823C72.073 21.4823 70.7833 20.5008 70.2941 19.6531C70.3608 20.7462 70.4276 21.8392 70.4276 22.9546V25.6538H65.4689V22.62ZM61.9778 15.66C61.9778 17.9354 62.6894 18.6492 63.5788 18.6492C64.6462 18.6492 65.6468 17.5785 65.6468 15.5485C65.6468 13.4962 64.6239 12.5369 63.6011 12.5369C62.6894 12.5369 61.9778 13.2285 61.9778 15.66ZM70.2274 15.6823C70.2274 17.7346 71.2725 18.7162 72.2954 18.7162C73.2071 18.7162 73.9186 18.0246 73.9186 15.5708C73.9186 13.2954 73.2071 12.6038 72.3176 12.6038C71.2503 12.6038 70.2274 13.6746 70.2274 15.6823Z" fill="white"/>
<path d="M79.8105 21.1923V10.0385H84.6357V16.7085H84.658L88.2825 10.0385H93.508V21.1923H88.6827V14.5223H88.6605L85.036 21.1923H79.8105Z" fill="white"/>
<path d="M101.606 21.4823C96.7365 21.4823 94.2016 19.14 94.2016 15.6154C94.2016 12.0908 96.7365 9.74846 101.695 9.74846C105.809 9.74846 107.699 11.4885 107.966 13.4738L103.563 13.92C103.43 12.9608 102.896 12.4254 101.918 12.4254C100.65 12.4254 99.7829 13.2731 99.7829 15.4146C99.7829 17.5785 100.695 18.4485 102.051 18.4485C103.185 18.4485 103.83 17.8462 104.163 16.7531L108.344 17.6677C107.721 19.6308 105.876 21.4823 101.606 21.4823Z" fill="white"/>
<path d="M111.189 24.3154V17.5785H113.368C114.013 15.9723 114.769 13.3846 115.08 9.28L115.303 5.57692H129.912V17.5785H132.157V24.3154H127.132V21.1923H116.192V24.3154H111.189ZM118.238 17.6454H124.442V9.10154H119.705L119.639 10.0385C119.372 13.5854 118.794 16.0615 118.238 17.6454Z" fill="white"/>
<path d="M133.396 21.1923V10.0385H138.221V16.7085H138.244L141.868 10.0385H147.094V21.1923H142.268V14.5223H142.246L138.622 21.1923H133.396Z" fill="white"/>
<path d="M148.299 25.6538V10.0385H153.213C153.213 10.5962 153.168 11.1538 153.079 11.9346C153.613 10.9977 154.947 9.74846 157.282 9.74846C160.328 9.74846 162.441 11.8454 162.441 15.5485C162.441 19.3631 160.306 21.4823 157.06 21.4823C154.947 21.4823 153.613 20.5677 153.124 19.8538C153.191 20.7908 153.257 21.9508 153.257 23.1777V25.6538H148.299ZM153.057 15.7046C153.057 17.7123 154.147 18.7162 155.303 18.7162C156.304 18.7162 157.06 17.98 157.06 15.5931C157.06 13.3623 156.326 12.6262 155.325 12.6262C154.147 12.6262 153.057 13.7638 153.057 15.7046Z" fill="white"/>
<path d="M170.511 21.4823C165.464 21.4823 162.929 19.14 162.929 15.6154C162.929 12.0685 165.486 9.74846 170.267 9.74846C174.714 9.74846 177.004 11.9569 177.004 15.5708V16.0838H168.332C168.443 17.7346 169.355 18.56 170.822 18.56C172.179 18.56 172.735 17.98 173.157 17.1992L177.182 17.9354C176.559 19.5862 174.603 21.4823 170.511 21.4823ZM168.399 14.2769H172.335C172.246 12.8046 171.556 12.1577 170.489 12.1577C169.333 12.1577 168.532 12.8492 168.399 14.2769Z" fill="white"/>
<path d="M177.821 21.1923V10.0385H182.78V12.5146C182.78 13.2062 182.736 14.0985 182.713 14.7677H182.736L186.76 10.0385H191.652L187.138 14.8792L192.319 21.1923H186.316L182.736 16.3292H182.713C182.736 16.9985 182.78 17.8908 182.78 18.7162V21.1923H177.821Z" fill="white"/>
<path d="M195.106 21.1923V13.2062H191.236V10.0385H204V13.2062H200.153V21.1923H195.106Z" fill="white"/>
<path d="M11.8224 8.29439C12.163 7.84135 12.3333 7.61483 12.4903 7.46493C13.5691 6.43477 15.3378 6.43477 16.4167 7.46493C16.5736 7.61483 16.7439 7.84135 17.0845 8.29439L17.362 8.66346C17.5017 8.8492 17.5715 8.94208 17.6407 9.03512C19.1723 11.094 20.5204 13.2679 21.6713 15.5349C21.7234 15.6374 21.776 15.7425 21.8814 15.9526C21.9618 16.1131 22.002 16.1933 22.0285 16.2539C22.7055 17.8038 21.6576 19.5398 19.8934 19.7906C19.8245 19.8004 19.7329 19.809 19.5498 19.8262C19.2936 19.8503 19.1655 19.8623 19.0377 19.8736C15.9884 20.1447 12.9186 20.1447 9.86931 19.8736C9.74145 19.8623 9.61337 19.8503 9.3572 19.8262C9.17405 19.809 9.08248 19.8004 9.01355 19.7906C7.2494 19.5398 6.20146 17.8038 6.87852 16.2539C6.90497 16.1933 6.94517 16.1131 7.02559 15.9526C7.13094 15.7425 7.18362 15.6374 7.23563 15.5349C8.38655 13.2679 9.73467 11.094 11.2663 9.03512C11.3355 8.94208 11.4053 8.84921 11.545 8.66346L11.8224 8.29439Z" fill="url(#paint0_linear_770_3189)"/>
<defs>
<linearGradient id="paint0_linear_770_3189" x1="14.4536" y1="3.81825" x2="23.0417" y2="19.7605" gradientUnits="userSpaceOnUse">
<stop stop-color="#82E534"/>
<stop offset="0.36" stop-color="#C4FF6C"/>
<stop offset="0.82" stop-color="#F2FFC8"/>
<stop offset="1" stop-color="white"/>
</linearGradient>
</defs>
</svg>
