<svg width="21" height="21" viewBox="0 0 21 21" fill="none" xmlns="http://www.w3.org/2000/svg">
<path fill-rule="evenodd" clip-rule="evenodd" d="M10.5 0.75C5.115 0.75 0.75 5.115 0.75 10.5C0.75 15.885 5.115 20.25 10.5 20.25C15.885 20.25 20.25 15.885 20.25 10.5C20.25 5.115 15.885 0.75 10.5 0.75ZM9.97 14.78C10.1106 14.9205 10.3012 14.9993 10.5 14.9993C10.6988 14.9993 10.8894 14.9205 11.03 14.78L14.03 11.78C14.1037 11.7113 14.1628 11.6285 14.2038 11.5365C14.2448 11.4445 14.2668 11.3452 14.2686 11.2445C14.2704 11.1438 14.2518 11.0438 14.2141 10.9504C14.1764 10.857 14.1203 10.7722 14.049 10.701C13.9778 10.6297 13.893 10.5736 13.7996 10.5359C13.7062 10.4982 13.6062 10.4796 13.5055 10.4814C13.4048 10.4832 13.3055 10.5052 13.2135 10.5462C13.1215 10.5872 13.0387 10.6463 12.97 10.72L11.25 12.44V6.75C11.25 6.55109 11.171 6.36032 11.0303 6.21967C10.8897 6.07902 10.6989 6 10.5 6C10.3011 6 10.1103 6.07902 9.96967 6.21967C9.82902 6.36032 9.75 6.55109 9.75 6.75V12.44L8.03 10.72C7.88783 10.5875 7.69978 10.5154 7.50548 10.5188C7.31118 10.5223 7.12579 10.601 6.98838 10.7384C6.85097 10.8758 6.77225 11.0612 6.76882 11.2555C6.7654 11.4498 6.83752 11.6378 6.97 11.78L9.97 14.78Z" fill="white"/>
</svg>
