<svg width="1037" height="141" viewBox="0 0 1037 141" fill="none" xmlns="http://www.w3.org/2000/svg">
<path d="M40.2442 132.471C46.6989 134.337 54.7018 134.365 71.9396 134.365H99.9228C102.455 134.365 116.44 134.365 118.609 134.359L121.522 134.35L121.54 140.176L118.627 140.185C116.447 140.191 102.464 140.191 99.9275 140.191H71.2797C54.869 140.192 45.9757 140.192 38.6264 138.068C21.0408 132.984 7.27673 119.343 2.14423 101.881C-0.000473645 94.5836 -0.000303698 87.2005 7.43368e-06 73.6853L7.43705e-06 73.1246C7.43705e-06 64.7351 7.44411e-06 57.9801 0.256404 52.4631C0.513156 46.9385 1.03253 42.4643 2.14423 38.6818C7.27673 21.2192 21.0408 7.57803 38.6264 2.49486C40.5575 1.93667 42.5739 1.52854 44.7818 1.22839L47.6681 0.835982L48.4529 6.60871L45.5666 7.00111C43.591 7.2697 41.8584 7.62499 40.2442 8.09157C24.5547 12.6267 12.3 24.7883 7.73366 40.3246C6.81937 43.4354 6.32573 47.3595 6.07597 52.7336C5.82657 58.0999 5.82585 64.7217 5.82585 73.1941C5.82585 87.3281 5.85217 93.8363 7.73366 100.238C12.3 115.774 24.5547 127.936 40.2442 132.471Z" fill="#D12D33"/>
<path d="M143.8 133.954L146.686 133.561C148.662 133.293 150.394 132.937 152.009 132.471C167.698 127.936 179.953 115.774 184.519 100.238C186.401 93.8363 186.427 87.3281 186.427 73.1941C186.427 64.7217 186.426 58.0999 186.177 52.7336C185.927 47.3595 185.433 43.4354 184.519 40.3246C179.953 24.7883 167.698 12.6267 152.009 8.09157C145.554 6.22583 137.551 6.19695 120.313 6.19695H92.33C89.7979 6.19695 75.8133 6.19696 73.6436 6.2035L70.7307 6.21229L70.7131 0.386472L73.626 0.377682C75.8073 0.371104 89.8066 0.371104 92.33 0.371104H120.973C137.384 0.370726 146.277 0.370521 153.626 2.49486C171.212 7.57803 184.976 21.2192 190.109 38.6818C191.22 42.4643 191.74 46.9385 191.996 52.4631C192.253 57.98 192.253 64.735 192.253 73.1245V73.6851C192.253 87.2005 192.253 94.5835 190.109 101.881C184.976 119.343 171.212 132.984 153.626 138.068C151.695 138.626 149.679 139.034 147.471 139.334L144.585 139.726L143.8 133.954Z" fill="#D12D33"/>
<path fill-rule="evenodd" clip-rule="evenodd" d="M17.4776 69.116C17.4776 51.1708 17.4776 42.1981 20.9699 35.3439C24.0419 29.3148 28.9438 24.413 34.9729 21.341C41.8271 17.8486 50.7997 17.8486 68.745 17.8486H123.508C141.453 17.8486 150.426 17.8486 157.28 21.341C163.309 24.413 168.211 29.3148 171.283 35.3439C174.775 42.1981 174.775 51.1708 174.775 69.116V71.4464C174.775 89.3916 174.775 98.3643 171.283 105.218C168.211 111.248 163.309 116.149 157.28 119.221C150.426 122.714 141.453 122.714 123.508 122.714H68.745C50.7997 122.714 41.8271 122.714 34.9729 119.221C28.9438 116.149 24.0419 111.248 20.9699 105.218C17.4776 98.3643 17.4776 89.3916 17.4776 71.4464V69.116ZM68.4537 99.4104C52.3661 99.4104 39.3245 86.3688 39.3245 70.2812C39.3245 55.6786 50.0694 43.5857 64.0843 41.4775V53.3543C56.5461 55.2945 50.9761 62.1374 50.9761 70.2812C50.9761 79.9338 58.8011 87.7587 68.4537 87.7587H69.9101L69.9101 41.152H84.4747C100.562 41.152 113.604 54.1936 113.604 70.2812C113.604 84.8838 102.859 96.9768 88.8441 99.0849V87.2081C96.3823 85.2679 101.952 78.425 101.952 70.2812C101.952 60.6286 94.1273 52.8037 84.4747 52.8037H83.0183L83.0182 99.4104H68.4537ZM133.994 44.0649H154.262L133.994 68.8247L154.501 96.4975H133.994L119.43 76.107V61.5424L133.994 44.0649Z" fill="#D12D33"/>
<path d="M299.043 49.3729C304.862 54.3607 307.771 60.845 307.771 68.8256C307.771 76.8062 304.862 83.2904 299.043 88.2783C293.224 93.2662 285.433 96.2257 275.668 97.1567V105.237H262.124V97.1567C252.292 96.1592 244.5 93.1997 238.748 88.2783C232.997 83.2904 230.121 76.8062 230.121 68.8256C230.121 60.845 232.997 54.394 238.748 49.4726C244.5 44.4847 252.292 41.492 262.124 40.4944V32.4141H275.668V40.4944C285.433 41.4255 293.224 44.385 299.043 49.3729ZM275.668 84.5873C287.84 83.1907 293.927 77.9368 293.927 68.8256C293.927 59.6479 287.84 54.3607 275.668 52.9641V84.5873ZM243.865 68.8256C243.865 77.9368 249.951 83.1574 262.124 84.4875V53.0639C249.951 54.394 243.865 59.6479 243.865 68.8256Z" fill="url(#paint0_linear_300_2612)"/>
<path d="M356.71 103.741L352.496 91.1713H324.506L320.292 103.741H305.344L329.923 33.9104H347.079L371.759 103.741H356.71ZM328.92 78.3025H348.182L338.551 49.7719L328.92 78.3025Z" fill="url(#paint1_linear_300_2612)"/>
<path d="M402.455 60.3462C409.277 60.3462 414.861 62.3746 419.209 66.4314C423.556 70.4217 425.73 75.6091 425.73 81.9936C425.73 88.4446 423.556 93.6985 419.209 97.7553C414.861 101.746 409.277 103.741 402.455 103.741H375.568V33.9104H419.71V47.0784H389.413V60.3462H402.455ZM402.455 90.872C405.197 90.872 407.471 90.1072 409.277 88.5776C411.083 86.9815 411.985 84.7868 411.985 81.9936C411.985 79.2004 411.083 77.039 409.277 75.5093C407.471 73.9797 405.197 73.2149 402.455 73.2149H389.413V90.872H402.455Z" fill="url(#paint2_linear_300_2612)"/>
<path d="M457.428 33.9104C464.184 33.9104 469.869 36.1716 474.483 40.6939C479.098 45.2163 481.406 50.7695 481.406 57.3535C481.406 63.9375 479.098 69.4906 474.483 74.013C469.869 78.5353 464.184 80.7965 457.428 80.7965H445.088V103.741H431.244V33.9104H457.428ZM457.428 67.9278C460.371 67.9278 462.812 66.9302 464.752 64.935C466.692 62.8734 467.661 60.3462 467.661 57.3535C467.661 54.2942 466.692 51.767 464.752 49.7719C462.812 47.7767 460.371 46.7792 457.428 46.7792H445.088V67.9278H457.428Z" fill="url(#paint3_linear_300_2612)"/>
<path d="M528.041 103.741V61.1442L497.944 103.741H487.41V33.9104H501.254V76.6067L531.352 33.9104H541.886V103.741H528.041Z" fill="url(#paint4_linear_300_2612)"/>
<path d="M606.78 103.741H590.829L565.748 71.0202V103.741H551.903V33.9104H565.748V64.7355L589.826 33.9104H605.777L579.793 67.828L606.78 103.741Z" fill="url(#paint5_linear_300_2612)"/>
<path d="M657.526 103.741L653.312 91.1713H625.322L621.108 103.741H606.16L630.739 33.9104H647.894L672.574 103.741H657.526ZM629.736 78.3025H648.998L639.367 49.7719L629.736 78.3025Z" fill="url(#paint6_linear_300_2612)"/>
<path d="M753.332 103.741H737.38L712.299 71.0202V103.741H698.455V33.9104H712.299V64.7355L736.377 33.9104H752.329L726.345 67.828L753.332 103.741Z" fill="url(#paint7_linear_300_2612)"/>
<path d="M783.352 33.9104C790.107 33.9104 795.792 36.1716 800.407 40.6939C805.022 45.2163 807.33 50.7695 807.33 57.3535C807.33 63.9375 805.022 69.4906 800.407 74.013C795.792 78.5353 790.107 80.7965 783.352 80.7965H771.012V103.741H757.168V33.9104H783.352ZM783.352 67.9278C786.295 67.9278 788.736 66.9302 790.676 64.935C792.616 62.8734 793.585 60.3462 793.585 57.3535C793.585 54.2942 792.616 51.767 790.676 49.7719C788.736 47.7767 786.295 46.7792 783.352 46.7792H771.012V67.9278H783.352Z" fill="url(#paint8_linear_300_2612)"/>
<path d="M827.178 90.5727H856.774V103.741H813.334V33.9104H856.272V47.0784H827.178V61.9423H853.764V74.9108H827.178V90.5727Z" fill="url(#paint9_linear_300_2612)"/>
<path d="M896.341 105.137C885.773 105.137 877.045 101.646 870.156 94.6628C863.267 87.6798 859.823 79.0674 859.823 68.8256C859.823 58.5173 863.267 49.9049 870.156 42.9884C877.045 36.0053 885.773 32.5138 896.341 32.5138C902.695 32.5138 908.547 34.0102 913.897 37.0029C919.315 39.9291 923.529 43.9194 926.538 48.9738L914.6 55.8571C912.861 52.7314 910.386 50.3039 907.176 48.5748C903.965 46.7792 900.354 45.8813 896.341 45.8813C889.519 45.8813 884.001 48.0095 879.787 52.2658C875.641 56.5221 873.567 62.0421 873.567 68.8256C873.567 75.5426 875.641 81.0293 879.787 85.2856C884.001 89.5419 889.519 91.6701 896.341 91.6701C900.354 91.6701 903.965 90.8055 907.176 89.0764C910.453 87.2807 912.928 84.8533 914.6 81.7941L926.538 88.6773C923.529 93.7317 919.348 97.7553 913.998 100.748C908.647 103.674 902.762 105.137 896.341 105.137Z" fill="url(#paint10_linear_300_2612)"/>
<path d="M945.878 90.5727H975.474V103.741H932.033V33.9104H974.972V47.0784H945.878V61.9423H972.464V74.9108H945.878V90.5727Z" fill="url(#paint11_linear_300_2612)"/>
<path d="M976.805 103.741V90.9718C980.952 91.5703 984.062 90.739 986.136 88.4778C988.209 86.2167 989.246 81.7941 989.246 75.2101V33.9104H1037V103.741H1023.26V47.0784H1002.99V74.811C1002.99 80.863 1002.25 85.9506 1000.78 90.0739C999.311 94.1973 997.271 97.2565 994.663 99.2516C992.122 101.247 989.379 102.577 986.437 103.242C983.561 103.907 980.35 104.073 976.805 103.741Z" fill="url(#paint12_linear_300_2612)"/>
<defs>
<linearGradient id="paint0_linear_300_2612" x1="230.121" y1="68.8256" x2="1037" y2="68.8256" gradientUnits="userSpaceOnUse">
<stop/>
<stop offset="1" stop-color="#666666"/>
</linearGradient>
<linearGradient id="paint1_linear_300_2612" x1="230.121" y1="68.8256" x2="1037" y2="68.8256" gradientUnits="userSpaceOnUse">
<stop/>
<stop offset="1" stop-color="#666666"/>
</linearGradient>
<linearGradient id="paint2_linear_300_2612" x1="230.121" y1="68.8256" x2="1037" y2="68.8256" gradientUnits="userSpaceOnUse">
<stop/>
<stop offset="1" stop-color="#666666"/>
</linearGradient>
<linearGradient id="paint3_linear_300_2612" x1="230.121" y1="68.8256" x2="1037" y2="68.8256" gradientUnits="userSpaceOnUse">
<stop/>
<stop offset="1" stop-color="#666666"/>
</linearGradient>
<linearGradient id="paint4_linear_300_2612" x1="230.121" y1="68.8256" x2="1037" y2="68.8256" gradientUnits="userSpaceOnUse">
<stop/>
<stop offset="1" stop-color="#666666"/>
</linearGradient>
<linearGradient id="paint5_linear_300_2612" x1="230.121" y1="68.8256" x2="1037" y2="68.8256" gradientUnits="userSpaceOnUse">
<stop/>
<stop offset="1" stop-color="#666666"/>
</linearGradient>
<linearGradient id="paint6_linear_300_2612" x1="230.121" y1="68.8256" x2="1037" y2="68.8256" gradientUnits="userSpaceOnUse">
<stop/>
<stop offset="1" stop-color="#666666"/>
</linearGradient>
<linearGradient id="paint7_linear_300_2612" x1="230.121" y1="68.8256" x2="1037" y2="68.8256" gradientUnits="userSpaceOnUse">
<stop/>
<stop offset="1" stop-color="#666666"/>
</linearGradient>
<linearGradient id="paint8_linear_300_2612" x1="230.121" y1="68.8256" x2="1037" y2="68.8256" gradientUnits="userSpaceOnUse">
<stop/>
<stop offset="1" stop-color="#666666"/>
</linearGradient>
<linearGradient id="paint9_linear_300_2612" x1="230.121" y1="68.8256" x2="1037" y2="68.8256" gradientUnits="userSpaceOnUse">
<stop/>
<stop offset="1" stop-color="#666666"/>
</linearGradient>
<linearGradient id="paint10_linear_300_2612" x1="230.121" y1="68.8256" x2="1037" y2="68.8256" gradientUnits="userSpaceOnUse">
<stop/>
<stop offset="1" stop-color="#666666"/>
</linearGradient>
<linearGradient id="paint11_linear_300_2612" x1="230.121" y1="68.8256" x2="1037" y2="68.8256" gradientUnits="userSpaceOnUse">
<stop/>
<stop offset="1" stop-color="#666666"/>
</linearGradient>
<linearGradient id="paint12_linear_300_2612" x1="230.121" y1="68.8256" x2="1037" y2="68.8256" gradientUnits="userSpaceOnUse">
<stop/>
<stop offset="1" stop-color="#666666"/>
</linearGradient>
</defs>
</svg>
