<svg width="20" height="42" viewBox="0 0 20 42" fill="none" xmlns="http://www.w3.org/2000/svg">
<path opacity="0.5" d="M17.0306 35.3306C17.816 36.5747 19.2545 39.2243 19.4138 40.3704C19.4297 40.4852 19.4227 40.6021 19.3934 40.7142C19.3641 40.8264 19.313 40.9317 19.243 41.0241C19.173 41.1165 19.0855 41.1942 18.9854 41.2528C18.8854 41.3114 18.7748 41.3497 18.6599 41.3655C18.428 41.3975 18.1928 41.3361 18.0062 41.1947C17.9138 41.1247 17.8361 41.0371 17.7775 40.9371C17.7189 40.8371 17.6806 40.7265 17.6648 40.6116C17.529 39.6356 16.1752 37.268 15.4629 36.1862C15.2589 35.9465 15.0062 35.6723 14.7397 35.3899C13.916 36.201 12.4111 37.2408 10.3506 36.7575C7.54453 36.0993 5.25238 33.6764 5.15584 33.574C4.97536 33.3812 4.89094 33.1172 4.92587 32.8562C4.96121 32.5934 5.11023 32.3604 5.3351 32.221C5.42844 32.1631 7.51689 30.9024 10.8594 31.4631C10.2653 30.8441 9.70266 30.2109 9.18414 29.5707C8.32162 29.9885 6.77306 30.4799 4.74333 30.0038C1.34186 29.206 0.559809 25.0185 0.5281 24.8406C0.449004 24.3933 0.721687 23.9592 1.16021 23.8364C1.24079 23.8136 3.1601 23.2875 4.92054 23.7004C5.44511 23.8234 5.9551 24.0646 6.44445 24.3588C6.28147 23.8146 6.14712 23.2604 6.04138 22.6957C5.71307 22.6908 5.35741 22.6628 4.96761 22.5713C3.77335 22.2912 2.43421 21.5359 1.78349 19.8506C0.892499 17.5432 1.20471 14.0399 1.21946 13.892C1.24508 13.6089 1.40567 13.3562 1.65145 13.2126C1.89724 13.069 2.20069 13.0543 2.45686 13.1678C2.59673 13.2297 4.77248 14.2224 6.17779 15.9171C6.18365 15.8917 6.18618 15.8663 6.19215 15.8408C6.28309 15.4531 6.38112 15.0699 6.48682 14.6902C4.74974 13.329 3.86149 11.6894 4.00214 10.0214C4.18369 7.86775 5.50692 5.69047 6.65906 4.58113C6.83721 4.409 7.07882 4.32118 7.32694 4.33768C7.57117 4.35145 7.8034 4.47143 7.95842 4.6646C8.02239 4.74429 9.1391 6.2244 9.21912 8.94359C9.39306 8.72249 9.58216 8.5114 9.77332 8.30171L10.457 5.38695C11.2868 1.84893 15.538 0.173505 15.7183 0.104303C15.9484 0.0159658 16.2082 0.0257286 16.4262 0.135782C16.6472 0.244721 16.8118 0.441486 16.8814 0.678071C16.9199 0.807654 17.8007 3.87979 16.3116 6.23257C14.9314 8.41332 11.847 9.29682 11.0734 9.49181C10.7573 9.83884 10.4664 10.208 10.1994 10.5987C11.5138 9.92624 12.8273 9.66948 13.6532 9.5127C13.9474 9.4566 14.2488 9.55196 14.4555 9.76814C14.6626 9.9826 14.7458 10.2893 14.6776 10.5797C14.3724 11.8813 13.9538 13.6639 12.3279 15.2087C10.8547 16.6092 8.87746 16.8869 7.78377 16.9276C7.61232 17.8451 7.52818 18.7552 7.52673 19.6539C8.0776 18.9264 8.81778 18.3023 9.76784 17.8055C10.1678 17.5956 10.6615 17.7244 10.9101 18.0982C10.9703 18.1893 12.3852 20.3537 11.6734 23.3882C11.3577 24.7344 10.2949 25.8438 9.26066 26.5648C9.31255 26.6599 9.3547 26.7609 9.40871 26.8545C9.78488 27.5065 10.3404 28.2203 10.9691 28.9501C10.8177 27.4668 11.023 26.1955 11.0391 26.1003C11.0824 25.8422 11.2389 25.6178 11.4649 25.485C11.6907 25.353 11.965 25.3307 12.2085 25.4169C12.3314 25.4611 15.2285 26.5262 16.5443 28.8734C17.6159 30.7842 16.6533 33.1229 16.0772 34.2165C16.4365 34.5999 16.7525 34.9703 17.0306 35.3306Z" fill="black"/>
</svg>
