<svg width="192" height="34" viewBox="0 0 192 34" fill="none" xmlns="http://www.w3.org/2000/svg">
<path d="M33.8392 17C33.8392 26.3888 26.264 34 16.9196 34C7.57515 34 0 26.3888 0 17C0 7.61116 7.57515 0 16.9196 0C26.264 0 33.8392 7.61116 33.8392 17Z" fill="#1952C2"/>
<path d="M14.4495 8.93796C15.7529 7.48222 18.0863 7.48222 19.3896 8.93796L20.2906 9.94431C22.7853 12.7307 24.6891 15.965 25.8937 19.4629C26.3886 20.9001 25.4901 22.4362 23.9624 22.7648L23.7299 22.8148C19.2444 23.7797 14.5948 23.7797 10.1092 22.8148L9.87681 22.7648C8.34902 22.4362 7.45059 20.9001 7.94551 19.4629C9.15003 15.965 11.0539 12.7307 13.5485 9.94431L14.4495 8.93796Z" fill="white"/>
<path d="M52.3302 25.8971C50.9521 25.8971 49.6687 25.6484 48.4801 25.151C47.3086 24.6536 46.2923 23.976 45.4309 23.1184C44.5696 22.2436 43.8891 21.223 43.3895 20.0566C42.9072 18.8731 42.666 17.6123 42.666 16.2744C42.666 14.9365 42.9072 13.6843 43.3895 12.5179C43.8891 11.3344 44.5696 10.3138 45.4309 9.45617C46.2923 8.58137 47.3086 7.89526 48.4801 7.39783C49.6687 6.9004 50.9521 6.65168 52.3302 6.65168C53.7084 6.65168 54.9832 6.9004 56.1546 7.39783C57.3432 7.89526 58.3682 8.58137 59.2296 9.45617C60.0909 10.3138 60.7628 11.3344 61.2451 12.5179C61.7447 13.6843 61.9945 14.9365 61.9945 16.2744C61.9945 17.6123 61.7447 18.8731 61.2451 20.0566C60.7628 21.223 60.0909 22.2436 59.2296 23.1184C58.3682 23.976 57.3432 24.6536 56.1546 25.151C54.9832 25.6484 53.7084 25.8971 52.3302 25.8971ZM52.3302 22.6038C53.1916 22.6038 53.9926 22.4494 54.7334 22.1407C55.4914 21.8319 56.146 21.4031 56.6972 20.8542C57.2657 20.3053 57.705 19.6449 58.0151 18.8731C58.3424 18.084 58.506 17.2178 58.506 16.2744C58.506 15.331 58.3424 14.4734 58.0151 13.7015C57.705 12.9125 57.2657 12.2435 56.6972 11.6946C56.146 11.1457 55.4914 10.7169 54.7334 10.4081C53.9926 10.0994 53.1916 9.94502 52.3302 9.94502C51.4689 9.94502 50.6592 10.0994 49.9013 10.4081C49.1605 10.7169 48.5059 11.1457 47.9374 11.6946C47.3862 12.2435 46.9469 12.9125 46.6196 13.7015C46.3095 14.4734 46.1544 15.331 46.1544 16.2744C46.1544 17.2178 46.3095 18.084 46.6196 18.8731C46.9469 19.6449 47.3862 20.3053 47.9374 20.8542C48.5059 21.4031 49.1605 21.8319 49.9013 22.1407C50.6592 22.4494 51.4689 22.6038 52.3302 22.6038Z" fill="#43B947"/>
<path d="M69.5045 25.7942C68.4364 25.6742 67.4631 25.4426 66.5845 25.0995C65.706 24.7565 64.948 24.3019 64.3106 23.7359C63.6732 23.1698 63.1823 22.5095 62.8377 21.7547C62.4932 20.9829 62.3209 20.1252 62.3209 19.1818C62.3209 18.2556 62.4932 17.4151 62.8377 16.6603C63.1823 15.8885 63.6732 15.2195 64.3106 14.6535C64.948 14.0874 65.706 13.6329 66.5845 13.2898C67.4631 12.9296 68.4364 12.6895 69.5045 12.5694V7.06335L72.8895 6.32422V12.5694C73.9576 12.7066 74.9309 12.9553 75.8095 13.3156C76.6881 13.6586 77.446 14.1132 78.0834 14.6792C78.7208 15.2281 79.2118 15.8885 79.5563 16.6603C79.9008 17.4151 80.0731 18.2556 80.0731 19.1818C80.0731 20.1252 79.9008 20.9829 79.5563 21.7547C79.2118 22.5095 78.7208 23.1698 78.0834 23.7359C77.446 24.2848 76.6881 24.7393 75.8095 25.0995C74.9309 25.4426 73.9576 25.6742 72.8895 25.7942V30.3039L69.5045 31.043V25.7942ZM65.6026 19.1818C65.6026 20.1767 65.9385 20.9914 66.6104 21.6261C67.2995 22.2436 68.2642 22.6467 69.5045 22.8354V15.5283C68.2642 15.7169 67.2995 16.1286 66.6104 16.7633C65.9385 17.3808 65.6026 18.1869 65.6026 19.1818ZM76.7914 19.1818C76.7914 18.1869 76.4469 17.3808 75.7578 16.7633C75.086 16.1286 74.1299 15.7169 72.8895 15.5283V22.8354C74.1299 22.6467 75.086 22.2436 75.7578 21.6261C76.4469 20.9914 76.7914 20.1767 76.7914 19.1818Z" fill="#43B947"/>
<path d="M93.0184 25.4855H89.6334V20.3654L89.8401 17.8954H89.6334L84.5687 25.4855H81.1836V12.8782H84.5687V17.9983L84.362 20.4683H84.5687L89.6334 12.8782H93.0184V25.4855Z" fill="#43B947"/>
<path d="M106.777 22.2693C106.225 23.3328 105.45 24.2076 104.451 24.8937C103.469 25.5627 102.237 25.8971 100.756 25.8971C99.7738 25.8971 98.8694 25.7342 98.0425 25.4083C97.2329 25.0652 96.5266 24.5935 95.9236 23.9932C95.3379 23.3928 94.8728 22.6896 94.5283 21.8834C94.201 21.06 94.0373 20.1595 94.0373 19.1818C94.0373 18.2041 94.201 17.3036 94.5283 16.4802C94.8728 15.6569 95.3379 14.9536 95.9236 14.3704C96.5266 13.7701 97.2329 13.307 98.0425 12.9811C98.8694 12.638 99.7738 12.4665 100.756 12.4665C102.22 12.4665 103.452 12.801 104.451 13.4699C105.45 14.1389 106.182 15.0051 106.647 16.0686L103.546 17.355C103.254 16.7718 102.875 16.3344 102.41 16.0428C101.962 15.7341 101.393 15.5797 100.704 15.5797C100.256 15.5797 99.8341 15.6655 99.4379 15.837C99.0417 16.0085 98.6885 16.2487 98.3785 16.5574C98.0856 16.8662 97.853 17.2435 97.6808 17.6895C97.5085 18.1355 97.4224 18.6329 97.4224 19.1818C97.4224 19.7307 97.5085 20.2281 97.6808 20.6741C97.853 21.1201 98.0856 21.4974 98.3785 21.8062C98.6885 22.1149 99.0417 22.3551 99.4379 22.5266C99.8341 22.6981 100.256 22.7839 100.704 22.7839C101.41 22.7839 102.005 22.6295 102.487 22.3208C102.987 21.9949 103.383 21.5317 103.676 20.9314L106.777 22.2693Z" fill="#43B947"/>
<path d="M111.104 7.06335H117.357C118.821 7.06335 120.139 7.28634 121.31 7.73231C122.482 8.17828 123.481 8.81294 124.308 9.63627C125.135 10.4425 125.764 11.4116 126.194 12.5437C126.642 13.6758 126.866 14.9193 126.866 16.2744C126.866 17.6466 126.642 18.8988 126.194 20.0309C125.764 21.163 125.135 22.1321 124.308 22.9383C123.481 23.7445 122.482 24.3705 121.31 24.8165C120.139 25.2625 118.821 25.4855 117.357 25.4855H111.104V7.06335ZM117.202 22.1921C118.218 22.1921 119.114 22.0549 119.889 21.7805C120.664 21.4889 121.31 21.0858 121.827 20.5712C122.344 20.0566 122.732 19.4391 122.99 18.7187C123.248 17.9811 123.378 17.1664 123.378 16.2744C123.378 15.3825 123.248 14.5763 122.99 13.8559C122.732 13.1183 122.344 12.4922 121.827 11.9776C121.31 11.463 120.664 11.0685 119.889 10.7941C119.114 10.5025 118.218 10.3567 117.202 10.3567H114.592V22.1921H117.202Z" fill="#1952C2"/>
<path d="M139.845 25.4855H136.46V20.3654L136.667 17.8954H136.46L131.395 25.4855H128.01V12.8782H131.395V17.9983L131.189 20.4683H131.395L136.46 12.8782H139.845V25.4855Z" fill="#1952C2"/>
<path d="M141.61 12.8782L144.789 12.139V14.3962H144.995C145.305 13.8644 145.788 13.4099 146.442 13.0325C147.097 12.6552 147.907 12.4665 148.871 12.4665C149.681 12.4665 150.448 12.638 151.171 12.9811C151.912 13.307 152.558 13.7701 153.109 14.3704C153.678 14.9536 154.126 15.6569 154.453 16.4802C154.78 17.3036 154.944 18.2041 154.944 19.1818C154.944 20.1595 154.78 21.06 154.453 21.8834C154.126 22.7067 153.678 23.4186 153.109 24.0189C152.558 24.6021 151.912 25.0652 151.171 25.4083C150.448 25.7342 149.681 25.8971 148.871 25.8971C147.907 25.8971 147.097 25.7085 146.442 25.3311C145.788 24.9537 145.305 24.4992 144.995 23.9674H144.789L144.995 25.7685V30.3039L141.61 31.043V12.8782ZM148.174 22.7839C148.622 22.7839 149.044 22.6981 149.44 22.5266C149.853 22.3551 150.215 22.1149 150.525 21.8062C150.835 21.4974 151.085 21.1201 151.275 20.6741C151.464 20.2281 151.559 19.7307 151.559 19.1818C151.559 18.6329 151.464 18.1355 151.275 17.6895C151.085 17.2435 150.835 16.8662 150.525 16.5574C150.215 16.2487 149.853 16.0085 149.44 15.837C149.044 15.6655 148.622 15.5797 148.174 15.5797C147.726 15.5797 147.295 15.6655 146.882 15.837C146.485 15.9914 146.132 16.223 145.822 16.5317C145.512 16.8405 145.262 17.2178 145.073 17.6638C144.883 18.1098 144.789 18.6158 144.789 19.1818C144.789 19.7479 144.883 20.2539 145.073 20.6998C145.262 21.1458 145.512 21.5232 145.822 21.8319C146.132 22.1407 146.485 22.3808 146.882 22.5523C147.295 22.7067 147.726 22.7839 148.174 22.7839Z" fill="#1952C2"/>
<path d="M168.063 22.4494C167.477 23.4786 166.685 24.3105 165.686 24.9452C164.704 25.5798 163.498 25.8971 162.068 25.8971C161.103 25.8971 160.208 25.7342 159.381 25.4083C158.571 25.0652 157.865 24.5935 157.262 23.9932C156.659 23.3928 156.185 22.6896 155.841 21.8834C155.513 21.06 155.35 20.1595 155.35 19.1818C155.35 18.2727 155.513 17.4151 155.841 16.6089C156.168 15.7856 156.624 15.0737 157.21 14.4734C157.796 13.8559 158.485 13.367 159.277 13.0068C160.087 12.6466 160.974 12.4665 161.939 12.4665C162.955 12.4665 163.86 12.638 164.652 12.9811C165.445 13.307 166.108 13.7701 166.642 14.3704C167.176 14.9536 167.581 15.6483 167.856 16.4545C168.132 17.2607 168.27 18.1355 168.27 19.0789C168.27 19.199 168.27 19.3019 168.27 19.3876C168.252 19.4906 168.244 19.5849 168.244 19.6707C168.227 19.7564 168.218 19.8508 168.218 19.9537H158.683C158.752 20.4683 158.89 20.9142 159.096 21.2916C159.32 21.6518 159.587 21.9606 159.897 22.2179C160.225 22.458 160.578 22.6381 160.957 22.7582C161.336 22.8611 161.724 22.9126 162.12 22.9126C162.895 22.9126 163.532 22.741 164.032 22.398C164.549 22.0378 164.954 21.5918 165.246 21.06L168.063 22.4494ZM164.988 17.5609C164.971 17.3379 164.893 17.0892 164.755 16.8147C164.635 16.5403 164.445 16.283 164.187 16.0428C163.946 15.8027 163.636 15.6055 163.257 15.4511C162.895 15.2967 162.456 15.2195 161.939 15.2195C161.215 15.2195 160.578 15.4253 160.027 15.837C159.475 16.2487 159.088 16.8233 158.864 17.5609H164.988Z" fill="#1952C2"/>
<path d="M172.99 19.4648H172.783V25.4855H169.398V12.8782H172.783V18.2556H172.99L177.073 12.8782H181.052V13.084L176.53 18.8216L181.336 25.2796V25.4855H177.357L172.99 19.4648Z" fill="#1952C2"/>
<path d="M183.018 12.8782H192V15.9914H188.098V25.4855H184.713V15.9914H180.811L183.018 12.8782Z" fill="#1952C2"/>
</svg>
