<svg width="127" height="23" viewBox="0 0 127 23" fill="none" xmlns="http://www.w3.org/2000/svg">
<g opacity="0.3">
<path d="M22.3515 11.2289C22.3515 17.4304 17.348 22.4578 11.1758 22.4578C5.00356 22.4578 0 17.4304 0 11.2289C0 5.02734 5.00356 0 11.1758 0C17.348 0 22.3515 5.02734 22.3515 11.2289Z" fill="white"/>
<path d="M9.54423 5.90372C10.4051 4.94217 11.9464 4.94217 12.8073 5.90372L13.4024 6.56844C15.0502 8.40888 16.3077 10.5452 17.1033 12.8557C17.4302 13.805 16.8368 14.8196 15.8277 15.0367L15.6741 15.0697C12.7114 15.707 9.64016 15.707 6.67737 15.0697L6.52385 15.0367C5.51472 14.8196 4.92128 13.805 5.24818 12.8557C6.0438 10.5452 7.30133 8.40888 8.9491 6.56844L9.54423 5.90372Z" fill="#212121"/>
<path d="M34.5651 17.1061C33.6548 17.1061 32.8071 16.9418 32.0219 16.6132C31.2482 16.2847 30.5769 15.8371 30.0079 15.2707C29.439 14.6928 28.9895 14.0187 28.6595 13.2483C28.3409 12.4665 28.1816 11.6338 28.1816 10.7501C28.1816 9.86633 28.3409 9.03926 28.6595 8.26883C28.9895 7.48707 29.439 6.81295 30.0079 6.24646C30.5769 5.66863 31.2482 5.21544 32.0219 4.88688C32.8071 4.55831 33.6548 4.39403 34.5651 4.39403C35.4754 4.39403 36.3174 4.55831 37.0911 4.88688C37.8763 5.21544 38.5533 5.66863 39.1222 6.24646C39.6912 6.81295 40.1349 7.48707 40.4535 8.26883C40.7835 9.03926 40.9485 9.86633 40.9485 10.7501C40.9485 11.6338 40.7835 12.4665 40.4535 13.2483C40.1349 14.0187 39.6912 14.6928 39.1222 15.2707C38.5533 15.8371 37.8763 16.2847 37.0911 16.6132C36.3174 16.9418 35.4754 17.1061 34.5651 17.1061ZM34.5651 14.9308C35.134 14.9308 35.6631 14.8288 36.1524 14.6249C36.6531 14.4209 37.0855 14.1377 37.4496 13.7751C37.8251 13.4126 38.1152 12.9764 38.32 12.4665C38.5362 11.9454 38.6443 11.3732 38.6443 10.7501C38.6443 10.1269 38.5362 9.56043 38.32 9.05058C38.1152 8.52941 37.8251 8.08755 37.4496 7.725C37.0855 7.36244 36.6531 7.0792 36.1524 6.87526C35.6631 6.67132 35.134 6.56936 34.5651 6.56936C33.9961 6.56936 33.4613 6.67132 32.9607 6.87526C32.4714 7.0792 32.039 7.36244 31.6635 7.725C31.2994 8.08755 31.0092 8.52941 30.793 9.05058C30.5882 9.56043 30.4858 10.1269 30.4858 10.7501C30.4858 11.3732 30.5882 11.9454 30.793 12.4665C31.0092 12.9764 31.2994 13.4126 31.6635 13.7751C32.039 14.1377 32.4714 14.4209 32.9607 14.6249C33.4613 14.8288 33.9961 14.9308 34.5651 14.9308Z" fill="white"/>
<path d="M45.909 17.0381C45.2036 16.9588 44.5607 16.8058 43.9804 16.5792C43.4 16.3527 42.8994 16.0524 42.4784 15.6785C42.0574 15.3046 41.7331 14.8684 41.5055 14.3699C41.2779 13.8601 41.1641 13.2936 41.1641 12.6705C41.1641 12.0587 41.2779 11.5035 41.5055 11.005C41.7331 10.4951 42.0574 10.0533 42.4784 9.67939C42.8994 9.30551 43.4 9.00527 43.9804 8.77867C44.5607 8.54074 45.2036 8.38213 45.909 8.30282V4.66595L48.145 4.17773V8.30282C48.8504 8.39346 49.4933 8.55774 50.0736 8.79566C50.6539 9.02226 51.1546 9.3225 51.5756 9.69638C51.9966 10.0589 52.3209 10.4951 52.5485 11.005C52.7761 11.5035 52.8899 12.0587 52.8899 12.6705C52.8899 13.2936 52.7761 13.8601 52.5485 14.3699C52.3209 14.8684 51.9966 15.3046 51.5756 15.6785C51.1546 16.0411 50.6539 16.3413 50.0736 16.5792C49.4933 16.8058 48.8504 16.9588 48.145 17.0381V20.0168L45.909 20.505V17.0381ZM43.3318 12.6705C43.3318 13.3276 43.5537 13.8658 43.9974 14.285C44.4526 14.6928 45.0898 14.9591 45.909 15.0837V10.2572C45.0898 10.3818 44.4526 10.6538 43.9974 11.073C43.5537 11.4808 43.3318 12.0133 43.3318 12.6705ZM50.7222 12.6705C50.7222 12.0133 50.4946 11.4808 50.0395 11.073C49.5957 10.6538 48.9642 10.3818 48.145 10.2572V15.0837C48.9642 14.9591 49.5957 14.6928 50.0395 14.285C50.4946 13.8658 50.7222 13.3276 50.7222 12.6705Z" fill="white"/>
<path d="M61.4405 16.8342H59.2046V13.4522L59.3412 11.8207H59.2046L55.8593 16.8342H53.6234V8.50675H55.8593V11.8887L55.7227 13.5202H55.8593L59.2046 8.50675H61.4405V16.8342Z" fill="white"/>
<path d="M70.528 14.7098C70.1639 15.4123 69.6519 15.9901 68.9919 16.4433C68.3433 16.8852 67.5298 17.1061 66.5512 17.1061C65.9026 17.1061 65.3052 16.9984 64.7591 16.7832C64.2243 16.5566 63.7577 16.245 63.3595 15.8485C62.9726 15.4519 62.6654 14.9874 62.4378 14.4549C62.2216 13.9111 62.1135 13.3163 62.1135 12.6705C62.1135 12.0247 62.2216 11.4298 62.4378 10.886C62.6654 10.3422 62.9726 9.87766 63.3595 9.49245C63.7577 9.0959 64.2243 8.79 64.7591 8.57473C65.3052 8.34814 65.9026 8.23484 66.5512 8.23484C67.5184 8.23484 68.332 8.45577 68.9919 8.89763C69.6519 9.3395 70.1355 9.91165 70.4427 10.6141L68.3946 11.4638C68.2011 11.0786 67.9508 10.7897 67.6436 10.5971C67.3477 10.3932 66.9722 10.2912 66.5171 10.2912C66.2212 10.2912 65.9424 10.3478 65.6807 10.4611C65.419 10.5744 65.1858 10.7331 64.9809 10.937C64.7875 11.1409 64.6339 11.3902 64.5201 11.6848C64.4063 11.9793 64.3494 12.3079 64.3494 12.6705C64.3494 13.033 64.4063 13.3616 64.5201 13.6562C64.6339 13.9507 64.7875 14.2 64.9809 14.4039C65.1858 14.6079 65.419 14.7665 65.6807 14.8798C65.9424 14.9931 66.2212 15.0497 66.5171 15.0497C66.9836 15.0497 67.3762 14.9478 67.6948 14.7438C68.0247 14.5286 68.2864 14.2226 68.4799 13.8261L70.528 14.7098Z" fill="white"/>
<path d="M73.3861 4.66595H77.5166C78.4838 4.66595 79.3543 4.81323 80.128 5.10781C80.9018 5.40238 81.5617 5.82159 82.1079 6.36542C82.6541 6.89792 83.0694 7.53805 83.3539 8.28582C83.6497 9.03359 83.7976 9.855 83.7976 10.7501C83.7976 11.6564 83.6497 12.4835 83.3539 13.2313C83.0694 13.9791 82.6541 14.6192 82.1079 15.1517C81.5617 15.6842 80.9018 16.0977 80.128 16.3923C79.3543 16.6869 78.4838 16.8342 77.5166 16.8342H73.3861V4.66595ZM77.4142 14.6588C78.0855 14.6588 78.6772 14.5682 79.1893 14.3869C79.7013 14.1943 80.128 13.9281 80.4694 13.5882C80.8107 13.2483 81.0668 12.8404 81.2374 12.3646C81.4081 11.8774 81.4935 11.3392 81.4935 10.7501C81.4935 10.1609 81.4081 9.62841 81.2374 9.15255C81.0668 8.66537 80.8107 8.25183 80.4694 7.91194C80.128 7.57204 79.7013 7.31146 79.1893 7.13018C78.6772 6.93757 78.0855 6.84127 77.4142 6.84127H75.6903V14.6588H77.4142Z" fill="white"/>
<path d="M92.3706 16.8342H90.1347V13.4522L90.2712 11.8207H90.1347L86.7893 16.8342H84.5534V8.50675H86.7893V11.8887L86.6528 13.5202H86.7893L90.1347 8.50675H92.3706V16.8342Z" fill="white"/>
<path d="M93.5365 8.50675L95.6359 8.01854V9.50944H95.7725C95.9773 9.15822 96.2959 8.85798 96.7283 8.60872C97.1607 8.35947 97.6954 8.23484 98.3326 8.23484C98.8674 8.23484 99.3738 8.34814 99.8517 8.57473C100.341 8.79 100.768 9.0959 101.132 9.49245C101.507 9.87766 101.803 10.3422 102.019 10.886C102.236 11.4298 102.344 12.0247 102.344 12.6705C102.344 13.3163 102.236 13.9111 102.019 14.4549C101.803 14.9987 101.507 15.4689 101.132 15.8655C100.768 16.2507 100.341 16.5566 99.8517 16.7832C99.3738 16.9984 98.8674 17.1061 98.3326 17.1061C97.6954 17.1061 97.1607 16.9815 96.7283 16.7322C96.2959 16.4829 95.9773 16.1827 95.7725 15.8315H95.6359L95.7725 17.0211V20.0168L93.5365 20.505V8.50675ZM97.8718 15.0497C98.1677 15.0497 98.4464 14.9931 98.7082 14.8798C98.9812 14.7665 99.2202 14.6079 99.425 14.4039C99.6298 14.2 99.7948 13.9507 99.92 13.6562C100.045 13.3616 100.108 13.033 100.108 12.6705C100.108 12.3079 100.045 11.9793 99.92 11.6848C99.7948 11.3902 99.6298 11.1409 99.425 10.937C99.2202 10.7331 98.9812 10.5744 98.7082 10.4611C98.4464 10.3478 98.1677 10.2912 97.8718 10.2912C97.576 10.2912 97.2915 10.3478 97.0184 10.4611C96.7567 10.5631 96.5234 10.7161 96.3186 10.92C96.1138 11.1239 95.9488 11.3732 95.8237 11.6678C95.6985 11.9623 95.6359 12.2966 95.6359 12.6705C95.6359 13.0443 95.6985 13.3786 95.8237 13.6731C95.9488 13.9677 96.1138 14.217 96.3186 14.4209C96.5234 14.6249 96.7567 14.7835 97.0184 14.8968C97.2915 14.9987 97.576 15.0497 97.8718 15.0497Z" fill="white"/>
<path d="M111.009 14.8288C110.622 15.5086 110.099 16.0581 109.439 16.4773C108.79 16.8965 107.994 17.1061 107.049 17.1061C106.412 17.1061 105.82 16.9984 105.274 16.7832C104.739 16.5566 104.273 16.245 103.875 15.8485C103.476 15.4519 103.164 14.9874 102.936 14.4549C102.72 13.9111 102.612 13.3163 102.612 12.6705C102.612 12.07 102.72 11.5035 102.936 10.971C103.152 10.4272 103.454 9.95697 103.841 9.56043C104.227 9.15255 104.683 8.82965 105.206 8.59173C105.741 8.3538 106.327 8.23484 106.964 8.23484C107.635 8.23484 108.233 8.34814 108.756 8.57473C109.28 8.79 109.718 9.0959 110.07 9.49245C110.423 9.87766 110.691 10.3365 110.873 10.869C111.055 11.4015 111.146 11.9793 111.146 12.6025C111.146 12.6818 111.146 12.7498 111.146 12.8064C111.134 12.8744 111.129 12.9367 111.129 12.9934C111.117 13.05 111.112 13.1123 111.112 13.1803H104.813C104.859 13.5202 104.95 13.8148 105.087 14.064C105.234 14.302 105.411 14.5059 105.616 14.6758C105.832 14.8345 106.065 14.9534 106.315 15.0327C106.566 15.1007 106.822 15.1347 107.083 15.1347C107.596 15.1347 108.017 15.0214 108.347 14.7948C108.688 14.5569 108.955 14.2623 109.149 13.9111L111.009 14.8288ZM108.978 11.5998C108.967 11.4525 108.915 11.2882 108.824 11.1069C108.745 10.9257 108.62 10.7557 108.449 10.5971C108.29 10.4385 108.085 10.3082 107.834 10.2062C107.596 10.1043 107.305 10.0533 106.964 10.0533C106.486 10.0533 106.065 10.1892 105.701 10.4611C105.337 10.7331 105.081 11.1126 104.933 11.5998H108.978Z" fill="white"/>
<path d="M114.263 12.8574H114.127V16.8342H111.891V8.50675H114.127V12.0587H114.263L116.96 8.50675H119.589V8.64271L116.602 12.4325L119.776 16.6982V16.8342H117.148L114.263 12.8574Z" fill="white"/>
<path d="M120.887 8.50675H126.82V10.5631H124.243V16.8342H122.007V10.5631H119.429L120.887 8.50675Z" fill="white"/>
</g>
</svg>
