<svg width="20" height="42" viewBox="0 0 20 42" fill="none" xmlns="http://www.w3.org/2000/svg">
<path opacity="0.5" d="M2.87568 35.3306C2.09025 36.5747 0.651775 39.2243 0.492415 40.3704C0.476573 40.4852 0.483507 40.6021 0.512821 40.7142C0.542135 40.8264 0.593254 40.9317 0.663261 41.0241C0.733267 41.1165 0.82079 41.1942 0.920831 41.2528C1.02087 41.3114 1.13147 41.3497 1.24632 41.3655C1.47826 41.3975 1.71342 41.3361 1.90005 41.1947C1.99246 41.1247 2.07017 41.0371 2.12876 40.9371C2.18734 40.8371 2.22565 40.7265 2.24149 40.6116C2.37721 39.6356 3.73104 37.268 4.44334 36.1862C4.64735 35.9465 4.90002 35.6723 5.16654 35.3899C5.99022 36.201 7.49516 37.2408 9.55566 36.7575C12.3617 36.0993 14.6539 33.6764 14.7504 33.574C14.9309 33.3812 15.0153 33.1172 14.9804 32.8562C14.945 32.5934 14.796 32.3604 14.5712 32.221C14.4778 32.1631 12.3894 30.9024 9.04681 31.4631C9.64091 30.8441 10.2036 30.2109 10.7221 29.5707C11.5846 29.9885 13.1332 30.4799 15.1629 30.0038C18.5644 29.206 19.3464 25.0185 19.3781 24.8406C19.4572 24.3933 19.1846 23.9592 18.746 23.8364C18.6655 23.8136 16.7462 23.2875 14.9857 23.7004C14.4611 23.8234 13.9511 24.0646 13.4618 24.3588C13.6248 23.8146 13.7591 23.2604 13.8649 22.6957C14.1932 22.6908 14.5488 22.6628 14.9386 22.5713C16.1329 22.2912 17.472 21.5359 18.1228 19.8506C19.0137 17.5432 18.7015 14.0399 18.6868 13.892C18.6612 13.6089 18.5006 13.3562 18.2548 13.2126C18.009 13.069 17.7056 13.0543 17.4494 13.1678C17.3095 13.2297 15.1338 14.2224 13.7285 15.9171C13.7226 15.8917 13.7201 15.8663 13.7141 15.8408C13.6232 15.4531 13.5251 15.0699 13.4194 14.6902C15.1565 13.329 16.0448 11.6894 15.9041 10.0214C15.7226 7.86775 14.3993 5.69047 13.2472 4.58113C13.069 4.409 12.8274 4.32118 12.5793 4.33768C12.3351 4.35146 12.1028 4.47143 11.9478 4.6646C11.8839 4.74429 10.7671 6.2244 10.6871 8.94359C10.5132 8.72249 10.3241 8.5114 10.1329 8.30171L9.44928 5.38695C8.61944 1.84893 4.36822 0.173505 4.18792 0.104303C3.95781 0.015966 3.69808 0.0257288 3.48007 0.135782C3.25907 0.244722 3.0944 0.441486 3.0248 0.678071C2.98631 0.807655 2.10556 3.87979 3.59466 6.23257C4.97481 8.41332 8.05927 9.29682 8.83288 9.49181C9.14898 9.83884 9.43986 10.208 9.70682 10.5987C8.39245 9.92624 7.07897 9.66948 6.25301 9.5127C5.95886 9.4566 5.65747 9.55196 5.45074 9.76814C5.24362 9.9826 5.16049 10.2893 5.2286 10.5797C5.53389 11.8813 5.95246 13.6639 7.57836 15.2087C9.05154 16.6092 11.0288 16.8869 12.1225 16.9276C12.2939 17.8451 12.3781 18.7552 12.3795 19.6539C11.8287 18.9264 11.0885 18.3023 10.1384 17.8055C9.7384 17.5956 9.24474 17.7244 8.99612 18.0982C8.93592 18.1893 7.52106 20.3537 8.23281 23.3882C8.54855 24.7344 9.61131 25.8438 10.6456 26.5649C10.5937 26.6599 10.5515 26.7609 10.4975 26.8545C10.1214 27.5065 9.56584 28.2203 8.93718 28.9501C9.08856 27.4668 8.88326 26.1955 8.86716 26.1003C8.82383 25.8422 8.66737 25.6178 8.44134 25.485C8.21551 25.353 7.9413 25.3307 7.69773 25.4169C7.57485 25.4611 4.67775 26.5262 3.36192 28.8734C2.29033 30.7842 3.25294 33.1229 3.82909 34.2165C3.46976 34.5999 3.15372 34.9703 2.87568 35.3306Z" fill="black"/>
</svg>
