<svg width="35" height="48" viewBox="0 0 35 48" fill="none" xmlns="http://www.w3.org/2000/svg">
<path d="M13.7712 0.00575317C12.4154 0.0462444 11.1054 0.752373 10.3591 1.98622L10.0954 2.42372C9.71887 3.0454 9.05538 3.42829 8.32979 3.44325H8.32783L7.81611 3.45497C5.62027 3.5007 3.8315 5.28818 3.78682 7.48427L3.7751 7.99599C3.76014 8.72159 3.37608 9.38645 2.75557 9.76161L2.31807 10.0272C0.439141 11.1646 -0.216912 13.6082 0.841505 15.5331H0.843458L1.08955 15.9823C1.4397 16.618 1.4397 17.3857 1.08955 18.0214L0.843458 18.4686C-0.21479 20.3932 0.43987 22.8372 2.32002 23.9745L2.75752 24.2382C3.3792 24.6147 3.76209 25.2782 3.77705 26.0038V26.0058L3.78877 26.5175C3.82576 28.2937 5.01006 29.7863 6.6208 30.3222L1.42549 41.58C1.35499 41.7324 1.32401 41.9001 1.33541 42.0677C1.34681 42.2352 1.40021 42.3972 1.4907 42.5387C1.58119 42.6801 1.70585 42.7966 1.85318 42.8772C2.0005 42.9578 2.16576 43 2.33369 42.9999H8.85322L12.5524 47.6249C12.66 47.7593 12.8005 47.8637 12.9603 47.9279C13.1201 47.9921 13.2937 48.014 13.4644 47.9914C13.6351 47.9688 13.7971 47.9025 13.9347 47.799C14.0723 47.6954 14.1808 47.5581 14.2497 47.4003L17.3649 40.2811L20.4802 47.4003C20.5491 47.5581 20.6576 47.6954 20.7952 47.799C20.9328 47.9025 21.0947 47.9688 21.2654 47.9914C21.4362 48.014 21.6098 47.9921 21.7696 47.9279C21.9293 47.8637 22.0698 47.7593 22.1774 47.6249L25.8767 42.9999H32.3962C32.5641 43 32.7294 42.9578 32.8767 42.8772C33.024 42.7966 33.1487 42.6801 33.2392 42.5387C33.3297 42.3972 33.3831 42.2352 33.3945 42.0677C33.4059 41.9001 33.3749 41.7324 33.3044 41.58L28.1013 30.3046C29.6849 29.7536 30.844 28.2743 30.8806 26.5175V26.5155L30.8923 26.0058V26.0038C30.9072 25.2782 31.2913 24.6133 31.9118 24.2382L32.3513 23.9726C34.2302 22.8352 34.8843 20.3935 33.8259 18.4686L33.8239 18.4667L33.5739 18.0155C33.2259 17.3806 33.2264 16.6148 33.5759 15.9804L33.8239 15.5331V15.5311C34.8817 13.6074 34.2276 11.1652 32.3493 10.0272L32.3474 10.0253L31.9099 9.76161C31.2882 9.38526 30.9053 8.72158 30.8903 7.99599V7.99404L30.8786 7.48427V7.48232C30.8329 5.28646 29.0454 3.4977 26.8493 3.45302L26.3376 3.4413C25.612 3.42634 24.9471 3.04228 24.572 2.42177L24.3063 1.98427C23.1691 0.104118 20.7251 -0.550543 18.8005 0.507706V0.509659L18.3513 0.755753C17.7156 1.1059 16.9479 1.1059 16.3122 0.755753L15.8649 0.509659C15.3838 0.245097 14.8707 0.0873365 14.3532 0.0291907C14.1592 0.00738597 13.9649 -3.1333e-05 13.7712 0.00575317ZM13.7204 1.99989C14.1159 1.97103 14.5258 2.05471 14.9021 2.26161L15.3474 2.50771C16.5817 3.18756 18.0838 3.18756 19.3181 2.50771L19.7653 2.25966V2.26161C20.7688 1.70986 22.0027 2.03958 22.5954 3.01943L22.861 3.45693C23.5897 4.66114 24.8875 5.41162 26.2946 5.4413L26.8083 5.45302C27.9536 5.47632 28.8573 6.37808 28.8806 7.52333V7.52529L28.8903 8.037C28.9194 9.44541 29.6704 10.7431 30.8747 11.4726L31.3122 11.7382C32.2915 12.3305 32.6223 13.5632 32.072 14.5663L31.8239 15.0155C31.1441 16.2498 31.1441 17.75 31.8239 18.9843L31.8259 18.9862V18.9882L32.0739 19.4315C32.6255 20.4347 32.2932 21.669 31.3142 22.2616L30.8767 22.5272C29.6712 23.2561 28.9213 24.5544 28.8923 25.9628L28.8825 26.4745V26.4765C28.8592 27.6217 27.9555 28.5235 26.8103 28.5468L26.2966 28.5585C24.8889 28.5882 23.5921 29.3371 22.863 30.5409V30.5429L22.5974 30.9804C22.0047 31.9602 20.7707 32.2899 19.7673 31.7382V31.7401L19.32 31.4921C18.0857 30.8122 16.5836 30.8122 15.3493 31.4921L14.9021 31.7401V31.7382C13.8989 32.2898 12.6646 31.9594 12.072 30.9804L11.8063 30.5429C11.0777 29.3386 9.77993 28.5882 8.37276 28.5585H8.3708L7.85908 28.5468C6.71383 28.5235 5.81012 27.6217 5.78682 26.4765V26.4745L5.77705 25.9628C5.74801 24.5544 4.997 23.2567 3.79268 22.5272L3.35518 22.2616C2.37536 21.6688 2.04366 20.435 2.59541 19.4315L2.8415 18.9862V18.9843C3.52042 17.7503 3.52104 16.2492 2.8415 15.0155L2.59346 14.5683H2.59541C2.04383 13.5651 2.3742 12.3308 3.35322 11.7382L3.79072 11.4726C4.99494 10.7439 5.74542 9.44613 5.7751 8.03896V8.037L5.78682 7.52529C5.81012 6.38004 6.71188 5.47632 7.85713 5.45302H7.85908L8.3708 5.44325C9.77921 5.41421 11.0769 4.6632 11.8063 3.45888L12.072 3.02138C12.3683 2.53145 12.8236 2.20236 13.3317 2.0663C13.4588 2.03228 13.5886 2.00951 13.7204 1.99989ZM26.0349 30.6034L30.8317 40.9999H25.3962C25.2462 40.9998 25.0981 41.0335 24.9628 41.0984C24.8276 41.1633 24.7087 41.2578 24.6149 41.3749L21.6481 45.0819L18.4567 37.7831L20.1403 33.9354C21.7475 34.1865 23.4232 33.4788 24.3083 32.0155L24.5739 31.578C24.8963 31.0458 25.433 30.7046 26.0349 30.6034ZM8.69111 30.6112C9.27019 30.7249 9.78426 31.0634 10.0954 31.578L10.361 32.0155C11.4984 33.8945 13.942 34.5505 15.8669 33.4921V33.4901L16.3161 33.244C16.9263 32.9079 17.6551 32.9037 18.2751 33.2128L13.0817 45.0819L10.1149 41.3749C10.0212 41.2578 9.90228 41.1633 9.76704 41.0984C9.63181 41.0335 9.4837 40.9998 9.33369 40.9999H3.89815L8.69111 30.6112Z" fill="white"/>
</svg>
