<svg width="37" height="50" viewBox="0 0 37 50" fill="none" xmlns="http://www.w3.org/2000/svg">
<g opacity="0.4">
<path d="M14.7712 1.00575C13.4154 1.04624 12.1054 1.75237 11.3591 2.98622L11.0954 3.42372C10.7189 4.0454 10.0554 4.42829 9.32979 4.44325H9.32783L8.81611 4.45497C6.62027 4.5007 4.8315 6.28818 4.78682 8.48427L4.7751 8.99599C4.76014 9.72159 4.37608 10.3865 3.75557 10.7616L3.31807 11.0272C1.43914 12.1646 0.783088 14.6082 1.84151 16.5331H1.84346L2.08955 16.9823C2.4397 17.618 2.4397 18.3857 2.08955 19.0214L1.84346 19.4686C0.78521 21.3932 1.43987 23.8372 3.32002 24.9745L3.75752 25.2382C4.3792 25.6147 4.76209 26.2782 4.77705 27.0038V27.0058L4.78877 27.5175C4.82576 29.2937 6.01006 30.7863 7.6208 31.3222L2.42549 42.58C2.35499 42.7324 2.32401 42.9001 2.33541 43.0677C2.34681 43.2352 2.40021 43.3972 2.4907 43.5387C2.58119 43.6801 2.70585 43.7966 2.85318 43.8772C3.0005 43.9578 3.16576 44 3.33369 43.9999H9.85322L13.5524 48.6249C13.66 48.7593 13.8005 48.8637 13.9603 48.9279C14.1201 48.9921 14.2937 49.014 14.4644 48.9914C14.6351 48.9688 14.7971 48.9025 14.9347 48.799C15.0723 48.6954 15.1808 48.5581 15.2497 48.4003L18.3649 41.2811L21.4802 48.4003C21.5491 48.5581 21.6576 48.6954 21.7952 48.799C21.9328 48.9025 22.0947 48.9688 22.2654 48.9914C22.4362 49.014 22.6098 48.9921 22.7696 48.9279C22.9293 48.8637 23.0698 48.7593 23.1774 48.6249L26.8767 43.9999H33.3962C33.5641 44 33.7294 43.9578 33.8767 43.8772C34.024 43.7966 34.1487 43.6801 34.2392 43.5387C34.3297 43.3972 34.3831 43.2352 34.3945 43.0677C34.4059 42.9001 34.3749 42.7324 34.3044 42.58L29.1013 31.3046C30.6849 30.7536 31.844 29.2743 31.8806 27.5175V27.5155L31.8923 27.0058V27.0038C31.9072 26.2782 32.2913 25.6133 32.9118 25.2382L33.3513 24.9726C35.2302 23.8352 35.8843 21.3935 34.8259 19.4686L34.8239 19.4667L34.5739 19.0155C34.2259 18.3806 34.2264 17.6148 34.5759 16.9804L34.8239 16.5331V16.5311C35.8817 14.6074 35.2276 12.1652 33.3493 11.0272L33.3474 11.0253L32.9099 10.7616C32.2882 10.3853 31.9053 9.72158 31.8903 8.99599V8.99404L31.8786 8.48427V8.48232C31.8329 6.28646 30.0454 4.4977 27.8493 4.45302L27.3376 4.4413C26.612 4.42634 25.9471 4.04228 25.572 3.42177L25.3063 2.98427C24.1691 1.10412 21.7251 0.449457 19.8005 1.50771V1.50966L19.3513 1.75575C18.7156 2.1059 17.9479 2.1059 17.3122 1.75575L16.8649 1.50966C16.3838 1.2451 15.8707 1.08734 15.3532 1.02919C15.1592 1.00739 14.9649 0.999969 14.7712 1.00575ZM14.7204 2.99989C15.1159 2.97103 15.5258 3.05471 15.9021 3.26161L16.3474 3.50771C17.5817 4.18756 19.0838 4.18756 20.3181 3.50771L20.7653 3.25966V3.26161C21.7688 2.70986 23.0027 3.03958 23.5954 4.01943L23.861 4.45693C24.5897 5.66114 25.8875 6.41162 27.2946 6.4413L27.8083 6.45302C28.9536 6.47632 29.8573 7.37808 29.8806 8.52333V8.52529L29.8903 9.037C29.9194 10.4454 30.6704 11.7431 31.8747 12.4726L32.3122 12.7382C33.2915 13.3305 33.6223 14.5632 33.072 15.5663L32.8239 16.0155C32.1441 17.2498 32.1441 18.75 32.8239 19.9843L32.8259 19.9862V19.9882L33.0739 20.4315C33.6255 21.4347 33.2932 22.669 32.3142 23.2616L31.8767 23.5272C30.6712 24.2561 29.9213 25.5544 29.8923 26.9628L29.8825 27.4745V27.4765C29.8592 28.6217 28.9555 29.5235 27.8103 29.5468L27.2966 29.5585C25.8889 29.5882 24.5921 30.3371 23.863 31.5409V31.5429L23.5974 31.9804C23.0047 32.9602 21.7707 33.2899 20.7673 32.7382V32.7401L20.32 32.4921C19.0857 31.8122 17.5836 31.8122 16.3493 32.4921L15.9021 32.7401V32.7382C14.8989 33.2898 13.6646 32.9594 13.072 31.9804L12.8063 31.5429C12.0777 30.3386 10.7799 29.5882 9.37276 29.5585H9.3708L8.85908 29.5468C7.71383 29.5235 6.81012 28.6217 6.78682 27.4765V27.4745L6.77705 26.9628C6.74801 25.5544 5.997 24.2567 4.79268 23.5272L4.35518 23.2616C3.37536 22.6688 3.04366 21.435 3.59541 20.4315L3.8415 19.9862V19.9843C4.52042 18.7503 4.52104 17.2492 3.8415 16.0155L3.59346 15.5683H3.59541C3.04383 14.5651 3.3742 13.3308 4.35322 12.7382L4.79072 12.4726C5.99494 11.7439 6.74542 10.4461 6.7751 9.03896V9.037L6.78682 8.52529C6.81012 7.38004 7.71188 6.47632 8.85713 6.45302H8.85908L9.3708 6.44325C10.7792 6.41421 12.0769 5.6632 12.8063 4.45888L13.072 4.02138C13.3683 3.53145 13.8236 3.20236 14.3317 3.0663C14.4588 3.03228 14.5886 3.00951 14.7204 2.99989ZM27.0349 31.6034L31.8317 41.9999H26.3962C26.2462 41.9998 26.0981 42.0335 25.9628 42.0984C25.8276 42.1633 25.7087 42.2578 25.6149 42.3749L22.6481 46.0819L19.4567 38.7831L21.1403 34.9354C22.7475 35.1865 24.4232 34.4788 25.3083 33.0155L25.5739 32.578C25.8963 32.0458 26.433 31.7046 27.0349 31.6034ZM9.69111 31.6112C10.2702 31.7249 10.7843 32.0634 11.0954 32.578L11.361 33.0155C12.4984 34.8945 14.942 35.5505 16.8669 34.4921V34.4901L17.3161 34.244C17.9263 33.9079 18.6551 33.9037 19.2751 34.2128L14.0817 46.0819L11.1149 42.3749C11.0212 42.2578 10.9023 42.1633 10.767 42.0984C10.6318 42.0335 10.4837 41.9998 10.3337 41.9999H4.89815L9.69111 31.6112Z" fill="black"/>
</g>
</svg>
