<svg width="34" height="34" viewBox="0 0 34 34" fill="none" xmlns="http://www.w3.org/2000/svg">
<rect width="34" height="34" rx="17" fill="#1952C2"/>
<path d="M11.098 25.5V23.2159L17.1577 17.2756C17.7372 16.6903 18.2202 16.1705 18.6065 15.7159C18.9929 15.2614 19.2827 14.821 19.4759 14.3949C19.669 13.9687 19.7656 13.5142 19.7656 13.0312C19.7656 12.4801 19.6406 12.0085 19.3906 11.6165C19.1406 11.2188 18.7969 10.9119 18.3594 10.696C17.9219 10.4801 17.4247 10.3722 16.8679 10.3722C16.294 10.3722 15.7912 10.4915 15.3594 10.7301C14.9276 10.9631 14.5923 11.2955 14.3537 11.7273C14.1207 12.1591 14.0043 12.6733 14.0043 13.2699H10.9957C10.9957 12.1619 11.2486 11.1989 11.7543 10.3807C12.2599 9.5625 12.956 8.92898 13.8423 8.48011C14.7344 8.03125 15.7571 7.80682 16.9105 7.80682C18.081 7.80682 19.1094 8.02557 19.9957 8.46307C20.8821 8.90057 21.5696 9.5 22.0582 10.2614C22.5526 11.0227 22.7997 11.892 22.7997 12.8693C22.7997 13.5227 22.6747 14.1648 22.4247 14.7955C22.1747 15.4261 21.7344 16.125 21.1037 16.892C20.4787 17.6591 19.6009 18.5881 18.4702 19.679L15.4616 22.7386V22.858H23.0639V25.5H11.098Z" fill="white"/>
</svg>
