<svg width="20" height="20" viewBox="0 0 20 20" fill="none" xmlns="http://www.w3.org/2000/svg">
<g opacity="0.5" clip-path="url(#clip0_300_112)">
<path fill-rule="evenodd" clip-rule="evenodd" d="M5.404 16.5957C4.6481 15.8399 4.09028 14.9093 3.77995 13.8864C3.46961 12.8634 3.41635 11.7798 3.62488 10.7314C3.8334 9.68293 4.29728 8.70212 4.97542 7.8758C5.65355 7.04948 6.52502 6.40316 7.51261 5.99409C8.50021 5.58503 9.57344 5.42585 10.6373 5.53065C11.7011 5.63544 12.7226 6.00099 13.6114 6.5949C14.5002 7.18882 15.2288 7.99276 15.7326 8.93552C16.2365 9.87829 16.5001 10.9308 16.5 11.9997C16.5 12.3312 16.3683 12.6492 16.1339 12.8836C15.8995 13.118 15.5815 13.2497 15.25 13.2497C14.9185 13.2497 14.6005 13.118 14.3661 12.8836C14.1317 12.6492 14 12.3312 14 11.9997C13.9999 11.0323 13.6492 10.0977 13.0128 9.36898C12.3765 8.6403 11.4976 8.16694 10.539 8.03659C9.58033 7.90624 8.60696 8.12773 7.79913 8.66004C6.9913 9.19234 6.40376 9.99938 6.14534 10.9317C5.88693 11.864 5.97515 12.8583 6.39366 13.7305C6.81218 14.6028 7.53263 15.2938 8.42156 15.6755C9.31049 16.0573 10.3077 16.1039 11.2283 15.8068C12.149 15.5098 12.9309 14.8891 13.429 14.0597C13.8257 14.4103 14.3152 14.6389 14.8386 14.7181C15.3621 14.7973 15.8972 14.7237 16.3799 14.5062C16.8626 14.2887 17.2722 13.9365 17.5595 13.4918C17.8469 13.0472 17.9999 12.5291 18 11.9997C17.9999 10.1489 17.3581 8.35533 16.1839 6.92465C15.0097 5.49397 13.3757 4.5147 11.5605 4.15368C9.74517 3.79266 7.86086 4.07223 6.2286 4.94476C4.59633 5.8173 3.3171 7.2288 2.60887 8.93878C1.90064 10.6487 1.80723 12.5514 2.34455 14.3225C2.88187 16.0936 4.01668 17.6237 5.55563 18.6519C7.09457 19.6801 8.94243 20.1429 10.7844 19.9615C12.6263 19.78 14.3483 18.9655 15.657 17.6567C15.7895 17.5145 15.8616 17.3265 15.8582 17.1322C15.8547 16.9379 15.776 16.7525 15.6386 16.6151C15.5012 16.4777 15.3158 16.399 15.1215 16.3955C14.9272 16.3921 14.7392 16.4642 14.597 16.5967C13.9934 17.2004 13.2768 17.6793 12.4881 18.006C11.6995 18.3327 10.8542 18.5008 10.0005 18.5008C9.14684 18.5008 8.30153 18.3327 7.51286 18.006C6.72419 17.6793 6.00759 17.2004 5.404 16.5967V16.5957ZM10 9.49972C9.33696 9.49972 8.70108 9.76311 8.23223 10.232C7.76339 10.7008 7.5 11.3367 7.5 11.9997C7.5 12.6628 7.76339 13.2986 8.23223 13.7675C8.70108 14.2363 9.33696 14.4997 10 14.4997C10.663 14.4997 11.2989 14.2363 11.7678 13.7675C12.2366 13.2986 12.5 12.6628 12.5 11.9997C12.5 11.3367 12.2366 10.7008 11.7678 10.232C11.2989 9.76311 10.663 9.49972 10 9.49972Z" fill="white"/>
</g>
<defs>
<clipPath id="clip0_300_112">
<rect width="20" height="20" fill="white"/>
</clipPath>
</defs>
</svg>
