<svg width="408" height="425" viewBox="0 0 408 425" fill="none" xmlns="http://www.w3.org/2000/svg">
<path d="M42.4785 168.024C41.3981 139.292 40.8579 124.926 46.0368 113.742C50.5923 103.904 58.1453 95.7602 67.6135 90.4787C78.3773 84.4745 92.7432 83.9343 121.475 82.8539L230.441 78.7563C259.173 77.6759 273.538 77.1357 284.723 82.3146C294.561 86.8701 302.704 94.4232 307.986 103.891C313.99 114.655 314.53 129.021 315.611 157.753L320.583 289.99C321.664 318.722 322.204 333.088 317.025 344.272C312.469 354.11 304.916 362.253 295.448 367.535C284.684 373.539 270.318 374.079 241.587 375.16L132.621 379.257C103.889 380.338 89.5232 380.878 78.3388 375.699C68.5008 371.143 60.3575 363.59 55.076 354.122C49.0718 343.358 48.5315 328.993 47.4511 300.261L42.4785 168.024Z" fill="url(#paint0_linear_300_118)"/>
<path d="M85.3815 117.881C89.3978 89.4104 91.406 75.1753 98.4807 65.0828C104.704 56.2052 113.578 49.5255 123.83 46.0012C135.486 41.9945 149.721 44.0027 178.191 48.019L289.329 63.6974C317.799 67.7137 332.034 69.7219 342.126 76.7966C351.004 83.0196 357.684 91.8935 361.208 102.146C365.215 113.802 363.206 128.037 359.19 156.507L340.221 290.973C336.204 319.444 334.196 333.679 327.122 343.771C320.899 352.649 312.025 359.329 301.772 362.853C290.116 366.86 275.881 364.851 247.411 360.835L136.274 345.157C107.803 341.14 93.5684 339.132 83.4759 332.058C74.5982 325.834 67.9186 316.961 64.3942 306.708C60.3876 295.052 62.3958 280.817 66.4121 252.347L85.3815 117.881Z" fill="white"/>
<path d="M121.316 186.746L121.246 187.241L121.741 187.311L177.477 195.174L174.462 216.55L174.392 217.045L174.887 217.115L195.262 219.989L195.757 220.059L195.827 219.564L198.842 198.188L213.426 200.246L213.922 200.315L213.991 199.82L216.468 182.266L216.538 181.771L216.043 181.701L201.458 179.644L212.455 101.691L212.525 101.196L212.03 101.126L200.093 99.4422L199.598 99.3724L191.886 98.2844L191.39 98.2145L185.439 97.375L185.167 97.3366L184.989 97.5463L123.825 169.514L123.731 169.624L123.711 169.768L121.316 186.746ZM187.688 123.356L187.841 123.378L180.324 176.662L146.723 171.922L146.763 171.639L187.688 123.356ZM236.682 223.031L236.683 223.032C242.983 226.888 250.445 229.418 259.057 230.633C267.631 231.842 275.444 231.467 282.489 229.493C289.565 227.527 295.379 224.286 299.913 219.759L299.914 219.758C304.461 215.184 307.193 209.652 308.107 203.177C308.816 198.151 308.338 193.364 306.668 188.825C305.04 184.304 302.534 180.371 299.149 177.031C295.904 173.755 292.08 171.389 287.681 169.935C293.761 169.35 299.023 166.909 303.449 162.62C308.018 158.203 310.76 152.747 311.673 146.271C312.543 140.108 311.563 134.348 308.73 129.007C305.942 123.682 301.725 119.219 296.099 115.615C290.509 111.974 283.899 109.621 276.28 108.546C268.585 107.461 261.524 107.885 255.107 109.832C248.703 111.74 243.416 114.862 239.263 119.208C235.102 123.563 232.606 128.832 231.775 135C230.823 141.467 231.89 147.46 234.981 152.958L234.983 152.961C238.052 158.31 242.49 162.119 248.28 164.377C243.65 164.558 239.284 165.769 235.188 168.007C231.01 170.281 227.512 173.367 224.697 177.262C221.875 181.168 220.131 185.641 219.46 190.672C218.508 197.139 219.565 203.205 222.63 208.853L222.632 208.857C225.736 214.461 230.427 219.185 236.682 223.031ZM283.91 188.356L283.913 188.363C285.379 191.414 285.879 194.771 285.399 198.447C284.864 201.961 283.531 204.924 281.407 207.352C279.281 209.784 276.529 211.527 273.132 212.578C269.743 213.589 265.876 213.796 261.519 213.182C257.125 212.562 253.43 211.268 250.42 209.315C247.445 207.365 245.279 204.947 243.904 202.06C242.537 199.141 242.113 195.934 242.647 192.421L242.647 192.422L242.648 192.411C243.129 188.734 244.481 185.64 246.696 183.109C248.964 180.534 251.819 178.666 255.272 177.508C258.721 176.352 262.518 176.06 266.673 176.646C270.789 177.227 274.318 178.552 277.274 180.611L277.276 180.612C280.274 182.68 282.481 185.261 283.91 188.356ZM278.721 158.667L278.718 158.668C275.837 159.705 272.633 159.982 269.095 159.483C265.518 158.978 262.458 157.818 259.898 156.012C257.378 154.171 255.518 151.896 254.307 149.185C253.144 146.45 252.808 143.426 253.315 140.098L253.315 140.098L253.317 140.087C253.744 136.785 254.878 134.027 256.703 131.793C258.576 129.52 260.961 127.906 263.87 126.949L263.872 126.948C266.827 125.957 270.128 125.712 273.786 126.228C277.366 126.733 280.412 127.873 282.939 129.636L282.943 129.639C285.474 131.365 287.319 133.576 288.491 136.279L288.492 136.282C289.666 138.94 290.048 141.913 289.621 145.214C289.113 148.542 287.897 151.349 285.982 153.652C284.062 155.962 281.645 157.633 278.721 158.667Z" stroke="#1952C2"/>
<path d="M147.962 228.409L142.671 265.914L134.174 264.715L139.465 227.21L147.962 228.409ZM141.591 244.793L140.572 252.02C139.551 252.308 138.407 252.537 137.138 252.706C135.887 252.862 134.573 252.942 133.194 252.947C131.832 252.954 130.483 252.863 129.148 252.675C124.135 251.968 120.329 250.285 117.732 247.628C115.154 244.956 114.202 241.228 114.878 236.442L116.641 223.94L125.09 225.132L123.326 237.634C123.099 239.245 123.201 240.58 123.633 241.637C124.065 242.694 124.827 243.532 125.918 244.151C127.012 244.753 128.43 245.177 130.171 245.423C132.125 245.699 134.008 245.765 135.821 245.622C137.634 245.48 139.558 245.203 141.591 244.793Z" fill="#1952C2"/>
<path d="M160.188 269.157C157.811 268.822 155.73 268.096 153.945 266.981C152.179 265.852 150.86 264.371 149.99 262.538C149.136 260.708 148.882 258.563 149.229 256.105C149.527 253.989 150.165 252.295 151.141 251.021C152.118 249.748 153.34 248.791 154.808 248.152C156.277 247.512 157.887 247.1 159.64 246.916C161.411 246.717 163.222 246.649 165.073 246.711C167.302 246.793 169.113 246.841 170.506 246.855C171.901 246.852 172.935 246.699 173.609 246.396C174.301 246.079 174.707 245.497 174.827 244.65L174.847 244.504C175.107 242.664 174.762 241.163 173.814 240C172.866 238.837 171.366 238.11 169.315 237.821C167.15 237.516 165.366 237.746 163.963 238.511C162.577 239.278 161.573 240.274 160.952 241.497L152.864 239.161C153.837 236.974 155.18 235.221 156.893 233.902C158.609 232.567 160.603 231.67 162.876 231.21C165.152 230.734 167.6 230.681 170.22 231.051C172.027 231.306 173.796 231.771 175.527 232.447C177.258 233.123 178.795 234.053 180.139 235.239C181.485 236.408 182.488 237.886 183.149 239.673C183.826 241.462 183.989 243.602 183.638 246.092L180.097 271.193L171.6 269.995L172.327 264.843L172.034 264.801C171.349 265.767 170.455 266.637 169.349 267.411C168.263 268.171 166.948 268.724 165.405 269.071C163.88 269.404 162.141 269.432 160.188 269.157ZM163.399 262.986C165.174 263.236 166.761 263.103 168.162 262.587C169.566 262.054 170.7 261.251 171.565 260.178C172.447 259.107 172.985 257.88 173.18 256.496L173.804 252.076C173.495 252.265 172.993 252.41 172.298 252.512C171.619 252.615 170.863 252.683 170.028 252.714C169.194 252.746 168.369 252.763 167.556 252.764C166.742 252.765 166.036 252.765 165.439 252.764C164.095 252.757 162.874 252.884 161.774 253.144C160.675 253.404 159.773 253.857 159.067 254.505C158.364 255.136 157.932 256.022 157.771 257.161C157.541 258.789 157.962 260.102 159.033 261.1C160.105 262.097 161.56 262.726 163.399 262.986Z" fill="#1952C2"/>
<path d="M203.178 275.197C199.434 274.668 196.335 273.393 193.881 271.37C191.444 269.349 189.705 266.788 188.665 263.686C187.643 260.57 187.4 257.116 187.935 253.323C188.473 249.514 189.679 246.256 191.556 243.549C193.434 240.825 195.823 238.838 198.722 237.587C201.64 236.321 204.93 235.947 208.593 236.464C211.637 236.893 214.252 237.835 216.437 239.289C218.641 240.729 220.3 242.565 221.413 244.797C222.528 247.013 222.993 249.486 222.807 252.216L214.358 251.024C214.271 249.169 213.67 247.548 212.554 246.162C211.456 244.762 209.841 243.912 207.709 243.611C205.902 243.356 204.246 243.621 202.741 244.404C201.238 245.172 199.977 246.405 198.957 248.104C197.953 249.805 197.273 251.917 196.917 254.441C196.557 256.996 196.621 259.247 197.11 261.192C197.602 263.12 198.453 264.677 199.664 265.86C200.894 267.03 202.428 267.744 204.268 268.004C205.57 268.188 206.768 268.108 207.863 267.764C208.976 267.406 209.949 266.805 210.782 265.959C211.615 265.114 212.257 264.034 212.708 262.72L221.157 263.912C220.571 266.535 219.458 268.777 217.817 270.637C216.179 272.482 214.115 273.817 211.624 274.645C209.135 275.456 206.32 275.64 203.178 275.197Z" fill="#1952C2"/>
<path d="M240.8 280.504C237.137 279.987 234.077 278.734 231.618 276.743C229.16 274.753 227.394 272.204 226.321 269.098C225.265 265.994 225.01 262.504 225.557 258.63C226.103 254.756 227.315 251.465 229.191 248.758C231.083 246.053 233.486 244.085 236.399 242.852C239.312 241.619 242.6 241.261 246.263 241.778C249.926 242.295 252.986 243.548 255.445 245.539C257.903 247.529 259.66 250.085 260.714 253.205C261.784 256.328 262.046 259.826 261.499 263.701C260.953 267.575 259.734 270.856 257.844 273.545C255.97 276.236 253.577 278.197 250.664 279.43C247.75 280.663 244.462 281.021 240.8 280.504ZM241.848 273.43C243.834 273.71 245.571 273.399 247.06 272.497C248.55 271.578 249.752 270.237 250.665 268.473C251.595 266.711 252.22 264.691 252.541 262.412C252.865 260.117 252.824 257.994 252.419 256.044C252.032 254.081 251.249 252.451 250.07 251.156C248.891 249.861 247.309 249.073 245.323 248.793C243.288 248.506 241.517 248.82 240.01 249.737C238.519 250.655 237.308 252.004 236.376 253.781C235.464 255.545 234.845 257.575 234.521 259.87C234.2 262.149 234.234 264.262 234.623 266.21C235.029 268.16 235.821 269.782 237 271.077C238.197 272.359 239.813 273.143 241.848 273.43Z" fill="#1952C2"/>
<path d="M264.314 283.074L269.605 245.569L285.354 247.791C289.798 248.418 293.181 249.8 295.502 251.937C297.84 254.076 298.785 256.733 298.337 259.907C298.041 262.007 297.066 263.621 295.413 264.749C293.778 265.864 291.675 266.472 289.104 266.574C291.051 267.015 292.706 267.754 294.071 268.794C295.451 269.835 296.469 271.091 297.125 272.562C297.781 274.032 297.985 275.646 297.737 277.404C297.445 279.472 296.646 281.194 295.34 282.57C294.052 283.932 292.314 284.891 290.128 285.446C287.959 285.986 285.41 286.05 282.48 285.637L264.314 283.074ZM273.573 277.283L283.462 278.678C285.09 278.907 286.422 278.705 287.457 278.071C288.495 277.421 289.109 276.428 289.297 275.093C289.515 273.547 289.222 272.269 288.418 271.259C287.617 270.232 286.402 269.605 284.774 269.375L274.885 267.98L273.573 277.283ZM275.691 262.266L283.334 263.344C284.539 263.514 285.596 263.489 286.507 263.269C287.421 263.033 288.15 262.629 288.695 262.059C289.243 261.472 289.58 260.731 289.706 259.835C289.888 258.549 289.501 257.466 288.546 256.584C287.608 255.704 286.211 255.134 284.355 254.872L276.883 253.818L275.691 262.266Z" fill="#1952C2"/>
<path d="M120.57 281.194L120.082 284.607L110.681 283.263L111.169 279.85L120.57 281.194ZM113.471 272.932L110.948 290.584L106.938 290.011L109.46 272.359L113.471 272.932ZM124.308 274.481L121.786 292.133L117.786 291.561L120.309 273.909L124.308 274.481Z" fill="#1952C2"/>
<path d="M130.053 293.678C128.934 293.518 127.955 293.175 127.116 292.648C126.285 292.115 125.665 291.417 125.257 290.553C124.857 289.691 124.739 288.681 124.904 287.524C125.047 286.528 125.348 285.731 125.809 285.132C126.27 284.533 126.846 284.084 127.538 283.784C128.23 283.484 128.988 283.292 129.813 283.206C130.647 283.115 131.5 283.084 132.371 283.115C133.421 283.155 134.273 283.179 134.929 283.187C135.586 283.187 136.073 283.116 136.39 282.974C136.716 282.825 136.908 282.551 136.965 282.153L136.975 282.084C137.099 281.218 136.938 280.511 136.492 279.963C136.047 279.414 135.341 279.071 134.376 278.933C133.357 278.787 132.517 278.894 131.856 279.253C131.202 279.613 130.729 280.081 130.436 280.657L126.63 279.55C127.09 278.521 127.724 277.697 128.531 277.078C129.34 276.451 130.28 276.03 131.35 275.815C132.422 275.593 133.574 275.57 134.808 275.746C135.658 275.868 136.491 276.089 137.305 276.408C138.119 276.728 138.842 277.167 139.474 277.727C140.106 278.278 140.578 278.975 140.887 279.817C141.205 280.659 141.28 281.667 141.112 282.839L139.424 294.653L135.424 294.082L135.771 291.657L135.633 291.637C135.31 292.091 134.888 292.5 134.367 292.864C133.855 293.22 133.235 293.48 132.509 293.642C131.791 293.797 130.972 293.809 130.053 293.678ZM131.57 290.775C132.405 290.894 133.152 290.833 133.812 290.591C134.473 290.342 135.008 289.965 135.416 289.46C135.832 288.957 136.087 288.379 136.18 287.728L136.477 285.648C136.332 285.737 136.095 285.805 135.768 285.852C135.448 285.9 135.092 285.931 134.699 285.945C134.306 285.959 133.918 285.966 133.535 285.966C133.152 285.966 132.82 285.966 132.539 285.965C131.906 285.96 131.331 286.019 130.813 286.14C130.295 286.262 129.87 286.475 129.537 286.779C129.206 287.076 129.002 287.492 128.925 288.028C128.815 288.794 129.012 289.413 129.516 289.884C130.019 290.354 130.704 290.651 131.57 290.775Z" fill="#1952C2"/>
<path d="M157.343 297.566C155.619 297.319 154.18 296.727 153.024 295.788C151.868 294.848 151.039 293.647 150.537 292.184C150.042 290.721 149.925 289.079 150.186 287.255C150.446 285.432 151.019 283.884 151.905 282.611C152.798 281.339 153.931 280.414 155.303 279.836C156.676 279.258 158.224 279.093 159.948 279.339C161.672 279.585 163.112 280.178 164.267 281.117C165.423 282.056 166.248 283.261 166.741 284.731C167.243 286.202 167.363 287.849 167.102 289.673C166.842 291.496 166.265 293.04 165.373 294.304C164.489 295.569 163.36 296.491 161.988 297.069C160.615 297.646 159.067 297.812 157.343 297.566ZM157.843 294.236C158.777 294.37 159.595 294.225 160.297 293.801C161 293.37 161.567 292.74 161.998 291.91C162.437 291.082 162.733 290.131 162.886 289.058C163.041 287.978 163.023 286.979 162.834 286.06C162.653 285.136 162.286 284.368 161.732 283.757C161.179 283.146 160.434 282.774 159.5 282.641C158.542 282.504 157.708 282.65 156.997 283.08C156.295 283.512 155.723 284.145 155.283 284.982C154.852 285.811 154.559 286.766 154.405 287.846C154.252 288.919 154.266 289.914 154.447 290.831C154.637 291.749 155.008 292.514 155.562 293.125C156.125 293.729 156.885 294.099 157.843 294.236Z" fill="#1952C2"/>
<path d="M168.501 284.279L168.989 280.865L184.434 283.073L183.946 286.486L178.235 285.67L176.2 299.909L172.178 299.334L174.212 285.095L168.501 284.279Z" fill="#1952C2"/>
<path d="M184.254 301.059L186.776 283.407L201.682 285.537L199.159 303.189L195.148 302.616L197.183 288.377L190.265 287.389L188.23 301.628L184.254 301.059Z" fill="#1952C2"/>
<path d="M201.52 310.282L204.989 286.01L209.08 286.594L208.663 289.514L208.904 289.548C209.18 289.15 209.548 288.737 210.008 288.31C210.468 287.876 211.057 287.534 211.773 287.284C212.489 287.027 213.365 286.972 214.399 287.12C215.763 287.315 216.943 287.839 217.939 288.693C218.944 289.54 219.671 290.688 220.121 292.136C220.579 293.577 220.668 295.279 220.388 297.24C220.111 299.179 219.558 300.78 218.728 302.046C217.898 303.311 216.885 304.221 215.687 304.777C214.49 305.333 213.198 305.512 211.811 305.314C210.8 305.17 209.985 304.881 209.367 304.449C208.748 304.016 208.27 303.534 207.932 303.001C207.602 302.461 207.357 301.961 207.196 301.5L207.024 301.475L205.681 310.876L201.52 310.282ZM207.807 295.419C207.644 296.561 207.662 297.583 207.861 298.487C208.068 299.393 208.444 300.13 208.988 300.701C209.54 301.264 210.257 301.609 211.138 301.735C212.058 301.866 212.863 301.731 213.553 301.33C214.245 300.92 214.809 300.309 215.246 299.496C215.692 298.676 215.993 297.714 216.151 296.611C216.307 295.516 216.289 294.52 216.097 293.625C215.904 292.73 215.532 291.996 214.98 291.425C214.429 290.853 213.689 290.502 212.762 290.369C211.874 290.242 211.086 290.368 210.398 290.747C209.711 291.125 209.146 291.713 208.704 292.51C208.269 293.308 207.97 294.277 207.807 295.419Z" fill="#1952C2"/>
<path d="M226.751 307.496C225.632 307.336 224.653 306.993 223.814 306.466C222.983 305.933 222.363 305.235 221.955 304.371C221.555 303.509 221.437 302.499 221.602 301.342C221.745 300.346 222.046 299.549 222.507 298.95C222.968 298.352 223.544 297.902 224.236 297.602C224.928 297.303 225.686 297.11 226.511 297.025C227.345 296.933 228.198 296.902 229.069 296.933C230.119 296.973 230.972 296.997 231.627 297.005C232.284 297.005 232.771 296.934 233.088 296.792C233.415 296.643 233.606 296.369 233.663 295.971L233.673 295.902C233.797 295.036 233.636 294.329 233.19 293.781C232.745 293.232 232.039 292.889 231.074 292.751C230.055 292.606 229.215 292.712 228.554 293.071C227.9 293.431 227.427 293.899 227.134 294.475L223.328 293.368C223.788 292.339 224.422 291.515 225.229 290.896C226.038 290.269 226.978 289.848 228.048 289.633C229.12 289.411 230.272 289.388 231.506 289.565C232.356 289.686 233.189 289.907 234.003 290.226C234.817 290.546 235.54 290.985 236.172 291.545C236.804 292.096 237.276 292.793 237.585 293.635C237.903 294.478 237.978 295.485 237.81 296.657L236.122 308.471L232.123 307.9L232.469 305.475L232.331 305.455C232.008 305.91 231.586 306.318 231.065 306.682C230.553 307.039 229.934 307.298 229.207 307.46C228.489 307.615 227.67 307.627 226.751 307.496ZM228.268 304.593C229.103 304.713 229.85 304.651 230.51 304.409C231.172 304.16 231.706 303.783 232.115 303.278C232.53 302.775 232.785 302.198 232.878 301.546L233.175 299.466C233.03 299.555 232.793 299.623 232.466 299.67C232.146 299.718 231.79 299.749 231.397 299.763C231.004 299.777 230.616 299.785 230.233 299.785C229.85 299.785 229.518 299.784 229.237 299.783C228.604 299.778 228.029 299.837 227.511 299.958C226.993 300.08 226.568 300.293 226.235 300.597C225.904 300.894 225.7 301.31 225.623 301.846C225.514 302.613 225.71 303.231 226.214 303.702C226.717 304.172 227.402 304.47 228.268 304.593Z" fill="#1952C2"/>
<path d="M239.334 308.931L241.857 291.278L249.269 292.338C251.361 292.636 252.952 293.29 254.043 294.298C255.142 295.307 255.585 296.559 255.372 298.053C255.23 299.041 254.77 299.8 253.991 300.33C253.22 300.853 252.23 301.138 251.019 301.183C251.935 301.393 252.714 301.742 253.355 302.233C254.004 302.724 254.483 303.316 254.79 304.009C255.098 304.702 255.192 305.462 255.074 306.29C254.935 307.263 254.557 308.072 253.941 308.719C253.334 309.36 252.515 309.809 251.485 310.069C250.464 310.322 249.264 310.349 247.885 310.152L239.334 308.931ZM243.698 306.212L248.353 306.877C249.119 306.987 249.746 306.892 250.234 306.595C250.723 306.289 251.013 305.823 251.103 305.194C251.207 304.466 251.07 303.864 250.692 303.388C250.316 302.905 249.744 302.608 248.978 302.498L244.324 301.833L243.698 306.212ZM244.708 299.144L248.305 299.658C248.872 299.739 249.37 299.728 249.799 299.625C250.229 299.515 250.573 299.325 250.83 299.057C251.089 298.782 251.248 298.433 251.308 298.012C251.395 297.406 251.214 296.896 250.765 296.48C250.324 296.065 249.666 295.795 248.793 295.67L245.276 295.168L244.708 299.144Z" fill="#1952C2"/>
<path d="M256.852 311.434L259.374 293.781L263.534 294.376L262.516 301.501L264.033 301.718L270.361 295.351L275.372 296.068L267.594 303.798L272.918 313.73L267.884 313.01L263.997 305.665L261.963 305.374L261.012 312.028L256.852 311.434Z" fill="#1952C2"/>
<path d="M276.135 320.944C275.568 320.863 275.05 320.742 274.581 320.581C274.118 320.429 273.753 320.275 273.486 320.12L274.914 317.017C275.494 317.28 276.022 317.441 276.498 317.501C276.974 317.562 277.413 317.472 277.815 317.232C278.223 317.001 278.601 316.571 278.95 315.94L279.442 315.037L275.616 296.102L280.029 296.733L282.192 310.646L282.376 310.672L288.361 297.924L292.786 298.556L282.89 317.336C282.427 318.223 281.876 318.962 281.236 319.551C280.596 320.147 279.856 320.565 279.017 320.805C278.184 321.053 277.223 321.1 276.135 320.944Z" fill="#1952C2"/>
<path d="M331.645 97.4706L331.648 97.4644C332.436 95.6503 332.581 93.6252 332.065 91.7205C331.549 89.8191 330.41 88.1658 328.857 87.0062C328.856 87.0054 328.855 87.0047 328.854 87.004C327.303 85.8469 325.417 85.2383 323.492 85.2626C321.566 85.2869 319.685 85.9449 318.156 87.1579L318.152 87.1611L290.183 109.376C290.183 109.376 290.183 109.376 290.182 109.377C290.182 109.377 290.181 109.378 290.181 109.378C288.846 110.438 287.842 111.872 287.31 113.512C286.777 115.154 286.745 116.913 287.214 118.568C287.681 120.222 288.624 121.688 289.906 122.796C291.187 123.904 292.757 124.613 294.421 124.848L294.421 124.848L302.161 125.939L298.875 133.484C298.874 133.487 298.873 133.49 298.871 133.493C298.08 135.305 297.93 137.329 298.443 139.234C298.955 141.14 300.094 142.799 301.65 143.962C303.204 145.124 305.095 145.735 307.024 145.709C308.954 145.684 310.836 145.023 312.366 143.806C312.367 143.805 312.368 143.805 312.368 143.804L340.331 121.594C340.331 121.594 340.331 121.594 340.332 121.593C340.332 121.593 340.333 121.593 340.333 121.592C341.668 120.532 342.672 119.098 343.204 117.458C343.737 115.816 343.769 114.057 343.301 112.402C342.833 110.748 341.89 109.282 340.608 108.174C339.327 107.066 337.757 106.357 336.093 106.123L336.093 106.122L328.352 105.031L331.645 97.4706ZM311.702 139.095L311.704 139.088C311.703 139.092 311.701 139.097 311.699 139.101L311.702 139.095Z" fill="#1952C2" stroke="white" stroke-width="14"/>
<defs>
<linearGradient id="paint0_linear_300_118" x1="222.5" y1="326" x2="-21.9995" y2="156.5" gradientUnits="userSpaceOnUse">
<stop stop-color="#0B378D"/>
<stop offset="1" stop-color="#0B378D" stop-opacity="0"/>
</linearGradient>
</defs>
</svg>
