<svg width="493" height="9" viewBox="0 0 493 9" fill="none" xmlns="http://www.w3.org/2000/svg">
<path fill-rule="evenodd" clip-rule="evenodd" d="M492.414 2.28504C492.433 2.69882 492.113 3.04964 491.699 3.06862C464.62 4.31083 437.347 5.26099 410.07 6.14767C392.394 6.72227 374.599 6.94522 356.809 7.16811C346.186 7.3012 335.565 7.43427 324.972 7.64216C322.163 7.69729 319.335 7.7688 316.496 7.84059C308.057 8.05401 299.517 8.26999 291.053 8.06613C286.484 7.95608 283.619 7.71026 280.246 6.77505C278.381 6.25796 274.799 6.11767 271.049 6.12393C269.195 6.12702 267.331 6.16525 265.661 6.20474C265.319 6.21284 264.984 6.22101 264.659 6.22893C263.405 6.25953 262.296 6.28658 261.447 6.29262C255.723 6.33337 250.025 6.41641 244.325 6.4995C239.464 6.57035 234.6 6.64124 229.716 6.68596C218.466 6.78898 209.153 6.75092 198.682 5.49039C198.381 5.45427 197.99 5.42003 197.54 5.38073C197.092 5.34155 196.586 5.29734 196.056 5.24118C195.551 5.18767 195.045 5.1248 194.613 5.04826C194.212 4.9773 193.773 4.87895 193.472 4.71787C193.109 4.524 192.798 4.22059 192.736 3.76195C192.709 3.56764 192.737 3.399 192.764 3.28402C192.779 3.22259 192.799 3.15661 192.815 3.10479C192.8 3.09758 192.784 3.08988 192.767 3.08174C191.86 2.66771 190.25 2.34812 188.168 2.11994C186.114 1.89483 183.689 1.76681 181.212 1.69595C177.691 1.59521 174.107 1.61059 171.363 1.62237C170.24 1.62719 169.258 1.6314 168.479 1.62682C150.266 1.51967 132.088 1.82176 113.928 2.12353C107.397 2.23206 100.869 2.34055 94.3427 2.42994C63.1986 2.85653 32.2693 2.96254 1.00554 2.30645C0.59142 2.29776 0.262753 1.95501 0.271444 1.54088C0.280134 1.12676 0.622892 0.798093 1.03701 0.806784C32.2772 1.46238 63.1877 1.35654 94.3222 0.930081C100.839 0.84082 107.361 0.732432 113.889 0.623959C132.053 0.322099 150.257 0.0195911 168.487 0.126842C169.244 0.131296 170.21 0.127162 171.321 0.122408C174.071 0.110642 177.708 0.0950798 181.255 0.196564C183.749 0.267924 186.22 0.397443 188.332 0.62887C190.416 0.857236 192.242 1.19318 193.39 1.71737C193.771 1.89134 194.128 2.14578 194.284 2.56128C194.424 2.93501 194.332 3.27742 194.284 3.4358C194.396 3.47233 194.588 3.52063 194.874 3.57123C195.255 3.63872 195.721 3.69729 196.214 3.74952C196.668 3.79758 197.171 3.84213 197.633 3.8831C198.123 3.92649 198.568 3.96586 198.861 4.00115C209.228 5.24917 218.458 5.28899 229.702 5.18603C234.559 5.14155 239.422 5.07072 244.289 4.99985C250.004 4.91662 255.722 4.83333 261.437 4.79266C262.271 4.78672 263.362 4.76011 264.614 4.72958C264.941 4.72161 265.279 4.71337 265.626 4.70516C267.297 4.66562 269.176 4.62705 271.047 4.62393C274.748 4.61775 278.547 4.7474 280.647 5.32958C283.842 6.21552 286.562 6.45753 291.089 6.56656C299.512 6.76945 308 6.55485 316.429 6.34171C319.275 6.26975 322.115 6.19795 324.943 6.14245C335.559 5.9341 346.19 5.80095 356.816 5.66786C374.593 5.44519 392.357 5.22269 410.022 4.64846C437.297 3.76183 464.561 2.81193 491.63 1.5702C492.044 1.55122 492.395 1.87126 492.414 2.28504Z" fill="#5CAB34"/>
</svg>
