<svg width="184" height="32" viewBox="0 0 184 32" fill="none" xmlns="http://www.w3.org/2000/svg">
<path fill-rule="evenodd" clip-rule="evenodd" d="M16.2626 32C25.2442 32 32.5252 24.8365 32.5252 16C32.5252 7.16345 25.2442 0 16.2626 0C7.28101 0 0 7.16345 0 16C0 24.8365 7.28101 32 16.2626 32ZM16.2625 6.13074C14.2945 6.13074 12.9152 8.18467 10.1567 12.2926L9.8159 12.8L7.76984 16.8748C7.4471 17.5176 7.28549 17.8394 7.20256 18.0933C6.54416 20.1091 7.78756 22.2459 9.88778 22.708C10.1523 22.7661 10.5157 22.792 11.2424 22.8435L11.2499 22.8441C11.904 22.8905 12.2321 22.9138 12.5602 22.9336C15.0261 23.0821 17.499 23.0821 19.965 22.9336C20.293 22.9138 20.6213 22.8905 21.2755 22.844L21.2821 22.8436C22.0088 22.792 22.3728 22.7661 22.6373 22.708C24.7375 22.2459 25.9809 20.1091 25.3225 18.0933C25.2396 17.8394 25.0782 17.5178 24.7553 16.8748L22.7092 12.8L22.3684 12.2926C19.6099 8.18467 18.2306 6.13074 16.2625 6.13074Z" fill="#1952C2"/>
<path d="M49.8692 23.584C48.5682 23.584 47.3566 23.352 46.2345 22.888C45.1287 22.424 44.1692 21.792 43.356 20.992C42.5429 20.176 41.9005 19.224 41.4289 18.136C40.9736 17.032 40.7459 15.856 40.7459 14.608C40.7459 13.36 40.9736 12.192 41.4289 11.104C41.9005 10 42.5429 9.04801 43.356 8.24801C44.1692 7.43201 45.1287 6.79201 46.2345 6.32801C47.3566 5.86401 48.5682 5.63201 49.8692 5.63201C51.1702 5.63201 52.3737 5.86401 53.4795 6.32801C54.6016 6.79201 55.5693 7.43201 56.3824 8.24801C57.1955 9.04801 57.8297 10 58.2851 11.104C58.7567 12.192 58.9925 13.36 58.9925 14.608C58.9925 15.856 58.7567 17.032 58.2851 18.136C57.8297 19.224 57.1955 20.176 56.3824 20.992C55.5693 21.792 54.6016 22.424 53.4795 22.888C52.3737 23.352 51.1702 23.584 49.8692 23.584ZM49.8692 20.512C50.6823 20.512 51.4386 20.368 52.1378 20.08C52.8534 19.792 53.4714 19.392 53.9918 18.88C54.5284 18.368 54.9431 17.752 55.2359 17.032C55.5449 16.296 55.6993 15.488 55.6993 14.608C55.6993 13.728 55.5449 12.928 55.2359 12.208C54.9431 11.472 54.5284 10.848 53.9918 10.336C53.4714 9.82401 52.8534 9.42401 52.1378 9.13601C51.4386 8.84801 50.6823 8.70401 49.8692 8.70401C49.0561 8.70401 48.2917 8.84801 47.5762 9.13601C46.8769 9.42401 46.2589 9.82401 45.7223 10.336C45.2019 10.848 44.7872 11.472 44.4782 12.208C44.1854 12.928 44.0391 13.728 44.0391 14.608C44.0391 15.488 44.1854 16.296 44.4782 17.032C44.7872 17.752 45.2019 18.368 45.7223 18.88C46.2589 19.392 46.8769 19.792 47.5762 20.08C48.2917 20.368 49.0561 20.512 49.8692 20.512Z" fill="black"/>
<path d="M67.0206 23.488C66.0123 23.376 65.0935 23.16 64.2641 22.84C63.4347 22.52 62.7191 22.096 62.1174 21.568C61.5157 21.04 61.0522 20.424 60.727 19.72C60.4017 19 60.2391 18.2 60.2391 17.32C60.2391 16.456 60.4017 15.672 60.727 14.968C61.0522 14.248 61.5157 13.624 62.1174 13.096C62.7191 12.568 63.4347 12.144 64.2641 11.824C65.0935 11.488 66.0123 11.264 67.0206 11.152V6.01601H70.2162V11.152C71.2245 11.28 72.1433 11.512 72.9727 11.848C73.8021 12.168 74.5176 12.592 75.1194 13.12C75.7211 13.632 76.1846 14.248 76.5098 14.968C76.8351 15.672 76.9977 16.456 76.9977 17.32C76.9977 18.2 76.8351 19 76.5098 19.72C76.1846 20.424 75.7211 21.04 75.1194 21.568C74.5176 22.08 73.8021 22.504 72.9727 22.84C72.1433 23.16 71.2245 23.376 70.2162 23.488V28.384H67.0206V23.488ZM63.3371 17.32C63.3371 18.248 63.6542 19.008 64.2885 19.6C64.939 20.176 65.8497 20.552 67.0206 20.728V13.912C65.8497 14.088 64.939 14.472 64.2885 15.064C63.6542 15.64 63.3371 16.392 63.3371 17.32ZM73.8997 17.32C73.8997 16.392 73.5744 15.64 72.9239 15.064C72.2897 14.472 71.3871 14.088 70.2162 13.912V20.728C71.3871 20.552 72.2897 20.176 72.9239 19.6C73.5744 19.008 73.8997 18.248 73.8997 17.32Z" fill="black"/>
<path d="M89.4624 23.2H86.2668V18.424L86.4619 16.12H86.2668L81.4856 23.2H78.29V11.44H81.4856V16.216L81.2904 18.52H81.4856L86.2668 11.44H89.4624V23.2Z" fill="black"/>
<path d="M102.694 20.2C102.174 21.192 101.442 22.008 100.499 22.648C99.5719 23.272 98.4091 23.584 97.0106 23.584C96.0836 23.584 95.2298 23.432 94.4492 23.128C93.6849 22.808 93.0181 22.368 92.4489 21.808C91.896 21.248 91.4569 20.592 91.1316 19.84C90.8227 19.072 90.6682 18.232 90.6682 17.32C90.6682 16.408 90.8227 15.568 91.1316 14.8C91.4569 14.032 91.896 13.376 92.4489 12.832C93.0181 12.272 93.6849 11.84 94.4492 11.536C95.2298 11.216 96.0836 11.056 97.0106 11.056C98.3929 11.056 99.5557 11.368 100.499 11.992C101.442 12.616 102.133 13.424 102.572 14.416L99.6451 15.616C99.3686 15.072 99.0109 14.664 98.5718 14.392C98.1489 14.104 97.6123 13.96 96.9618 13.96C96.5389 13.96 96.1405 14.04 95.7665 14.2C95.3924 14.36 95.0591 14.584 94.7663 14.872C94.4899 15.16 94.2703 15.512 94.1077 15.928C93.9451 16.344 93.8638 16.808 93.8638 17.32C93.8638 17.832 93.9451 18.296 94.1077 18.712C94.2703 19.128 94.4899 19.48 94.7663 19.768C95.0591 20.056 95.3924 20.28 95.7665 20.44C96.1405 20.6 96.5389 20.68 96.9618 20.68C97.6285 20.68 98.1896 20.536 98.645 20.248C99.1166 19.944 99.4906 19.512 99.7671 18.952L102.694 20.2Z" fill="black"/>
<path d="M105.474 6.01601H111.377C112.759 6.01601 114.003 6.22401 115.109 6.64001C116.215 7.05601 117.158 7.64801 117.939 8.41601C118.72 9.16801 119.313 10.072 119.72 11.128C120.142 12.184 120.354 13.344 120.354 14.608C120.354 15.888 120.142 17.056 119.72 18.112C119.313 19.168 118.72 20.072 117.939 20.824C117.158 21.576 116.215 22.16 115.109 22.576C114.003 22.992 112.759 23.2 111.377 23.2H105.474V6.01601ZM111.231 20.128C112.19 20.128 113.036 20 113.768 19.744C114.499 19.472 115.109 19.096 115.597 18.616C116.085 18.136 116.451 17.56 116.695 16.888C116.939 16.2 117.061 15.44 117.061 14.608C117.061 13.776 116.939 13.024 116.695 12.352C116.451 11.664 116.085 11.08 115.597 10.6C115.109 10.12 114.499 9.75201 113.768 9.49601C113.036 9.22401 112.19 9.08801 111.231 9.08801H108.767V20.128H111.231Z" fill="black"/>
<path d="M133.789 23.2H130.593V18.424L130.788 16.12H130.593L125.812 23.2H122.616V11.44H125.812V16.216L125.617 18.52H125.812L130.593 11.44H133.789V23.2Z" fill="black"/>
<path d="M135.699 11.44H138.7V12.856H138.895C139.188 12.36 139.643 11.936 140.261 11.584C140.879 11.232 141.643 11.056 142.554 11.056C143.318 11.056 144.042 11.216 144.725 11.536C145.424 11.84 146.034 12.272 146.554 12.832C147.091 13.376 147.514 14.032 147.823 14.8C148.132 15.568 148.286 16.408 148.286 17.32C148.286 18.232 148.132 19.072 147.823 19.84C147.514 20.608 147.091 21.272 146.554 21.832C146.034 22.376 145.424 22.808 144.725 23.128C144.042 23.432 143.318 23.584 142.554 23.584C141.643 23.584 140.879 23.408 140.261 23.056C139.643 22.704 139.188 22.28 138.895 21.784H138.7L138.895 23.464V28.384H135.699V11.44ZM141.895 20.68C142.318 20.68 142.716 20.6 143.091 20.44C143.481 20.28 143.822 20.056 144.115 19.768C144.408 19.48 144.644 19.128 144.822 18.712C145.001 18.296 145.091 17.832 145.091 17.32C145.091 16.808 145.001 16.344 144.822 15.928C144.644 15.512 144.408 15.16 144.115 14.872C143.822 14.584 143.481 14.36 143.091 14.2C142.716 14.04 142.318 13.96 141.895 13.96C141.472 13.96 141.066 14.04 140.676 14.2C140.301 14.344 139.968 14.56 139.675 14.848C139.383 15.136 139.147 15.488 138.968 15.904C138.789 16.32 138.7 16.792 138.7 17.32C138.7 17.848 138.789 18.32 138.968 18.736C139.147 19.152 139.383 19.504 139.675 19.792C139.968 20.08 140.301 20.304 140.676 20.464C141.066 20.608 141.472 20.68 141.895 20.68Z" fill="black"/>
<path d="M160.915 20.368C160.362 21.328 159.614 22.104 158.671 22.696C157.744 23.288 156.606 23.584 155.256 23.584C154.345 23.584 153.499 23.432 152.719 23.128C151.955 22.808 151.288 22.368 150.719 21.808C150.149 21.248 149.702 20.592 149.377 19.84C149.068 19.072 148.913 18.232 148.913 17.32C148.913 16.472 149.068 15.672 149.377 14.92C149.686 14.152 150.117 13.488 150.67 12.928C151.223 12.352 151.873 11.896 152.621 11.56C153.386 11.224 154.223 11.056 155.134 11.056C156.093 11.056 156.947 11.216 157.695 11.536C158.443 11.84 159.069 12.272 159.574 12.832C160.078 13.376 160.46 14.024 160.72 14.776C160.98 15.528 161.11 16.344 161.11 17.224C161.11 17.336 161.11 17.432 161.11 17.512C161.094 17.608 161.086 17.696 161.086 17.776C161.07 17.856 161.062 17.944 161.062 18.04H152.06C152.125 18.52 152.255 18.936 152.451 19.288C152.662 19.624 152.914 19.912 153.207 20.152C153.516 20.376 153.849 20.544 154.207 20.656C154.565 20.752 154.931 20.8 155.305 20.8C156.036 20.8 156.638 20.64 157.11 20.32C157.598 19.984 157.98 19.568 158.256 19.072L160.915 20.368ZM158.012 15.808C157.996 15.6 157.923 15.368 157.793 15.112C157.679 14.856 157.5 14.616 157.256 14.392C157.028 14.168 156.736 13.984 156.378 13.84C156.036 13.696 155.622 13.624 155.134 13.624C154.451 13.624 153.849 13.816 153.329 14.2C152.808 14.584 152.442 15.12 152.231 15.808H158.012Z" fill="black"/>
<path d="M165.81 17.584H165.615V23.2H162.419V11.44H165.615V16.456H165.81L169.664 11.44H173.421V11.632L169.152 16.984L173.689 23.008V23.2H169.933L165.81 17.584Z" fill="black"/>
<path d="M173.437 11.44H184V14.344H180.317V23.2H177.121V14.344H173.437V11.44Z" fill="black"/>
</svg>
