<svg width="35" height="28" viewBox="0 0 35 28" fill="none" xmlns="http://www.w3.org/2000/svg">
<path d="M8.59281 28C6.98603 28 5.65868 27.6782 4.61078 27.0345C3.56287 26.3908 2.68962 25.5326 1.99102 24.4598C1.29242 23.3155 0.768463 22.0281 0.419162 20.5977C0.139721 19.1673 0 17.8799 0 16.7356C0 13.2312 0.873254 10.0128 2.61976 7.08046C4.43613 4.14815 7.19561 1.78799 10.8982 0L11.8413 1.93104C9.74551 2.86079 7.92914 4.29119 6.39222 6.22223C4.85529 8.15326 4.01697 10.1201 3.87725 12.1226C3.73752 13.1954 3.80739 14.1967 4.08683 15.1264C5.34431 13.9106 6.88124 13.3027 8.69761 13.3027C10.7236 13.3027 12.4351 13.9821 13.8323 15.341C15.2295 16.6284 15.9281 18.4163 15.9281 20.705C15.9281 22.8506 15.1946 24.6028 13.7275 25.9617C12.3303 27.3206 10.6188 28 8.59281 28ZM27.6647 28C26.0579 28 24.7305 27.6782 23.6826 27.0345C22.6347 26.3908 21.7615 25.5326 21.0629 24.4598C20.3643 23.3155 19.8403 22.0281 19.491 20.5977C19.2116 19.1673 19.0719 17.8799 19.0719 16.7356C19.0719 13.2312 19.9451 10.0128 21.6916 7.08046C23.508 4.14815 26.2675 1.78799 29.9701 0L30.9132 1.93104C28.8174 2.86079 27.001 4.29119 25.4641 6.22223C23.9271 8.15326 23.0888 10.1201 22.9491 12.1226C22.8094 13.1954 22.8792 14.1967 23.1587 15.1264C24.4162 13.9106 25.9531 13.3027 27.7695 13.3027C29.7954 13.3027 31.507 13.9821 32.9042 15.341C34.3014 16.6284 35 18.4163 35 20.705C35 22.8506 34.2665 24.6028 32.7994 25.9617C31.4022 27.3206 29.6906 28 27.6647 28Z" fill="black"/>
</svg>
